<?xml version="1.0" encoding="UTF-8"?>
<svg width="158px" height="114px" viewBox="0 0 158 114" version="1.1" xmlns="http://www.w3.org/2000/svg" xmlns:xlink="http://www.w3.org/1999/xlink">
    <title>logo</title>
    <g id="Page-1" stroke="none" stroke-width="1" fill="none" fill-rule="evenodd">
        <g id="Promotions" transform="translate(-42.000000, -40.000000)" fill-rule="nonzero">
            <g id="header" transform="translate(42.000000, 40.000000)">
                <g id="Ресурс-2" transform="translate(0.000000, -0.000000)">
                    <path d="M157.998947,74.6328396 C158.029901,75.7590383 157.375975,76.7915581 156.345601,77.2434001 C155.315227,77.695242 154.114222,77.4761509 153.309051,76.6894634 C152.503881,75.9027758 152.255379,74.7056324 152.680753,73.6626784 C153.106128,72.6197245 154.12041,71.9392897 155.245204,71.9423083 C155.968253,71.9275642 156.66696,72.2041002 157.184651,72.7099082 C157.702343,73.2157162 157.995702,73.9084728 157.998947,74.6328396 L157.998947,74.6328396 Z M153.163003,74.6328396 C153.145643,75.2020585 153.361426,75.7536312 153.760256,76.1595007 C154.159086,76.5653701 154.706269,76.7902318 155.274769,76.7818803 C155.828463,76.7798005 156.357936,76.5542104 156.743452,76.1561247 C157.128969,75.7580389 157.337966,75.2210829 157.323182,74.6666828 C157.323182,73.5195189 156.394731,72.5895588 155.249428,72.5895588 C154.104125,72.5895588 153.175673,73.5195189 153.175673,74.6666828 L153.163003,74.6328396 Z M154.831298,76.0796347 L154.210439,76.0796347 L154.210439,73.3891035 C154.550336,73.3270032 154.895524,73.2986631 155.240981,73.3044956 C155.564725,73.2795501 155.888789,73.3485806 156.174381,73.5033241 C156.346651,73.649061 156.443077,73.8655934 156.43624,74.091349 C156.412184,74.4004251 156.186329,74.6560045 155.882957,74.7174475 L155.882957,74.7132171 C156.152384,74.8272858 156.339599,75.0778497 156.372887,75.3689284 C156.398688,75.6045091 156.465892,75.8336608 156.571393,76.0457916 L155.895628,76.0457916 C155.793376,75.8373458 155.722226,75.6149952 155.684451,75.3858499 C155.633769,75.0939527 155.473275,74.9628104 155.126945,74.9628104 L154.831298,74.9628104 L154.831298,76.0796347 Z M154.831298,74.5524621 L155.126945,74.5524621 C155.469051,74.5524621 155.747804,74.4382414 155.747804,74.1590354 C155.747804,73.8798293 155.570416,73.7359959 155.177628,73.7359959 C155.061257,73.7335805 154.945008,73.7449402 154.831298,73.769839 L154.831298,74.5524621 Z" id="Shape" fill="#000000"></path>
                    <path d="M4.980882,87.3560405 C5.66714565,87.3560405 6.38133863,87.186654 7.06760228,87.186654 L7.22320858,87.186654 C8.52790749,87.186654 9.36977744,86.9621185 9.36977744,86.1979098 C9.36977744,85.5439992 9.30593896,84.8940279 9.30593896,84.2282997 C9.30593896,83.7477149 9.36977744,83.26713 9.36977744,82.7865452 L9.36977744,82.1365739 C9.36977744,81.029653 9.5852323,79.8990969 9.5852323,78.7370269 C9.5852323,76.7674169 9.61715154,74.8568952 9.61715154,72.903042 L9.61715154,72.7612301 C9.61715154,71.6582485 11.6400334,71.8552095 13.1003386,71.8552095 C14.6524116,71.8552095 14.29731,79.2767001 14.29731,79.5878985 C14.29731,83.8343777 14.2653908,88.1399453 13.9860975,92.0476516 C13.9541782,92.3864245 13.9541782,92.6976229 13.9541782,93.0363958 L13.9541782,94.0330185 C13.9541782,94.7696527 13.8903397,95.5062868 13.8903397,96.242921 L13.8903397,97.7713384 C13.8903397,99.8394289 14.045946,99.9221525 10.5029104,100.292439 C9.88048527,100.292439 9.78871746,100.205776 9.63311116,99.4691422 C9.56927268,97.8934542 9.50676417,96.3085746 9.44558563,94.7145036 C9.44558563,94.257554 9.47750487,93.808483 9.47750487,93.3515334 C9.47750487,92.2209773 9.69295974,91.2834429 8.16881605,91.2834429 C6.57285407,91.3425312 4.50209341,91.1455702 4.50209341,92.2209773 C4.50209341,92.4179383 4.53002274,92.5873247 4.53002274,92.788225 L4.53002274,93.576069 C4.53002274,94.5372387 4.71754827,95.545679 4.71754827,96.4910918 C4.71754827,97.4365046 4.96492238,98.5040333 3.87966823,98.6458452 C2.91411124,98.7876571 1.73309937,99.268242 0.767542378,99.268242 C-0.198014618,99.268242 0.0214301535,96.1798934 0.0214301535,95.7229439 C0.0214301535,94.1945265 0.240874925,92.7212582 0.240874925,91.1928408 C0.240874925,90.4286321 0.177036446,89.6171528 0.177036446,88.8293088 C0.177036446,88.3762985 0.240874925,87.9232882 0.240874925,87.4702778 C0.240874925,87.1039304 0.208955686,86.7336437 0.208955686,86.3672962 C0.208955686,85.3470382 0.240874925,84.3267802 0.240874925,83.3065222 L0.240874925,81.4669064 C0.240874925,79.3712414 -0.257863193,73.36787 0.98698715,73.0015225 C1.55799218,72.8348206 2.15113651,72.7538179 2.74653523,72.7612301 C3.58441527,72.7612301 4.36244673,72.7336555 4.36244673,73.4151406 C4.36244673,74.0966257 4.54598236,74.7741715 4.54598236,75.4241428 C4.54598236,75.9323022 4.42229531,76.4719754 4.42229531,76.9998309 C4.42229531,79.8912184 4.51805303,82.8062413 4.51805303,85.6936896 C4.51805303,86.004888 4.48613379,86.3476001 4.48613379,86.6587985 C4.47999734,86.8379665 4.49068273,87.0173105 4.51805303,87.1945324 C4.6425962,87.310758 4.80969893,87.3719143 4.980882,87.3639189 L4.980882,87.3560405 Z M30.6040515,88.045404 C30.6040515,89.7707824 30.7596578,91.5276745 30.7596578,93.2569921 C30.7596578,95.8332421 31.0708704,98.8073532 28.4574827,99.8827603 C26.732901,100.663706 24.8524154,101.05145 22.9554038,101.017256 C17.8563053,101.017256 17.3695368,98.0707191 16.6433741,90.5940794 C16.5156972,89.4871585 16.1765553,88.5535634 16.2084745,87.4427033 C16.2084745,85.7448995 16.3600909,83.9880073 16.3600909,82.2902034 C16.3600909,81.29752 16.3281717,80.3205934 16.2683231,79.3436668 C16.2683231,75.4911096 15.9890297,70.988581 22.3010594,70.988581 L22.4247464,70.988581 C23.3264649,70.988581 24.2601027,70.8467691 25.1618212,70.8467691 C30.3247582,70.8467691 30.3486976,75.4911096 30.6958194,82.7117 L30.66789,82.7117 C30.66789,84.4961667 30.6040515,86.2569981 30.6040515,88.0375255 L30.6040515,88.045404 Z M26.2151561,88.7741597 C26.0914691,85.2052263 25.9039435,81.6362929 25.716418,78.0988733 C25.5927309,76.7398424 25.3772761,74.6717518 23.8212131,74.6717518 C20.3699454,74.6717518 21.2397446,76.7083286 20.9923705,78.6936955 C20.9193916,79.2951875 20.878107,79.9000161 20.8686835,80.5057367 C20.8686835,82.7983628 20.804845,85.3746128 21.1798961,87.5963329 L21.1798961,87.7657194 C21.1798961,88.277818 20.9604513,88.7308283 20.9604513,89.2665622 C20.9604513,91.9846241 20.3061069,96.4320035 23.0751009,96.4320035 C25.4052054,96.4320035 26.3069239,95.384171 26.3069239,93.2333568 C26.3069239,91.732514 26.2151561,90.2592457 26.1832369,88.7584028 L26.2151561,88.7741597 Z M46.4599338,89.6998764 C46.4599338,84.5473766 46.2125597,79.2806393 45.9332663,74.3369181 C45.9013471,73.8563333 45.7457408,73.2575718 45.7457408,72.8360753 C45.7457408,71.6188563 48.7940282,71.9852037 49.4763019,71.9852037 C50.9086778,71.9852037 50.7530715,77.05498 50.7530715,78.0476634 C50.8448393,80.2536267 51.0004456,82.4911037 51.0004456,84.7010061 C51.0004456,85.4888501 50.9086778,86.2569981 50.9086778,87.0212068 C50.9086778,88.636287 51.0004456,90.1725828 51.0004456,91.6655472 C51.0004456,93.9305988 50.6293845,96.1680758 50.6293845,98.4370665 C50.4737782,100.107296 50.7211523,100.162445 47.4893293,100.162445 C46.2923578,100.162445 44.9078608,100.556367 44.0061423,100.556367 C42.8530597,100.556367 41.3927545,94.3836091 40.8620972,92.6582307 C39.6651257,88.8056735 38.8671447,85.1737125 37.9414867,81.2344925 C37.8926024,80.8366167 37.7430387,80.4572969 37.5065871,80.1315108 C37.0397682,81.2108571 37.1953745,82.8219982 37.1953745,83.5586323 C37.1953745,84.1810291 37.0676976,84.8900887 37.0676976,85.5676346 C37.0676976,89.5344292 37.5983549,93.9502949 37.722042,97.3852948 C37.722042,99.1146124 38.1210325,100.020633 34.0513294,100.020633 C33.0897623,99.9615447 33.1815301,96.0814129 33.1815301,95.7150655 C33.1815301,91.4685862 33.0259238,86.8242458 32.810469,82.6604901 C32.810469,82.3492917 32.8423882,82.0380934 32.8423882,81.7544695 C32.810469,80.9311725 32.7785497,80.1393893 32.7785497,79.3200315 C32.7785497,78.5006737 32.8703176,77.8191887 32.8703176,77.05498 C32.8703176,75.7235236 32.7785497,74.2975259 32.7147113,72.9187989 C32.7147113,71.8709663 36.1061305,71.8984719 36.7884042,71.8984719 C37.6621934,71.8984719 38.3125479,72.3515512 38.9349731,72.3515512 C39.9324493,72.3515512 40.491036,75.2389995 40.9578549,76.7713561 C42.0267904,80.3661612 43.3138661,83.8942004 44.8121031,87.3363444 C45.1233156,88.0178294 45.610084,91.3582881 46.3043275,91.3582881 C46.4220837,90.8187802 46.4743206,90.2673429 46.4599338,89.7156333 L46.4599338,89.6998764 Z M57.8391427,76.519246 C57.8391427,76.913168 57.9349004,77.30709 57.9349004,77.7010121 C57.9349004,78.7764191 57.6516172,79.9384891 57.6516172,81.0138961 C57.6324124,81.1507803 57.6781107,81.2887714 57.7755131,81.3880138 C57.8729155,81.4872562 58.0111739,81.5366967 58.1503553,81.5220555 C58.8046997,81.5220555 59.4869734,81.4117574 60.1692472,81.4117574 C62.5033416,81.4117574 62.9621806,81.1281335 62.9621806,84.752216 C62.9621806,86.5366827 57.4561118,85.146138 57.4561118,86.5642572 C57.4561118,87.6396643 57.5837888,88.7150714 57.5837888,89.7629039 L57.5837888,91.6064589 C57.5837888,93.075788 58.078537,94.4387582 58.078537,95.8805127 C58.2341433,96.7865333 60.5363184,96.5895723 61.2185922,96.5895723 C62.9621806,96.5895723 63.6125351,96.4201859 63.6125351,98.6852374 C63.6125351,99.4730814 63.6125351,100.158506 62.99011,100.213655 C62.6150589,100.213655 62.3357656,100.130931 61.9926337,100.130931 C61.1547537,100.130931 60.3168737,100.327892 59.4430845,100.327892 C59.2776747,100.332574 59.1121614,100.323349 58.9483363,100.300318 C57.7513648,100.300318 56.6142419,100.524853 55.43323,100.524853 C54.4397437,100.524853 53.7853993,100.611516 53.7215608,99.8157936 C53.6577223,99.0200711 53.5061059,98.2873762 53.5061059,97.550742 C53.5294319,97.3441211 53.5387624,97.1361933 53.5340353,96.9283453 C53.5340353,96.3650368 53.4741867,95.7977891 53.4741867,95.2305414 C53.4741867,94.5490563 53.5340353,93.8715105 53.5340353,93.1900254 C53.5340353,92.5952032 53.4103482,91.9728064 53.4103482,91.3779842 C53.4103482,91.0116367 53.4422674,90.7280129 53.4422674,90.3853007 C53.4422674,85.0082653 53.043277,79.6824398 53.043277,74.4157025 C53.043277,73.9902667 53.0712063,73.564831 53.0712063,73.1393952 C53.0712063,72.7139594 53.0113577,72.4342748 53.0113577,72.0639881 C53.0113577,71.1894813 55.6247455,70.988581 56.9613636,70.988581 C57.7393951,70.988581 58.5134366,71.130393 59.2914681,71.130393 C59.9138933,71.130393 60.5682377,71.1028184 61.2185922,71.1028184 L62.0165732,71.1028184 C63.1656658,71.1028184 62.9821302,73.0015225 62.9821302,74.2541945 C62.9821302,75.5068665 61.8330375,75.2153642 60.9273291,75.2153642 C60.7118743,75.2153642 60.5283386,75.1877896 60.1812169,75.1602151 C58.9403565,75.1602151 57.8191932,74.7072048 57.8191932,76.519246 L57.8391427,76.519246 Z M80.114782,83.2159202 C80.114782,86.2451804 79.4285183,91.2558683 76.4440694,92.0515908 C75.6979572,92.2485518 74.449117,92.2761263 74.449117,93.0127605 C74.449117,95.5062868 74.7284103,98.0549622 74.7284103,100.461826 C74.7284103,101.734194 74.2935107,101.820857 72.6137607,101.820857 C71.7439614,101.820857 70.4671918,101.935094 70.4073433,100.99756 C70.2836562,99.3824794 70.1280499,97.7713384 70.1599692,96.1562581 L70.1599692,94.3442169 C70.1599692,91.9806848 69.9724436,93.5209199 66.3655696,91.4252548 C64.8414259,90.5468087 65.0289514,87.5214877 65.0289514,85.7921701 C65.0289514,85.0555359 65.1207192,84.2913272 65.1207192,83.5546931 C65.1207192,83.2159202 65.0888,82.9047218 65.0888,82.5620096 C65.0888,81.7978009 65.1805678,80.9863216 65.1805678,80.2693835 C65.1805678,80.1275716 65.1526385,79.9857597 65.1526385,79.8439478 C65.1526385,78.7409662 65.3680933,77.6064708 65.4319318,76.4759146 C65.4319318,75.2271818 65.3680933,73.9823883 65.3680933,72.7375948 C65.3680933,72.115198 65.4917804,71.7724858 66.0822863,71.7724858 C67.2034496,71.7724858 68.2926936,71.7449113 69.3819377,71.7449113 C69.9724436,71.7449113 70.0961307,71.9733861 70.0961307,72.4539709 C69.9932728,73.2704911 69.9519302,74.0934218 69.9724436,74.9159835 L69.9724436,75.4832311 C69.9724436,78.3706795 69.6931503,80.8642058 69.6931503,83.5271185 C69.7210796,84.0352779 69.7529989,84.5158628 69.7529989,85.0279614 C69.7529989,85.6779327 69.6931503,86.327904 69.6931503,86.9975714 C69.6931503,88.5732595 71.4646681,88.8923363 72.769367,88.8923363 C74.6366425,88.8923363 75.1034614,88.045404 75.1034614,86.5721357 C75.1034614,84.2086036 75.0116936,81.8726461 75.0116936,79.5485063 C75.0071197,79.2934599 75.0164429,79.0383552 75.0396229,78.7842976 C75.0396229,76.519246 74.6047233,74.084808 74.6047233,71.9024801 C74.6047233,70.9964595 77.1223533,71.3076579 78.3991229,71.3076579 C79.4883669,71.3076579 79.735741,75.9244238 79.9551858,77.0864937 C80.2025599,78.5006737 80.1107921,79.8912184 80.1107921,81.2778239 L80.114782,83.2159202 Z M94.0435402,87.7184487 C96.0025835,87.7184487 95.4719261,90.1528867 95.7512195,91.2834429 C95.8504336,92.0345613 95.902402,92.7910285 95.9068258,93.5484944 C95.9068258,95.9120265 96.2180384,98.2755585 94.0435402,99.697617 C92.6430835,100.375163 91.1508591,101.273305 89.1918157,101.273305 C85.3056483,101.273305 83.2827665,101.218156 82.381048,95.2423591 C82.2837456,94.6800581 82.2317141,94.1110305 82.2254417,93.540616 L82.2254417,93.2294176 C82.2254417,88.8962755 81.7905421,84.878271 81.7905421,82.1996014 C81.7905421,82.0577895 81.8224613,81.9435521 81.8224613,81.8056794 C81.8224613,81.494481 81.7267036,81.1832826 81.7267036,80.8996588 C81.7267036,79.7178927 82.0698354,78.4927953 82.1017547,77.3031508 C82.1935225,74.0454158 83.3745343,72.150651 87.8551976,71.524315 C88.381865,71.3549285 89.4711091,71.4691659 90.1533828,71.4691659 C93.4849535,71.4691659 96.1382403,73.1393952 96.1382403,78.7212701 C96.1382403,79.3436668 95.7631892,79.5682024 94.7976322,79.5682024 C94.426571,79.5682024 94.0555099,79.5406278 93.6804588,79.5406278 L92.5832349,79.5406278 C91.3383846,79.5406278 91.1189398,79.4815395 91.1189398,76.3419811 C91.1189398,75.5777724 90.3209588,74.9514364 89.4711091,74.9514364 C87.1410046,74.9514364 86.454741,75.3768722 86.454741,78.4967345 C86.454741,81.4708457 86.6741857,84.5867688 86.6741857,87.6436035 C86.6741857,88.4314475 86.578428,89.2192916 86.578428,90.0071356 C86.578428,93.3475942 86.0517606,97.3971124 89.1279773,97.3971124 C91.0590913,97.3971124 91.7094458,96.8022902 91.7094458,93.9148419 C91.7094458,91.5513099 91.8650521,92.2446126 88.7569161,91.6222158 C87.6995913,91.4213156 88.1983294,90.2040966 87.7913591,88.9868776 C87.7683037,88.9035397 87.7588753,88.8171017 87.7634298,88.7308283 C87.7634298,87.3166483 91.8650521,87.7972331 91.6495972,87.7972331 L91.6495972,87.8248077 C92.4475782,87.7972331 93.2655087,87.742084 94.0754594,87.742084 L94.0435402,87.7184487 Z M102.374462,76.0465396 C102.374462,76.6137873 102.282694,77.1770958 102.282694,77.7443435 C102.282694,79.0167116 102.466229,80.3205934 102.466229,81.5969007 C102.466229,83.0386553 102.4383,84.4291999 102.4383,85.898529 C102.4383,86.4933513 102.466229,87.0802951 102.466229,87.6554212 C102.466229,87.8523822 102.4383,88.0493432 102.4383,88.277818 C102.4383,91.035272 102.905119,93.8281791 102.905119,96.5501801 C102.933048,96.8062294 103.152493,96.9204668 103.495625,96.9204668 C104.864162,96.9204668 106.22871,96.6644175 107.537399,96.6092684 C108.594723,96.6092684 108.654572,99.6109541 108.654572,99.7803406 C108.654572,100.713936 105.111536,100.828173 104.521031,100.828173 C102.964968,100.828173 98.9551131,100.914836 98.7995069,100.119114 C98.4505029,98.4337988 98.2727361,96.7183017 98.2688495,94.9981274 L98.2688495,94.4033052 C98.2688495,94.1196813 98.2369303,93.8360575 98.2369303,93.5524337 C98.2369303,93.0994233 98.3007687,92.6188385 98.3007687,92.1658282 C98.3007687,91.7128179 98.205011,91.1455702 98.205011,90.6374108 C98.205011,90.015014 98.2688495,89.3611035 98.2688495,88.7387067 C98.2688495,87.2102893 98.0533946,85.6818719 98.0533946,84.1495153 C98.0533946,83.3301575 98.081324,82.479286 98.081324,81.6599282 C98.081324,81.1517688 98.0533946,80.6396702 98.0533946,80.0842402 C98.0533946,79.5288102 98.081324,79.0639822 98.081324,78.5085522 L98.081324,76.3853125 C98.081324,75.3650545 98.081324,74.317222 97.9894783,73.2693895 C97.9894783,72.5642691 97.9576369,71.9379227 99.1865276,71.9379227 C101.704158,71.9379227 102.326583,71.9103585 102.326583,74.6953871 C102.326583,74.7229617 102.326583,74.7229617 102.298653,74.7229617 C102.326583,75.1483974 102.390421,75.5738332 102.390421,75.999269 L102.374462,76.0465396 Z M124.155353,88.0335863 C124.155353,89.7589647 124.310959,91.5158569 124.310959,93.2451745 C124.310959,95.8214244 124.622172,98.7955356 122.008784,99.8709427 C120.284202,100.651888 118.403717,101.039633 116.506705,101.005438 C111.407606,101.005438 110.920838,98.0589014 110.194675,90.5822617 C110.066998,89.4753409 109.727856,88.5417457 109.759776,87.4308856 C109.759776,85.7330818 109.915382,83.9761896 109.915382,82.2783858 C109.915382,81.2857023 109.883463,80.3087757 109.819624,79.3318492 C109.819624,75.4792919 109.540331,70.9767634 115.852361,70.9767634 L115.980038,70.9767634 C116.877766,70.9767634 117.811404,70.8349515 118.713122,70.8349515 C123.876059,70.8349515 123.899999,75.4792919 124.25111,82.6998823 L124.219191,82.6998823 C124.219191,84.484349 124.155353,86.2451804 124.155353,88.0257079 L124.155353,88.0335863 Z M119.766457,88.762342 C119.64277,85.1934086 119.455245,81.6244753 119.271709,78.0870556 C119.144032,76.7280247 118.928577,74.6599342 117.372514,74.6599342 C113.921247,74.6599342 114.791046,76.6965109 114.543672,78.6818779 C114.470693,79.2833698 114.429408,79.8881984 114.419985,80.4939191 C114.419985,82.7865452 114.356146,85.3627951 114.731197,87.5845152 L114.731197,87.7539017 C114.731197,88.2660003 114.511753,88.7190106 114.511753,89.2547445 C114.511753,91.9728064 113.857408,96.4201859 116.626402,96.4201859 C118.960497,96.4201859 119.862215,95.3723533 119.862215,93.2215392 C119.862215,91.7206963 119.766457,90.247428 119.734538,88.7465852 L119.766457,88.762342 Z M143.023613,93.0639704 C143.023613,92.2446126 142.995684,91.393741 142.995684,90.5743833 C142.995684,88.080857 143.119371,85.646419 143.243058,83.1528926 C143.274977,82.3886839 143.430584,81.5969007 143.430584,80.7893606 C143.430584,78.3549226 143.334826,75.8338217 143.15129,73.36787 C143.114206,73.1344864 143.09288,72.8989268 143.087452,72.6627496 C143.087452,71.5558287 145.732759,71.95369 146.973619,71.95369 C148.314227,72.0364136 148.030944,76.0032082 148.030944,77.2480017 C147.875338,79.5406278 147.596044,81.8096186 147.596044,84.1298192 C147.596044,84.7246415 147.627964,85.2918891 147.627964,85.8867114 C147.627964,88.0375255 147.536196,90.1607652 147.536196,92.2840048 C147.536196,93.6469749 147.564125,94.9744921 147.564125,96.3059485 C147.564125,96.959859 147.412509,97.6374049 147.412509,98.2755585 C147.412509,98.4764587 147.440438,98.6458452 147.440438,98.8428062 C147.440438,99.9773016 146.167658,100.024572 145.046495,100.024572 C144.799121,100.024572 144.579676,99.9694232 144.332302,99.9694232 C143.554271,99.9694232 142.776239,100.166384 142.062046,100.166384 C139.947397,100.166384 138.610778,93.9936263 137.334009,92.2643087 C137.284649,92.2138833 137.21746,92.1842439 137.146483,92.1815851 C136.587897,92.1815851 135.841784,95.3329611 135.470723,96.2862524 C134.848298,97.7870952 133.874761,101.159068 132.733648,101.159068 C131.935667,101.159068 131.113747,101.269366 130.307786,101.269366 C128.440511,101.269366 126.577225,101.497841 126.577225,100.166384 C126.577225,98.3543429 126.700912,96.6210861 126.700912,94.7854095 C126.605154,90.479842 126.266012,85.9221644 126.266012,81.5338732 C126.266012,81.2502493 126.293942,80.939051 126.293942,80.6554271 C126.293942,80.4584661 126.266012,80.2615051 126.266012,80.0606049 C126.266012,77.9373653 126.665003,75.6723137 126.665003,73.5490741 C126.665003,73.4624112 126.633084,73.4072622 126.633084,73.3205993 C126.596391,73.0578844 126.679174,72.7925895 126.859249,72.5958075 C127.039324,72.3990256 127.298279,72.2908764 127.566721,72.3003413 C128.093389,72.3003413 128.624046,72.3279159 129.182633,72.3279159 C129.617533,72.3279159 130.052432,72.3003413 130.487332,72.3003413 C131.329202,72.3003413 131.544657,72.5839652 131.544657,73.0881853 C131.544657,73.4821073 131.484808,73.8563333 131.484808,74.2502553 C131.484808,74.9041658 131.608495,75.5817117 131.608495,76.2631967 C131.608495,77.5355648 131.516727,78.8670212 131.516727,80.170903 C131.544657,80.4545269 131.544657,80.7342115 131.544657,81.0217746 C131.544657,81.7544695 131.484808,82.5186782 131.484808,83.2553124 C131.484808,83.6492344 131.576576,84.0195211 131.576576,84.3898077 C131.576576,87.3914934 131.205515,90.5349911 131.205515,93.4500139 C131.205515,94.0172616 131.237434,95.4905299 131.604505,95.4905299 C132.629911,95.4905299 133.998448,89.6841195 134.397439,88.1281276 C134.796429,86.5721357 134.680722,84.5828295 136.204866,84.5828295 C137.166433,84.5828295 138.598809,84.4134431 138.910021,85.1776518 C139.88852,87.8495072 141.052339,90.4516165 142.393208,92.9654899 C142.490152,93.1939187 142.650615,93.3905842 142.856037,93.5327375 C142.977668,93.3907698 143.034035,93.2052645 143.011644,93.0206389 L143.023613,93.0639704 Z" id="Shape" fill="#000000"></path>
                    <path d="M78.4344632,58.6601942 L78.4705153,58.6601942 C79.8965795,56.8761592 81.8754437,55.7068931 86.4821115,54.6420974 C90.4238168,53.7179352 94.4456381,52.878153 95.3669716,47.1604013 C100.266063,49.0529249 109.383259,47.9600026 113.485196,38.9715202 C120.190902,24.2773404 112.475735,9.91666273 103.006029,5.92669268 C99.7252799,4.5444674 93.6605016,2.47916568 85.737033,5.12307333 C84.4533591,4.39083458 82.9433369,4.16585694 81.5029045,4.49223215 C81.5870262,2.72828768 79.2396286,0.667004057 78.4424747,0 C77.6413151,0.667004057 75.3019291,2.72828768 75.3860508,4.49223215 C73.9456332,4.16546218 72.4354677,4.39046116 71.1519223,5.12307333 C63.2284537,2.47514759 57.1636754,4.54044931 53.8829267,5.92669268 C44.4212317,9.90862654 36.7020588,24.2693043 43.4117706,38.9715202 C47.5177136,47.9680388 56.654939,49.0609611 61.5179779,47.1282566 C62.4433172,52.8460082 66.4651385,53.6857904 70.402838,54.6099527 C75.0295348,55.6948388 77.0043932,56.8641049 78.4344632,58.6280494 L78.4344632,58.6280494 L78.4344632,58.6601942 Z" id="Path" fill="#048159"></path>
                    <path d="M97.4523276,50.895708 C97.4676922,50.4035388 97.8754631,50.0153438 98.3669306,50.0250124 C98.8583981,50.034681 99.2506392,50.4386146 99.2467011,50.9310086 C99.242763,51.4234026 98.8441115,51.8209889 98.3525524,51.8227683 C98.1086247,51.8252481 97.8743302,51.7275271 97.7042393,51.5523658 C97.5341484,51.3772046 97.4431098,51.1398943 97.4523276,50.895708 Z M98.3525524,52.0194175 C98.9583173,52.0101042 99.4436293,51.5139046 99.4405448,50.9070318 C99.4374309,50.3001591 98.9470764,49.8089592 98.3412481,49.8058399 C97.7354199,49.8027501 97.2400743,50.2888988 97.2307731,50.895708 C97.2299901,51.1926946 97.3483796,51.4775393 97.5593344,51.6862164 C97.7702893,51.8948934 98.0561104,52.0098948 98.3525524,52.0053711 L98.3525524,52.0194175 Z M98.119784,50.9968419 L98.3413347,50.9968419 L98.6778673,51.5586966 L98.8966135,51.5586966 L98.5320365,50.9968419 C98.623053,50.9961918 98.7098555,50.958331 98.7723356,50.8920304 C98.8348157,50.8257298 98.8675518,50.7367423 98.8629603,50.6456827 C98.8629603,50.392848 98.714325,50.2804771 98.4114457,50.2804771 L97.9262778,50.2804771 L97.9262778,51.5390317 L98.119784,51.5390317 L98.119784,50.9968419 Z M98.119784,50.833904 L98.119784,50.4153222 L98.3862057,50.4153222 C98.5208188,50.4153222 98.6666496,50.4462242 98.6666496,50.6035436 C98.6666496,50.803002 98.5208188,50.8142391 98.3553569,50.8142391 L98.119784,50.833904 Z" id="Shape" fill="#FFD100"></path>
                    <path d="M78.9840361,10.4468497 C88.3947786,3.71330678 97.8773589,5.30075872 102.131749,7.07401927 C113.031129,11.6344092 118.375058,27.109036 112.4684,38.5120305 C107.56747,47.9761523 98.6835378,47.1400135 95.2193629,45.8110779 C94.3413462,51.2843537 90.6057843,52.4759524 86.2356557,53.3605631 C81.8655272,54.2451737 80.3529439,54.7379705 79,56.4466019 C77.6430651,54.7379705 76.1783736,54.249213 71.7643443,53.3605631 C67.3503149,52.4719131 63.6586538,51.2843537 62.7806371,45.8110779 C59.3124712,47.1400135 50.4325297,47.9761523 45.5316001,38.5120305 C39.6249424,27.109036 44.9688712,11.6344092 55.8682512,7.07401927 C60.0907133,5.30075872 69.5732935,3.71330678 78.9840361,10.4468497 Z" id="Path" fill="#FFD100"></path>
                    <path d="M78.4475524,7.74757282 C76.7033005,6.92299531 74.8526518,6.22963148 72.9230769,5.6777735 C73.7934837,5.55237957 74.6816686,5.50873612 75.5667387,5.54786978 C76.1082707,5.54329627 76.6264124,5.71148602 76.9896507,6.00974968 C77.7827493,6.53802482 78.4475524,7.74757282 78.4475524,7.74757282 Z" id="Path" fill="#FFD100"></path>
                    <path d="M79.5524476,7.74757282 C81.2966995,6.92299531 83.1473482,6.22963148 85.0769231,5.6777735 C84.2065163,5.55237957 83.3183314,5.50873612 82.4332613,5.54786978 C81.8906846,5.54358417 81.371498,5.71165392 81.0064615,6.00974968 C80.2172507,6.53802482 79.5524476,7.74757282 79.5524476,7.74757282 Z" id="Path" fill="#FFD100"></path>
                    <path d="M78.447437,2.21359223 L78.447437,2.21359223 L79.1461247,3.40502087 C79.8013385,4.51839038 79.5529162,5.43455792 79.1771775,6.28088308 C78.9613663,6.79273062 78.7174649,7.28294272 78.447437,7.74757282 L78.447437,7.74757282 C78.177409,7.28294272 77.9335076,6.79273062 77.7176964,6.28088308 C77.3388524,5.45920816 77.0966406,4.53071551 77.7487492,3.40502087 L78.447437,2.21359223 L78.447437,2.21359223 L78.447437,2.21359223 Z" id="Path" fill="#FFD100"></path>
                    <path d="M79.012045,13.5696824 L78.9802034,13.5696824 C90.3396979,5.02662349 105.428641,5.43613889 110.93724,17.7986384 C114.017915,24.6914719 113.213915,34.4225309 107.295355,38.7041969 C103.561927,41.4045658 100.958875,42.1506136 94.6383153,40.6869002 C94.3198992,46.0024912 91.8521744,47.328348 85.9216745,48.2284709 C83.342504,48.6339317 81.0936903,48.7474607 79.0001044,50.9126214 L79.0001044,50.9126214 C76.9065185,48.7474607 74.6577048,48.6177133 72.0785344,48.2284709 C66.140074,47.328348 63.6803096,46.0024912 63.3618935,40.6869002 C57.0413339,42.1506136 54.4382822,41.4045658 50.7008732,38.7041969 C44.7862941,34.4265855 43.9822934,24.711745 47.0629692,17.7986384 C52.5715678,5.43613889 67.6804119,5.02662349 79.0200054,13.5696824 L79.0200054,13.5696824 L79.012045,13.5696824 Z" id="Path" fill="#E1251B"></path>
                    <path d="M52.2983683,21.5314633 L49.9420104,22.7856086 L49.9420104,29.8968325 C49.9420104,30.8649446 49.2993673,31.6570364 48.9385852,32.0970874 L52.7869274,32.0970874 C54.5307074,32.0970874 56.3496503,31.5822277 56.3496503,28.0706209 L56.3496503,23.1508509 C56.3496503,20.1805067 54.7599543,18.7767441 52.5915037,18.8163487 C51.5251935,18.8202621 50.4621435,18.9544712 49.419628,19.2167951 L48.6153846,22.1123306 C49.6717688,21.7163706 50.759654,21.4465658 51.8624233,21.3070373 C52.035298,21.3070373 53.982018,20.8669863 53.982018,23.2916672 L53.982018,28.132228 C53.982018,29.892432 52.8921555,29.70321 52.2983683,29.712011 L52.2983683,21.5314633 L52.2983683,21.5314633 Z" id="Path" fill="#FFFFFF"></path>
                    <path d="M58.587284,25.6351969 C58.587284,25.1741821 58.6129973,24.7631106 58.6460572,24.4826599 C58.6901371,24.098481 58.7672769,23.7834542 59.5276552,23.330123 C59.7811146,23.1802932 60.6296526,22.7039113 61.4010509,22.3350994 C62.0329853,21.940961 62.850368,22.1495491 63.2377133,22.8037978 C63.4763541,23.147713 63.6900057,23.5098562 63.8768718,23.8871825 C64.2562865,24.6036634 64.1029254,25.5002685 63.5095393,26.034743 C62.7013248,26.9220815 61.8145395,27.7273335 60.8610721,28.4397035 C60.8610721,29.2772136 61.5296172,29.4846703 61.8712364,29.6229747 C62.4363109,29.8506629 63.0187674,30.0280159 63.6123924,30.1531417 L62.3818286,32.0970874 C60.3210934,31.4516667 60.0198807,31.1750578 59.5790817,30.9099743 C59.0000587,30.5714041 58.6405985,29.9325901 58.6387106,29.2387957 C58.6056506,28.8776675 58.5395308,27.022083 58.5652441,25.6428805 L58.587284,25.6351969 Z M60.769239,27.3447934 C61.1005946,27.0635314 61.4112545,26.7566032 61.6985902,26.4266056 C62.352442,25.6582476 61.5479839,24.4365585 61.2835045,24.1599496 C61.0190251,23.8833407 60.769239,23.9832273 60.769239,24.371248 L60.769239,27.3447934 Z" id="Shape" fill="#FFFFFF"></path>
                    <path d="M67.3951486,18.815534 L65.1888112,20.0351402 L65.1888112,28.7693646 C65.1888112,29.9889708 65.4236014,30.6302071 66.0278409,31.1708572 C66.4501413,31.5216542 66.894636,31.831363 67.3571678,32.0970874 L68.5034965,30.0015441 C67.9234266,29.6201552 67.3813374,29.3896454 67.3813374,28.2370966 C67.3916958,27.5413763 67.3951486,18.815534 67.3951486,18.815534 Z" id="Path" fill="#FFFFFF"></path>
                    <path d="M75.0379682,31.6190671 L77.6897164,31.6190671 L77.6897164,21.5806402 C77.6897164,21.5806402 77.9581449,21.3987387 78.169634,21.2760609 C78.3551847,21.1634867 78.5860442,21.1700176 78.7654373,21.292916 C78.9448304,21.4158145 79.0417588,21.633844 79.0155905,21.8556077 L79.0155905,29.1951233 C78.9626643,29.8714978 79.2187858,30.534356 79.7069973,30.9845268 C79.8290103,31.1114348 80.1747136,31.4075536 80.2194517,31.4329352 C80.5257054,31.6854 80.8538377,31.9077386 81.1996225,32.0970874 L82.8671329,30.0961704 C82.3668797,29.7873609 81.6876743,29.584308 81.6876743,28.4040631 C81.6876743,28.4040631 81.6876743,21.8217655 81.6876743,21.0645475 C81.6876743,20.379244 81.6876743,20.3327111 81.2809644,19.8673815 C80.9904839,19.5589846 80.6590405,19.2954431 80.2967266,19.0847819 C79.6744605,18.6913669 79.1457377,18.7505907 78.4177271,19.1228543 C78.043554,19.3132164 77.5595693,19.5458811 77.2382685,19.7362432 C76.9360356,19.4813139 76.6135818,19.2534747 76.2743661,19.05517 C75.9652666,18.8648079 75.4202754,18.6321432 74.5214467,19.1566965 L73.3013171,19.8969934 C72.8203498,19.496893 72.2806759,19.1798085 71.7029474,18.9578738 L69.6083916,20.7472774 L70.4218113,21.1703042 C71.1213523,21.5383375 71.1172852,21.4537322 71.1172852,22.3928517 L71.1172852,31.6148368 L73.7690334,31.6148368 L73.7690334,21.5552586 C73.8422412,21.5087257 74.122871,21.3225939 74.2692865,21.2379885 C74.452575,21.1438346 74.6704546,21.1599346 74.8391046,21.2800947 C75.0077547,21.4002548 75.1008999,21.6057543 75.0827063,21.8175353 L75.0827063,31.6148368 L75.0379682,31.6190671 Z" id="Path" fill="#FFFFFF"></path>
                    <path d="M85.5455807,27.2446514 L85.5455807,24.5863965 C85.5402727,24.4196387 85.6454556,24.2665006 85.8117356,24.1988958 C86.1412607,24.0245205 86.2342037,24.1368957 86.4961339,24.3655211 C86.6937393,24.490706 86.8083484,24.6994919 86.8003109,24.9196471 L86.8003109,29.6859059 C86.8003109,29.9726564 86.6439977,30.2439069 86.2468777,29.9842814 C86.0943582,29.8892353 85.9528033,29.780171 85.8244096,29.6587808 C85.6680964,29.5154056 85.5667041,29.4805305 85.5667041,29.189905 L85.5667041,27.2524014 M82.8882563,27.2524014 L82.8882563,29.6510308 C82.8684214,30.2516651 83.2068234,30.8145304 83.7712146,31.1196585 C84.2029002,31.4188965 84.6656162,31.678479 85.1526853,31.8946599 C85.95115,32.2821606 86.4454377,32.0574102 87.1932063,31.6892845 C87.7186826,31.4236078 88.2214512,31.1217846 88.6971927,30.7864079 C89.2346523,30.4741154 89.5401775,29.915132 89.4914328,29.3332802 L89.4914328,24.7103968 C89.4914328,23.9082703 89.4914328,23.5905197 88.959123,23.183644 C88.594662,22.9011771 88.2092924,22.6422226 87.805785,22.4086425 C87.2058803,22.0598919 86.7834122,22.0211418 85.7821628,22.4357676 C85.2963245,22.633393 84.7090938,22.8775184 84.0246955,23.210769 C83.2008827,23.5982697 82.8671329,23.9625204 82.8671329,24.6018966 L82.8671329,27.2330264" id="Shape" fill="#FFFFFF"></path>
                    <path d="M103.86014,25.6388353 C103.86014,25.1736874 103.88946,24.7662025 103.922445,24.485576 C103.966425,24.1011563 104.039724,23.7820879 104.802042,23.3323168 C105.051262,23.182393 105.901539,22.7057125 106.671187,22.3405138 C107.299758,21.9387347 108.119801,22.146889 108.503683,22.8056617 C108.755441,23.1450421 108.980945,23.5049792 109.178041,23.882037 C109.556595,24.5989669 109.403582,25.4961339 108.811542,26.0309435 C108.003851,26.9188593 107.11786,27.7246074 106.165419,28.4374112 C106.165419,29.2754463 106.836112,29.483033 107.176956,29.6214241 C107.740748,29.849255 108.321883,30.0267191 108.914162,30.1519234 L107.68639,32.0970874 C105.63033,31.4512622 105.329801,31.1783241 104.890002,30.9092303 C104.312293,30.5704479 103.953648,29.9312335 103.951765,29.2370043 C103.915115,28.8756498 103.85281,27.0189023 103.8748,25.6388353 L103.86014,25.6388353 Z M106.095784,27.3418149 C106.426388,27.0603767 106.736343,26.753256 107.023027,26.4230517 C107.675395,25.6542121 106.869097,24.4317573 106.608883,24.1588192 C106.348668,23.8858812 106.095784,23.978142 106.095784,24.3664059 L106.095784,27.3418149 Z" id="Shape" fill="#FFFFFF"></path>
                    <path d="M93.8924115,24.4553369 L93.8924115,31.6064026 L91.4915906,31.6064026 L91.4915906,25.0905646 C91.4915906,24.2765603 91.356713,24.3298129 90.9096902,23.9494371 C90.8441782,23.8961845 90.6013986,23.7402304 90.6013986,23.7402304 L92.4858311,22.218727 C92.8858043,22.4175908 93.2492181,22.6811586 93.560998,22.9984975 C93.9656308,22.7664682 94.1506057,22.6675705 94.8095791,22.3556623 C95.6149909,21.9752865 95.830795,22.1540632 96.1737694,22.4013074 C96.472182,22.6104502 96.7484724,22.8487562 96.9984495,23.1126102 C97.3006612,23.3999585 97.4441142,23.8134187 97.383814,24.2233077 C97.383814,24.9079842 97.383814,28.8753041 97.383814,28.8753041 C97.383814,29.8072249 97.5495207,29.8300474 98.3356643,30.2864984 L96.7479626,32.0970874 C96.4561787,31.9183213 96.1744476,31.7240434 95.9040143,31.5151124 C95.7147314,31.3771629 95.5368996,31.2245284 95.3722112,31.0586614 C94.9444566,30.655463 94.9521639,30.1343481 94.9521639,29.4953167 L94.9521639,24.5504309 C94.9521639,24.12441 94.516702,24.0711573 94.2585078,24.2233077 C94.0003136,24.375458 93.8924115,24.4553369 93.8924115,24.4553369 Z" id="Path" fill="#FFFFFF"></path>
                    <path d="M101.176243,24.4487788 L101.176243,29.3751205 C101.176243,30.3408196 101.691753,30.5747996 102.755245,31.0767929 L101.407614,33.2038835 L100.068101,32.4594018 C99.2319202,31.9361375 98.5986959,31.3660773 98.5986959,30.2344651 L98.5986959,24.4487788 L97.2307692,24.4487788 L97.2307692,22.4748388 L98.5986959,22.4748388 L98.5986959,21.1985844 L101.176243,19.9223301 L101.176243,22.4748388 L102.690299,22.4748388 L102.690299,24.4487788 L101.176243,24.4487788 Z" id="Path" fill="#FFFFFF"></path>
                    <path d="M72.9917751,38.3875807 L72.9230769,38.2506581 C73.1819183,38.0643565 73.4527089,37.8951241 73.733715,37.7440445 C73.8290616,37.6829323 73.93714,37.6442987 74.0497264,37.631068 C74.0906075,37.6304734 74.1296375,37.648039 74.1562086,37.6790062 C74.1854876,37.7158619 74.2001567,37.762154 74.1974274,37.8090827 C74.1896564,37.9086164 74.1724042,38.0071881 74.1459038,38.1034663 C73.9385318,38.8299426 73.7824346,39.5699916 73.6787565,40.3181893 C73.6753278,40.3572357 73.6863206,40.3961865 73.7096706,40.4277274 C73.7266004,40.4502681 73.7535728,40.4630678 73.7818037,40.461958 C73.8384489,40.4577371 73.8935143,40.4413912 73.9432443,40.4140351 C74.1550684,40.2955518 74.3483306,40.1467801 74.5168738,39.9724597 C74.734217,39.7551209 74.927667,39.5152896 75.0939382,39.2570392 C75.2108494,39.074271 75.3043199,38.8776246 75.3721657,38.6716951 C75.47121,38.3658384 75.5492482,38.0536178 75.6057393,37.7371983 C75.6503931,37.7371983 75.7740498,37.6926985 75.9698395,37.631068 L76.0179282,37.6790062 L75.9011413,38.2848887 C75.8427479,38.5998107 75.7740498,38.9421172 75.691612,39.3118082 C75.6091742,39.6814992 75.5542157,39.9416522 75.5267365,40.092267 C75.5200599,40.1662842 75.5200599,40.2407491 75.5267365,40.3147662 C75.5238389,40.3565288 75.5333996,40.3982125 75.5542157,40.4345735 C75.5739815,40.4573285 75.6030389,40.4699186 75.6332186,40.4688042 C75.6776058,40.4648784 75.7202121,40.4495459 75.7568752,40.4243043 C75.8083989,40.3969198 75.9423602,40.2942278 76.1621943,40.1230746 L76.2377622,40.2599972 C75.9836236,40.4717178 75.7163131,40.6672221 75.4374289,40.8453413 C75.3559213,40.8983594 75.2628898,40.9312189 75.1660712,40.9411871 C75.1208029,40.939066 75.0790172,40.9163524 75.0527193,40.8795719 C75.015562,40.8291874 74.9973278,40.7674048 75.0011957,40.7049956 C74.9969067,40.65031 74.9969067,40.5953742 75.0011957,40.5406885 C75.0218051,40.4345735 75.0698938,40.2291896 75.1420269,39.9245368 L75.2794232,39.3391927 L75.2553788,39.3391927 C75.0183702,39.6609608 74.8741041,39.8492294 74.8260154,39.9074215 C74.640792,40.1185787 74.4386083,40.3143414 74.2214718,40.4927656 C74.0267562,40.6612243 73.8094066,40.8017841 73.5757093,40.9103795 C73.5216871,40.9350748 73.4633486,40.9490278 73.4039639,40.9514563 C73.3359843,40.9498567 73.2725738,40.9169969 73.2322186,40.8624566 C73.1766726,40.7784717 73.1501407,40.678719 73.1566506,40.5783422 C73.1716483,40.3153678 73.2154165,40.0548116 73.2871771,39.8013065 C73.4142686,39.2878468 73.5070111,38.8839251 73.5619696,38.5861184 C73.5884325,38.4607681 73.6067898,38.3338535 73.6169281,38.2061582 C73.617927,38.176917 73.6095006,38.1481258 73.5928838,38.1240047 C73.5754939,38.1072026 73.5517924,38.0985006 73.5276206,38.1000432 C73.331362,38.158865 73.1490853,38.2566756 72.9917751,38.3875807 Z" id="Path" stroke="#FFFFFF" stroke-width="0.2" fill="#FFFFFF"></path>
                    <path d="M79.4674392,40.1760158 L79.4948613,40.3126573 L79.1191793,40.6986695 C79.0345256,40.7868245 78.9426046,40.8635452 78.8449588,40.927544 C78.8250499,40.9424695 78.8023743,40.9507084 78.7791459,40.9514563 C78.7439886,40.9483281 78.7117982,40.9257716 78.6913954,40.8899676 C78.6580187,40.8431827 78.6412103,40.7815984 78.6447779,40.7191658 C78.6683487,40.3214451 78.7281472,39.928353 78.8230212,39.5474649 L78.8038258,39.5474649 C78.6667155,39.7797555 78.5570274,39.9539734 78.4802457,40.0632866 C78.3458876,40.2555075 78.1991487,40.4337342 78.041493,40.5961884 C77.9189488,40.7272891 77.7823571,40.8365109 77.6356467,40.920712 C77.6049668,40.9395203 77.5711143,40.9488917 77.5369274,40.9480403 C77.4880836,40.9483874 77.4429356,40.9156885 77.4190126,40.8626393 C77.360043,40.716956 77.3344262,40.5538527 77.3449731,40.3912262 C77.3512462,40.0543457 77.3936696,39.7200247 77.4711145,39.3971593 C77.5449604,39.0552657 77.6460085,38.7234047 77.7727569,38.4065085 C77.8319037,38.2630274 77.917402,38.1389638 78.0222975,38.0444085 C78.1673487,37.9025824 78.3280477,37.7875324 78.4994411,37.7028047 C78.602023,37.6605839 78.7095077,37.6398068 78.8175368,37.6413161 C78.8929349,37.6402064 78.9682414,37.6482147 79.0423975,37.6652283 C79.1359606,37.6865948 79.2277523,37.7186121 79.316618,37.7608774 L79.4921191,37.631068 L79.5524476,37.6891406 C79.437275,38.18105 79.3358134,38.642215 79.2508051,39.0760518 C79.18225,39.3390867 79.1356325,39.5338008 79.1109527,39.6636102 C79.0670774,39.8685725 79.0341709,40.0667026 79.0094911,40.2511686 C79.0071625,40.2807032 79.0071625,40.310451 79.0094911,40.3399856 C79.0068124,40.3763063 79.0145881,40.4126302 79.0314287,40.4424667 C79.0437891,40.4599487 79.0621944,40.4688651 79.0807884,40.466379 C79.1192595,40.4624836 79.1566372,40.4485149 79.1904766,40.4253866 C79.286826,40.3494369 79.3793226,40.2661551 79.4674392,40.1760158 Z M79.075304,38.095649 C79.0061926,38.0553925 78.933465,38.0255751 78.8586699,38.0068321 C78.7879196,37.9929671 78.7163981,37.9861135 78.6447779,37.9863359 C78.518459,37.9758286 78.3922609,38.0089251 78.2800647,38.0819849 C78.2227753,38.1398994 78.1783947,38.2151826 78.1511811,38.3006113 C78.0518269,38.5520887 77.9701689,38.813827 77.9071249,39.0828839 C77.8091906,39.4665917 77.7556366,39.8657232 77.7480771,40.2682488 C77.742436,40.3123793 77.742436,40.3573438 77.7480771,40.4014743 C77.754456,40.4279936 77.7680249,40.4509334 77.786468,40.466379 C77.8001092,40.4786353 77.8162906,40.4857497 77.8330854,40.4868752 C77.891923,40.4758125 77.9475697,40.4464394 77.9948755,40.4014743 C78.1607413,40.2589784 78.3109987,40.0901722 78.4418548,39.8993168 C78.6023433,39.6781974 78.7337629,39.4268635 78.8312478,39.1546206 C78.9468498,38.8142033 79.0323618,38.4591214 79.0862728,38.095649 L79.075304,38.095649 Z" id="Shape" stroke="#FFFFFF" stroke-width="0.2" fill="#FFFFFF"></path>
                    <path d="M82.629561,40.0662857 L82.7213501,40.2182076 C82.629561,40.2751783 82.4135866,40.3891197 82.0788263,40.5562338 C81.8262482,40.6935407 81.5528107,40.8107298 81.2635229,40.9056541 C81.173512,40.9343335 81.0761512,40.9498398 80.9773568,40.9512307 C80.886919,40.9543001 80.8001151,40.9259001 80.7451843,40.8752698 C80.6804753,40.8055588 80.650122,40.7228227 80.6587946,40.6397908 C80.6577113,40.5492136 80.6703817,40.458814 80.6965901,40.3701295 C80.7289863,40.2220056 80.8963664,39.6864809 81.1933312,38.7597574 C81.4201044,38.0950991 81.5604877,37.6621217 81.6198807,37.4570271 C81.7710628,36.9594829 81.8736506,36.5568899 81.9384429,36.2530461 C81.9462591,36.1885964 81.9462591,36.1237955 81.9384429,36.0593457 C81.9478084,36.0050651 81.9220433,35.9506936 81.8682512,35.9112219 C81.779179,35.8771184 81.6776254,35.8625668 81.5766858,35.8694434 L81.0907434,35.8694434 L81.0907434,35.7175215 C81.378817,35.6988115 81.6641716,35.6632399 81.9438423,35.6111761 C82.2126574,35.5594979 82.4760574,35.494776 82.7321489,35.4174757 L82.8671329,35.4744464 C82.8023405,35.6985312 82.5431713,36.5416977 82.1058231,38.003946 C81.7458658,39.1838727 81.5406901,39.9092997 81.490296,40.1802271 C81.4854117,40.2206667 81.4854117,40.2613249 81.490296,40.3017646 C81.4875465,40.3448945 81.5045828,40.3875035 81.5388903,40.4233021 C81.5666288,40.4503654 81.6103113,40.4671258 81.6576762,40.4688787 C81.6932353,40.4670145 81.7280066,40.4605779 81.760264,40.4498885 C81.9005023,40.402166 82.0358173,40.3475939 82.1652161,40.2865724 L82.629561,40.0662857 Z" id="Path" stroke="#FFFFFF" stroke-width="0.2" fill="#FFFFFF"></path>
                    <path d="M82.9451674,38.062357 L82.8671329,37.9070291 C83.2269641,37.6997518 83.6015005,37.5091591 83.988879,37.336199 C84.1253843,37.2751636 84.2767123,37.2380905 84.4327003,37.2274695 C84.4874303,37.2246382 84.5403782,37.2435362 84.5741379,37.2779511 C84.6221292,37.3394717 84.6443314,37.4115413 84.6375409,37.4837606 C84.6348109,37.5451814 84.6250156,37.6062738 84.608278,37.6662709 C84.5643835,37.8138324 84.4765947,38.0895394 84.3449115,38.4895088 C84.1169262,39.0791188 83.9441268,39.6813689 83.8279328,40.2913127 C83.824719,40.3312711 83.8384599,40.3709305 83.8669501,40.4039254 C83.890487,40.427414 83.9268039,40.4404259 83.9644932,40.4388742 C84.0483419,40.4356146 84.1301188,40.4170115 84.2034739,40.3845094 C84.3914264,40.2999907 84.570801,40.203913 84.7399612,40.0971528 L84.8326272,40.2485975 C84.4691136,40.4844417 84.0807565,40.6949126 83.6718638,40.8776755 C83.5781119,40.921085 83.472866,40.9463571 83.3646029,40.9514563 C83.2817059,40.9508466 83.2040078,40.9191956 83.1548851,40.866026 C83.0883205,40.7973876 83.0553843,40.7118153 83.0622192,40.6252677 C83.0630956,40.5354799 83.0728804,40.4458876 83.0914821,40.357327 C83.1158679,40.2602471 83.1695166,40.08162 83.2573054,39.8253289 C83.5157489,39.1930304 83.7002398,38.5430663 83.8084242,37.8837299 C83.8195767,37.8480306 83.8195767,37.8106997 83.8084242,37.7750004 C83.7910277,37.75702 83.7637492,37.7468844 83.7352668,37.747818 C83.6862352,37.7488013 83.6380253,37.7580666 83.5938293,37.7750004 C83.5499349,37.7633508 83.3402171,37.8681972 82.9451674,38.062357 Z M84.1644567,35.922715 C84.161997,35.7913535 84.2211196,35.6639782 84.33028,35.5654608 C84.4233469,35.4716846 84.5654661,35.4172554 84.7155754,35.4178993 C84.8140362,35.4135209 84.9100654,35.4432547 84.9789419,35.4994464 C85.046391,35.5618472 85.081292,35.6424331 85.076485,35.7246719 C85.0766775,35.853716 85.0273271,35.979724 84.9350475,36.0858093 C84.8534553,36.1904509 84.7093183,36.2537171 84.5546292,36.2527868 C84.4494407,36.2550039 84.3481477,36.2210462 84.2766313,36.1595901 C84.200713,36.0958752 84.160272,36.0104773 84.1644567,35.922715 Z" id="Shape" stroke="#FFFFFF" stroke-width="0.2" fill="#FFFFFF"></path>
                    <path d="M87.9397001,40.9506014 L88.0350569,41.1210087 C87.790446,41.3212373 87.549981,41.5086853 87.3053701,41.6833528 C87.1389529,41.8131208 86.9596866,41.924501 86.7705428,42.015647 C86.7136883,42.043943 86.6512928,42.0585145 86.5881211,42.0582524 C86.5148568,42.0562714 86.4469828,42.0182291 86.4056994,41.9560045 C86.3474284,41.8560627 86.3213143,41.7397835 86.3310723,41.6237102 C86.3256582,41.5485498 86.3256582,41.473081 86.3310723,41.3979206 C86.3310723,41.3127169 86.3600939,41.2019522 86.3849696,41.057106 L86.5715373,40.2050695 C86.6337265,39.9068567 86.7332292,39.3956348 86.8658996,38.6799242 L86.1818182,38.6799242 L86.2025479,38.5563789 L86.6461643,38.3774512 L86.9197969,38.2496457 C86.9612564,38.0323764 86.990278,37.8704895 87.0110078,37.7597248 C87.0317375,37.64896 87.069051,37.3337065 87.1395321,36.8224846 L87.4836458,36.669118 L87.7614243,36.5242718 L87.8567811,36.5966949 L87.6826513,37.3166658 C87.6619216,37.4103898 87.5955864,37.742684 87.4877918,38.3007679 L87.7780081,38.3007679 C87.9705193,38.3092169 88.1632113,38.2891298 88.3501489,38.2411254 L88.3916084,38.2752068 L88.2921056,38.7012251 C88.1801651,38.7012251 87.8775109,38.7012251 87.4173106,38.6628834 C87.3675593,38.8886731 87.2929322,39.2806099 87.1892835,39.8301734 C87.0856348,40.379737 87.0192996,40.7844543 86.9861321,41.0315449 C86.9817647,41.1095838 86.9817647,41.187816 86.9861321,41.2658549 C86.9832769,41.3169856 86.9995976,41.3672967 87.0317375,41.4064409 C87.0582605,41.4389427 87.0983618,41.4563761 87.1395321,41.4533029 C87.1750728,41.4610046 87.2117861,41.4610046 87.2473268,41.4533029 C87.3513275,41.4045212 87.4500001,41.3445432 87.5416891,41.2743753 L87.9397001,40.9506014 Z" id="Path" stroke="#FFFFFF" stroke-width="0.2" fill="#FFFFFF"></path>
                    <path d="M88.3973374,43.5505036 L88.7312381,43.3137558 L88.8013573,43.3396501 C88.7984567,43.3765721 88.7984567,43.4137036 88.8013573,43.4506256 C88.7957599,43.5873552 88.8403202,43.7207795 88.9249005,43.8205441 C89.002978,43.9144395 89.1135307,43.96693 89.2287502,43.9648123 C89.3134668,43.9630502 89.3967527,43.9402987 89.4724977,43.898227 C89.5632153,43.8507236 89.6431043,43.7811827 89.7062283,43.6947718 C89.8309745,43.5161205 89.9331956,43.3194927 90.0100779,43.1103006 C90.1558779,42.729356 90.2807619,42.3389969 90.3840468,41.9413582 L90.6311333,40.9499766 C90.4886056,41.195051 90.3277691,41.4264451 90.1503162,41.6417242 C89.9813348,41.865798 89.7922693,42.0703003 89.586024,42.2520897 C89.5184282,42.3026856 89.4402586,42.3332509 89.3589715,42.3408702 C89.2851485,42.3392001 89.2177169,42.2940949 89.1820041,42.2224962 C89.0980914,42.0650527 89.0585582,41.8834216 89.0684778,41.7009112 C89.0684778,41.6084315 89.0851729,41.4160739 89.1152239,41.1275375 C89.1640592,40.6670785 89.189698,40.2039626 89.1920211,39.7403432 C89.1959199,39.6238332 89.1880804,39.5072049 89.1686481,39.3926198 C89.1639486,39.3551221 89.1487695,39.3201957 89.125241,39.2927418 C89.1103388,39.2786212 89.0914252,39.2707635 89.0718169,39.2705467 C88.9185092,39.3250822 88.7789538,39.4188615 88.6644579,39.5442864 L88.5843218,39.6108717 L88.4975076,39.4629043 C88.7155604,39.2530488 88.9465078,39.0602271 89.1886821,38.8858315 C89.2714578,38.8165924 89.369455,38.7731652 89.4724977,38.7600592 C89.5331427,38.7585423 89.5901053,38.7921994 89.6227531,38.8488396 C89.6714227,38.9642241 89.6910354,39.0920378 89.6795162,39.2187581 C89.6795162,39.3741239 89.6594822,39.7033513 89.6227531,40.2027413 C89.576007,40.7909117 89.5492949,41.2163179 89.5492949,41.4789601 C89.5420465,41.5640753 89.5559002,41.6497683 89.589363,41.7268055 C89.6103637,41.7583966 89.6441286,41.7764074 89.6795162,41.7748949 C89.7182058,41.7743799 89.7561349,41.7629198 89.7897034,41.7416022 C89.8992627,41.6683381 89.9983046,41.5773159 90.0835361,41.4715617 C90.2069064,41.3339363 90.318671,41.1841134 90.4174368,41.0239603 C90.5965398,40.7270799 90.7412513,40.4064371 90.8481688,40.0695706 C90.921627,39.8476195 91.0184582,39.4518068 91.1453405,38.8747339 C91.3117293,38.8423474 91.475773,38.7966036 91.6361746,38.7378641 L91.7062937,38.8081486 C91.6390636,38.9708815 91.5799848,39.1375979 91.5293263,39.3075385 C91.4258171,39.6330668 91.2855788,40.136156 91.1086114,40.8094076 C90.9683731,41.356887 90.8581858,41.7453014 90.7747106,41.97835 C90.6675241,42.3502117 90.5300597,42.710514 90.3640127,43.0548128 C90.2237409,43.3281445 90.0482694,43.5773748 89.8431276,43.7946498 C89.7136521,43.9479337 89.5596919,44.0733513 89.3890226,44.1645683 C89.2521039,44.2315902 89.1046003,44.2680443 88.9549516,44.2718447 C88.8572452,44.2707548 88.7611495,44.2441394 88.674475,44.1941618 C88.5870395,44.1485332 88.5138197,44.0751407 88.4641175,43.9833082 C88.4180101,43.8943973 88.3938278,43.7936123 88.3939983,43.6910726 C88.3899349,43.6442407 88.3910563,43.597034 88.3973374,43.5505036 L88.3973374,43.5505036 Z" id="Path" stroke="#FFFFFF" stroke-width="0.2" fill="#FFFFFF"></path>
                    <path d="M66.179362,38.5898968 C66.2158466,38.224034 66.282553,37.8616736 66.3788253,37.5063794 C66.8774837,35.5602973 68.0872724,34.43004 70.1209315,34.8082088 C71.6732768,35.0928977 72.2456499,36.5460856 71.7036299,38.8618384 C71.191963,41.024624 69.5615668,41.8871888 68.0135577,41.5727563 C66.4655485,41.2583238 66.0275964,40.0940738 66.179362,38.598395 M65.2167344,38.598395 C65.0736411,39.9241103 65.4552232,41.2838183 66.9511985,41.8319506 C68.9766392,42.5009923 71.1996645,41.6457743 72.219633,39.8051358 C73.5681788,37.1579543 72.8613847,35.1778794 71.0878952,34.5617617 C69.026899,33.829206 66.7349525,34.7481598 65.7891076,36.6863055 C65.4864892,37.2922806 65.2928569,37.9448852 65.2167344,38.6153913" id="Shape" stroke="#FFFFFF" stroke-width="0.2" fill="#FFFFFF"></path>
                    <path d="M67.5721567,42.4386745 C67.6866611,42.0504137 67.9300633,41.7358673 68.2448928,41.5693039 C68.5597224,41.4027405 68.9180728,41.3989242 69.2353328,41.5587561 C69.8599819,41.7833186 71.7645869,42.6311567 72.0558343,42.7548952 C73.0713682,43.1856886 74.3934782,43.4514973 74.7728664,42.6403225 C74.8861337,42.4003262 74.9872308,42.1524017 75.0756104,41.8978913 C75.2020731,41.7237408 75.0756104,41.2883645 75.1024358,41.3754397 C75.0027985,41.1967063 74.9146579,41.3066961 74.8916646,41.3754397 C74.9299867,42.062876 74.6885579,42.466172 73.5197359,42.4386745 C72.9188736,42.3994765 72.3291453,42.2286003 71.7799157,41.9345546 C71.2932259,41.7054091 70.9253344,41.6000022 70.8103683,41.5495903 C70.2021276,41.2968471 69.5780744,41.1022264 68.9440854,40.9675609 C67.9515448,40.811742 67.6028143,41.8291477 67.4112041,42.1866145 C67.3498889,42.3699309 67.5300024,42.5486643 67.5721567,42.4386745 Z" id="Path" stroke="#FFFFFF" stroke-width="0.2" fill="#FFFFFF"></path>
                    <path d="M41.986014,106.254637 L45.1144109,106.254637 C45.5333787,106.237598 45.9508176,106.319244 46.3387295,106.4941 C46.6207517,106.626507 46.8703756,106.830202 47.0673117,107.088626 C47.2344036,107.318961 47.3536156,107.586706 47.4165805,107.873071 C47.5417925,108.382776 47.5417925,108.919871 47.4165805,109.429575 C47.3513856,109.712542 47.2323439,109.977091 47.0673117,110.205763 C46.8701506,110.462914 46.6205073,110.665209 46.3387295,110.796161 C45.9497308,110.966152 45.532712,111.044903 45.1144109,111.027366 L43.2366216,111.027366 L43.2366216,114 L42.0047919,114 L41.986014,106.254637 Z M43.2178437,109.920886 L45.024277,109.920886 C45.1678608,109.920943 45.3107321,109.898703 45.4486574,109.854827 C45.5936469,109.813611 45.7300733,109.742125 45.8505043,109.644266 C45.9750165,109.541453 46.0764989,109.408706 46.147195,109.256172 C46.2261252,109.062958 46.2646261,108.852741 46.2598624,108.641002 C46.2662405,108.426332 46.2317006,108.212568 46.1584617,108.013446 C46.1054414,107.85277 46.0147518,107.710343 45.8955712,107.60058 C45.7852092,107.504007 45.6570616,107.434977 45.5200134,107.398276 C45.3671777,107.360751 45.2109135,107.342741 45.0543216,107.344603 L43.2366216,107.344603 L43.2178437,109.920886 Z" id="Shape" fill="#000000"></path>
                    <polygon id="Path" fill="#000000" points="50.8251748 106.252427 53.034965 106.252427 53.034965 114 50.8251748 114"></polygon>
                    <polygon id="Path" fill="#000000" points="56.3496503 106.252427 57.6058712 106.252427 60.7047906 111.959861 60.7446132 111.959861 60.7446132 106.252427 61.8741259 106.252427 61.8741259 114 60.6215253 114 57.5262261 108.304956 57.4864035 108.304956 57.4864035 114 56.3568908 114"></polygon>
                    <polygon id="Path" fill="#000000" points="65.1888112 106.252427 70.6406493 106.252427 70.6406493 107.425301 66.5124255 107.425301 66.5124255 109.45305 70.3460645 109.45305 70.3460645 110.559846 66.5124255 110.559846 66.5124255 112.831256 70.7132867 112.831256 70.7132867 114 65.1888112 114"></polygon>
                    <path d="M77.1354895,106.252427 L78.6460883,106.252427 L81.7622378,114 L80.243007,114 L79.4833916,111.935082 L76.2507102,111.935082 L75.4910948,114 L74.027972,114 L77.1354895,106.252427 Z M76.6391499,110.939791 L79.1078999,110.939791 L77.8951049,107.607013 L77.8605769,107.607013 L76.6391499,110.939791 Z" id="Shape" fill="#000000"></path>
                    <path d="M83.975781,106.254729 L87.0795345,106.254729 C87.498242,106.237305 87.9154708,106.318964 88.3030214,106.494188 C88.5927008,106.623757 88.8500469,106.827589 89.0536268,107.088708 C89.2194958,107.31981 89.3385027,107.587274 89.4026583,107.873144 C89.5277852,108.382843 89.5277852,108.919931 89.4026583,109.42963 C89.3365593,109.712206 89.2176921,109.976544 89.0536268,110.205808 C88.8498231,110.465661 88.5924555,110.668094 88.3030214,110.796199 C87.9142869,110.966188 87.4975514,111.044938 87.0795345,111.027401 L85.2030209,111.027401 L85.2030209,114 L83.972028,114 L83.975781,106.254729 Z M85.2067739,109.920934 L87.01198,109.920934 C87.1554487,109.920718 87.2981885,109.898485 87.4360721,109.854876 C87.5798096,109.813653 87.7149124,109.742146 87.833893,109.644317 C87.9602986,109.543825 88.0621517,109.410505 88.1303821,109.256228 C88.212336,109.063995 88.2521833,108.853304 88.2467259,108.641065 C88.2530998,108.426398 88.2185833,108.212637 88.1453942,108.013517 C88.0925172,107.851707 88.0003614,107.70892 87.8789293,107.600656 C87.7693865,107.502796 87.6410506,107.433618 87.5036266,107.398354 C87.3508627,107.361045 87.1947273,107.343038 87.0382512,107.344682 L85.2067739,107.344682 L85.2067739,109.920934 Z" id="Shape" fill="#000000"></path>
                    <path d="M92.8111888,106.254729 L95.9292867,106.254729 C96.3494212,106.237305 96.7680721,106.318964 97.1569435,106.494188 C97.4403118,106.62549 97.6908365,106.829361 97.8875124,107.088708 C98.0561992,107.318809 98.17701,107.586526 98.2414993,107.873144 C98.3670527,108.382843 98.3670527,108.919931 98.2414993,109.42963 C98.1749999,109.712931 98.0543386,109.977503 97.8875124,110.205808 C97.6906106,110.463886 97.4400648,110.666359 97.1569435,110.796199 C96.7668841,110.966188 96.3487283,111.044938 95.9292867,111.027401 L94.0463773,111.027401 L94.0463773,114 L92.8111888,114 L92.8111888,106.254729 Z M94.0463773,109.920934 L95.8577361,109.920934 C96.0017114,109.920991 96.1449723,109.898752 96.2832736,109.854876 C96.4290242,109.814769 96.5660118,109.743185 96.6862162,109.644317 C96.8130527,109.543825 96.9152529,109.410505 96.9837159,109.256228 C97.0646531,109.063652 97.1033436,108.852976 97.0966904,108.641065 C97.1023754,108.426831 97.0690911,108.213499 96.9987792,108.013517 C96.9428762,107.853356 96.8508934,107.711322 96.731406,107.600656 C96.6212098,107.503278 96.4925413,107.434156 96.3548242,107.398354 C96.202843,107.360854 96.0474021,107.342843 95.8916285,107.344682 L94.0576748,107.344682 L94.0463773,109.920934 Z" id="Shape" fill="#000000"></path>
                    <polygon id="Path" fill="#000000" points="102.755245 106.252427 104.168683 106.252427 104.168683 112.831256 108.27972 112.831256 108.27972 114 102.755245 114"></polygon>
                    <polygon id="Path" fill="#000000" points="110.48951 106.252427 115.945334 106.252427 115.945334 107.425301 111.810054 107.425301 111.810054 109.45305 115.630342 109.45305 115.630342 110.559846 111.810054 110.559846 111.810054 112.831256 116.013986 112.831256 116.013986 114 110.48951 114"></polygon>
                </g>
            </g>
        </g>
    </g>
</svg>