<?xml version="1.0" encoding="UTF-8"?>
<svg width="14px" height="16px" viewBox="0 0 14 16" version="1.1" xmlns="http://www.w3.org/2000/svg" xmlns:xlink="http://www.w3.org/1999/xlink">
    <title>arrow</title>
    <g id="Page-1" stroke="none" stroke-width="1" fill="none" fill-rule="evenodd">
        <g id="Promotions" transform="translate(-1480.000000, -767.000000)" fill="#FED103" fill-rule="nonzero">
            <g id="Group-8" transform="translate(1123.000000, 496.000000)">
                <g id="Group-4" transform="translate(337.000000, 252.000000)">
                    <g id="arrow" transform="translate(27.000000, 27.000000) rotate(-90.000000) translate(-27.000000, -27.000000) translate(19.000000, 20.000000)">
                        <path d="M14.5984264,5.93603416 C14.5370503,5.92596789 14.4749364,5.92132453 14.4127889,5.92213796 L3.83058247,5.92213796 L4.06132965,5.81367987 C4.28687831,5.70579796 4.49206889,5.55897282 4.66771177,5.3798475 L7.63522781,2.38098126 C8.02605584,2.00395381 8.09172488,1.39743583 7.790848,0.943911534 C7.44066903,0.460629054 6.76912096,0.35569585 6.29085718,0.709574269 C6.25222045,0.738180091 6.21549542,0.769361792 6.18098396,0.802916014 L0.814770506,6.22582062 C0.395400924,6.64914611 0.395031997,7.3358553 0.813932035,7.7596553 C0.814200346,7.75992644 0.814502195,7.76023148 0.814770506,7.76050263 L6.18098396,13.1834072 C6.60068893,13.6063599 7.28021925,13.6054109 7.6987839,13.181272 C7.73171904,13.1478872 7.76247415,13.1123672 7.790848,13.0749491 C8.09172488,12.6214249 8.02605584,12.0149069 7.63522781,11.6378794 L4.67307798,8.63359027 C4.51561316,8.47429245 4.33457053,8.34071953 4.13645664,8.23771823 L3.81448383,8.09129981 L14.3537271,8.09129981 C14.9019864,8.11187295 15.3830003,7.72484703 15.4859981,7.18025183 C15.5808795,6.58898577 15.1835114,6.03195178 14.5984264,5.93603416 Z" id="Path"></path>
                    </g>
                </g>
            </g>
        </g>
    </g>
</svg>