<?xml version="1.0" encoding="UTF-8"?>
<svg width="158px" height="45px" viewBox="0 0 158 45" version="1.1" xmlns="http://www.w3.org/2000/svg" xmlns:xlink="http://www.w3.org/1999/xlink">
    <title>Group 18</title>
    <defs>
        <polygon id="path-1" points="0.475999766 0.941621017 6 0.941621017 6 6.47565413 0.475999766 6.47565413"></polygon>
        <polygon id="path-3" points="0 0.8355 148.05633 0.8355 148.05633 31.8258664 0 31.8258664"></polygon>
        <polygon id="path-5" points="0 44.165 158 44.165 158 1 0 1"></polygon>
    </defs>
    <g id="Page-1" stroke="none" stroke-width="1" fill="none" fill-rule="evenodd">
        <g id="recipes" transform="translate(-146.000000, -249.000000)">
            <g id="Group-18" transform="translate(146.000000, 249.000000)">
                <g id="Group-3" transform="translate(152.000000, 1.165000)">
                    <mask id="mask-2" fill="white">
                        <use xlink:href="#path-1"></use>
                    </mask>
                    <g id="Clip-2"></g>
                    <path d="M2.8311,3.5522 L3.1271,3.5522 C3.4691,3.5522 3.7481,3.4382 3.7481,3.1592 C3.7481,2.8802 3.5701,2.7362 3.1781,2.7362 C3.0611,2.7332 2.9451,2.7452 2.8311,2.7702 L2.8311,3.5522 Z M2.8311,5.0792 L2.2101,5.0792 L2.2101,2.3892 C2.5511,2.3272 2.8951,2.2992 3.2411,2.3042 C3.5641,2.2802 3.8891,2.3482 4.1751,2.5032 C4.3471,2.6492 4.4431,2.8652 4.4361,3.0912 C4.4121,3.4002 4.1861,3.6562 3.8831,3.7172 L3.8831,3.7132 C4.1521,3.8272 4.3401,4.0772 4.3731,4.3692 C4.3981,4.6042 4.4661,4.8332 4.5711,5.0462 L3.8951,5.0462 C3.7931,4.8372 3.7231,4.6152 3.6851,4.3852 C3.6341,4.0942 3.4741,3.9632 3.1271,3.9632 L2.8311,3.9632 L2.8311,5.0792 Z M1.1631,3.6332 C1.1451,4.2022 1.3611,4.7532 1.7601,5.1592 C2.1591,5.5652 2.7061,5.7902 3.2741,5.7812 C3.8281,5.7802 4.3581,5.5542 4.7431,5.1562 C5.1291,4.7582 5.3381,4.2212 5.3231,3.6662 C5.3231,2.5192 4.3941,1.5892 3.2491,1.5892 C2.1041,1.5892 1.1761,2.5192 1.1761,3.6662 L1.1631,3.6332 Z M5.9991,3.6332 C6.0301,4.7592 5.3761,5.7912 4.3461,6.2432 C3.3151,6.6952 2.1141,6.4762 1.3091,5.6892 C0.5041,4.9032 0.2561,3.7052 0.6811,2.6622 C1.1061,1.6192 2.1201,0.9392 3.2451,0.9422 C3.9681,0.9272 4.6671,1.2042 5.1851,1.7102 C5.7021,2.2162 5.9961,2.9082 5.9991,3.6332 L5.9991,3.6332 Z" id="Fill-1" fill="#000000" mask="url(#mask-2)"></path>
                </g>
                <g id="Group-6" transform="translate(0.000000, 0.165000)">
                    <mask id="mask-4" fill="white">
                        <use xlink:href="#path-3"></use>
                    </mask>
                    <g id="Clip-5"></g>
                    <path d="M143.0234,23.0645 C143.0234,22.2445 142.9964,21.3935 142.9964,20.5745 C142.9964,18.0815 143.1194,15.6465 143.2434,13.1525 C143.2754,12.3885 143.4304,11.5965 143.4304,10.7895 C143.4304,8.3555 143.3354,5.8345 143.1514,3.3675 C143.1144,3.1345 143.0924,2.8985 143.0874,2.6625 C143.0874,1.5555 145.7324,1.9535 146.9734,1.9535 C148.3144,2.0365 148.0314,6.0035 148.0314,7.2485 C147.8754,9.5405 147.5954,11.8095 147.5954,14.1295 C147.5954,14.7245 147.6274,15.2925 147.6274,15.8865 C147.6274,18.0375 147.5364,20.1605 147.5364,22.2845 C147.5364,23.6475 147.5644,24.9745 147.5644,26.3055 C147.5644,26.9605 147.4124,27.6375 147.4124,28.2755 C147.4124,28.4765 147.4404,28.6455 147.4404,28.8425 C147.4404,29.9775 146.1684,30.0245 145.0464,30.0245 C144.7984,30.0245 144.5804,29.9695 144.3324,29.9695 C143.5544,29.9695 142.7764,30.1665 142.0624,30.1665 C139.9474,30.1665 138.6104,23.9935 137.3344,22.2645 C137.2844,22.2135 137.2174,22.1845 137.1464,22.1815 C136.5874,22.1815 135.8414,25.3335 135.4704,26.2865 C134.8484,27.7875 133.8754,31.1595 132.7334,31.1595 C131.9354,31.1595 131.1134,31.2695 130.3074,31.2695 C128.4404,31.2695 126.5774,31.4985 126.5774,30.1665 C126.5774,28.3545 126.7014,26.6215 126.7014,24.7855 C126.6054,20.4805 126.2654,15.9225 126.2654,11.5335 C126.2654,11.2505 126.2944,10.9395 126.2944,10.6555 C126.2944,10.4585 126.2654,10.2615 126.2654,10.0605 C126.2654,7.9375 126.6654,5.6725 126.6654,3.5495 C126.6654,3.4625 126.6324,3.4075 126.6324,3.3205 C126.5964,3.0585 126.6784,2.7925 126.8594,2.5955 C127.0394,2.3985 127.2974,2.2915 127.5664,2.3005 C128.0934,2.3005 128.6244,2.3285 129.1824,2.3285 C129.6174,2.3285 130.0524,2.3005 130.4874,2.3005 C131.3294,2.3005 131.5444,2.5845 131.5444,3.0885 C131.5444,3.4815 131.4844,3.8565 131.4844,4.2505 C131.4844,4.9045 131.6084,5.5815 131.6084,6.2635 C131.6084,7.5355 131.5164,8.8675 131.5164,10.1705 C131.5444,10.4545 131.5444,10.7345 131.5444,11.0225 C131.5444,11.7545 131.4844,12.5185 131.4844,13.2555 C131.4844,13.6495 131.5764,14.0195 131.5764,14.3895 C131.5764,17.3915 131.2054,20.5355 131.2054,23.4505 C131.2054,24.0175 131.2374,25.4905 131.6044,25.4905 C132.6294,25.4905 133.9984,19.6845 134.3974,18.1275 C134.7964,16.5725 134.6804,14.5835 136.2054,14.5835 C137.1664,14.5835 138.5984,14.4135 138.9104,15.1775 C139.8884,17.8495 141.0524,20.4515 142.3934,22.9655 C142.4904,23.1945 142.6504,23.3905 142.8564,23.5335 C142.9774,23.3905 143.0344,23.2055 143.0114,23.0205 L143.0234,23.0645 Z M119.7664,18.7625 C119.6424,15.1935 119.4554,11.6245 119.2714,8.0865 C119.1434,6.7285 118.9284,4.6605 117.3724,4.6605 C113.9204,4.6605 114.7914,6.6965 114.5444,8.6815 C114.4704,9.2835 114.4294,9.8885 114.4194,10.4945 C114.4194,12.7865 114.3564,15.3625 114.7314,17.5845 L114.7314,17.7535 C114.7314,18.2665 114.5114,18.7195 114.5114,19.2545 C114.5114,21.9725 113.8574,26.4195 116.6264,26.4195 C118.9614,26.4195 119.8624,25.3725 119.8624,23.2215 C119.8624,21.7205 119.7664,20.2475 119.7344,18.7465 L119.7664,18.7625 Z M124.1554,18.0335 C124.1554,19.7585 124.3104,21.5155 124.3104,23.2455 C124.3104,25.8215 124.6224,28.7955 122.0084,29.8715 C120.2844,30.6525 118.4034,31.0405 116.5064,31.0055 C111.4074,31.0055 110.9204,28.0585 110.1944,20.5825 C110.0674,19.4755 109.7274,18.5415 109.7594,17.4305 C109.7594,15.7325 109.9154,13.9765 109.9154,12.2785 C109.9154,11.2855 109.8834,10.3085 109.8194,9.3325 C109.8194,5.4795 109.5404,0.9765 115.8524,0.9765 L115.9804,0.9765 C116.8774,0.9765 117.8114,0.8355 118.7124,0.8355 C123.8764,0.8355 123.9004,5.4795 124.2514,12.6995 L124.2184,12.6995 C124.2184,14.4845 124.1554,16.2455 124.1554,18.0255 L124.1554,18.0335 Z M102.3744,6.0465 C102.3744,6.6135 102.2824,7.1775 102.2824,7.7445 C102.2824,9.0165 102.4654,10.3205 102.4654,11.5965 C102.4654,13.0385 102.4384,14.4295 102.4384,15.8985 C102.4384,16.4935 102.4654,17.0805 102.4654,17.6555 C102.4654,17.8525 102.4384,18.0495 102.4384,18.2775 C102.4384,21.0355 102.9054,23.8285 102.9054,26.5495 C102.9324,26.8065 103.1524,26.9205 103.4964,26.9205 C104.8644,26.9205 106.2284,26.6645 107.5374,26.6095 C108.5944,26.6095 108.6544,29.6115 108.6544,29.7805 C108.6544,30.7135 105.1114,30.8285 104.5214,30.8285 C102.9644,30.8285 98.9554,30.9155 98.7994,30.1195 C98.4504,28.4335 98.2724,26.7185 98.2684,24.9985 L98.2684,24.4035 C98.2684,24.1205 98.2374,23.8355 98.2374,23.5525 C98.2374,23.0995 98.3004,22.6195 98.3004,22.1665 C98.3004,21.7125 98.2054,21.1455 98.2054,20.6375 C98.2054,20.0155 98.2684,19.3615 98.2684,18.7385 C98.2684,17.2105 98.0534,15.6815 98.0534,14.1495 C98.0534,13.3305 98.0814,12.4795 98.0814,11.6605 C98.0814,11.1515 98.0534,10.6395 98.0534,10.0845 C98.0534,9.5285 98.0814,9.0645 98.0814,8.5085 L98.0814,6.3855 C98.0814,5.3655 98.0814,4.3175 97.9893284,3.2695 C97.9893284,2.5645 97.9584,1.93848912 99.1864,1.93848912 C101.7044,1.93848912 102.3264,1.9105 102.3264,4.6955 C102.3264,4.7235 102.3264,4.7235 102.2984,4.7235 C102.3264,5.1485 102.3904,5.5735 102.3904,5.9995 L102.3744,6.0465 Z M94.0444,17.7185 C96.0024,17.7185 95.4714,20.1525 95.7514,21.2835 C95.8504,22.0345 95.9024,22.7915 95.9074,23.5485 C95.9074,25.9125 96.2174,28.2755 94.0444,29.6975 C92.6434,30.3755 91.1504,31.2735 89.1914,31.2735 C85.3054,31.2735 83.2834,31.2175 82.3804,25.2425 C82.2844,24.6795 82.2314,24.1115 82.2254,23.5415 L82.2254,23.2295 C82.2254,18.8965 81.7914,14.8785 81.7914,12.1995 C81.7914,12.0575 81.8224,11.9435 81.8224,11.8055 C81.8224,11.4945 81.7264,11.1835 81.7264,10.8995 C81.7264,9.7175 82.0704,8.4925 82.1014,7.3035 C82.1934,4.0455 83.3754,2.1505 87.8554,1.5245 C88.3814,1.3555 89.4704,1.4695 90.1534,1.4695 C93.4854,1.4695 96.1384,3.1395 96.1384,8.7215 C96.1384,9.3435 95.7634,9.5685 94.7974,9.5685 C94.4264,9.5685 94.0554,9.5405 93.6804,9.5405 L92.5834,9.5405 C91.3384,9.5405 91.1194,9.4815 91.1194,6.3415 C91.1194,5.5775 90.3214,4.9515 89.4704,4.9515 C87.1404,4.9515 86.4554,5.3775 86.4554,8.4965 C86.4554,11.4705 86.6734,14.5865 86.6734,17.6435 C86.6734,18.4315 86.5784,19.2195 86.5784,20.0075 C86.5784,23.3475 86.0514,27.3975 89.1274,27.3975 C91.0594,27.3975 91.7094,26.8025 91.7094,23.9155 C91.7094,21.5515 91.8654,22.2445 88.7564,21.6225 C87.6994,21.4215 88.1984,20.2045 87.7914,18.9865 C87.7684,18.9035 87.7584,18.8165 87.7634,18.7315 C87.7634,17.3165 91.8654,17.7975 91.6494,17.7975 L91.6494,17.8245 C92.4474,17.7975 93.2654,17.7425 94.0754,17.7425 L94.0444,17.7185 Z M80.1154,13.2155 C80.1154,16.2455 79.4284,21.2555 76.4434,22.0515 C75.6974,22.2495 74.4494,22.2765 74.4494,23.0125 C74.4494,25.5055 74.7284,28.0545 74.7284,30.4615 C74.7284,31.7345 74.2934,31.8215 72.6134,31.8215 C71.7444,31.8215 70.4674,31.9355 70.4074,30.9985 C70.2834,29.3825 70.1274,27.7715 70.1604,26.1565 L70.1604,24.3435 C70.1604,21.9805 69.9724,23.5205 66.3654,21.4255 C64.8414,20.5465 65.0284,17.5215 65.0284,15.7925 C65.0284,15.0555 65.1204,14.2915 65.1204,13.5545 C65.1204,13.2155 65.0884,12.9045 65.0884,12.5625 C65.0884,11.7975 65.1804,10.9865 65.1804,10.2695 C65.1804,10.1275 65.1524,9.9855 65.1524,9.8435 C65.1524,8.7405 65.3684,7.6065 65.4324,6.4765 C65.4324,5.2275 65.3684,3.9825 65.3684,2.7375 C65.3684,2.1155 65.4914,1.7725 66.0824,1.7725 C67.2034,1.7725 68.2924,1.7455 69.3814,1.7455 C69.9724,1.7455 70.0964,1.9735 70.0964,2.4545 C69.9934,3.2705 69.9524,4.0935 69.9724,4.9165 L69.9724,5.4835 C69.9724,8.3705 69.6934,10.8645 69.6934,13.5275 C69.7214,14.0355 69.7524,14.5155 69.7524,15.0275 C69.7524,15.6775 69.6934,16.3285 69.6934,16.9975 C69.6934,18.5735 71.4644,18.8925 72.7694,18.8925 C74.6364,18.8925 75.1034,18.0455 75.1034,16.5725 C75.1034,14.2085 75.0114,11.8725 75.0114,9.5485 C75.0074,9.2935 75.0164,9.0385 75.0394,8.7845 C75.0394,6.5195 74.6044,4.0855 74.6044,1.9025 C74.6044,0.9965 77.1224,1.3075 78.3984,1.3075 C79.4884,1.3075 79.7354,5.9245 79.9554,7.0865 C80.2024,8.5005 80.1104,9.8915 80.1104,11.2775 L80.1154,13.2155 Z M57.8394,6.5195 C57.8394,6.9135 57.9354,7.3075 57.9354,7.7015 C57.9354,8.7765 57.6514,9.9385 57.6514,11.0135 C57.6324,11.1505 57.6784,11.2885 57.7754,11.3885 C57.8734,11.4875 58.0114,11.5365 58.1504,11.5225 C58.8044,11.5225 59.4864,11.4115 60.1694,11.4115 C62.5034,11.4115 62.9624,11.1275 62.9624,14.7525 C62.9624,16.5365 57.4564,15.1465 57.4564,16.5645 C57.4564,17.6395 57.5844,18.7145 57.5844,19.7625 L57.5844,21.6065 C57.5844,23.0765 58.0784,24.4385 58.0784,25.8805 C58.2344,26.7865 60.5364,26.5895 61.2184,26.5895 C62.9624,26.5895 63.6124,26.4195 63.6124,28.6855 C63.6124,29.4725 63.6124,30.1585 62.9904,30.2135 C62.6154,30.2135 62.3354,30.1305 61.9924,30.1305 C61.1544,30.1305 60.3164,30.3285 59.4424,30.3285 C59.2774,30.3335 59.1124,30.3235 58.9484,30.3005 C57.7514,30.3005 56.6144,30.5245 55.4334,30.5245 C54.4404,30.5245 53.7854,30.6115 53.7214,29.8155 C53.6574,29.0205 53.5064,28.2875 53.5064,27.5505 C53.5294,27.3435 53.5384,27.1355 53.5344,26.9285 C53.5344,26.3655 53.4744,25.7975 53.4744,25.2305 C53.4744,24.5485 53.5344,23.8715 53.5344,23.1905 C53.5344,22.5945 53.4104,21.9725 53.4104,21.3775 C53.4104,21.0115 53.4424,20.7285 53.4424,20.3855 C53.4424,15.0085 53.0434,9.6825 53.0434,4.4155 C53.0434,3.9905 53.0714,3.5645 53.0714,3.1395 C53.0714,2.7135 53.0114,2.4345 53.0114,2.0645 C53.0114,1.1895 55.6244,0.9885 56.9614,0.9885 C57.7394,0.9885 58.5134,1.1305 59.2914,1.1305 C59.9144,1.1305 60.5684,1.1035 61.2184,1.1035 L62.0164,1.1035 C63.1654,1.1035 62.9814,3.0015 62.9814,4.2545 C62.9814,5.5065 61.8334,5.2155 60.9274,5.2155 C60.7114,5.2155 60.5284,5.1885 60.1814,5.1605 C58.9404,5.1605 57.8194,4.7075 57.8194,6.5195 L57.8394,6.5195 Z M46.4604,19.6995 C46.4604,14.5475 46.2124,9.2805 45.9334,4.3365 C45.9014,3.8565 45.7454,3.2575 45.7454,2.8355 C45.7454,1.6185 48.7944,1.9855 49.4764,1.9855 C50.9084,1.9855 50.7524,7.0555 50.7524,8.0475 C50.8444,10.2535 51.0004,12.4915 51.0004,14.7015 C51.0004,15.4885 50.9084,16.2565 50.9084,17.0215 C50.9084,18.6365 51.0004,20.1725 51.0004,21.6655 C51.0004,23.9305 50.6294,26.1685 50.6294,28.4375 C50.4734,30.1075 50.7214,30.1625 47.4894,30.1625 C46.2924,30.1625 44.9074,30.5565 44.0064,30.5565 C42.8534,30.5565 41.3924,24.3835 40.8624,22.6585 C39.6654,18.8055 38.8674,15.1735 37.9414,11.2345 C37.8924,10.8365 37.7434,10.4575 37.5064,10.1315 C37.0394,11.2105 37.1954,12.8215 37.1954,13.5585 C37.1954,14.1815 37.0674,14.8905 37.0674,15.5675 C37.0674,19.5345 37.5984,23.9505 37.7224,27.3855 C37.7224,29.1145 38.1214,30.0205 34.0514,30.0205 C33.0894,29.9615 33.1814,26.0815 33.1814,25.7145 C33.1814,21.4685 33.0254,16.8245 32.8104,12.6605 C32.8104,12.3495 32.8424,12.0385 32.8424,11.7545 C32.8104,10.9315 32.7784,10.1395 32.7784,9.3195 C32.7784,8.5005 32.8704,7.8195 32.8704,7.0555 C32.8704,5.7235 32.7784,4.2975 32.7144,2.9185 C32.7144,1.8715 36.1064,1.89843505 36.7884,1.89843505 C37.6624,1.89843505 38.3124,2.3515 38.9354,2.3515 C39.9324,2.3515 40.4914,5.2385 40.9584,6.7715 C42.0264,10.3665 43.3144,13.8945 44.8124,17.3365 C45.1234,18.0185 45.6094,21.3585 46.3044,21.3585 C46.4214,20.8185 46.4744,20.2675 46.4604,19.7155 L46.4604,19.6995 Z M26.2154,18.7735 C26.0914,15.2055 25.9034,11.6365 25.7164,8.0985 C25.5924,6.7395 25.3774,4.6715 23.8214,4.6715 C20.3704,4.6715 21.2394,6.7085 20.9924,8.6935 C20.9194,9.2955 20.8774,9.8995 20.8684,10.5055 C20.8684,12.7985 20.8044,15.3745 21.1794,17.5965 L21.1794,17.7655 C21.1794,18.2775 20.9604,18.7315 20.9604,19.2665 C20.9604,21.9845 20.3064,26.4315 23.0754,26.4315 C25.4054,26.4315 26.3074,25.3835 26.3074,23.2335 C26.3074,21.7325 26.2154,20.2595 26.1834,18.7585 L26.2154,18.7735 Z M30.6044,18.0455 C30.6044,19.7715 30.7594,21.5275 30.7594,23.2565 C30.7594,25.8335 31.0704,28.8075 28.4574,29.8825 C26.7324,30.6645 24.8524,31.0515 22.9554,31.0175 C17.8564,31.0175 17.3694,28.0705 16.6434,20.5945 C16.5154,19.4875 16.1764,18.5535 16.2084,17.4425 C16.2084,15.7455 16.3594,13.9875 16.3594,12.2905 C16.3594,11.2975 16.3284,10.3205 16.2684,9.3435 C16.2684,5.4915 15.9894,0.9885 22.3014,0.9885 L22.4244,0.9885 C23.3264,0.9885 24.2604,0.8465 25.1614,0.8465 C30.3244,0.8465 30.3484,5.4915 30.6954,12.7115 L30.6684,12.7115 C30.6684,14.4965 30.6044,16.2565 30.6044,18.0375 L30.6044,18.0455 Z M4.9814,17.3565 C5.6674,17.3565 6.3814,17.1865 7.0674,17.1865 L7.2234,17.1865 C8.5274,17.1865 9.3694,16.9615 9.3694,16.1975 C9.3694,15.5435 9.3064,14.8945 9.3064,14.2285 C9.3064,13.7475 9.3694,13.2675 9.3694,12.7865 L9.3694,12.1365 C9.3694,11.0295 9.5854,9.8985 9.5854,8.7365 C9.5854,6.7675 9.6174,4.8565 9.6174,2.9025 L9.6174,2.7615 C9.6174,1.6585 11.6404,1.8555 13.1004,1.8555 C14.6524,1.8555 14.2974,9.2765 14.2974,9.5875 C14.2974,13.8345 14.2654,18.1405 13.9864,22.0475 C13.9544,22.3865 13.9544,22.6975 13.9544,23.0365 L13.9544,24.0335 C13.9544,24.7695 13.8904,25.5055 13.8904,26.2435 L13.8904,27.7715 C13.8904,29.8395 14.0454,29.9215 10.5024,30.2925 C9.8804,30.2925 9.7884,30.2065 9.6334,29.4685 C9.5694,27.8935 9.5064,26.3085 9.4454,24.7145 C9.4454,24.2575 9.4774,23.8085 9.4774,23.3515 C9.4774,22.2205 9.6924,21.2835 8.1694,21.2835 C6.5724,21.3425 4.5024,21.1455 4.5024,22.2205 C4.5024,22.4185 4.5294,22.5865 4.5294,22.7885 L4.5294,23.5765 C4.5294,24.5375 4.7174,25.5455 4.7174,26.4915 C4.7174,27.4365 4.9644,28.5035 3.8794,28.6455 C2.9144,28.7885 1.7324,29.2685 0.7674,29.2685 C-0.1986,29.2685 0.0214,26.1795 0.0214,25.7225 C0.0214,24.1945 0.2404,22.7215 0.2404,21.1925 C0.2404,20.4285 0.1774,19.6175 0.1774,18.8295 C0.1774,18.3765 0.2404,17.9235 0.2404,17.4705 C0.2404,17.1045 0.2094,16.7335 0.2094,16.3675 C0.2094,15.3475 0.2404,14.3265 0.2404,13.3065 L0.2404,11.4665 C0.2404,9.3715 -0.2576,3.3675 0.9864,3.0015 C1.5584,2.8355 2.1514,2.7535 2.7464,2.7615 C3.5844,2.7615 4.3624,2.7335 4.3624,3.4155 C4.3624,4.0965 4.5454,4.7745 4.5454,5.4245 C4.5454,5.9325 4.4224,6.4725 4.4224,7.0005 C4.4224,9.8915 4.5184,12.8065 4.5184,15.6935 C4.5184,16.0045 4.4864,16.3475 4.4864,16.6585 C4.4804,16.8375 4.4904,17.0175 4.5184,17.1945 C4.6424,17.3105 4.8094,17.3725 4.9814,17.3635 L4.9814,17.3565 Z" id="Fill-4" fill="#000000" mask="url(#mask-4)"></path>
                </g>
                <path d="M43.2178,40.0859 L45.0248,40.0859 C45.1678,40.0859 45.3108,40.0639 45.4488,40.0199 C45.5938,39.9789 45.7298,39.9069 45.8508,39.8099 C45.9748,39.7059 46.0768,39.5739 46.1468,39.4209 C46.2258,39.2279 46.2648,39.0179 46.2598,38.8059 C46.2658,38.5919 46.2318,38.3779 46.1588,38.1789 C46.1058,38.0179 46.0148,37.8749 45.8958,37.7659 C45.7848,37.6689 45.6568,37.5999 45.5198,37.5639 C45.3668,37.5249 45.2108,37.5079 45.0538,37.5099 L43.2368,37.5099 L43.2178,40.0859 Z M41.9858,36.4199 L45.1138,36.4199 C45.5328,36.4019 45.9508,36.4839 46.3388,36.6589 C46.6208,36.7919 46.8708,36.9949 47.0678,37.2539 C47.2348,37.4839 47.3538,37.7519 47.4168,38.0379 C47.5418,38.5479 47.5418,39.0849 47.4168,39.5949 C47.3518,39.8779 47.2328,40.1429 47.0678,40.3709 C46.8698,40.6279 46.6208,40.8299 46.3388,40.9609 C45.9498,41.1309 45.5328,41.2099 45.1138,41.1919 L43.2368,41.1919 L43.2368,44.1649 L42.0048,44.1649 L41.9858,36.4199 Z" id="Fill-7" fill="#000000"></path>
                <mask id="mask-6" fill="white">
                    <use xlink:href="#path-5"></use>
                </mask>
                <g id="Clip-10"></g>
                <polygon id="Fill-9" fill="#000000" mask="url(#mask-6)" points="50.825 44.165 53.035 44.165 53.035 36.417 50.825 36.417"></polygon>
                <polygon id="Fill-11" fill="#000000" mask="url(#mask-6)" points="56.3496 36.417 57.6056 36.417 60.7046 42.125 60.7446 42.125 60.7446 36.417 61.8736 36.417 61.8736 44.165 60.6216 44.165 57.5266 38.47 57.4866 38.47 57.4866 44.165 56.3566 44.165"></polygon>
                <polygon id="Fill-12" fill="#000000" mask="url(#mask-6)" points="65.189 36.417 70.641 36.417 70.641 37.591 66.512 37.591 66.512 39.618 70.346 39.618 70.346 40.725 66.512 40.725 66.512 42.996 70.713 42.996 70.713 44.165 65.189 44.165"></polygon>
                <path d="M76.6392,41.1045 L79.1072,41.1045 L77.8952,37.7725 L77.8602,37.7725 L76.6392,41.1045 Z M77.1352,36.4175 L78.6462,36.4175 L81.7632,44.1655 L80.2432,44.1655 L79.4832,42.1005 L76.2502,42.1005 L75.4912,44.1655 L74.0282,44.1655 L77.1352,36.4175 Z" id="Fill-13" fill="#000000" mask="url(#mask-6)"></path>
                <path d="M85.207,40.0859 L87.012,40.0859 C87.155,40.0859 87.298,40.0639 87.436,40.0199 C87.58,39.9789 87.715,39.9069 87.834,39.8099 C87.96,39.7089 88.062,39.5749 88.131,39.4209 C88.212,39.2299 88.252,39.0189 88.247,38.8059 C88.253,38.5919 88.219,38.3779 88.145,38.1789 C88.093,38.0169 88,37.8739 87.879,37.7659 C87.77,37.6679 87.641,37.5989 87.504,37.5639 C87.351,37.5259 87.194,37.5079 87.038,37.5099 L85.207,37.5099 L85.207,40.0859 Z M83.976,36.4199 L87.079,36.4199 C87.498,36.4019 87.915,36.4839 88.303,36.6589 C88.593,36.7889 88.85,36.9919 89.054,37.2539 C89.22,37.4839 89.339,37.7519 89.402,38.0379 C89.527,38.5479 89.527,39.0849 89.402,39.5949 C89.337,39.8769 89.218,40.1419 89.054,40.3709 C88.85,40.6309 88.593,40.8329 88.303,40.9609 C87.914,41.1309 87.497,41.2099 87.079,41.1919 L85.203,41.1919 L85.203,44.1649 L83.972,44.1649 L83.976,36.4199 Z" id="Fill-14" fill="#000000" mask="url(#mask-6)"></path>
                <path d="M94.0459,40.0859 L95.8579,40.0859 C96.0019,40.0859 96.1449,40.0639 96.2829,40.0199 C96.4289,39.9799 96.5669,39.9079 96.6869,39.8099 C96.8139,39.7089 96.9149,39.5749 96.9839,39.4209 C97.0649,39.2289 97.1039,39.0179 97.0969,38.8059 C97.1029,38.5919 97.0689,38.3789 96.9989,38.1789 C96.9429,38.0189 96.8509,37.8759 96.7319,37.7659 C96.6209,37.6679 96.4919,37.5999 96.3549,37.5639 C96.2029,37.5259 96.0479,37.5079 95.8919,37.5099 L94.0579,37.5099 L94.0459,40.0859 Z M92.8119,36.4199 L95.9299,36.4199 C96.3499,36.4019 96.7689,36.4839 97.1569,36.6589 C97.4409,36.7899 97.6909,36.9939 97.8879,37.2539 C98.0569,37.4829 98.1769,37.7519 98.2409,38.0379 C98.3669,38.5479 98.3669,39.0849 98.2409,39.5949 C98.1749,39.8779 98.0549,40.1429 97.8879,40.3709 C97.6909,40.6289 97.4409,40.8309 97.1569,40.9609 C96.7669,41.1309 96.3489,41.2099 95.9299,41.1919 L94.0459,41.1919 L94.0459,44.1649 L92.8119,44.1649 L92.8119,36.4199 Z" id="Fill-15" fill="#000000" mask="url(#mask-6)"></path>
                <polygon id="Fill-16" fill="#000000" mask="url(#mask-6)" points="102.7549 36.417 104.1689 36.417 104.1689 42.996 108.2789 42.996 108.2789 44.165 102.7549 44.165"></polygon>
                <polygon id="Fill-17" fill="#000000" mask="url(#mask-6)" points="110.4893 36.417 115.9453 36.417 115.9453 37.591 111.8093 37.591 111.8093 39.618 115.6303 39.618 115.6303 40.725 111.8093 40.725 111.8093 42.996 116.0133 42.996 116.0133 44.165 110.4893 44.165"></polygon>
            </g>
        </g>
    </g>
</svg>