<?xml version="1.0" encoding="UTF-8"?>
<svg width="158px" height="44px" viewBox="0 0 158 44" version="1.1" xmlns="http://www.w3.org/2000/svg" xmlns:xlink="http://www.w3.org/1999/xlink">
    <title>Ресурс 2</title>
    <g id="Page-1" stroke="none" stroke-width="1" fill="none" fill-rule="evenodd">
        <g id="home" transform="translate(-42.000000, -110.000000)" fill="#FED103" fill-rule="nonzero">
            <g id="Group-9" transform="translate(-1769.000000, 0.000000)">
                <g id="header" transform="translate(1811.000000, 66.000000)">
                    <g id="Ресурс-2" transform="translate(0.000000, 44.000000)">
                        <path d="M157.998947,4.63283961 C158.029901,5.75903832 157.375975,6.79155812 156.345601,7.24340008 C155.315227,7.69524205 154.114222,7.47615093 153.309051,6.68946337 C152.503881,5.90277582 152.255379,4.70563236 152.680753,3.66267841 C153.106128,2.61972447 154.12041,1.93928968 155.245204,1.94230833 C155.968253,1.92756416 156.66696,2.20410021 157.184651,2.7099082 C157.702343,3.21571618 157.995702,3.90847277 157.998947,4.63283961 L157.998947,4.63283961 Z M153.163003,4.63283961 C153.145643,5.20205854 153.361426,5.75363121 153.760256,6.15950067 C154.159086,6.56537013 154.706269,6.79023184 155.274769,6.78188033 C155.828463,6.77980045 156.357936,6.55421039 156.743452,6.15612467 C157.128969,5.75803894 157.337966,5.22108289 157.323182,4.66668277 C157.323182,3.51951887 156.394731,2.58955878 155.249428,2.58955878 C154.104125,2.58955878 153.175673,3.51951887 153.175673,4.66668277 L153.163003,4.63283961 Z M154.831298,6.07963474 L154.210439,6.07963474 L154.210439,3.38910345 C154.550336,3.32700317 154.895524,3.29866311 155.240981,3.30449555 C155.564725,3.27955012 155.888789,3.34858058 156.174381,3.50332412 C156.346651,3.64906096 156.443077,3.86559343 156.43624,4.09134904 C156.412184,4.4004251 156.186329,4.65600449 155.882957,4.71744752 L155.882957,4.71321712 C156.152384,4.82728577 156.339599,5.07784969 156.372887,5.36892836 C156.398688,5.60450906 156.465892,5.83366081 156.571393,6.04579158 L155.895628,6.04579158 C155.793376,5.83734577 155.722226,5.6149952 155.684451,5.38584994 C155.633769,5.09395268 155.473275,4.96281043 155.126945,4.96281043 L154.831298,4.96281043 L154.831298,6.07963474 Z M154.831298,4.55246211 L155.126945,4.55246211 C155.469051,4.55246211 155.747804,4.43824144 155.747804,4.15903536 C155.747804,3.87982929 155.570416,3.73599585 155.177628,3.73599585 C155.061257,3.73358047 154.945008,3.74494021 154.831298,3.76983901 L154.831298,4.55246211 Z" id="Shape"></path>
                        <path d="M4.980882,17.3560405 C5.66714565,17.3560405 6.38133863,17.186654 7.06760228,17.186654 L7.22320858,17.186654 C8.52790749,17.186654 9.36977744,16.9621185 9.36977744,16.1979098 C9.36977744,15.5439992 9.30593896,14.8940279 9.30593896,14.2282997 C9.30593896,13.7477149 9.36977744,13.26713 9.36977744,12.7865452 L9.36977744,12.1365739 C9.36977744,11.029653 9.5852323,9.89909686 9.5852323,8.73702693 C9.5852323,6.76741689 9.61715154,4.85689516 9.61715154,2.903042 L9.61715154,2.76123007 C9.61715154,1.65824845 11.6400334,1.85520946 13.1003386,1.85520946 C14.6524116,1.85520946 14.29731,9.27670008 14.29731,9.58789847 C14.29731,13.8343777 14.2653908,18.1399453 13.9860975,22.0476516 C13.9541782,22.3864245 13.9541782,22.6976229 13.9541782,23.0363958 L13.9541782,24.0330185 C13.9541782,24.7696527 13.8903397,25.5062868 13.8903397,26.242921 L13.8903397,27.7713384 C13.8903397,29.8394289 14.045946,29.9221525 10.5029104,30.2924392 C9.88048527,30.2924392 9.78871746,30.2057764 9.63311116,29.4691422 C9.56927268,27.8934542 9.50676417,26.3085746 9.44558563,24.7145036 C9.44558563,24.257554 9.47750487,23.808483 9.47750487,23.3515334 C9.47750487,22.2209773 9.69295974,21.2834429 8.16881605,21.2834429 C6.57285407,21.3425312 4.50209341,21.1455702 4.50209341,22.2209773 C4.50209341,22.4179383 4.53002274,22.5873247 4.53002274,22.788225 L4.53002274,23.576069 C4.53002274,24.5372387 4.71754827,25.545679 4.71754827,26.4910918 C4.71754827,27.4365046 4.96492238,28.5040333 3.87966823,28.6458452 C2.91411124,28.7876571 1.73309937,29.268242 0.767542378,29.268242 C-0.198014618,29.268242 0.0214301535,26.1798934 0.0214301535,25.7229439 C0.0214301535,24.1945265 0.240874925,22.7212582 0.240874925,21.1928408 C0.240874925,20.4286321 0.177036446,19.6171528 0.177036446,18.8293088 C0.177036446,18.3762985 0.240874925,17.9232882 0.240874925,17.4702778 C0.240874925,17.1039304 0.208955686,16.7336437 0.208955686,16.3672962 C0.208955686,15.3470382 0.240874925,14.3267802 0.240874925,13.3065222 L0.240874925,11.4669064 C0.240874925,9.37124137 -0.257863193,3.36786997 0.98698715,3.0015225 C1.55799218,2.83482056 2.15113651,2.75381789 2.74653523,2.76123007 C3.58441527,2.76123007 4.36244673,2.73365553 4.36244673,3.41514061 C4.36244673,4.09662568 4.54598236,4.77417154 4.54598236,5.42414285 C4.54598236,5.93230224 4.42229531,6.47197539 4.42229531,6.99983088 C4.42229531,9.89121842 4.51805303,12.8062413 4.51805303,15.6936896 C4.51805303,16.004888 4.48613379,16.3476001 4.48613379,16.6587985 C4.47999734,16.8379665 4.49068273,17.0173105 4.51805303,17.1945324 C4.6425962,17.310758 4.80969893,17.3719143 4.980882,17.3639189 L4.980882,17.3560405 Z M30.6040515,18.045404 C30.6040515,19.7707824 30.7596578,21.5276745 30.7596578,23.2569921 C30.7596578,25.8332421 31.0708704,28.8073532 28.4574827,29.8827603 C26.732901,30.6637055 24.8524154,31.0514503 22.9554038,31.0172557 C17.8563053,31.0172557 17.3695368,28.0707191 16.6433741,20.5940794 C16.5156972,19.4871585 16.1765553,18.5535634 16.2084745,17.4427033 C16.2084745,15.7448995 16.3600909,13.9880073 16.3600909,12.2902034 C16.3600909,11.29752 16.3281717,10.3205934 16.2683231,9.34366683 C16.2683231,5.49110959 15.9890297,0.988581039 22.3010594,0.988581039 L22.4247464,0.988581039 C23.3264649,0.988581039 24.2601027,0.846769117 25.1618212,0.846769117 C30.3247582,0.846769117 30.3486976,5.49110959 30.6958194,12.7117 L30.66789,12.7117 C30.66789,14.4961667 30.6040515,16.2569981 30.6040515,18.0375255 L30.6040515,18.045404 Z M26.2151561,18.7741597 C26.0914691,15.2052263 25.9039435,11.6362929 25.716418,8.09887328 C25.5927309,6.73984235 25.3772761,4.67175181 23.8212131,4.67175181 C20.3699454,4.67175181 21.2397446,6.70832859 20.9923705,8.69369551 C20.9193916,9.29518751 20.878107,9.90001608 20.8686835,10.5057367 C20.8686835,12.7983628 20.804845,15.3746128 21.1798961,17.5963329 L21.1798961,17.7657194 C21.1798961,18.277818 20.9604513,18.7308283 20.9604513,19.2665622 C20.9604513,21.9846241 20.3061069,26.4320035 23.0751009,26.4320035 C25.4052054,26.4320035 26.3069239,25.384171 26.3069239,23.2333568 C26.3069239,21.732514 26.2151561,20.2592457 26.1832369,18.7584028 L26.2151561,18.7741597 Z M46.4599338,19.6998764 C46.4599338,14.5473766 46.2125597,9.28063931 45.9332663,4.33691811 C45.9013471,3.85633326 45.7457408,3.2575718 45.7457408,2.83607526 C45.7457408,1.61885625 48.7940282,1.98520372 49.4763019,1.98520372 C50.9086778,1.98520372 50.7530715,7.05497996 50.7530715,8.04766342 C50.8448393,10.2536267 51.0004456,12.4911037 51.0004456,14.7010061 C51.0004456,15.4888501 50.9086778,16.2569981 50.9086778,17.0212068 C50.9086778,18.636287 51.0004456,20.1725828 51.0004456,21.6655472 C51.0004456,23.9305988 50.6293845,26.1680758 50.6293845,28.4370665 C50.4737782,30.1072959 50.7211523,30.1624449 47.4893293,30.1624449 C46.2923578,30.1624449 44.9078608,30.556367 44.0061423,30.556367 C42.8530597,30.556367 41.3927545,24.3836091 40.8620972,22.6582307 C39.6651257,18.8056735 38.8671447,15.1737125 37.9414867,11.2344925 C37.8926024,10.8366167 37.7430387,10.4572969 37.5065871,10.1315108 C37.0397682,11.2108571 37.1953745,12.8219982 37.1953745,13.5586323 C37.1953745,14.1810291 37.0676976,14.8900887 37.0676976,15.5676346 C37.0676976,19.5344292 37.5983549,23.9502949 37.722042,27.3852948 C37.722042,29.1146124 38.1210325,30.020633 34.0513294,30.020633 C33.0897623,29.9615447 33.1815301,26.0814129 33.1815301,25.7150655 C33.1815301,21.4685862 33.0259238,16.8242458 32.810469,12.6604901 C32.810469,12.3492917 32.8423882,12.0380934 32.8423882,11.7544695 C32.810469,10.9311725 32.7785497,10.1393893 32.7785497,9.32003151 C32.7785497,8.50067373 32.8703176,7.81918866 32.8703176,7.05497996 C32.8703176,5.72352357 32.7785497,4.29752591 32.7147113,2.91879888 C32.7147113,1.87096634 36.1061305,1.89847194 36.7884042,1.89847194 C37.6621934,1.89847194 38.3125479,2.35155119 38.9349731,2.35155119 C39.9324493,2.35155119 40.491036,5.2389995 40.9578549,6.77135611 C42.0267904,10.3661612 43.3138661,13.8942004 44.8121031,17.3363444 C45.1233156,18.0178294 45.610084,21.3582881 46.3043275,21.3582881 C46.4220837,20.8187802 46.4743206,20.2673429 46.4599338,19.7156333 L46.4599338,19.6998764 Z M57.8391427,6.51924603 C57.8391427,6.91316804 57.9349004,7.30709005 57.9349004,7.70101205 C57.9349004,8.77641913 57.6516172,9.93848906 57.6516172,11.0138961 C57.6324124,11.1507803 57.6781107,11.2887714 57.7755131,11.3880138 C57.8729155,11.4872562 58.0111739,11.5366967 58.1503553,11.5220555 C58.8046997,11.5220555 59.4869734,11.4117574 60.1692472,11.4117574 C62.5033416,11.4117574 62.9621806,11.1281335 62.9621806,14.752216 C62.9621806,16.5366827 57.4561118,15.146138 57.4561118,16.5642572 C57.4561118,17.6396643 57.5837888,18.7150714 57.5837888,19.7629039 L57.5837888,21.6064589 C57.5837888,23.075788 58.078537,24.4387582 58.078537,25.8805127 C58.2341433,26.7865333 60.5363184,26.5895723 61.2185922,26.5895723 C62.9621806,26.5895723 63.6125351,26.4201859 63.6125351,28.6852374 C63.6125351,29.4730814 63.6125351,30.1585057 62.99011,30.2136548 C62.6150589,30.2136548 62.3357656,30.1309312 61.9926337,30.1309312 C61.1547537,30.1309312 60.3168737,30.3278922 59.4430845,30.3278922 C59.2776747,30.3325741 59.1121614,30.3233493 58.9483363,30.3003176 C57.7513648,30.3003176 56.6142419,30.5248532 55.43323,30.5248532 C54.4397437,30.5248532 53.7853993,30.611516 53.7215608,29.8157936 C53.6577223,29.0200711 53.5061059,28.2873762 53.5061059,27.550742 C53.5294319,27.3441211 53.5387624,27.1361933 53.5340353,26.9283453 C53.5340353,26.3650368 53.4741867,25.7977891 53.4741867,25.2305414 C53.4741867,24.5490563 53.5340353,23.8715105 53.5340353,23.1900254 C53.5340353,22.5952032 53.4103482,21.9728064 53.4103482,21.3779842 C53.4103482,21.0116367 53.4422674,20.7280129 53.4422674,20.3853007 C53.4422674,15.0082653 53.043277,9.68243975 53.043277,4.41570251 C53.043277,3.99026674 53.0712063,3.56483097 53.0712063,3.1393952 C53.0712063,2.71395943 53.0113577,2.43427481 53.0113577,2.06398812 C53.0113577,1.18948126 55.6247455,0.988581039 56.9613636,0.988581039 C57.7393951,0.988581039 58.5134366,1.13039296 59.2914681,1.13039296 C59.9138933,1.13039296 60.5682377,1.10281842 61.2185922,1.10281842 L62.0165732,1.10281842 C63.1656658,1.10281842 62.9821302,3.0015225 62.9821302,4.25419448 C62.9821302,5.50686647 61.8330375,5.21536418 60.9273291,5.21536418 C60.7118743,5.21536418 60.5283386,5.18778964 60.1812169,5.1602151 C58.9403565,5.1602151 57.8191932,4.70720479 57.8191932,6.51924603 L57.8391427,6.51924603 Z M80.114782,13.2159202 C80.114782,16.2451804 79.4285183,21.2558683 76.4440694,22.0515908 C75.6979572,22.2485518 74.449117,22.2761263 74.449117,23.0127605 C74.449117,25.5062868 74.7284103,28.0549622 74.7284103,30.4618257 C74.7284103,31.7341938 74.2935107,31.8208566 72.6137607,31.8208566 C71.7439614,31.8208566 70.4671918,31.935094 70.4073433,30.9975596 C70.2836562,29.3824794 70.1280499,27.7713384 70.1599692,26.1562581 L70.1599692,24.3442169 C70.1599692,21.9806848 69.9724436,23.5209199 66.3655696,21.4252548 C64.8414259,20.5468087 65.0289514,17.5214877 65.0289514,15.7921701 C65.0289514,15.0555359 65.1207192,14.2913272 65.1207192,13.5546931 C65.1207192,13.2159202 65.0888,12.9047218 65.0888,12.5620096 C65.0888,11.7978009 65.1805678,10.9863216 65.1805678,10.2693835 C65.1805678,10.1275716 65.1526385,9.9857597 65.1526385,9.84394778 C65.1526385,8.74096615 65.3680933,7.60647077 65.4319318,6.47591461 C65.4319318,5.22718184 65.3680933,3.9823883 65.3680933,2.73759475 C65.3680933,2.11519798 65.4917804,1.77248584 66.0822863,1.77248584 C67.2034496,1.77248584 68.2926936,1.74491129 69.3819377,1.74491129 C69.9724436,1.74491129 70.0961307,1.97338606 70.0961307,2.45397091 C69.9932728,3.27049113 69.9519302,4.09342175 69.9724436,4.91598346 L69.9724436,5.48323115 C69.9724436,8.37067947 69.6931503,10.8642058 69.6931503,13.5271185 C69.7210796,14.0352779 69.7529989,14.5158628 69.7529989,15.0279614 C69.7529989,15.6779327 69.6931503,16.327904 69.6931503,16.9975714 C69.6931503,18.5732595 71.4646681,18.8923363 72.769367,18.8923363 C74.6366425,18.8923363 75.1034614,18.045404 75.1034614,16.5721357 C75.1034614,14.2086036 75.0116936,11.8726461 75.0116936,9.54850627 C75.0071197,9.2934599 75.0164429,9.03835524 75.0396229,8.78429758 C75.0396229,6.51924603 74.6047233,4.08480802 74.6047233,1.9024801 C74.6047233,0.99645948 77.1223533,1.30765787 78.3991229,1.30765787 C79.4883669,1.30765787 79.735741,5.9244238 79.9551858,7.08649372 C80.2025599,8.50067373 80.1107921,9.89121842 80.1107921,11.2778239 L80.114782,13.2159202 Z M94.0435402,17.7184487 C96.0025835,17.7184487 95.4719261,20.1528867 95.7512195,21.2834429 C95.8504336,22.0345613 95.902402,22.7910285 95.9068258,23.5484944 C95.9068258,25.9120265 96.2180384,28.2755585 94.0435402,29.697617 C92.6430835,30.3751628 91.1508591,31.273305 89.1918157,31.273305 C85.3056483,31.273305 83.2827665,31.2181559 82.381048,25.2423591 C82.2837456,24.6800581 82.2317141,24.1110305 82.2254417,23.540616 L82.2254417,23.2294176 C82.2254417,18.8962755 81.7905421,14.878271 81.7905421,12.1996014 C81.7905421,12.0577895 81.8224613,11.9435521 81.8224613,11.8056794 C81.8224613,11.494481 81.7267036,11.1832826 81.7267036,10.8996588 C81.7267036,9.71789273 82.0698354,8.49279529 82.1017547,7.30315083 C82.1935225,4.04541582 83.3745343,2.15065096 87.8551976,1.52431497 C88.381865,1.35492851 89.4711091,1.46916589 90.1533828,1.46916589 C93.4849535,1.46916589 96.1382403,3.1393952 96.1382403,8.72127005 C96.1382403,9.34366683 95.7631892,9.56820237 94.7976322,9.56820237 C94.426571,9.56820237 94.0555099,9.54062783 93.6804588,9.54062783 L92.5832349,9.54062783 C91.3383846,9.54062783 91.1189398,9.48153953 91.1189398,6.34198113 C91.1189398,5.57777243 90.3209588,4.95143644 89.4711091,4.95143644 C87.1410046,4.95143644 86.454741,5.37687221 86.454741,8.49673451 C86.454741,11.4708457 86.6741857,14.5867688 86.6741857,17.6436035 C86.6741857,18.4314475 86.578428,19.2192916 86.578428,20.0071356 C86.578428,23.3475942 86.0517606,27.3971124 89.1279773,27.3971124 C91.0590913,27.3971124 91.7094458,26.8022902 91.7094458,23.9148419 C91.7094458,21.5513099 91.8650521,22.2446126 88.7569161,21.6222158 C87.6995913,21.4213156 88.1983294,20.2040966 87.7913591,18.9868776 C87.7683037,18.9035397 87.7588753,18.8171017 87.7634298,18.7308283 C87.7634298,17.3166483 91.8650521,17.7972331 91.6495972,17.7972331 L91.6495972,17.8248077 C92.4475782,17.7972331 93.2655087,17.742084 94.0754594,17.742084 L94.0435402,17.7184487 Z M102.374462,6.04653962 C102.374462,6.61378731 102.282694,7.17709578 102.282694,7.74434347 C102.282694,9.01671156 102.466229,10.3205934 102.466229,11.5969007 C102.466229,13.0386553 102.4383,14.4291999 102.4383,15.898529 C102.4383,16.4933513 102.466229,17.0802951 102.466229,17.6554212 C102.466229,17.8523822 102.4383,18.0493432 102.4383,18.277818 C102.4383,21.035272 102.905119,23.8281791 102.905119,26.5501801 C102.933048,26.8062294 103.152493,26.9204668 103.495625,26.9204668 C104.864162,26.9204668 106.22871,26.6644175 107.537399,26.6092684 C108.594723,26.6092684 108.654572,29.6109541 108.654572,29.7803406 C108.654572,30.7139358 105.111536,30.8281731 104.521031,30.8281731 C102.964968,30.8281731 98.9551131,30.914836 98.7995069,30.1191135 C98.4505029,28.4337988 98.2727361,26.7183017 98.2688495,24.9981274 L98.2688495,24.4033052 C98.2688495,24.1196813 98.2369303,23.8360575 98.2369303,23.5524337 C98.2369303,23.0994233 98.3007687,22.6188385 98.3007687,22.1658282 C98.3007687,21.7128179 98.205011,21.1455702 98.205011,20.6374108 C98.205011,20.015014 98.2688495,19.3611035 98.2688495,18.7387067 C98.2688495,17.2102893 98.0533946,15.6818719 98.0533946,14.1495153 C98.0533946,13.3301575 98.081324,12.479286 98.081324,11.6599282 C98.081324,11.1517688 98.0533946,10.6396702 98.0533946,10.0842402 C98.0533946,9.52881017 98.081324,9.0639822 98.081324,8.50855217 L98.081324,6.38531255 C98.081324,5.36505455 98.081324,4.31722201 97.9894783,3.26938946 C97.9894783,2.56426907 97.9576369,1.93792268 99.1865276,1.93792268 C101.704158,1.93792268 102.326583,1.91035854 102.326583,4.69538713 C102.326583,4.72296167 102.326583,4.72296167 102.298653,4.72296167 C102.326583,5.14839744 102.390421,5.57383321 102.390421,5.99926898 L102.374462,6.04653962 Z M124.155353,18.0335863 C124.155353,19.7589647 124.310959,21.5158569 124.310959,23.2451745 C124.310959,25.8214244 124.622172,28.7955356 122.008784,29.8709427 C120.284202,30.6518878 118.403717,31.0396326 116.506705,31.005438 C111.407606,31.005438 110.920838,28.0589014 110.194675,20.5822617 C110.066998,19.4753409 109.727856,18.5417457 109.759776,17.4308856 C109.759776,15.7330818 109.915382,13.9761896 109.915382,12.2783858 C109.915382,11.2857023 109.883463,10.3087757 109.819624,9.33184917 C109.819624,5.47929193 109.540331,0.976763379 115.852361,0.976763379 L115.980038,0.976763379 C116.877766,0.976763379 117.811404,0.834951456 118.713122,0.834951456 C123.876059,0.834951456 123.899999,5.47929193 124.25111,12.6998823 L124.219191,12.6998823 C124.219191,14.484349 124.155353,16.2451804 124.155353,18.0257079 L124.155353,18.0335863 Z M119.766457,18.762342 C119.64277,15.1934086 119.455245,11.6244753 119.271709,8.08705562 C119.144032,6.72802469 118.928577,4.65993415 117.372514,4.65993415 C113.921247,4.65993415 114.791046,6.69651093 114.543672,8.68187785 C114.470693,9.28336985 114.429408,9.88819842 114.419985,10.4939191 C114.419985,12.7865452 114.356146,15.3627951 114.731197,17.5845152 L114.731197,17.7539017 C114.731197,18.2660003 114.511753,18.7190106 114.511753,19.2547445 C114.511753,21.9728064 113.857408,26.4201859 116.626402,26.4201859 C118.960497,26.4201859 119.862215,25.3723533 119.862215,23.2215392 C119.862215,21.7206963 119.766457,20.247428 119.734538,18.7465852 L119.766457,18.762342 Z M143.023613,23.0639704 C143.023613,22.2446126 142.995684,21.393741 142.995684,20.5743833 C142.995684,18.080857 143.119371,15.646419 143.243058,13.1528926 C143.274977,12.3886839 143.430584,11.5969007 143.430584,10.7893606 C143.430584,8.35492259 143.334826,5.83382174 143.15129,3.36786997 C143.114206,3.13448641 143.09288,2.89892678 143.087452,2.66274957 C143.087452,1.55582873 145.732759,1.95368996 146.973619,1.95368996 C148.314227,2.03641358 148.030944,6.0032082 148.030944,7.24800174 C147.875338,9.54062783 147.596044,11.8096186 147.596044,14.1298192 C147.596044,14.7246415 147.627964,15.2918891 147.627964,15.8867114 C147.627964,18.0375255 147.536196,20.1607652 147.536196,22.2840048 C147.536196,23.6469749 147.564125,24.9744921 147.564125,26.3059485 C147.564125,26.959859 147.412509,27.6374049 147.412509,28.2755585 C147.412509,28.4764587 147.440438,28.6458452 147.440438,28.8428062 C147.440438,29.9773016 146.167658,30.0245722 145.046495,30.0245722 C144.799121,30.0245722 144.579676,29.9694232 144.332302,29.9694232 C143.554271,29.9694232 142.776239,30.1663842 142.062046,30.1663842 C139.947397,30.1663842 138.610778,23.9936263 137.334009,22.2643087 C137.284649,22.2138833 137.21746,22.1842439 137.146483,22.1815851 C136.587897,22.1815851 135.841784,25.3329611 135.470723,26.2862524 C134.848298,27.7870952 133.874761,31.1590676 132.733648,31.1590676 C131.935667,31.1590676 131.113747,31.2693658 130.307786,31.2693658 C128.440511,31.2693658 126.577225,31.4978405 126.577225,30.1663842 C126.577225,28.3543429 126.700912,26.6210861 126.700912,24.7854095 C126.605154,20.479842 126.266012,15.9221644 126.266012,11.5338732 C126.266012,11.2502493 126.293942,10.939051 126.293942,10.6554271 C126.293942,10.4584661 126.266012,10.2615051 126.266012,10.0606049 C126.266012,7.93736526 126.665003,5.67231371 126.665003,3.54907409 C126.665003,3.46241125 126.633084,3.40726217 126.633084,3.32059933 C126.596391,3.05788436 126.679174,2.79258948 126.859249,2.59580754 C127.039324,2.39902559 127.298279,2.29087636 127.566721,2.30034133 C128.093389,2.30034133 128.624046,2.32791587 129.182633,2.32791587 C129.617533,2.32791587 130.052432,2.30034133 130.487332,2.30034133 C131.329202,2.30034133 131.544657,2.58396517 131.544657,3.08818534 C131.544657,3.48210735 131.484808,3.85633326 131.484808,4.25025526 C131.484808,4.9041658 131.608495,5.58171165 131.608495,6.26319672 C131.608495,7.53556481 131.516727,8.8670212 131.516727,10.170903 C131.544657,10.4545269 131.544657,10.7342115 131.544657,11.0217746 C131.544657,11.7544695 131.484808,12.5186782 131.484808,13.2553124 C131.484808,13.6492344 131.576576,14.0195211 131.576576,14.3898077 C131.576576,17.3914934 131.205515,20.5349911 131.205515,23.4500139 C131.205515,24.0172616 131.237434,25.4905299 131.604505,25.4905299 C132.629911,25.4905299 133.998448,19.6841195 134.397439,18.1281276 C134.796429,16.5721357 134.680722,14.5828295 136.204866,14.5828295 C137.166433,14.5828295 138.598809,14.4134431 138.910021,15.1776518 C139.88852,17.8495072 141.052339,20.4516165 142.393208,22.9654899 C142.490152,23.1939187 142.650615,23.3905842 142.856037,23.5327375 C142.977668,23.3907698 143.034035,23.2052645 143.011644,23.0206389 L143.023613,23.0639704 Z" id="Shape"></path>
                        <path d="M41.986014,36.2546374 L45.1144109,36.2546374 C45.5333787,36.2375975 45.9508176,36.3192436 46.3387295,36.4940996 C46.6207517,36.6265072 46.8703756,36.8302015 47.0673117,37.0886263 C47.2344036,37.3189607 47.3536156,37.5867065 47.4165805,37.8730714 C47.5417925,38.3827762 47.5417925,38.9198707 47.4165805,39.4295755 C47.3513856,39.7125416 47.2323439,39.9770908 47.0673117,40.2057632 C46.8701506,40.4629136 46.6205073,40.6652092 46.3387295,40.7961613 C45.9497308,40.9661517 45.532712,41.044903 45.1144109,41.0273662 L43.2366216,41.0273662 L43.2366216,44 L42.0047919,44 L41.986014,36.2546374 Z M43.2178437,39.9208859 L45.024277,39.9208859 C45.1678608,39.9209426 45.3107321,39.8987034 45.4486574,39.8548273 C45.5936469,39.8136107 45.7300733,39.7421254 45.8505043,39.6442657 C45.9750165,39.5414528 46.0764989,39.4087061 46.147195,39.2561718 C46.2261252,39.0629579 46.2646261,38.8527408 46.2598624,38.6410018 C46.2662405,38.4263316 46.2317006,38.2125685 46.1584617,38.0134458 C46.1054414,37.8527698 46.0147518,37.7103431 45.8955712,37.6005799 C45.7852092,37.5040069 45.6570616,37.4349768 45.5200134,37.3982757 C45.3671777,37.3607511 45.2109135,37.3427411 45.0543216,37.3446031 L43.2366216,37.3446031 L43.2178437,39.9208859 Z" id="Shape"></path>
                        <polygon id="Path" points="50.8251748 36.2524272 53.034965 36.2524272 53.034965 44 50.8251748 44"></polygon>
                        <polygon id="Path" points="56.3496503 36.2524272 57.6058712 36.2524272 60.7047906 41.9598609 60.7446132 41.9598609 60.7446132 36.2524272 61.8741259 36.2524272 61.8741259 44 60.6215253 44 57.5262261 38.3049558 57.4864035 38.3049558 57.4864035 44 56.3568908 44"></polygon>
                        <polygon id="Path" points="65.1888112 36.2524272 70.6406493 36.2524272 70.6406493 37.4253007 66.5124255 37.4253007 66.5124255 39.4530503 70.3460645 39.4530503 70.3460645 40.5598464 66.5124255 40.5598464 66.5124255 42.8312563 70.7132867 42.8312563 70.7132867 44 65.1888112 44"></polygon>
                        <path d="M77.1354895,36.2524272 L78.6460883,36.2524272 L81.7622378,44 L80.243007,44 L79.4833916,41.9350819 L76.2507102,41.9350819 L75.4910948,44 L74.027972,44 L77.1354895,36.2524272 Z M76.6391499,40.9397913 L79.1078999,40.9397913 L77.8951049,37.6070135 L77.8605769,37.6070135 L76.6391499,40.9397913 Z" id="Shape"></path>
                        <path d="M83.975781,36.2547291 L87.0795345,36.2547291 C87.498242,36.2373046 87.9154708,36.3189641 88.3030214,36.4941884 C88.5927008,36.6237574 88.8500469,36.8275893 89.0536268,37.0887082 C89.2194958,37.31981 89.3385027,37.5872737 89.4026583,37.8731439 C89.5277852,38.3828427 89.5277852,38.9199308 89.4026583,39.4296296 C89.3365593,39.712206 89.2176921,39.9765435 89.0536268,40.2058081 C88.8498231,40.4656611 88.5924555,40.6680944 88.3030214,40.7961992 C87.9142869,40.9661876 87.4975514,41.044938 87.0795345,41.0274014 L85.2030209,41.0274014 L85.2030209,44 L83.972028,44 L83.975781,36.2547291 Z M85.2067739,39.9209341 L87.01198,39.9209341 C87.1554487,39.9207183 87.2981885,39.8984848 87.4360721,39.8548763 C87.5798096,39.813653 87.7149124,39.7421457 87.833893,39.6443173 C87.9602986,39.5438253 88.0621517,39.4105047 88.1303821,39.256228 C88.212336,39.0639952 88.2521833,38.8533043 88.2467259,38.6410652 C88.2530998,38.4263976 88.2185833,38.212637 88.1453942,38.0135166 C88.0925172,37.8517067 88.0003614,37.7089205 87.8789293,37.6006557 C87.7693865,37.5027962 87.6410506,37.4336185 87.5036266,37.3983539 C87.3508627,37.3610454 87.1947273,37.3430383 87.0382512,37.3446819 L85.2067739,37.3446819 L85.2067739,39.9209341 Z" id="Shape"></path>
                        <path d="M92.8111888,36.2547291 L95.9292867,36.2547291 C96.3494212,36.2373046 96.7680721,36.3189641 97.1569435,36.4941884 C97.4403118,36.6254899 97.6908365,36.8293611 97.8875124,37.0887082 C98.0561992,37.3188092 98.17701,37.5865262 98.2414993,37.8731439 C98.3670527,38.3828427 98.3670527,38.9199308 98.2414993,39.4296296 C98.1749999,39.7129312 98.0543386,39.9775025 97.8875124,40.2058081 C97.6906106,40.4638864 97.4400648,40.6663588 97.1569435,40.7961992 C96.7668841,40.9661876 96.3487283,41.044938 95.9292867,41.0274014 L94.0463773,41.0274014 L94.0463773,44 L92.8111888,44 L92.8111888,36.2547291 Z M94.0463773,39.9209342 L95.8577361,39.9209342 C96.0017114,39.9209909 96.1449723,39.8987519 96.2832736,39.8548763 C96.4290242,39.8147686 96.5660118,39.7431853 96.6862162,39.6443173 C96.8130527,39.5438253 96.9152529,39.4105047 96.9837159,39.256228 C97.0646531,39.0636517 97.1033436,38.8529761 97.0966904,38.6410652 C97.1023754,38.4268306 97.0690911,38.2134995 96.9987792,38.0135166 C96.9428762,37.8533562 96.8508934,37.711322 96.731406,37.6006557 C96.6212098,37.5032776 96.4925413,37.4341561 96.3548242,37.3983539 C96.202843,37.3608539 96.0474021,37.3428425 95.8916285,37.3446819 L94.0576748,37.3446819 L94.0463773,39.9209342 Z" id="Shape"></path>
                        <polygon id="Path" points="102.755245 36.2524272 104.168683 36.2524272 104.168683 42.8312563 108.27972 42.8312563 108.27972 44 102.755245 44"></polygon>
                        <polygon id="Path" points="110.48951 36.2524272 115.945334 36.2524272 115.945334 37.4253007 111.810054 37.4253007 111.810054 39.4530503 115.630342 39.4530503 115.630342 40.5598464 111.810054 40.5598464 111.810054 42.8312563 116.013986 42.8312563 116.013986 44 110.48951 44"></polygon>
                    </g>
                </g>
            </g>
        </g>
    </g>
</svg>