<?xml version="1.0" encoding="UTF-8"?>
<svg width="21px" height="21px" viewBox="0 0 21 21" version="1.1" xmlns="http://www.w3.org/2000/svg" xmlns:xlink="http://www.w3.org/1999/xlink">
    <title>instagram (2)</title>
    <g id="Page-1" stroke="none" stroke-width="1" fill="none" fill-rule="evenodd">
        <g id="menu-mobile" transform="translate(-90.000000, -735.000000)" fill="#FED103" fill-rule="nonzero">
            <g id="Group-6" transform="translate(41.000000, 719.000000)">
                <g id="Group-2" transform="translate(33.000000, 0.000000)">
                    <g id="instagram-(2)" transform="translate(16.000000, 16.000000)">
                        <path d="M20.9466269,6.17407627 C20.897421,5.05826197 20.7169461,4.29114965 20.4584151,3.62643654 C20.1917097,2.92085986 19.7813938,2.28915799 19.2438159,1.76402179 C18.7185795,1.23071288 18.0825898,0.816308797 17.3850528,0.553820795 C16.7163661,0.295339051 15.9531144,0.114898575 14.8370872,0.0657020993 C13.7127255,0.0123391683 13.3557827,0 10.5040871,0 C7.65239161,0 7.29544881,0.0123391683 6.17525435,0.0615356439 C5.05922714,0.110732119 4.29196844,0.291332794 3.62728873,0.54965434 C2.92141719,0.816308797 2.28959479,1.22654642 1.76435839,1.76402179 C1.23094771,2.28915799 0.816624785,2.92502631 0.55392647,3.62243028 C0.295395405,4.29114965 0.114920499,5.05409551 0.0657146359,6.16990982 C0.0123415228,7.29405703 0,7.65093173 0,10.5020832 C0,13.3532347 0.0123415228,13.7101094 0.0615473856,14.8300902 C0.110753248,15.9459045 0.291388383,16.7130168 0.549919448,17.3777299 C0.816624785,18.0833066 1.23094771,18.7150085 1.76435839,19.2401447 C2.28959479,19.7734536 2.92558444,20.1878577 3.62312148,20.4503457 C4.29196844,20.7088274 5.05505989,20.8892679 6.17124733,20.9384644 C7.29128156,20.987821 7.64838458,21 10.5000801,21 C13.3517756,21 13.7087184,20.987821 14.8289129,20.9384644 C15.9449401,20.8892679 16.7121988,20.7088274 17.3768785,20.4503457 C18.7884614,19.9046976 19.9044886,18.7888833 20.4502408,17.3777299 C20.7086116,16.7090105 20.8892468,15.9459045 20.9384526,14.8300902 C20.9876585,13.7101094 21,13.3532347 21,10.5020832 C21,7.65093173 20.9958327,7.29405703 20.9466269,6.17407627 Z M19.0551667,14.7480427 C19.0099679,15.7736367 18.8376672,16.3274575 18.6940567,16.6966714 C18.3411209,17.6115333 17.6148938,18.3376219 16.6998573,18.6904903 C16.330573,18.8340735 15.7726395,19.0063413 14.7508567,19.0513713 C13.6430038,19.1007279 13.3107441,19.1129069 10.5082544,19.1129069 C7.70576472,19.1129069 7.36933772,19.1007279 6.2654918,19.0513713 C5.23970205,19.0063413 4.68577558,18.8340735 4.31649126,18.6904903 C3.86113675,18.5222288 3.44665359,18.2555744 3.1102266,17.9068724 C2.76145808,17.5663431 2.49475274,17.1561055 2.32645913,16.7008378 C2.18284856,16.331624 2.01054793,15.7736367 1.96550932,14.7522091 C1.91614322,13.6445675 1.90396193,13.312211 1.90396193,10.5102559 C1.90396193,7.70830091 1.91614322,7.3719381 1.96550932,6.26846297 C2.01054793,5.2428689 2.18284856,4.68904811 2.32645913,4.31983424 C2.49475274,3.8644064 2.76145808,3.45016251 3.11439385,3.1136395 C3.45482786,2.76493752 3.86514377,2.49828306 4.32065851,2.33018176 C4.68994283,2.18659859 5.24803655,2.01433082 6.26965906,1.96914061 C7.377512,1.91994413 7.70993197,1.90760496 10.5122614,1.90760496 C13.3189183,1.90760496 13.6511781,1.91994413 14.755024,1.96914061 C15.7808137,2.01433082 16.3347402,2.18659859 16.7040245,2.33018176 C17.159379,2.49828306 17.5738622,2.76493752 17.9102892,3.1136395 C18.2590577,3.45416877 18.5257631,3.8644064 18.6940567,4.31983424 C18.8376672,4.68904811 19.0099679,5.24687516 19.0551667,6.26846297 C19.1043726,7.37610456 19.1167141,7.70830091 19.1167141,10.5102559 C19.1167141,13.312211 19.1043726,13.6404011 19.0551667,14.7480427 Z" id="Shape"></path>
                        <path d="M10.5,4.5 C7.18755938,4.5 4.5,7.1873812 4.5,10.5 C4.5,13.8126188 7.18755938,16.5 10.5,16.5 C13.8126188,16.5 16.5,13.8126188 16.5,10.5 C16.5,7.1873812 13.8126188,4.5 10.5,4.5 Z M10.5,14.3920508 C8.35105748,14.3920508 6.60794916,12.6491207 6.60794916,10.5 C6.60794916,8.3508793 8.35105748,6.60794916 10.5,6.60794916 C12.6491207,6.60794916 14.3920508,8.3508793 14.3920508,10.5 C14.3920508,12.6491207 12.6491207,14.3920508 10.5,14.3920508 L10.5,14.3920508 Z" id="Shape"></path>
                        <path d="M16.5,4.5 C16.5,5.32834966 15.8283924,6 14.9999046,6 C14.1716076,6 13.5,5.32834966 13.5,4.5 C13.5,3.67145949 14.1716076,3 14.9999046,3 C15.8283924,3 16.5,3.67145949 16.5,4.5 L16.5,4.5 Z" id="Path"></path>
                    </g>
                </g>
            </g>
        </g>
    </g>
</svg>