<?xml version="1.0" encoding="UTF-8"?>
<svg width="21px" height="19px" viewBox="0 0 21 19" version="1.1" xmlns="http://www.w3.org/2000/svg" xmlns:xlink="http://www.w3.org/1999/xlink">
    <title>linkedin (1)</title>
    <g id="Page-1" stroke="none" stroke-width="1" fill="none" fill-rule="evenodd">
        <g id="menu-mobile" transform="translate(-302.000000, -735.000000)" fill="#FED103" fill-rule="nonzero">
            <g id="Group-6" transform="translate(41.000000, 719.000000)">
                <g id="Group-2-Copy-4" transform="translate(245.000000, 0.000000)">
                    <g id="linkedin-(1)" transform="translate(16.000000, 16.000000)">
                        <path d="M2.26309861,0 C0.894692222,0 0,0.947366116 0,2.19254788 C0,3.41022974 0.868039377,4.38461538 2.21059026,4.38461538 L2.23655968,4.38461538 C3.63173281,4.38461538 4.5,3.41022974 4.5,2.19254788 C4.47391668,0.947366116 3.63173281,0 2.26309861,0 Z" id="Path"></path>
                        <polygon id="Path" points="0 5.84615385 4.5 5.84615385 4.5 19 0 19"></polygon>
                        <path d="M15.3427324,5.84615385 C12.6917889,5.84615385 10.9141863,8.0116623 10.9141863,8.0116623 L10.9141863,6.14779735 L6,6.14779735 L6,19 L10.9139065,19 L10.9139065,11.8228307 C10.9139065,11.4386001 10.9459467,11.0549777 11.0757865,10.7802145 C11.4310272,10.0129696 12.2394482,9.2181147 13.5970301,9.2181147 C15.3751924,9.2181147 16.0863733,10.3967137 16.0863733,12.1244742 L16.0863733,19 L21,19 L21,11.6307762 C21,7.68313847 18.5755767,5.84615385 15.3427324,5.84615385 Z" id="Path"></path>
                    </g>
                </g>
            </g>
        </g>
    </g>
</svg>