<?xml version="1.0" encoding="UTF-8"?>
<svg width="103px" height="74px" viewBox="0 0 103 74" version="1.1" xmlns="http://www.w3.org/2000/svg" xmlns:xlink="http://www.w3.org/1999/xlink">
    <title>Ресурс 2</title>
    <g id="Page-1" stroke="none" stroke-width="1" fill="none" fill-rule="evenodd">
        <g id="home-mobile" transform="translate(-156.000000, -68.000000)" fill-rule="nonzero">
            <g id="1" transform="translate(-608.000000, 0.000000)">
                <g id="Group-2" transform="translate(608.000000, 0.000000)">
                    <g id="Ресурс-2" transform="translate(156.000000, 68.000000)">
                        <path d="M102.999238,47.9451402 C103.02165,48.7591645 102.548174,49.5054771 101.802132,49.8320716 C101.056089,50.1586662 100.1865,50.0003056 99.6035158,49.4316823 C99.0205318,48.863059 98.8406036,47.9977553 99.1485962,47.2439009 C99.4565887,46.4900465 100.190981,45.9982234 101.005388,46.0004053 C101.528913,45.9897481 102.034811,46.1896303 102.409646,46.5552319 C102.784481,46.9208335 102.996888,47.4215628 102.999238,47.9451402 L102.999238,47.9451402 Z M99.497769,47.9451402 C99.4851994,48.3565756 99.6414377,48.7552562 99.9302107,49.0486215 C100.218984,49.3419868 100.615172,49.5045185 101.026795,49.4984819 C101.427697,49.4969786 101.811062,49.3339205 102.090196,49.0461813 C102.369329,48.7584422 102.520654,48.3703266 102.50995,47.9696023 C102.50995,47.1404242 101.837704,46.4682425 101.008446,46.4682425 C100.179189,46.4682425 99.5069432,47.1404242 99.5069432,47.9696023 L99.497769,47.9451402 Z M100.705699,48.9908939 L100.256166,48.9908939 L100.256166,47.046159 C100.502269,47.0012725 100.752202,46.9807881 101.00233,46.9850038 C101.236738,46.9669731 101.471376,47.0168688 101.67816,47.1287185 C101.802891,47.2340581 101.872709,47.3905693 101.867759,47.553747 C101.850341,47.7771494 101.68681,47.9618839 101.467154,48.0062954 L101.467154,48.0032376 C101.662233,48.0856873 101.797785,48.2667966 101.821888,48.4771903 C101.840569,48.6474697 101.889228,48.8131022 101.965616,48.9664318 L101.476328,48.9664318 C101.402293,48.8157657 101.350776,48.6550492 101.323426,48.4894214 C101.286729,48.278436 101.170523,48.1836454 100.919763,48.1836454 L100.705699,48.1836454 L100.705699,48.9908939 Z M100.705699,47.8870428 L100.919763,47.8870428 C101.167465,47.8870428 101.369296,47.8044833 101.369296,47.6026712 C101.369296,47.4008591 101.240858,47.2968952 100.956459,47.2968952 C100.872201,47.2951494 100.788031,47.3033603 100.705699,47.3213573 L100.705699,47.8870428 Z" id="Shape" fill="#000000"></path>
                        <path d="M3.22962158,56.6621063 C3.67459737,56.6621063 4.13768264,56.5527905 4.58265842,56.5527905 L4.6835541,56.5527905 C5.52952551,56.5527905 6.07539697,56.4078835 6.07539697,55.9146911 C6.07539697,55.4926812 6.03400387,55.0732135 6.03400387,54.6435769 C6.03400387,54.333425 6.07539697,54.0232731 6.07539697,53.7131213 L6.07539697,53.2936536 C6.07539697,52.5792874 6.21509867,51.8496678 6.21509867,51.0997104 C6.21509867,49.8285961 6.23579522,48.5956153 6.23579522,47.33467 L6.23579522,47.2431497 C6.23579522,46.5313258 7.54743897,46.6584372 8.49430605,46.6584372 C9.50067571,46.6584372 9.27042661,51.4479957 9.27042661,51.6488317 C9.27042661,54.389354 9.24973007,57.1680098 9.06863527,59.6899005 C9.04793872,59.9085321 9.04793872,60.1093682 9.04793872,60.3279998 L9.04793872,60.9711836 C9.04793872,61.4465803 9.00654562,61.9219771 9.00654562,62.3973738 L9.00654562,63.3837585 C9.00654562,64.7184284 9.1074413,64.7718152 6.81012443,65.0107847 C6.40654174,65.0107847 6.34703917,64.9548557 6.24614349,64.4794589 C6.2047504,63.4625675 6.16421966,62.4397443 6.12455127,61.4109891 C6.12455127,61.1160906 6.14524782,60.8262766 6.14524782,60.5313781 C6.14524782,59.8017585 6.28494952,59.1967081 5.29668934,59.1967081 C4.26186193,59.2348416 2.91917335,59.1077301 2.91917335,59.8017585 C2.91917335,59.9288699 2.93728283,60.0381858 2.93728283,60.1678394 L2.93728283,60.6762851 C2.93728283,61.2965889 3.05887506,61.9473994 3.05887506,62.5575342 C3.05887506,63.167669 3.21927331,63.856613 2.51559066,63.9481332 C1.88952008,64.0396534 1.12374779,64.3498053 0.497677204,64.3498053 C-0.128393382,64.3498053 0.0138953877,62.3566981 0.0138953877,62.0617996 C0.0138953877,61.075415 0.156184157,60.1246215 0.156184157,59.1382369 C0.156184157,58.6450445 0.114791061,58.1213455 0.114791061,57.6128998 C0.114791061,57.3205435 0.156184157,57.0281872 0.156184157,56.7358309 C0.156184157,56.4994037 0.135487609,56.2604342 0.135487609,56.024007 C0.135487609,55.3655698 0.156184157,54.7071326 0.156184157,54.0486954 L0.156184157,52.8614747 C0.156184157,51.5090092 -0.16719941,47.6346529 0.639965974,47.3982257 C1.01020766,47.2906423 1.39480455,47.2383662 1.7808632,47.2431497 C2.32414759,47.2431497 2.82862596,47.2253541 2.82862596,47.6651597 C2.82862596,48.1049652 2.94763111,48.5422285 2.94763111,48.9616962 C2.94763111,49.2896437 2.86743198,49.637929 2.86743198,49.9785876 C2.86743198,51.8445833 2.92952163,53.7258324 2.92952163,55.5892859 C2.92952163,55.7901219 2.90882508,56.0112958 2.90882508,56.2121319 C2.90484619,56.3277603 2.91177463,56.4435024 2.92952163,56.5578749 C3.01027586,56.6328826 3.11862587,56.6723507 3.22962158,56.6671908 L3.22962158,56.6621063 Z M19.8437757,57.1069963 C19.8437757,58.2204924 19.9446714,59.3543263 19.9446714,60.4703646 C19.9446714,62.132982 20.1464627,64.0523646 18.4519329,64.7463929 C17.333708,65.2503864 16.1143944,65.5006227 14.8843653,65.4785547 C11.5780917,65.4785547 11.2624694,63.5769678 10.7916229,58.7518181 C10.7088367,58.0374519 10.4889359,57.4349438 10.5096324,56.7180353 C10.5096324,55.6223349 10.607941,54.488501 10.607941,53.3928005 C10.607941,52.7521589 10.5872445,52.1216862 10.5484385,51.4912136 C10.5484385,49.0049141 10.3673437,46.0991469 14.4600861,46.0991469 L14.5402852,46.0991469 C15.1249627,46.0991469 15.7303368,46.0076267 16.3150142,46.0076267 C19.6626809,46.0076267 19.6782033,49.0049141 19.9032783,53.6648189 L19.8851688,53.6648189 C19.8851688,54.8164484 19.8437757,55.9528246 19.8437757,57.1019118 L19.8437757,57.1069963 Z M16.9980003,57.5773086 C16.9178012,55.2740496 16.796209,52.9707905 16.6746168,50.6878693 C16.5944176,49.8108005 16.4547159,48.4761306 15.4457592,48.4761306 C13.2079449,48.4761306 13.7719259,49.7904627 13.6115276,51.0717459 C13.5642078,51.4599268 13.5374387,51.850261 13.5313285,52.241171 C13.5313285,53.7207479 13.4899354,55.3833654 13.7331198,56.8171823 L13.7331198,56.9264981 C13.7331198,57.2569878 13.5908311,57.5493441 13.5908311,57.8950871 C13.5908311,59.6492248 13.1665518,62.5194008 14.9619774,62.5194008 C16.4728254,62.5194008 17.0575029,61.843168 17.0575029,60.4551112 C17.0575029,59.4865222 16.9980003,58.5357287 16.9773038,57.5671397 L16.9980003,57.5773086 Z M30.1247861,58.1747323 C30.1247861,54.8494974 29.9643878,51.4505379 29.783293,48.2600411 C29.7625965,47.9498893 29.6617008,47.5634705 29.6617008,47.2914521 C29.6617008,46.5059035 31.6382212,46.7423307 32.0806099,46.7423307 C33.0093675,46.7423307 32.9084718,50.0141788 32.9084718,50.6548204 C32.9679744,52.0784683 33.0688701,53.5224541 33.0688701,54.9486443 C33.0688701,55.45709 33.0093675,55.9528246 33.0093675,56.4460169 C33.0093675,57.4883306 33.0688701,58.4797997 33.0688701,59.4433043 C33.0688701,60.9050857 32.8282727,62.3490715 32.8282727,63.8133951 C32.727377,64.8913 32.8877753,64.9268912 30.7922498,64.9268912 C30.0161292,64.9268912 29.1184164,65.181114 28.5337389,65.181114 C27.7860761,65.181114 26.8392091,61.197442 26.4951289,60.0839459 C25.7190084,57.5976464 25.2015947,55.2537117 24.6013948,52.7114832 C24.569698,52.4547088 24.4727203,52.2099096 24.3194043,51.9996593 C24.0167173,52.6962299 24.1176129,53.7360013 24.1176129,54.211398 C24.1176129,54.6130701 24.0348268,55.0706713 24.0348268,55.5079346 C24.0348268,58.0679587 24.3789069,60.9177968 24.459106,63.1346201 C24.459106,64.2506584 24.7178128,64.8353709 22.0790029,64.8353709 C21.4555194,64.7972375 21.515022,62.2931424 21.515022,62.0567152 C21.515022,59.3161929 21.4141263,56.3189055 21.2744246,53.6317699 C21.2744246,53.4309339 21.2951212,53.2300978 21.2951212,53.0470574 C21.2744246,52.5157316 21.2537281,52.0047437 21.2537281,51.4759602 C21.2537281,50.9471767 21.3132307,50.5073711 21.3132307,50.0141788 C21.3132307,49.1549056 21.2537281,48.2346188 21.212335,47.3448389 C21.212335,46.6686061 23.4113432,46.6863572 23.853732,46.6863572 C24.4203,46.6863572 24.8419921,46.978758 25.2455748,46.978758 C25.892342,46.978758 26.2545316,48.8422115 26.5572186,49.8311383 C27.2503202,52.151094 28.0848646,54.4279614 29.0563268,56.6493952 C29.2581181,57.0892007 29.5737405,59.2450105 30.0238904,59.2450105 C30.100244,58.8968318 30.1341145,58.5409544 30.1247861,58.1849012 L30.1247861,58.1747323 Z M37.5031056,49.6684357 C37.5031056,49.9226586 37.5651952,50.1768814 37.5651952,50.4311043 C37.5651952,51.1251326 37.3815133,51.8750901 37.3815133,52.5691184 C37.3690609,52.6574585 37.3986918,52.7465129 37.4618479,52.8105603 C37.525004,52.8746077 37.6146512,52.9065148 37.7048969,52.8970659 C38.1291761,52.8970659 38.5715649,52.8258835 39.0139536,52.8258835 C40.5273887,52.8258835 40.8249016,52.6428431 40.8249016,54.9816933 C40.8249016,56.1333228 37.254747,55.2359161 37.254747,56.1511184 C37.254747,56.8451468 37.3375332,57.5391751 37.3375332,58.2154079 L37.3375332,59.4051709 C37.3375332,60.3534221 37.6583297,61.2330332 37.6583297,62.1634888 C37.7592253,62.7482013 39.2519639,62.6210899 39.6943526,62.6210899 C40.8249016,62.6210899 41.2465937,62.5117741 41.2465937,63.9735555 C41.2465937,64.4820012 41.2465937,64.9243489 40.843011,64.9599401 C40.5998266,64.9599401 40.4187318,64.9065533 40.1962439,64.9065533 C39.6529595,64.9065533 39.1096751,65.0336648 38.5431071,65.0336648 C38.4358548,65.0366863 38.3285354,65.0307329 38.2223106,65.0158692 C37.4461901,65.0158692 36.7088755,65.1607762 35.9431032,65.1607762 C35.2989232,65.1607762 34.8746439,65.2167052 34.8332508,64.7031751 C34.7918577,64.1896449 34.6935491,63.7167904 34.6935491,63.2413937 C34.7086737,63.1080481 34.7147237,62.9738591 34.7116586,62.8397216 C34.7116586,62.4761829 34.6728526,62.110102 34.6728526,61.7440211 C34.6728526,61.3042156 34.7116586,60.8669522 34.7116586,60.4271467 C34.7116586,60.0432702 34.6314595,59.6415981 34.6314595,59.2577216 C34.6314595,59.0212944 34.652156,58.8382539 34.652156,58.61708 C34.652156,55.1469381 34.3934492,51.7098452 34.3934492,48.3108857 C34.3934492,48.036325 34.4115587,47.7617643 34.4115587,47.4872037 C34.4115587,47.212643 34.3727526,47.0321448 34.3727526,46.7931753 C34.3727526,46.2288006 36.0672825,46.0991469 36.9339505,46.0991469 C37.4384288,46.0991469 37.9403201,46.1906671 38.4447985,46.1906671 C38.8483812,46.1906671 39.2726604,46.1728715 39.6943526,46.1728715 L40.2117663,46.1728715 C40.9568421,46.1728715 40.8378369,47.3982257 40.8378369,48.2066543 C40.8378369,49.015083 40.0927612,48.8269581 39.5054966,48.8269581 C39.3657949,48.8269581 39.2467898,48.8091625 39.0217148,48.7913669 C38.2171365,48.7913669 37.4901702,48.4990106 37.4901702,49.6684357 L37.5031056,49.6684357 Z M51.9467092,53.9902242 C51.9467092,55.9451979 51.5017334,59.1789125 49.5666061,59.6924427 C49.0828243,59.8195541 48.2730719,59.8373497 48.2730719,60.3127464 C48.2730719,61.9219771 48.4541667,63.5667989 48.4541667,65.1201005 C48.4541667,65.9412403 48.1721762,65.9971694 47.0830204,65.9971694 C46.5190394,65.9971694 45.6911775,66.070894 45.6523715,65.4658436 C45.5721723,64.4235299 45.4712767,63.3837585 45.4919732,62.3414448 L45.4919732,61.1720197 C45.4919732,59.6466826 45.370381,60.6406939 43.031671,59.2882284 C42.0434108,58.7213114 42.1650031,56.7688799 42.1650031,55.6528416 C42.1650031,55.1774449 42.2245056,54.6842525 42.2245056,54.2088558 C42.2245056,53.9902242 42.2038091,53.7893881 42.2038091,53.5682142 C42.2038091,53.0750219 42.2633117,52.5513228 42.2633117,52.0886373 C42.2633117,51.997117 42.2452022,51.9055968 42.2452022,51.8140766 C42.2452022,51.1022526 42.3849039,50.3700908 42.426297,49.6404712 C42.426297,48.8345848 42.3849039,48.0312406 42.3849039,47.2278964 C42.3849039,46.8262243 42.465103,46.6050504 42.8479892,46.6050504 C43.5749554,46.6050504 44.2812251,46.5872548 44.9874948,46.5872548 C45.370381,46.5872548 45.4505801,46.734704 45.4505801,47.0448559 C45.3838867,47.5718082 45.35708,48.1028975 45.370381,48.6337487 L45.370381,48.9998296 C45.370381,50.8632831 45.1892862,52.4725138 45.1892862,54.1910602 C45.2073957,54.5190077 45.2280922,54.8291596 45.2280922,55.1596493 C45.2280922,55.579117 45.1892862,55.9985847 45.1892862,56.4307635 C45.1892862,57.4476549 46.3379446,57.6535754 47.183916,57.6535754 C48.3946641,57.6535754 48.6973511,57.1069963 48.6973511,56.1562028 C48.6973511,54.6308657 48.6378485,53.1233242 48.6378485,51.6234094 C48.6348828,51.4588118 48.640928,51.2941766 48.655958,51.1302171 C48.655958,49.6684357 48.3739676,48.0973385 48.3739676,46.6889439 C48.3739676,46.1042314 50.0064078,46.3050674 50.8342697,46.3050674 C51.5405394,46.3050674 51.7009377,49.2845592 51.8432265,50.0345166 C52.0036247,50.9471767 51.9441221,51.8445833 51.9441221,52.7394477 L51.9467092,53.9902242 Z M60.9781655,56.8959913 C62.2484161,56.8959913 61.904336,58.4670885 62.0854308,59.1967081 C62.1497616,59.6814524 62.1834581,60.1696487 62.1863265,60.6584895 C62.1863265,62.1838266 62.3881178,63.7091637 60.9781655,64.6269082 C60.0701044,65.0641715 59.1025408,65.6437996 57.8322901,65.6437996 C55.3124854,65.6437996 54.0008416,65.6082084 53.4161641,61.7516478 C53.3530729,61.3887593 53.3193355,61.0215297 53.3152685,60.6534051 L53.3152685,60.452569 C53.3152685,57.6561177 53.033278,55.0630446 53.033278,53.3343292 C53.033278,53.242809 53.0539745,53.1690844 53.0539745,53.0801064 C53.0539745,52.8792703 52.9918849,52.6784343 52.9918849,52.4953938 C52.9918849,51.7327253 53.2143728,50.9420922 53.2350693,50.1743392 C53.2945719,48.0719162 54.0603442,46.8491043 56.9656222,46.44489 C57.3071152,46.3355742 58.0133849,46.4092988 58.4557736,46.4092988 C60.6159759,46.4092988 62.3363764,47.4872037 62.3363764,51.0895415 C62.3363764,51.4912136 62.093192,51.6361206 61.4671214,51.6361206 C61.226524,51.6361206 60.9859267,51.618325 60.7427422,51.618325 L60.0312984,51.618325 C59.224133,51.618325 59.0818442,51.5801916 59.0818442,49.5540354 C59.0818442,49.0608431 58.5644305,48.6566288 58.0133849,48.6566288 C56.5025369,48.6566288 56.0575611,48.9311895 56.0575611,50.9446344 C56.0575611,52.8640169 56.1998499,54.8749197 56.1998499,56.847689 C56.1998499,57.3561347 56.1377602,57.8645804 56.1377602,58.3730261 C56.1377602,60.5288359 55.7962672,63.1422468 57.790897,63.1422468 C59.0430382,63.1422468 59.4647304,62.7583703 59.4647304,60.8949168 C59.4647304,59.3695797 59.565626,59.8170119 57.5502997,59.4153398 C56.8647265,59.2856861 57.1881101,58.5001375 56.9242291,57.7145889 C56.9092799,57.6608057 56.9031664,57.6050218 56.9061196,57.5493441 C56.9061196,56.636684 59.565626,56.9468359 59.4259243,56.9468359 L59.4259243,56.9646315 C59.9433381,56.9468359 60.4736871,56.9112447 60.998862,56.9112447 L60.9781655,56.8959913 Z M66.3799646,49.3633683 C66.3799646,49.7294492 66.320462,50.0929879 66.320462,50.4590688 C66.320462,51.2802086 66.4394671,52.1216862 66.4394671,52.9453683 C66.4394671,53.8758239 66.4213577,54.7732305 66.4213577,55.7214818 C66.4213577,56.1053583 66.4394671,56.4841503 66.4394671,56.8553157 C66.4394671,56.9824271 66.4213577,57.1095385 66.4213577,57.2569878 C66.4213577,59.0365477 66.7240447,60.8389877 66.7240447,62.5956676 C66.7421542,62.7609125 66.8844429,62.8346371 67.1069308,62.8346371 C67.9942953,62.8346371 68.8790728,62.6693923 69.7276313,62.6338011 C70.4132044,62.6338011 70.4520105,64.5709792 70.4520105,64.680295 C70.4520105,65.2828031 68.1546936,65.3565278 67.7718074,65.3565278 C66.7628507,65.3565278 64.1628468,65.4124568 64.0619512,64.8989266 C63.8356558,63.8112862 63.7203911,62.7041672 63.717871,61.5940296 L63.717871,61.2101531 C63.717871,61.0271126 63.6971745,60.8440722 63.6971745,60.6610317 C63.6971745,60.3686755 63.7385676,60.0585236 63.7385676,59.7661673 C63.7385676,59.473811 63.676478,59.1077301 63.676478,58.7797827 C63.676478,58.3781106 63.717871,57.9561006 63.717871,57.5544285 C63.717871,56.5680439 63.5781693,55.5816592 63.5781693,54.5927323 C63.5781693,54.0639488 63.5962788,53.5148274 63.5962788,52.9860439 C63.5962788,52.6580964 63.5781693,52.3276067 63.5781693,51.9691525 C63.5781693,51.6106983 63.5962788,51.3107153 63.5962788,50.9522611 L63.5962788,49.582 C63.5962788,48.9235628 63.5962788,48.24733 63.5367258,47.5710972 C63.5367258,47.1160383 63.5160797,46.7118173 64.3128968,46.7118173 C65.9453371,46.7118173 66.3489198,46.6940284 66.3489198,48.4913839 C66.3489198,48.5091795 66.3489198,48.5091795 66.3308103,48.5091795 C66.3489198,48.7837402 66.3903128,49.0583009 66.3903128,49.3328616 L66.3799646,49.3633683 Z M80.5027717,57.0993696 C80.5027717,58.2128657 80.6036674,59.3466996 80.6036674,60.4627379 C80.6036674,62.1253554 80.8054587,64.0447379 79.1109288,64.7387663 C77.992704,65.2427597 76.7733904,65.492996 75.5433613,65.4709281 C72.2370877,65.4709281 71.9214654,63.5693411 71.4506189,58.7441915 C71.3678327,58.0298252 71.1479319,57.4273171 71.1686284,56.7104087 C71.1686284,55.6147082 71.2695241,54.4808743 71.2695241,53.3851738 C71.2695241,52.7445322 71.2488276,52.1140595 71.2074345,51.4835869 C71.2074345,48.9972874 71.0263397,46.0915202 75.1190821,46.0915202 L75.2018683,46.0915202 C75.7839587,46.0915202 76.3893327,46 76.9740102,46 C80.3216769,46 80.3371993,48.9972874 80.5648614,53.6571922 L80.5441648,53.6571922 C80.5441648,54.8088217 80.5027717,55.9451979 80.5027717,57.0942852 L80.5027717,57.0993696 Z M77.6569963,57.5696819 C77.5767972,55.2664229 77.455205,52.9631639 77.3361998,50.6802427 C77.2534136,49.8031738 77.1137119,48.4685039 76.1047552,48.4685039 C73.8669409,48.4685039 74.4309219,49.782836 74.2705236,51.0641192 C74.2232038,51.4523001 74.1964347,51.8426343 74.1903245,52.2335443 C74.1903245,53.7131213 74.1489314,55.3757387 74.3921158,56.8095556 L74.3921158,56.9188714 C74.3921158,57.2493611 74.2498271,57.5417174 74.2498271,57.8874605 C74.2498271,59.6415981 73.8255478,62.5117741 75.6209734,62.5117741 C77.1344085,62.5117741 77.719086,61.8355413 77.719086,60.4474845 C77.719086,59.4788955 77.6569963,58.528102 77.6362998,57.559513 L77.6569963,57.5696819 Z M92.7370188,60.3457954 C92.7370188,59.8170119 92.7189094,59.2678905 92.7189094,58.739107 C92.7189094,57.1298764 92.7991085,55.5587791 92.8793076,53.9495485 C92.9000041,53.4563562 93.0008998,52.9453683 93.0008998,52.4242114 C93.0008998,50.8531142 92.9388102,49.226088 92.819805,47.6346529 C92.7957596,47.4840357 92.7819314,47.3320142 92.7784119,47.179594 C92.7784119,46.4652278 94.4936384,46.7219929 95.2982167,46.7219929 C96.1674717,46.7753797 95.9837898,49.3354038 95.9837898,50.138748 C95.8828942,51.618325 95.7017994,53.0826486 95.7017994,54.5800212 C95.7017994,54.9638977 95.7224959,55.3299786 95.7224959,55.7138551 C95.7224959,57.1019118 95.6629933,58.472173 95.6629933,59.8424342 C95.6629933,60.7220452 95.6811028,61.5787762 95.6811028,62.4380495 C95.6811028,62.8600594 95.5827942,63.2973227 95.5827942,63.7091637 C95.5827942,63.8388174 95.6009037,63.9481332 95.6009037,64.0752446 C95.6009037,64.8074064 94.7756288,64.8379132 94.0486626,64.8379132 C93.8882643,64.8379132 93.7459756,64.802322 93.5855773,64.802322 C93.0810989,64.802322 92.5766206,64.9294334 92.1135353,64.9294334 C90.742389,64.9294334 89.875721,60.9457613 89.0478591,59.829723 C89.0158542,59.7971803 88.9722884,59.7780521 88.9262669,59.7763362 C88.5640773,59.7763362 88.0802955,61.810119 87.8396981,62.4253383 C87.4361154,63.3939274 86.8048707,65.570075 86.0649691,65.570075 C85.5475554,65.570075 85.0146192,65.6412574 84.4920314,65.6412574 C83.2812833,65.6412574 82.0731223,65.7887066 82.0731223,64.9294334 C82.0731223,63.7600083 82.1533214,62.6414277 82.1533214,61.4567493 C82.0912318,58.6780935 81.871331,55.7367351 81.871331,52.9046926 C81.871331,52.7216521 81.8894405,52.5208161 81.8894405,52.3377756 C81.8894405,52.2106642 81.871331,52.0835528 81.871331,51.9538991 C81.871331,50.583638 82.1300378,49.1218566 82.1300378,47.7515954 C82.1300378,47.6956664 82.1093413,47.6600752 82.1093413,47.6041462 C82.0855493,47.4345996 82.1392261,47.263388 82.2559874,47.1363921 C82.3727488,47.0093962 82.5406565,46.9396007 82.7147153,46.945709 C83.0562084,46.945709 83.4002885,46.9635046 83.7624781,46.9635046 C84.0444685,46.9635046 84.326459,46.945709 84.6084495,46.945709 C85.1543209,46.945709 85.2940226,47.1287495 85.2940226,47.4541547 C85.2940226,47.7083775 85.2552166,47.9498893 85.2552166,48.2041121 C85.2552166,48.626122 85.3354157,49.0633853 85.3354157,49.5031909 C85.3354157,50.3243307 85.2759132,51.1836039 85.2759132,52.0250815 C85.2940226,52.208122 85.2940226,52.3886202 85.2940226,52.5742029 C85.2940226,53.0470574 85.2552166,53.5402497 85.2552166,54.0156465 C85.2552166,54.2698693 85.3147192,54.5088388 85.3147192,54.7478083 C85.3147192,56.6849864 85.0741218,58.7136847 85.0741218,60.5949338 C85.0741218,60.9610147 85.0948184,61.9118082 85.3328287,61.9118082 C85.9977053,61.9118082 86.8850698,58.1645634 87.1437767,57.1603831 C87.4024835,56.1562028 87.3274585,54.8723775 88.3157187,54.8723775 C88.9392022,54.8723775 89.8679598,54.7630616 90.0697512,55.256254 C90.7042133,56.9805717 91.4588377,58.6598778 92.328262,60.2822397 C92.3911205,60.4296593 92.4951656,60.5565801 92.628362,60.6483206 C92.7072276,60.5566998 92.7437766,60.4369815 92.7292576,60.3178309 L92.7370188,60.3457954 Z" id="Shape" fill="#161616"></path>
                        <path d="M51.4914635,38 L51.5149759,38 C52.4450235,36.8443044 53.7355951,36.0868553 56.7399623,35.397082 C59.3106556,34.7984109 61.9335988,34.254401 62.5344723,30.5504487 C65.7295515,31.776423 71.675586,31.0684293 74.3507791,25.2457018 C78.7240927,15.7268306 73.6924308,6.42400164 67.5164968,3.83930406 C65.3768649,2.94390027 61.4215502,1.60600041 56.2540386,3.31872046 C55.4168547,2.84437712 54.4320515,2.69863689 53.4926333,2.91006233 C53.5474956,1.76738133 52.0165746,0.432084389 51.4966884,0 C50.9741898,0.432084389 49.4484938,1.76738133 49.5033561,2.91006233 C48.5639475,2.69838116 47.5790508,2.84413522 46.7419508,3.31872046 C41.5744392,1.60339749 37.6191245,2.94129735 35.4794925,3.83930406 C29.3087835,6.41879581 24.2745091,15.7216248 28.6504353,25.2457018 C31.3282408,31.0736352 37.2873378,31.7816289 40.4589046,30.5296253 C41.0623905,34.2335776 43.6853337,34.7775875 46.2534146,35.3762586 C49.2708442,36.0790465 50.5588034,36.8364957 51.4914635,37.9791767 L51.4914635,37.9791767 L51.4914635,38 Z" id="Path" fill="#048159"></path>
                        <path d="M63.2005244,32.9847187 C63.2144303,32.5400395 63.5834888,32.1893018 64.028298,32.1980375 C64.4731072,32.2067732 64.8281101,32.5717308 64.8245459,33.016613 C64.8209817,33.4614953 64.4601769,33.8207181 64.0152848,33.8223258 C63.7945148,33.8245663 63.5824634,33.7362745 63.4285204,33.5780148 C63.2745773,33.419755 63.1921816,33.2053431 63.2005244,32.9847187 Z M64.0152848,34 C64.5635403,33.9915853 65.0027784,33.5432646 64.9999868,32.9949498 C64.9971684,32.4466349 64.5533666,32.0028316 64.0050537,32.0000132 C63.4567408,31.9972216 63.0084216,32.4364612 63.0000035,32.9847187 C62.9992948,33.2530486 63.1064448,33.5104083 63.2973723,33.6989499 C63.4882998,33.8874914 63.746986,33.9913962 64.0152848,33.987309 L64.0152848,34 Z M63.8046147,33.076094 L64.005132,33.076094 L64.3097154,33.5837346 L64.5076945,33.5837346 L64.1777293,33.076094 C64.2601049,33.0755066 64.3386667,33.0412991 64.3952151,32.9813959 C64.4517636,32.9214927 64.4813918,32.8410917 64.4772362,32.7588186 C64.4772362,32.5303802 64.3427119,32.4288521 64.0685869,32.4288521 L63.6294792,32.4288521 L63.6294792,33.5659672 L63.8046147,33.5659672 L63.8046147,33.076094 Z M63.8046147,32.9288782 L63.8046147,32.5506859 L64.0457431,32.5506859 C64.1675765,32.5506859 64.2995626,32.5786061 64.2995626,32.7207455 C64.2995626,32.9009579 64.1675765,32.9111108 64.017823,32.9111108 L63.8046147,32.9288782 Z" id="Shape" fill="#FFD100"></path>
                        <path d="M51.4895527,6.18437113 C57.6482285,1.81989507 63.8539171,2.84883274 66.6381192,3.99820586 C73.7710045,6.95411076 77.2682339,16.9842894 73.4027376,24.3753607 C70.1954205,30.5097143 64.3815051,29.9677547 62.1144438,29.1063795 C61.539843,32.653989 59.0951778,33.4263468 56.2352329,33.9997242 C53.3752881,34.5731017 52.3854076,34.8925175 51.5,36 C50.6119806,34.8925175 49.653442,34.5757199 46.7647671,33.9997242 C43.8760922,33.4237286 41.460157,32.653989 40.8855562,29.1063795 C38.615883,29.9677547 32.8045795,30.5097143 29.5972624,24.3753607 C25.7317661,16.9842894 29.2289955,6.95411076 36.3618808,3.99820586 C39.1251883,2.84883274 45.3308769,1.81989507 51.4895527,6.18437113 Z" id="Path" fill="#FFD100"></path>
                        <path d="M51,5 C49.7370733,4.25498699 48.3971099,3.62852669 47,3.12991816 C47.6302186,3.01662365 48.2733094,2.9771914 48.914145,3.01254901 C49.3062416,3.00841681 49.6814024,3.16037772 49.9444053,3.42986155 C50.5186488,3.90716278 51,5 51,5 Z" id="Path" fill="#FFD100"></path>
                        <path d="M52,5 C53.2629267,4.25498699 54.6028901,3.62852669 56,3.12991816 C55.3697814,3.01662365 54.7266906,2.9771914 54.085855,3.01254901 C53.693002,3.00867693 53.3170846,3.16052941 53.0527797,3.42986155 C52.4813512,3.90716278 52,5 52,5 Z" id="Path" fill="#FFD100"></path>
                        <path d="M51.9998955,1 L51.9998955,1 L52.6322521,1.86117298 C53.2252621,2.66592428 53.0004242,3.3281366 52.6603568,3.93986637 C52.465034,4.30983336 52.2442879,4.66416211 51.9998955,5 L51.9998955,5 C51.7555031,4.66416211 51.5347569,4.30983336 51.3394341,3.93986637 C50.9965563,3.34595397 50.7773393,2.67483296 51.3675388,1.86117298 L51.9998955,1 L51.9998955,1 L51.9998955,1 Z" id="Path" fill="#FFD100"></path>
                        <path d="M51.0078634,8.77664507 L50.9870761,8.77664507 C58.4029238,3.23499373 68.2534768,3.5006353 71.8496692,11.5198545 C73.8608346,15.9910493 73.3359568,22.3033242 69.4721287,25.0807251 C67.0348249,26.8323814 65.3354681,27.3163225 61.2092011,26.3668511 C61.0013287,29.8149313 59.3903176,30.6749787 55.5186943,31.2588642 C53.8349279,31.5218756 52.3668291,31.5955188 51.0000682,33 L51.0000682,33 C49.6333072,31.5955188 48.1652084,31.5113552 46.481442,31.2588642 C42.6046219,30.6749787 40.9988077,29.8149313 40.7909353,26.3668511 C36.6646683,27.3163225 34.9653115,26.8323814 32.5254092,25.0807251 C28.6641795,22.3059543 28.1393017,16.0041998 30.1504672,11.5198545 C33.7466595,3.5006353 43.6102046,3.23499373 51.0130602,8.77664507 L51.0130602,8.77664507 L51.0078634,8.77664507 Z" id="Path" fill="#E1251B"></path>
                        <path d="M34.3809524,14.6359106 L32.8576288,15.3913315 L32.8576288,19.6747003 C32.8576288,20.2578321 32.4421769,20.7349401 32.2089407,21 L34.696793,21 C35.8241011,21 37,20.6898799 37,18.5747015 L37,15.6113312 C37,13.8221766 35.9723032,12.9766353 34.5704568,13.0004907 C33.8811152,13.0028479 33.1938812,13.0836873 32.5199223,13.2416953 L32,14.9857898 C32.6829247,14.7472876 33.3862139,14.5847736 34.0991254,14.50073 C34.2108844,14.50073 35.4693878,14.2356701 35.4693878,15.6961504 L35.4693878,18.6118099 C35.4693878,19.6720497 34.7648202,19.5580739 34.3809524,19.5633751 L34.3809524,14.6359106 L34.3809524,14.6359106 Z" id="Path" fill="#FFFFFF"></path>
                        <path d="M38.0201601,16.4590419 C38.0201601,16.1350734 38.0387778,15.8462015 38.0627148,15.6491207 C38.0946309,15.379147 38.1504841,15.1577685 38.7010364,14.8391995 C38.8845539,14.7339097 39.4989384,14.3991423 40.0574697,14.1399675 C40.5150223,13.862995 41.1068488,14.0095759 41.3873063,14.4693355 C41.5600943,14.7110147 41.7147889,14.9655032 41.8500895,15.2306614 C42.1248049,15.7341533 42.0137637,16.3642237 41.5841222,16.7398145 C40.9989339,17.3633731 40.3568565,17.929247 39.6664978,18.4298501 C39.6664978,19.0183928 40.1505583,19.1641786 40.3979079,19.2613692 C40.8070504,19.4213723 41.2287784,19.5460034 41.658593,19.6339329 L40.7676025,21 C39.2755258,20.5464441 39.0574326,20.352063 38.7382718,20.1657812 C38.3190299,19.9278581 38.0587624,19.4789449 38.0573955,18.9913955 C38.0334584,18.7376201 37.9855843,17.433647 38.004202,16.4644413 L38.0201601,16.4590419 Z M39.600006,17.660425 C39.8399242,17.462774 40.0648577,17.2470866 40.2729033,17.0151878 C40.7463251,16.4752403 40.1638567,15.6167238 39.9723602,15.4223428 C39.7808637,15.2279617 39.600006,15.2981548 39.600006,15.5708283 L39.600006,17.660425 Z" id="Shape" fill="#FFFFFF"></path>
                        <path d="M43.33125,13 L42,13.7346166 L42,18.9955822 C42,19.7301988 42.1416667,20.1164405 42.50625,20.4420953 C42.7610557,20.653394 43.0292529,20.8399438 43.3083333,21 L44,19.7377722 C43.65,19.5080467 43.3229167,19.3692016 43.3229167,18.6749763 C43.3291667,18.2559167 43.33125,13 43.33125,13 Z" id="Path" fill="#FFFFFF"></path>
                        <path d="M49.2760736,20.7120696 L50.8760736,20.7120696 L50.8760736,14.6655318 C50.8760736,14.6655318 51.0380368,14.5559654 51.1656442,14.4820718 C51.2776009,14.4142639 51.4168958,14.4181977 51.5251373,14.4922243 C51.6333787,14.5662508 51.6918629,14.6975785 51.6760736,14.8311555 L51.6760736,19.2520333 C51.6441392,19.6594402 51.7986766,20.0587057 52.0932515,20.3298612 C52.1668712,20.4063029 52.3754601,20.5846668 52.402454,20.5999551 C52.58724,20.7520245 52.785227,20.8859478 52.993865,21 L54,19.7947693 C53.6981595,19.6087612 53.2883436,19.4864545 53.2883436,18.7755468 C53.2883436,18.7755468 53.2883436,14.810771 53.2883436,14.354669 C53.2883436,13.9418838 53.2883436,13.9138552 53.0429448,13.633569 C52.867676,13.4478094 52.6676911,13.2890681 52.4490798,13.1621786 C52.0736196,12.9252093 51.7546012,12.9608821 51.3153374,13.1851111 C51.0895706,13.2997736 50.797546,13.4399167 50.603681,13.5545792 C50.4213211,13.4010253 50.2267603,13.2637889 50.0220859,13.1443422 C49.8355828,13.0296796 49.5067485,12.8895365 48.9644172,13.2054955 L48.2282209,13.6514054 C47.938017,13.4104092 47.612391,13.2194168 47.2638037,13.0857369 L46,14.1635647 L46.4907975,14.4183704 C46.9128834,14.6400513 46.9104294,14.5890901 46.9104294,15.1547587 L46.9104294,20.7095216 L48.5104294,20.7095216 L48.5104294,14.6502435 C48.5546012,14.6222149 48.7239264,14.5101004 48.8122699,14.4591393 C48.9228617,14.4024267 49.0543249,14.4121243 49.1560842,14.4845015 C49.2578435,14.5568786 49.3140451,14.680659 49.3030675,14.808223 L49.3030675,20.7095216 L49.2760736,20.7120696 Z" id="Path" fill="#FFFFFF"></path>
                        <path d="M55.6161099,17.5900523 L55.6161099,15.7220194 C55.6129071,15.6048338 55.6763719,15.4972193 55.7767012,15.4497114 C55.9755286,15.3271728 56.0316081,15.4061421 56.1896504,15.5668038 C56.3088806,15.6547748 56.378033,15.8014948 56.3731834,15.9562043 L56.3731834,19.3055927 C56.3731834,19.5071006 56.2788678,19.6977163 56.0392553,19.5152699 C55.9472288,19.4484782 55.861818,19.3718355 55.7843484,19.2865312 C55.6900329,19.1857772 55.6288552,19.1612695 55.6288552,18.9570385 L55.6288552,17.5954985 M54.0127453,17.5954985 L54.0127453,19.281085 C54.0007774,19.7031682 54.204961,20.09871 54.5455008,20.3131323 C54.8059693,20.5234156 55.0851609,20.7058317 55.3790464,20.8577483 C55.8608205,21.1300564 56.1590616,20.9721177 56.6102468,20.7134251 C56.9273064,20.5267264 57.2306646,20.3146264 57.5177154,20.0789475 C57.8420054,19.8594904 58.0263518,19.4666765 57.9969405,19.0577924 L57.9969405,15.809158 C57.9969405,15.2454804 57.9969405,15.0221878 57.6757577,14.7362644 C57.4558509,14.5377667 57.2233283,14.3557919 56.9798619,14.1916484 C56.617894,13.9465712 56.3629871,13.9193404 55.7588577,14.21071 C55.4657148,14.3495871 55.1113942,14.5211411 54.698445,14.755326 C54.2013765,15.027634 54,15.2836035 54,15.7329117 L54,17.5818831" id="Shape" fill="#FFFFFF"></path>
                        <path d="M68,16.4615987 C68,16.1347258 68.0212291,15.8483743 68.0451119,15.6511699 C68.0769555,15.381027 68.1300283,15.1568083 68.6819851,14.8407411 C68.8624325,14.7353854 69.4780767,14.4004081 70.0353408,14.1437723 C70.4904575,13.8614306 71.0842106,14.0077066 71.3621601,14.4706453 C71.544446,14.7091378 71.707722,14.962076 71.8504296,15.2270455 C72.1245217,15.730853 72.0137325,16.3613183 71.5850657,16.7371445 C71.0002567,17.3611087 70.3587544,17.9273313 69.6691387,18.4282393 C69.6691387,19.0171509 70.1547545,19.1630281 70.4015429,19.2602795 C70.8097571,19.4203829 71.2305283,19.5450921 71.6593676,19.6330768 L70.7703987,21 C69.2817074,20.5461599 69.0641091,20.3543584 68.7456724,20.1652583 C68.3273817,19.9271861 68.0677048,19.4779916 68.066341,18.9901366 C68.0398046,18.7362022 67.9946927,17.4314118 68.0106146,16.4615987 L68,16.4615987 Z M69.6187195,17.6583319 C69.8580934,17.4605571 70.0825166,17.2447345 70.2900901,17.0126903 C70.7624378,16.4724044 70.1786373,15.6133499 69.9902289,15.4215484 C69.8018206,15.2297469 69.6187195,15.2945812 69.6187195,15.5674256 L69.6187195,17.6583319 Z" id="Shape" fill="#FFFFFF"></path>
                        <path d="M61.1275536,15.62992 L61.1275536,20.6551815 L59.5754858,20.6551815 L59.5754858,16.0763129 C59.5754858,15.5042885 59.488291,15.5417106 59.1993024,15.2744095 C59.1569507,15.2369873 59,15.1273939 59,15.1273939 L60.2182362,14.0581893 C60.4768084,14.1979366 60.7117459,14.3831534 60.9133034,14.6061566 C61.1748879,14.4431029 61.2944694,14.3736046 61.7204783,14.1544177 C62.241156,13.8871165 62.3806677,14.0127481 62.6023916,14.1864938 C62.7953075,14.3334645 62.973922,14.500929 63.1355257,14.686347 C63.3308976,14.8882749 63.4236362,15.1788254 63.3846537,15.4668663 C63.3846537,15.9480084 63.3846537,18.7359593 63.3846537,18.7359593 C63.3846537,19.3908471 63.4917788,19.4068852 64,19.7276466 L62.9735924,21 C62.7849618,20.8743759 62.6028301,20.7378512 62.428002,20.5910292 C62.3056356,20.4940882 62.190672,20.3868275 62.0842053,20.2702679 C61.8076731,19.9869287 61.8126557,19.6207261 61.8126557,19.1716602 L61.8126557,15.6967453 C61.8126557,15.397368 61.531141,15.3599459 61.3642252,15.4668663 C61.1973094,15.5737868 61.1275536,15.62992 61.1275536,15.62992 Z" id="Path" fill="#FFFFFF"></path>
                        <path d="M65.856723,15.7264574 L65.856723,18.693786 C65.856723,19.2754644 66.229978,19.4163997 67,19.71877 L66.0242469,21 L65.0543718,20.5515695 C64.4489346,20.2363869 63.9904482,19.8930173 63.9904482,19.2114029 L63.9904482,15.7264574 L63,15.7264574 L63,14.537476 L63.9904482,14.537476 L63.9904482,13.768738 L65.856723,13 L65.856723,14.537476 L66.9529758,14.537476 L66.9529758,15.7264574 L65.856723,15.7264574 Z" id="Path" fill="#FFFFFF"></path>
                        <path d="M48.0414508,25.4556773 L48,25.3732034 C48.1561785,25.2609866 48.3195669,25.1590514 48.4891192,25.0680502 C48.546649,25.0312399 48.6118608,25.0079694 48.6797927,25 C48.7044594,24.9996419 48.7280091,25.0102223 48.7440415,25.0288751 C48.7617077,25.0510747 48.7705587,25.0789583 48.7689119,25.1072253 C48.7642231,25.1671783 48.7538135,25.2265519 48.7378238,25.284544 C48.6127006,25.7221291 48.5185154,26.1678897 48.4559585,26.6185585 C48.4538898,26.6420777 48.4605226,26.6655392 48.4746114,26.6845375 C48.4848264,26.6981147 48.5011009,26.7058245 48.5181347,26.705156 C48.552313,26.7026136 48.5855382,26.6927678 48.615544,26.6762902 C48.7433535,26.604923 48.8599632,26.515312 48.961658,26.410312 C49.0927976,26.2794003 49.2095206,26.1349405 49.3098446,25.9793862 C49.3803859,25.8692977 49.4367837,25.7508499 49.4777202,25.6268105 C49.5374811,25.442581 49.5845675,25.2545183 49.6186528,25.0639265 C49.6455959,25.0639265 49.7202073,25.0371225 49.838342,25 L49.8673575,25.0288751 L49.7968912,25.3938219 C49.761658,25.5835117 49.7202073,25.7896963 49.6704663,26.0123757 C49.6207254,26.2350551 49.5875648,26.3917554 49.5709845,26.4824766 C49.5669559,26.5270601 49.5669559,26.5719132 49.5709845,26.6164966 C49.5692361,26.6416518 49.5750048,26.6667596 49.5875648,26.6886612 C49.5994909,26.7023675 49.6170235,26.709951 49.6352332,26.7092797 C49.6620153,26.7069151 49.6877229,26.6976797 49.7098446,26.6824757 C49.7409326,26.6659809 49.8217617,26.6041255 49.9544041,26.5010332 L50,26.5835071 C49.846659,26.7110347 49.6853704,26.8287946 49.5170984,26.9360828 C49.4679187,26.9680176 49.4117858,26.9878102 49.3533679,26.9938145 C49.326054,26.9925368 49.3008416,26.9788555 49.2849741,26.9567012 C49.2625543,26.9263526 49.2515522,26.8891386 49.253886,26.8515471 C49.2512981,26.8186078 49.2512981,26.7855178 49.253886,26.7525785 C49.2663212,26.6886612 49.2953368,26.5649505 49.3388601,26.3814462 L49.4217617,26.0288705 L49.4072539,26.0288705 C49.2642487,26.222684 49.1772021,26.3360855 49.1481865,26.3711369 C49.0364273,26.4983252 48.9144345,26.6162407 48.7834197,26.7237126 C48.6659331,26.8251819 48.5347896,26.9098465 48.3937824,26.9752578 C48.3611867,26.9901328 48.3259867,26.9985372 48.2901554,27 C48.2491382,26.9990365 48.2108778,26.9792438 48.1865285,26.946392 C48.1530134,26.8958046 48.1370047,26.8357197 48.1409326,26.7752588 C48.1499819,26.6168589 48.1763905,26.4599157 48.2196891,26.3072197 C48.2963731,25.9979428 48.3523316,25.7546449 48.3854922,25.5752643 C48.4014593,25.4997609 48.4125356,25.4233153 48.4186528,25.3463994 C48.4192556,25.3287863 48.4141712,25.3114442 48.4041451,25.2969151 C48.3936525,25.2867945 48.3793515,25.281553 48.3647668,25.2824822 C48.2463492,25.3179129 48.1363679,25.376828 48.0414508,25.4556773 Z" id="Path" stroke="#FFFFFF" stroke-width="0.2" fill="#FFFFFF"></path>
                        <path d="M52.9230621,26.5329218 L52.9478808,26.6152263 L52.6078648,26.8477366 C52.5312479,26.9008358 52.4480535,26.9470477 52.3596779,26.9855967 C52.3416591,26.9945869 52.3211362,26.9995495 52.3001131,27 C52.2682935,26.9981157 52.2391591,26.9845291 52.2206933,26.962963 C52.1904853,26.9347825 52.1752726,26.8976879 52.1785015,26.8600823 C52.1998346,26.6205195 52.253956,26.3837448 52.339823,26.154321 L52.3224499,26.154321 C52.1983565,26.2942387 52.0990817,26.399177 52.0295894,26.4650206 C51.9079869,26.5808028 51.7751789,26.6881557 51.6324905,26.7860082 C51.5215803,26.8649753 51.3979561,26.9307639 51.2651739,26.9814815 C51.2374067,26.9928105 51.206768,26.9984552 51.1758267,26.9979424 C51.13162,26.9981515 51.0907582,26.9784557 51.0691063,26.9465021 C51.0157351,26.8587513 50.9925503,26.7605078 51.0020959,26.6625514 C51.0077734,26.4596351 51.0461693,26.2582605 51.1162618,26.063786 C51.1830971,25.8578501 51.274552,25.6579572 51.3892673,25.4670782 C51.4427989,25.3806539 51.5201803,25.3059256 51.6151174,25.2489712 C51.7463979,25.1635438 51.8918406,25.0942447 52.0469625,25.0432099 C52.1398056,25.0177786 52.237086,25.0052638 52.3348592,25.0061728 C52.4030993,25.0055044 52.4712565,25.0103281 52.5383725,25.0205761 C52.623053,25.033446 52.7061303,25.0527313 52.7865593,25.0781893 L52.9453989,25 L53,25.0349794 C52.8957615,25.3312757 52.8039324,25.6090535 52.7269945,25.8703704 C52.6649478,26.0288066 52.622756,26.1460905 52.6004192,26.2242798 C52.5607093,26.3477366 52.5309269,26.4670782 52.50859,26.5781893 C52.5064826,26.5959792 52.5064826,26.6138974 52.50859,26.6316872 C52.5061656,26.6535646 52.5132031,26.6754439 52.528445,26.6934156 C52.5396319,26.7039457 52.5562899,26.7093164 52.5731186,26.7078189 C52.6079374,26.7054726 52.6417666,26.6970587 52.6723934,26.6831276 C52.7595957,26.6373801 52.8433109,26.5872162 52.9230621,26.5329218 Z M52.5681549,25.2798354 C52.5056047,25.2555873 52.4397816,25.2376271 52.3720873,25.2263374 C52.3080538,25.217986 52.2433223,25.2138579 52.1785015,25.2139918 C52.0641749,25.2076628 51.9499577,25.2275982 51.848413,25.2716049 C51.7965625,25.3064891 51.7563952,25.3518351 51.7317652,25.4032922 C51.6418434,25.5547669 51.5679377,25.7124221 51.5108789,25.8744856 C51.4222421,26.1056079 51.3737724,26.3460204 51.3669305,26.5884774 C51.3618249,26.6150589 51.3618249,26.6421428 51.3669305,26.6687243 C51.3727039,26.6846979 51.3849845,26.6985155 51.4016767,26.7078189 C51.4140229,26.7152014 51.4286681,26.7194867 51.4438685,26.7201646 C51.4971202,26.7135011 51.547484,26.6958085 51.5902987,26.6687243 C51.7404177,26.5828934 51.8764102,26.4812148 51.9948433,26.3662551 C52.1400955,26.2330663 52.2590386,26.081678 52.3472686,25.9176955 C52.4518957,25.7126488 52.5292895,25.498769 52.5780824,25.2798354 L52.5681549,25.2798354 Z" id="Shape" stroke="#FFFFFF" stroke-width="0.2" fill="#FFFFFF"></path>
                        <path d="M53.8924912,26.3601924 L53.9340287,26.4700027 C53.8924912,26.5111815 53.794756,26.5935391 53.6432663,26.7143304 C53.5289667,26.8135768 53.4052276,26.8982819 53.2743157,26.9668939 C53.233583,26.9876235 53.1895241,26.9988316 53.1448165,26.9998369 C53.1038905,27.0020555 53.0646091,26.9815278 53.0397511,26.9449318 C53.0104682,26.8945443 52.9967324,26.834742 53.000657,26.774726 C53.0001668,26.7092561 53.0059006,26.6439146 53.0177607,26.5798129 C53.032421,26.4727479 53.1081658,26.0856669 53.2425518,25.4158246 C53.3451738,24.935405 53.4087017,24.6224459 53.4355789,24.4742021 C53.5039936,24.1145736 53.5504178,23.8235766 53.5797384,23.6039562 C53.5832755,23.5573714 53.5832755,23.5105329 53.5797384,23.4639481 C53.5839766,23.4247137 53.5723171,23.3854137 53.5479745,23.3568832 C53.5076665,23.332233 53.4617102,23.3217149 53.4160319,23.3266854 L53.1961275,23.3266854 L53.1961275,23.2168752 C53.32649,23.2033515 53.4556219,23.17764 53.5821818,23.140008 C53.7038291,23.1026546 53.823026,23.0558732 53.9389155,23 L54,23.0411788 C53.9706794,23.2031489 53.8533971,23.8125956 53.6554832,24.8695188 C53.4925911,25.7223781 53.3997427,26.2467219 53.3769378,26.4425501 C53.3747274,26.4717802 53.3747274,26.5011682 53.3769378,26.5303983 C53.3756935,26.5615729 53.383403,26.592371 53.3989282,26.6182464 C53.4114808,26.637808 53.4312485,26.6499225 53.4526826,26.6511895 C53.4687742,26.6498421 53.4845093,26.6451897 53.4991068,26.6374632 C53.5625691,26.6029691 53.6238034,26.563524 53.6823604,26.5194173 L53.8924912,26.3601924 Z" id="Path" stroke="#FFFFFF" stroke-width="0.2" fill="#FFFFFF"></path>
                        <path d="M54.0353131,24.9117388 L54,24.7994667 C54.162835,24.6496452 54.3323246,24.5118834 54.5076256,24.3868667 C54.5693986,24.3427498 54.6378793,24.3159531 54.7084688,24.3082762 C54.7332358,24.3062297 54.7571965,24.3198893 54.7724738,24.3447646 C54.7941914,24.3892322 54.8042386,24.4413246 54.8011657,24.4935252 C54.7999302,24.5379206 54.7954976,24.5820786 54.7879233,24.6254449 C54.7680596,24.7321034 54.7283324,24.9313864 54.6687416,25.2204871 C54.565571,25.6466613 54.4873739,26.0819719 54.4347924,26.5228435 C54.433338,26.5517258 54.4395562,26.5803919 54.4524489,26.6042408 C54.4631001,26.6212185 54.4795347,26.6306237 54.4965903,26.629502 C54.5345345,26.627146 54.5715411,26.6136995 54.6047366,26.5902068 C54.6897911,26.5291161 54.7709637,26.4596704 54.8475141,26.3825034 L54.8894484,26.4919687 C54.724947,26.6624385 54.5492031,26.8145684 54.3641662,26.9466707 C54.3217405,26.9780474 54.2741134,26.9963142 54.2251209,27 C54.1876074,26.9995593 54.1524466,26.9766817 54.130217,26.9382503 C54.1000944,26.8886381 54.0851898,26.8267858 54.0882827,26.7642286 C54.0886793,26.6993293 54.0931073,26.6345714 54.1015251,26.5705592 C54.1125605,26.5003891 54.1368382,26.3712762 54.1765654,26.1860272 C54.2935193,25.7289974 54.3770072,25.2591988 54.4259641,24.7826259 C54.431011,24.7568222 54.431011,24.7298391 54.4259641,24.7040354 C54.4180916,24.691039 54.4057473,24.6837129 54.3928581,24.6843878 C54.3706697,24.6850985 54.3488532,24.6917955 54.3288531,24.7040354 C54.3089895,24.695615 54.2140856,24.7713986 54.0353131,24.9117388 Z M54.5870801,23.3651905 C54.585967,23.2702415 54.6127218,23.1781737 54.6621204,23.1069646 C54.7042361,23.0391826 54.7685495,22.9998408 54.8364787,23.0003061 C54.8810354,22.9971414 54.9244916,23.0186332 54.9556604,23.059249 C54.9861832,23.1043527 55.0019771,23.1626007 54.9998018,23.2220435 C54.9998889,23.3153175 54.9775563,23.406397 54.9357968,23.4830762 C54.8988738,23.5587119 54.8336472,23.6044411 54.7636455,23.6037687 C54.7160443,23.6053713 54.6702061,23.5808264 54.6378426,23.5364054 C54.6034872,23.4903519 54.5851864,23.4286257 54.5870801,23.3651905 Z" id="Shape" stroke="#FFFFFF" stroke-width="0.2" fill="#FFFFFF"></path>
                        <path d="M56.7954972,27.1993821 L56.8386492,27.3225537 C56.727955,27.4672803 56.619137,27.602769 56.5084428,27.7290199 C56.4331337,27.8228171 56.3520101,27.9033235 56.2664165,27.9692045 C56.240688,27.9896571 56.2124521,28.0001895 56.1838649,28 C56.1507105,27.9985681 56.1199954,27.9710709 56.1013133,27.9260945 C56.0749439,27.8538559 56.0631264,27.7698084 56.0675422,27.6859099 C56.0650922,27.6315834 56.0650922,27.577034 56.0675422,27.5227075 C56.0675422,27.4611217 56.0806754,27.3810602 56.0919325,27.2763643 L56.1763602,26.6605064 C56.2045028,26.4449561 56.249531,26.0754413 56.3095685,25.5581206 L56,25.5581206 L56.0093809,25.4688212 L56.2101313,25.3394911 L56.3339587,25.2471124 C56.3527205,25.0900686 56.3658537,24.9730556 56.3752345,24.892994 C56.3846154,24.8129325 56.4015009,24.5850651 56.4333959,24.2155503 L56.5891182,24.1046959 L56.7148218,24 L56.7579737,24.0523479 L56.6791745,24.5727479 C56.6697936,24.6404923 56.6397749,24.8806769 56.5909944,25.2840638 L56.7223265,25.2840638 C56.8094439,25.2901708 56.8966431,25.2756517 56.9812383,25.2409538 L57,25.2655881 L56.9549719,25.5735171 C56.9043152,25.5735171 56.7673546,25.5735171 56.5590994,25.5458035 C56.5365854,25.7090058 56.5028143,25.9923005 56.4559099,26.3895289 C56.4090056,26.7867572 56.3789869,27.0792898 56.3639775,27.2578886 C56.3620011,27.3142956 56.3620011,27.3708425 56.3639775,27.4272495 C56.3626854,27.4642071 56.3700711,27.5005724 56.3846154,27.5288661 C56.3966179,27.5523586 56.414765,27.5649596 56.4333959,27.5627383 C56.4494792,27.5683051 56.4660931,27.5683051 56.4821764,27.5627383 C56.52924,27.5274785 56.5738925,27.484126 56.6153846,27.4334081 L56.7954972,27.1993821 Z" id="Path" stroke="#FFFFFF" stroke-width="0.2" fill="#FFFFFF"></path>
                        <path d="M57.0034567,28.4786096 L57.2049243,28.3074866 L57.2472324,28.3262032 C57.2454823,28.3528907 57.2454823,28.3797296 57.2472324,28.4064171 C57.2438551,28.5052462 57.2707417,28.6016862 57.3217754,28.6737968 C57.3688855,28.741665 57.4355903,28.7796056 57.5051109,28.7780749 C57.5562268,28.7768012 57.6064795,28.7603562 57.6521822,28.7299465 C57.706919,28.6956107 57.755122,28.6453461 57.7932095,28.5828877 C57.8684783,28.4537573 57.930156,28.3116333 57.9765449,28.1604278 C58.0645171,27.8850784 58.139869,27.602924 58.2021886,27.315508 L58.3512745,26.5989305 C58.2652768,26.7760719 58.168232,26.9433252 58.0611613,27.0989305 C57.959202,27.2608926 57.8451245,27.4087083 57.7206811,27.540107 C57.6798955,27.576678 57.6327299,27.5987708 57.5836832,27.6042781 C57.5391403,27.6030709 57.4984537,27.5704686 57.4769054,27.5187166 C57.4262746,27.4049153 57.4024212,27.2736311 57.4084065,27.1417112 C57.4084065,27.0748663 57.4184798,26.9358289 57.4366119,26.7272727 C57.4660779,26.3944497 57.4815477,26.0597063 57.4829495,25.7245989 C57.4853019,25.6403847 57.4805717,25.556085 57.4688467,25.473262 C57.4660112,25.4461585 57.4568525,25.4209134 57.4426559,25.4010695 C57.4336644,25.3908631 57.4222524,25.3851835 57.4104211,25.3850267 C57.317919,25.4244454 57.2337147,25.4922297 57.1646307,25.5828877 L57.1162785,25.631016 L57.063897,25.5240642 C57.1954647,25.3723791 57.3348127,25.2330062 57.4809348,25.1069519 C57.5308796,25.0569054 57.5900087,25.0255159 57.6521822,25.0160428 C57.6887738,25.0149463 57.7231437,25.039274 57.7428426,25.0802139 C57.7722086,25.1636146 57.7840424,25.2559992 57.7770921,25.3475936 C57.7770921,25.459893 57.765004,25.697861 57.7428426,26.0588235 C57.7146371,26.4839572 57.6985197,26.7914439 57.6985197,26.9812834 C57.6941462,27.0428053 57.7025052,27.1047448 57.7226958,27.1604278 C57.7353671,27.1832621 57.7557401,27.1962805 57.7770921,27.1951872 C57.8004364,27.194815 57.8233219,27.1865315 57.8435763,27.171123 C57.9096817,27.1181672 57.9694412,27.0523757 58.0208678,26.9759358 C58.0953064,26.8764592 58.1627424,26.7681662 58.2223353,26.6524064 C58.3304017,26.4378192 58.417717,26.2060563 58.4822284,25.9625668 C58.5265513,25.802139 58.5849769,25.5160428 58.6615345,25.0989305 C58.7619295,25.0755213 58.8609094,25.0424574 58.9576918,25 L59,25.0508021 C58.959435,25.1684266 58.9237883,25.2889304 58.8932222,25.4117647 C58.8307673,25.6470588 58.7461509,26.0106952 58.6393731,26.4973262 C58.5547567,26.8930481 58.4882725,27.1737968 58.4379056,27.342246 C58.3732319,27.6110302 58.2902892,27.8714592 58.1901005,28.1203209 C58.1054639,28.3178869 57.9995887,28.4980323 57.8758111,28.6550802 C57.7976888,28.7658749 57.704793,28.8565276 57.6018153,28.9224599 C57.519202,28.9709038 57.4302019,28.997253 57.3399075,29 C57.2809538,28.9992122 57.222972,28.9799744 57.1706748,28.9438503 C57.1179184,28.9108696 57.0737393,28.857821 57.0437502,28.7914439 C57.0159302,28.7271784 57.0013391,28.6543303 57.001442,28.5802139 C56.9989903,28.5463634 56.9996669,28.5122421 57.0034567,28.4786096 L57.0034567,28.4786096 Z" id="Path" stroke="#FFFFFF" stroke-width="0.2" fill="#FFFFFF"></path>
                        <path d="M43.6403651,24.7616502 C43.6639514,24.5255357 43.7070754,24.2916816 43.7693129,24.0623877 C44.0916825,22.8064575 44.8737792,22.0770308 46.1884865,22.3210871 C47.192037,22.5048149 47.5620612,23.4426493 47.2116595,24.9371513 C46.8808803,26.332934 45.8268719,26.8896018 44.8261245,26.6866785 C43.8253772,26.4837553 43.5422526,25.732391 43.6403651,24.7671346 M43.0180516,24.7671346 C42.9255456,25.6227028 43.1722284,26.5002086 44.1393372,26.8539531 C45.4487315,27.2857281 46.8858591,26.7338017 47.5452419,25.545921 C48.4170414,23.8375269 47.9601176,22.559659 46.8136031,22.1620392 C45.4812231,21.6892746 43.9995398,22.2823337 43.3880759,23.533142 C43.192441,23.9242162 43.0672628,24.3453833 43.0180516,24.7781034" id="Shape" stroke="#FFFFFF" stroke-width="0.2" fill="#FFFFFF"></path>
                        <path d="M44.1121989,27.6718573 C44.186223,27.4964588 44.3435762,27.3543611 44.5471052,27.2791154 C44.7506343,27.2038696 44.9822984,27.2021456 45.1873987,27.2743503 C45.591218,27.3757974 46.8224951,27.758812 47.010779,27.8147114 C47.667295,28.0093242 48.5220045,28.1294045 48.7672689,27.7629527 C48.8404933,27.6545333 48.9058499,27.5425323 48.962985,27.4275562 C49.0447398,27.3488829 48.962985,27.1521997 48.980327,27.1915364 C48.9159141,27.1107928 48.8589334,27.1604811 48.8440689,27.1915364 C48.8688431,27.5020887 48.7127657,27.6842794 47.957153,27.6718573 C47.5687112,27.6541495 47.1874674,27.5769554 46.8324048,27.444119 C46.5177726,27.3406015 46.2799404,27.2929835 46.2056178,27.2702096 C45.8124062,27.1560318 45.4089722,27.0681111 44.9991149,27.0072753 C44.3574634,26.9368834 44.1320183,27.3965009 44.0081473,27.5579881 C43.9685086,27.6408021 44.0849473,27.7215457 44.1121989,27.6718573 Z" id="Path" stroke="#FFFFFF" stroke-width="0.2" fill="#FFFFFF"></path>
                        <path d="M27,69.0014264 L29.2651178,69.0014264 C29.5684717,68.9904295 29.8707185,69.0431209 30.1515864,69.1559665 C30.3557848,69.2414176 30.5365251,69.3728744 30.6791169,69.5396523 C30.8000998,69.6883017 30.8864153,69.861095 30.9320052,70.0459045 C31.0226649,70.3748493 31.0226649,70.7214704 30.9320052,71.0504153 C30.8848007,71.2330313 30.7986085,71.4037616 30.6791169,71.5513384 C30.5363622,71.7172939 30.3556078,71.847848 30.1515864,71.9323597 C29.8699316,72.0420653 29.567989,72.0928885 29.2651178,72.0815709 L27.9055033,72.0815709 L27.9055033,74 L27.0135961,74 L27,69.0014264 Z M27.8919071,71.367489 L29.1998563,71.367489 C29.3038182,71.3675256 29.4072643,71.3531732 29.5071291,71.3248572 C29.6121089,71.2982575 29.7108885,71.2521235 29.7980867,71.1889685 C29.8882398,71.1226168 29.9617182,71.0369469 30.0129057,70.9385069 C30.0700552,70.8138137 30.0979318,70.6781473 30.0944826,70.5414986 C30.0991007,70.4029584 30.0740921,70.2650035 30.0210634,70.1364969 C29.982674,70.0328026 29.9170101,69.9408856 29.8307174,69.8700485 C29.7508097,69.8077238 29.6580244,69.7631742 29.5587945,69.7394887 C29.4481337,69.7152717 29.3349905,69.7036487 29.2216101,69.7048504 L27.9055033,69.7048504 L27.8919071,71.367489 Z" id="Shape" fill="#161616"></path>
                        <polygon id="Path" fill="#161616" points="33 69 34 69 34 74 33 74"></polygon>
                        <polygon id="Path" fill="#161616" points="37 69 37.9095675 69 40.1533421 72.6833689 40.1821756 72.6833689 40.1821756 69 41 69 41 74 40.0930537 74 37.8519004 70.3246269 37.8230668 70.3246269 37.8230668 74 37.0052425 74"></polygon>
                        <polygon id="Path" fill="#161616" points="43 69 46.9474069 69 46.9474069 69.7569296 43.9583638 69.7569296 43.9583638 71.065565 46.7341125 71.065565 46.7341125 71.7798507 43.9583638 71.7798507 43.9583638 73.2457356 47 73.2457356 47 74 43 74"></polygon>
                        <path d="M50.0089286,69 L50.9854911,69 L53,74 L52.0178571,74 L51.5267857,72.6673774 L49.436942,72.6673774 L48.9458705,74 L48,74 L50.0089286,69 Z M49.688058,72.0250533 L51.2840402,72.0250533 L50.5,69.8742004 L50.4776786,69.8742004 L49.688058,72.0250533 Z" id="Shape" fill="#161616"></path>
                        <path d="M55.0027174,69.0014856 L57.2499921,69.0014856 C57.5531575,68.9902404 57.8552523,69.0429405 58.1358585,69.1560239 C58.3456011,69.2396429 58.5319327,69.3711886 58.6793348,69.5397051 C58.7994324,69.6888498 58.8855994,69.8614611 58.9320513,70.0459513 C59.0226496,70.3748922 59.0226496,70.7215093 58.9320513,71.0504502 C58.8841923,71.2328147 58.7981264,71.4034084 58.6793348,71.5513674 C58.5317707,71.719067 58.3454235,71.84971 58.1358585,71.9323842 C57.854395,72.0420885 57.5526575,72.0929111 57.2499921,72.0815936 L55.8913012,72.0815936 L55.8913012,74 L55,74 L55.0027174,69.0014856 Z M55.8940186,71.3675201 L57.2010792,71.3675201 C57.3049578,71.3673809 57.4083087,71.3530321 57.5081433,71.3248889 C57.6122166,71.2982849 57.7100378,71.2521366 57.7961858,71.1890017 C57.8877099,71.1241479 57.9614567,71.0381077 58.0108589,70.9385431 C58.0701977,70.8144831 58.0990492,70.6785109 58.0950978,70.5415396 C58.0997127,70.403001 58.0747211,70.2650477 58.0217285,70.1365427 C57.9834428,70.0321165 57.9167174,69.9399675 57.8287944,69.8700974 C57.7494799,69.8069424 57.6565581,69.7622976 57.5570562,69.7395391 C57.4464474,69.7154616 57.3333975,69.7038405 57.2201009,69.7049012 L55.8940186,69.7049012 L55.8940186,71.3675201 Z" id="Shape" fill="#161616"></path>
                        <path d="M61,69.0014856 L63.2576607,69.0014856 C63.5618594,68.9902404 63.8649838,69.0429405 64.1465465,69.1560239 C64.3517194,69.240761 64.533112,69.372332 64.6755153,69.5397051 C64.7976531,69.6882039 64.8851263,69.8609787 64.9318198,70.0459513 C65.0227267,70.3748922 65.0227267,70.7215093 64.9318198,71.0504502 C64.8836708,71.2332827 64.7963059,71.4040273 64.6755153,71.5513674 C64.5329485,71.7179217 64.3515406,71.8485899 64.1465465,71.9323842 C63.8641237,72.0420885 63.5613577,72.0929111 63.2576607,72.0815936 L61.894339,72.0815936 L61.894339,74 L61,74 L61,69.0014856 Z M61.894339,71.3675202 L63.2058545,71.3675202 C63.3100999,71.3675568 63.413828,71.3532046 63.5139652,71.3248889 C63.619496,71.2990048 63.718682,71.2528075 63.805716,71.1890017 C63.897552,71.1241479 63.9715502,71.0381077 64.0211209,70.9385431 C64.0797235,70.8142615 64.1077374,70.6782991 64.1029202,70.5415396 C64.1070364,70.4032804 64.0829368,70.2656043 64.0320274,70.1365427 C63.9915509,70.033181 63.9249507,69.9415174 63.8384358,69.8700974 C63.7586481,69.8072531 63.6654856,69.7626446 63.5657714,69.7395391 C63.4557294,69.7153381 63.3431823,69.7037141 63.2303943,69.7049012 L61.902519,69.7049012 L61.894339,71.3675202 Z" id="Shape" fill="#161616"></path>
                        <polygon id="Path" fill="#161616" points="66 69 67.0234009 69 67.0234009 73.2457356 70 73.2457356 70 74 66 74"></polygon>
                        <polygon id="Path" fill="#161616" points="72 69 75.9502924 69 75.9502924 69.7569296 72.9561404 69.7569296 72.9561404 71.065565 75.7222222 71.065565 75.7222222 71.7798507 72.9561404 71.7798507 72.9561404 73.2457356 76 73.2457356 76 74 72 74"></polygon>
                    </g>
                </g>
            </g>
        </g>
    </g>
</svg>