<?xml version="1.0" encoding="UTF-8"?>
<svg width="91px" height="90px" viewBox="0 0 91 90" version="1.1" xmlns="http://www.w3.org/2000/svg" xmlns:xlink="http://www.w3.org/1999/xlink">
    <title>Ресурс 2</title>
    <g id="Page-1" stroke="none" stroke-width="1" fill="none" fill-rule="evenodd">
        <g id="home" transform="translate(-656.000000, -603.000000)">
            <g id="Group-9" transform="translate(-1769.000000, 0.000000)">
                <g id="Group-11" transform="translate(1876.000000, 30.000000)">
                    <g id="Group-8" transform="translate(0.000000, 287.000000)">
                        <g id="Ресурс-2" transform="translate(550.000000, 287.000000)">
                            <path d="M71.5185776,62.7145847 C64.2371222,73.5076117 51.0678801,78.9068613 38.1659592,76.3888046 C25.2640383,73.8707479 15.1776009,63.9327076 12.6208978,51.2195758 C10.0641947,38.5064441 15.5421814,25.5290969 26.4945283,18.3529534 C37.4468752,11.1768099 51.7104658,11.2191767 62.6187101,18.4602522 C69.7612989,23.160269 74.713374,30.466781 76.3829287,38.7685931 C78.0524833,47.0704051 76.3023926,55.685667 71.5185776,62.7145847 Z" id="Path" stroke="#FFD100" stroke-width="2"></path>
                            <path d="M52.2821199,63.920781 C51.531327,64.8574348 50.542744,65.5778986 49.4184068,66.0078103 C49.6462022,65.6195258 49.8739975,65.1988842 50.0855218,64.7782427 C50.8153388,63.292964 51.4511493,61.7638136 51.9892402,60.1997211 C53.0052876,59.3507964 53.7514472,58.2266839 54.137025,56.9640167 C53.7025589,57.5741768 53.1492425,58.091335 52.5099153,58.4847978 C53.235576,56.1403252 53.533152,53.6855931 53.3885546,51.2368201 C53.4997788,50.9589084 53.5868759,50.6720409 53.6488921,50.3793584 L53.3397413,50.767643 C53.1854115,49.3915559 52.6690947,48.0802071 51.8428003,46.9656904 C52.0871333,46.5285473 52.252354,46.0521334 52.3309332,45.558159 C52.084686,45.9115979 51.7824658,46.2230259 51.4360229,46.4803347 L51.4360229,46.4803347 L51.4360229,46.5774059 C49.8953996,47.5860921 48.1705805,48.2841873 46.3594405,48.6320781 C45.6760544,47.6613668 45.0414816,46.6421199 44.4719932,45.6552301 C45.9613922,45.2023901 47.1936836,44.1529874 47.8726526,42.7592748 C48.5334041,43.0954339 49.0733512,43.6266575 49.4184068,44.2800558 C53.0631326,43.5682008 55.0156643,43.5034868 58.3349682,47.5157601 C59.4902161,44.6198047 54.462447,41.3193863 53.453639,41.1576011 C54.5112603,40.4781032 59.0997097,40.7854951 62.7118934,44.1668061 C62.5166402,41.4164575 58.6929323,37.9704324 55.3573573,37.4203626 C58.0909017,36.0937238 61.8657963,39.3617852 63.9810389,38.6499303 C64.322732,37.4365411 60.9383437,34.6052999 58.5302213,34.7832636 C60.4664819,33.4728033 64.0786655,35.0097629 66.3728903,35.6407252 C65.0439166,32.4932761 61.4571445,30.9454738 58.2373416,32.1299861 C61.4915611,30.2856346 66.0149261,29.6870293 68,30.5121339 C65.0712025,27.8750349 62.9722309,26.5645746 59.0020832,27.8426778 C58.302426,27.0499303 59.9295357,25.2702929 62.484098,24.6069735 C61.0849762,23.2596685 59.0876396,22.7219282 57.1959913,23.1832636 C56.1709122,22.325802 58.2373416,16.9383543 58.9858121,16 C55.8454903,16 52.3309332,21.58159 51.6475471,25.2055788 C51.473894,22.6526349 50.3065774,20.2674476 48.3933277,18.5562064 C49.1380629,20.9325345 48.8796542,23.5077586 47.6773994,25.6909344 C47.2543509,19.9960948 45.1716504,20.6594142 42.6333592,19.753417 C44.5858909,22.4875872 45.0414816,24.6069735 43.8862337,26.4675035 C42.259124,22.9729428 40.8109963,22.5684798 39.0049045,23.1185495 C38.760838,26.3542538 42.4055638,28.6516039 41.4618402,31.0945607 C40.8272674,29.1046025 37.2150838,26.7101813 35.7181428,27.2764296 C37.4591502,29.2178522 37.6869456,30.8680614 39.1676155,33.4242678 C36.0272937,31.2563459 34.5466238,31.0622036 32.6591765,32.0329149 C36.5316977,34.1846583 38.7282958,35.4627615 37.9798254,38.7470014 C38.1750785,37.9866109 41.0062495,38.8926081 41.9174309,40.2677824 C41.5123387,41.6176643 41.5695708,43.0630897 42.0801419,44.3771269 C40.9086229,44.5550907 39.6557484,44.6845188 38.3866028,44.7654114 C37.1662705,42.0959554 36.5642399,39.7015342 37.084915,38.1322176 C35.6042451,39.6691771 35.6042451,42.0959554 36.4828844,44.8301255 C35.1811966,44.8301255 33.912051,44.8301255 32.7730742,44.7006974 C32.215886,43.2279213 32.1027945,41.625536 32.4476522,40.0898187 C31.3815705,41.2962292 30.8790763,42.8950619 31.064609,44.4903766 C30.3640786,44.3936816 29.6764913,44.2200498 29.0144507,43.9726639 C29.5171806,44.7594815 30.2931076,45.3352369 31.1947777,45.590516 C31.4423335,47.0059662 31.8630825,48.3859947 32.4476522,49.6998605 C30.7701737,49.6314219 29.1003199,49.4367225 27.4524254,49.1174338 C26.7073483,47.4296885 26.4918536,45.5576571 26.8341237,43.7461646 C24.2958325,46.0920502 25.0931162,50.4440725 27.4524254,55.0711297 C25.9342049,54.9264424 24.4315698,54.6503613 22.9616025,54.2460251 C22.3029007,52.7505232 22.1266775,51.088754 22.4571985,49.4895397 L22.213132,49.7645746 C26.0368399,42.2739191 31.1459645,37.9218968 37.4916924,36.9026499 C29.7629212,36.0451883 23.2382111,43.2446304 19.8538229,50.1528591 C15.2816445,59.4716876 19.6097564,67.7389121 27.9893716,71.7835425 C30.7086407,73.1060396 33.6999238,73.781757 36.7269509,73.7573222 C37.0451184,73.864734 37.3716446,73.9459011 37.7032167,74 C37.5496442,73.9201009 37.4027369,73.82813 37.2638971,73.7249651 C41.5945194,73.517222 45.5972446,71.3695951 48.1492612,67.8845188 C50.0326903,67.2103187 51.5365858,65.7679643 52.2821199,63.920781 Z M39.8510015,68.1433752 C38.7933802,67.0594142 37.6706745,65.8136681 36.5967821,64.4708508 C38.7186892,64.4418944 40.8350252,64.2471525 42.926239,63.888424 C44.0706154,64.9200209 45.3516579,65.7909637 46.7336757,66.4769874 L46.1804584,67.1079498 C44.0978442,67.6011099 41.9827427,67.9471158 39.8510015,68.1433752 L39.8510015,68.1433752 Z M43.105221,69.534728 C42.7415413,69.7581615 42.3668368,69.9633463 41.9825153,70.1495119 L41.592009,69.8259414 C42.1452263,69.7504417 42.6496303,69.6533705 43.105221,69.534728 Z M37.914741,68.2889819 C35.8027371,68.433465 33.6844873,68.465868 31.569013,68.386053 C30.3486807,66.9461646 29.1120773,65.3444909 27.9731005,63.6942817 C29.9457426,64.0987437 31.9483293,64.342232 33.9608643,64.4223152 C35.2085579,65.8024654 36.5514645,67.094484 37.9798254,68.2889819 L37.914741,68.2889819 Z M48.3119722,53.4856346 C47.0087151,53.87731 45.6829369,54.190661 44.3418244,54.4239888 C43.609625,53.5018131 42.8774257,52.5311018 42.1777685,51.5280335 C43.3577572,51.3946453 44.5267726,51.1783914 45.6760544,50.8808926 C46.4920518,51.8316197 47.3963881,52.7037266 48.3770566,53.4856346 L48.3119722,53.4856346 Z M42.2916662,54.7475593 C40.9086229,54.9417015 39.4767663,55.0873082 38.0449097,55.1682008 C37.2638971,54.0357043 36.5154266,52.8546722 35.8320405,51.7059972 C37.1662705,51.7059972 38.5493138,51.7868898 39.9160859,51.7059972 C40.6687436,52.7667176 41.4837159,53.7823379 42.3567505,54.7475593 L42.2916662,54.7475593 Z M44.0001314,56.5919107 C45.3575254,57.9963566 46.9012368,59.2101474 48.5885808,60.1997211 C46.7177359,60.7481724 44.8088737,61.1591357 42.8774257,61.4292887 C41.7547199,60.135007 40.599472,58.7112971 39.5093085,57.2228731 C41.0390408,57.1012633 42.5602866,56.8905811 44.0652158,56.5919107 L44.0001314,56.5919107 Z M48.7187496,63.3383543 C48.2929001,64.186253 47.7976761,64.9979119 47.2380798,65.7651325 C46.38124,65.0517819 45.561215,64.2958196 44.7811441,63.5001395 C46.383048,63.135552 47.9385931,62.5928521 49.4184068,61.8822873 L48.7187496,63.3383543 Z M40.5832009,61.7205021 C38.6469403,61.9308229 36.6455954,62.0440725 34.6930637,62.0926081 C33.4890025,60.4747559 32.3337546,58.8569038 31.2924043,57.2390516 C33.1356265,57.4246874 34.988762,57.4949329 36.8408485,57.4493724 C38.0077216,58.9504665 39.2685153,60.3769999 40.6157431,61.7205021 L40.5832009,61.7205021 Z M49.61366,59.8923291 C48.2867497,58.7496685 47.0518006,57.5055176 45.9201209,56.1712692 C47.3457471,55.7930563 48.7218998,55.250071 50.0204374,54.553417 C50.5893547,54.8860996 51.2029473,55.136677 51.8428003,55.297629 C51.5077807,56.7299963 51.067273,58.1359265 50.5248414,59.5040446 L49.61366,59.8923291 Z M50.9316189,54.0680614 C51.3830073,53.7715477 51.8028043,53.4300316 52.1844934,53.0488145 C52.136604,53.6737594 52.0496569,54.2951363 51.9241558,54.9093445 C51.5661917,54.6666667 51.2407697,54.3430962 50.8828056,54.0680614 L50.9316189,54.0680614 Z M51.6963604,47.3539749 C52.0693458,48.8022579 52.2552481,50.2918877 52.2495777,51.7868898 C51.4944396,52.2687073 50.6932627,52.6751453 49.8577264,53.0002789 C49.109256,52.2075314 48.3282433,51.3015342 47.5635017,50.3146444 C49.2003517,49.7720871 50.6273949,48.7375728 51.6475471,47.3539749 L51.6963604,47.3539749 Z M43.5608118,40.720781 C43.8699626,40.1383543 46.6360492,36.562901 48.3119722,36.9511855 C48.8836816,37.9296595 48.8479961,39.1458258 48.219886,40.0894935 C47.5917759,41.0331611 46.4798744,41.5411206 45.3506325,41.4002789 C49.2068825,38.5690377 45.2041926,38.9896792 43.5608118,40.720781 Z M49.3045091,37.2909344 C50.7038235,36.3525802 50.5085703,32.5506276 46.3919827,36.223152 C45.9526631,33.925802 48.7187496,32.7285914 50.8014501,33.18159 C51.2407697,33.0359833 51.6963604,37.1129707 49.3045091,37.2909344 L49.3045091,37.2909344 Z M53.8766875,43.0181311 C52.2495777,41.4002789 50.2319617,43.4225941 48.3282433,42.209205 C48.5560386,41.9503487 50.4434859,41.7562064 49.109256,40.3324965 C50.2970461,40.6398884 53.3397413,40.8663877 53.8766875,43.0181311 Z M58.8881855,40.0736402 C56.3498943,39.3132497 52.2495777,39.0382148 52.0217824,38.455788 C52.3472043,37.4527197 57.4400578,38.8764296 58.8881855,40.1383543 L58.8881855,40.0736402 Z M59.5553005,35.6892608 C57.9281907,35.9157601 53.7302476,35.2524407 52.0543246,36.0451883 C52.298391,33.4728033 57.7492087,35.2362622 59.5553005,35.7539749 L59.5553005,35.6892608 Z M61.7193564,32.7609484 C59.7017403,32.1623431 59.2461496,35.0097629 56.5776896,33.8449093 C57.7981794,32.2810711 59.9890296,31.8467728 61.7193564,32.8256625 L61.7193564,32.7609484 Z M63.3464662,29.2340307 C59.4576739,29.2340307 55.0156643,30.8518828 52.9004216,33.9096234 C53.1770303,28.2794979 61.0847836,28.8457462 63.4115505,29.2987448 L63.3464662,29.2340307 Z M58.2698838,25.2217573 C57.2001705,26.0918921 56.5987333,27.4075259 56.642774,28.7810321 C55.6827793,27.1631799 52.5912708,30.2209205 51.8753425,30.9165969 C51.3546674,28.8619247 55.5037972,24.7364017 58.2698838,25.2217573 Z M54.3973626,22.4875872 C54.9993932,24.0083682 53.5024522,25.8527197 52.9166927,27.0337517 C51.9404269,24.7525802 53.8766875,23.2317992 54.3973626,22.4390516 L54.3973626,22.4875872 Z M49.61366,24.962901 C50.0367085,26.6778243 50.8339923,30.0591353 50.0855218,31.4343096 C50.0855218,31.4343096 47.7912971,32.7933054 48.0679057,32.2917713 C48.8489184,30.8195258 47.6936705,30.5121339 47.4658751,29.3472803 C48.6048519,28.7972106 49.1906114,26.8396095 49.61366,24.962901 Z M45.9689342,29.1854951 C43.7886071,28.7001395 46.0828318,26.5969317 45.6597833,24.4128312 C46.2618139,24.8172943 48.1655323,27.260251 46.0014764,29.1854951 L45.9689342,29.1854951 Z M42.1289552,26.9690377 C42.352176,27.3594659 42.596604,27.7375239 42.8611546,28.1015342 C44.4882643,30.4797768 47.3682485,31.4828452 45.8387654,34.0552301 C44.8462284,35.5274756 42.4543771,27.9073919 42.1614974,26.9690377 L42.1289552,26.9690377 Z M43.9187759,34.5567643 C44.9601261,37.7924686 43.9187759,38.7793584 43.5933539,39.0058577 C43.7072516,35.0421199 40.5832009,36.3525802 40.6320142,31.7417015 C41.266587,33.3110181 43.3818297,35.0097629 43.9513181,34.5567643 L43.9187759,34.5567643 Z M37.7683011,34.7994421 C39.6571507,34.8898761 41.2146167,36.3026382 41.4781113,38.1645746 C38.3866028,38.0189679 40.8109963,37.2909344 37.8008433,34.7994421 L37.7683011,34.7994421 Z M42.6496303,41.7400279 C44.2306156,41.7850448 45.7972758,42.0519315 47.3031641,42.5327755 C46.1598117,43.2677197 44.8829946,43.7733423 43.5445407,44.0211994 C43.1827725,43.2869572 42.8834248,42.523905 42.6496303,41.7400279 L42.6496303,41.7400279 Z M42.6496303,46.1891213 C43.1174993,47.1784798 43.6614855,48.1304481 44.27674,49.0365411 C43.1703054,49.2306834 42.0150575,49.3762901 40.8435385,49.5057183 C40.2415079,48.5511855 39.6720195,47.6128312 39.2164288,46.674477 C40.3766981,46.6385021 41.531275,46.4977087 42.6659014,46.2538354 L42.6496303,46.1891213 Z M33.1473094,46.1891213 C34.4325637,46.4595403 35.7393302,46.6165429 37.0523728,46.6582985 C37.5369266,47.6807622 38.0801927,48.6746844 38.6794825,49.6351464 C37.3940658,49.6351464 36.0923781,49.7322176 34.8395036,49.7322176 C34.2210483,48.6021984 33.6616632,47.4411933 33.1635805,46.2538354 L33.1473094,46.1891213 Z M27.6802207,50.1366806 C29.4311214,50.7925169 31.2562298,51.2326147 33.1147672,51.4471409 C33.8030008,52.7742085 34.5690626,54.0599202 35.408992,55.297629 C33.6029002,55.297629 31.8293505,55.297629 30.1696986,55.297629 C29.2157707,53.6392661 28.3837725,51.9144467 27.6802207,50.1366806 Z M28.3147935,56.7051604 C29.4274994,58.5860936 30.6726343,60.3864031 32.0408748,62.0926081 C30.1534275,62.0926081 28.3636068,61.9470014 26.7527682,61.7690377 C25.3061662,59.5942083 24.0953485,57.2731205 23.1405846,54.8446304 C24.7353735,55.7763401 26.4895433,56.4071004 28.3147935,56.7051604 L28.3147935,56.7051604 Z M21.3344927,51.6736402 C20.7487332,54.3107392 21.9527944,57.8700139 24.0192238,61.3807531 C23.113599,61.2161283 22.2256051,60.9669546 21.3670349,60.6365411 C22.343854,61.6635637 23.5714857,62.421591 24.9304053,62.8368201 C26.2073435,64.7546054 27.6442661,66.562187 29.225975,68.2404463 C27.9909883,68.1488456 26.7628855,67.9813475 25.548707,67.7389121 C20.6096537,63.9752876 18.8734065,57.3564301 21.3344927,51.6736402 L21.3344927,51.6736402 Z M27.8429317,69.3244073 C28.8496971,69.5923674 29.8710102,69.8030301 30.901898,69.9553696 C31.3574887,70.3598326 31.7968084,70.7481172 32.236128,71.1040446 C31.1150088,70.8175975 30.0250032,70.4220091 28.9819085,69.9230126 L27.8429317,69.3244073 Z M34.4652683,71.4923291 C34.0422198,71.0932589 33.6191713,70.6564389 33.1961227,70.1818689 C35.5228376,70.3459697 37.8599257,70.2918021 40.1764235,70.0200837 L41.0550628,70.5701534 C38.9800104,71.3922313 36.7371815,71.708435 34.5140816,71.4923291 L34.4652683,71.4923291 Z" id="Shape" stroke="#3C3B3C" stroke-width="3.46" stroke-linecap="round" stroke-linejoin="round"></path>
                            <path d="M81.9174192,69.5608504 C67.4887038,89.1155624 40.1922083,93.8330574 20.0246468,80.2574193 C-0.142914713,66.6817812 -6.01153702,39.6394436 6.71798239,18.940931 C21.0254185,-1.0150571 48.6358549,-5.97058864 69.0035646,7.76189118 C89.3712743,21.494371 95.095828,48.9252856 81.9174192,69.6424954 L81.9174192,69.5608504 Z" id="Path" stroke="#FFD100" stroke-width="2"></path>
                            <polygon id="Path" fill="#FFD100" fill-rule="nonzero" points="26 7.43665768 26.9312977 7 28.9465649 11.722372 31.6335878 10.4447439 32 11.2857143 28.3816794 13"></polygon>
                            <polygon id="Path" fill="#FFD100" fill-rule="nonzero" points="31 4.32898172 32.0327869 4 34 9.67101828 32.9672131 10"></polygon>
                            <polygon id="Path" fill="#FFD100" fill-rule="nonzero" points="34 4.13258427 35.3969631 3.86516854 37.7809111 8.12808989 37.7809111 8.12808989 38.5553145 3.26741573 39.9370933 3 41 8.88314607 40.0433839 9.05617978 39.2386117 4.5258427 39.2386117 4.5258427 38.4793926 9.37078652 37.659436 9.52808989 35.2603037 5.28089888 35.2603037 5.28089888 36.0802603 9.81123596 35.1236443 10"></polygon>
                            <polygon id="Path" fill="#FFD100" fill-rule="nonzero" points="42.16 3 43.48 3 43.84 9 42.52 9"></polygon>
                            <polygon id="Path" fill="#FFD100" fill-rule="nonzero" points="44.0483871 3 49 3.26153846 49 4.13846154 47 4.04615385 46.7258065 9 45.6451613 9 45.9354839 4.03076923 44 3.93846154"></polygon>
                            <polygon id="Path" fill="#FFD100" fill-rule="nonzero" points="51.2944606 3 56 3.86885246 55.8075802 4.78688525 52.3090379 4.1147541 51.9766764 5.75409836 55.1953353 6.42622951 55.0204082 7.31147541 51.7142857 6.60655738 51.3469388 8.40983607 54.96793 9.08196721 54.7755102 10 50 9.1147541"></polygon>
                            <path d="M57.0367809,4 L59.3204443,4.88454778 C59.7025742,5.02557888 60.0504175,5.25497215 60.3388348,5.55614887 C60.5886347,5.80885698 60.7743787,6.12435162 60.8788903,6.47345768 C60.9856059,6.82751115 61.0223758,7.20112804 60.9869014,7.57095215 C60.9566308,7.9796743 60.8735584,8.38203589 60.7400189,8.7667297 C60.6103613,9.15300724 60.4284361,9.51719554 60.1999634,9.84784366 C59.9959405,10.152805 59.7394019,10.4140282 59.4438856,10.6177278 C59.1462209,10.8219177 58.8083616,10.9508142 58.4563555,10.9944797 C58.0551627,11.0215771 57.6535625,10.9486514 57.2836634,10.781533 L55,9.84784366 L57.0367809,4 Z M56.265273,9.35642822 L57.2065126,9.73318005 C57.5197646,9.86898088 57.8557268,9.93585358 58.1940428,9.92974623 C58.4459772,9.92388488 58.6915353,9.8445468 58.9038301,9.70041903 C59.1113466,9.56538923 59.2858296,9.38015973 59.4130253,9.15986205 C59.5588864,8.90705054 59.6779105,8.63785962 59.7679189,8.35721684 C59.8698991,8.09281958 59.9474148,7.81851979 59.9993713,7.53819112 C60.0830045,7.00075595 59.9095068,6.45434469 59.5364666,6.08032533 C59.2773855,5.85164534 58.9785735,5.67912435 58.6569475,5.57252939 L57.7157079,5.19577755 L56.265273,9.35642822 Z" id="Shape" fill="#FFD100" fill-rule="nonzero"></path>
                            <path d="M65.536134,8 L67.8713169,9.57627119 C68.1997158,9.76803646 68.4795679,10.034996 68.6886309,10.3559322 C68.8394637,10.5894986 68.931142,10.8573286 68.9555089,11.1355932 C69.0148304,11.3690531 69.0148304,11.6139977 68.9555089,11.8474576 C68.8880298,12.0574021 68.7926275,12.2569894 68.671951,12.440678 C68.55701,12.6240993 68.4165559,12.7896563 68.2549541,12.9322034 C68.0783141,13.1005489 67.867717,13.2277904 67.6377986,13.3050847 C67.3687001,13.366385 67.0895831,13.366385 66.8204846,13.3050847 C66.4532973,13.2273671 66.1065086,13.0713924 65.8030121,12.8474576 L64.3852225,11.8983051 L62.9340731,14 L62,13.3898305 L65.536134,8 Z M64.8022194,11.1694915 L66.1699694,12.0847458 C66.279843,12.1548955 66.3973971,12.2117774 66.5202468,12.2542373 C66.6475353,12.2718991 66.7765955,12.2718991 66.903884,12.2542373 C67.0445166,12.2464388 67.1814938,12.2058421 67.3042011,12.1355932 C67.4502155,12.037967 67.5750832,11.9110835 67.6711584,11.7627119 C67.7746702,11.6150273 67.8483679,11.4479706 67.8879968,11.2711864 C67.921181,11.1376896 67.921181,10.9979036 67.8879968,10.8644068 C67.8503667,10.736118 67.7815276,10.6195339 67.6878382,10.5254237 L67.3709206,10.2542373 L65.9698109,9.47457627 L64.8022194,11.1694915 Z" id="Shape" fill="#FFD100" fill-rule="nonzero"></path>
                            <path d="M71.0827905,12 L73.1874848,13.9719439 C73.6116327,14.3042842 73.899167,14.7840738 73.9945481,15.3186373 C74.0318503,15.7729555 73.8764714,16.2218775 73.5672793,16.5531062 C73.3973428,16.733821 73.1996042,16.8854213 72.9817628,17.002004 C72.8175598,17.0786973 72.640186,17.1222603 72.4595454,17.1302605 C72.3235666,17.1559179 72.1840803,17.1559179 72.0481014,17.1302605 L71.7949051,17.0340681 L71.7949051,17.0340681 C71.85488,17.1118044 71.9028979,17.1982878 71.937328,17.2905812 C71.962511,17.4121697 71.962511,17.5377301 71.937328,17.6593186 C71.9328127,17.8083704 71.9006006,17.9552236 71.8423794,18.0921844 C71.7615937,18.2765146 71.6490651,18.4448042 71.5100593,18.5891784 C71.2890369,18.8341844 71.0879344,19.0968978 70.908718,19.3747495 C70.7742207,19.5570165 70.6920718,19.7734013 70.6713465,20 L69.8484585,19.2304609 C69.8720032,19.0762494 69.9377972,18.9318283 70.0383557,18.8136273 L70.3232016,18.4609218 C70.4876836,18.2823871 70.6359791,18.0892239 70.7662951,17.8837675 C70.8680106,17.7342732 70.9380562,17.5650533 70.9720171,17.3867735 C71.0173533,17.2352 71.0173533,17.0734173 70.9720171,16.9218437 C70.877293,16.7381611 70.748315,16.5748267 70.5922226,16.4408818 L69.4528393,15.3827655 L67.7754137,17.2264529 L67,16.50501 L71.0827905,12 Z M69.9908814,14.7735471 L71.2726877,15.9599198 C71.4663279,16.1588471 71.7254197,16.2786775 72.0006271,16.2965932 C72.2672794,16.2848516 72.5156794,16.1560985 72.6810922,15.9438878 C72.791693,15.8292633 72.8778729,15.6928433 72.9342885,15.5430862 C72.9731633,15.4178531 72.9731633,15.2835497 72.9342885,15.1583166 C72.9111079,15.0389128 72.8564204,14.9281051 72.7760408,14.8376754 C72.7003365,14.7290365 72.6156312,14.6271314 72.5228445,14.5330661 L71.256863,13.3627255 L69.9908814,14.7735471 Z" id="Shape" fill="#FFD100" fill-rule="nonzero"></path>
                            <path d="M77.4288215,19.0724516 C77.6748002,19.4030372 77.8517315,19.782081 77.9485759,20.1859328 C78.0171414,20.5537605 78.0171414,20.9315864 77.9485759,21.2994141 C77.8666815,21.6800646 77.7163404,22.041719 77.5052559,22.3658468 C77.2887159,22.7060746 77.0142759,23.0035594 76.6950504,23.2440856 C76.3826261,23.5082853 76.0249116,23.71039 75.6402546,23.8400333 C75.2857872,23.9608449 74.9127413,24.0139988 74.5395981,23.9968616 C74.1713725,23.975449 73.8118071,23.8738738 73.4848023,23.6988878 C73.1332295,23.4995043 72.8260487,23.2270978 72.5828754,22.8990632 C72.3344999,22.5758538 72.1571958,22.2013613 72.0631209,21.8012648 C71.9789597,21.4298283 71.9789597,21.0435372 72.0631209,20.6721007 C72.1421055,20.29799 72.2871738,19.9418715 72.491154,19.6213508 C72.7075466,19.2765502 72.9818685,18.9738834 73.3013595,18.7274292 C73.6241027,18.4780776 73.9860048,18.2871359 74.3714422,18.1628471 C74.7241137,18.034324 75.0986349,17.9809599 75.4720988,18.0060188 C75.8393368,18.0215973 76.1990371,18.1178626 76.5268946,18.2883098 C76.8762686,18.4842247 77.1831349,18.7510165 77.4288215,19.0724516 L77.4288215,19.0724516 Z M76.7714849,19.6056679 C76.6049518,19.3710999 76.3843635,19.1825152 76.1294353,19.0567687 C75.8962427,18.9621945 75.6461502,18.9194329 75.3956643,18.931306 C75.1325752,18.9507991 74.8743751,19.0143721 74.6313195,19.1195001 C74.3786958,19.2326815 74.142153,19.3803933 73.9281222,19.5586194 C73.7125813,19.7275313 73.5175558,19.9223429 73.3472202,20.1388843 C73.1868061,20.3510846 73.0627418,20.5897302 72.9803347,20.8446119 C72.918215,21.0968011 72.918215,21.3608816 72.9803347,21.6130708 C73.0269267,21.8943927 73.1426775,22.1588786 73.3166464,22.3815297 C73.4789108,22.6163464 73.7010378,22.8008209 73.958696,22.914746 C74.1910892,23.012241 74.4418139,23.0551108 74.692467,23.0402087 C74.9508583,23.0222282 75.2042753,22.9585595 75.441525,22.8520147 C75.6971175,22.7417918 75.9384434,22.5995671 76.1600091,22.4285782 C76.3758658,22.2541164 76.5708539,22.054078 76.7409111,21.8326305 C76.9042931,21.622417 77.0286512,21.3832061 77.1077966,21.1269029 C77.1673689,20.8796988 77.1673689,20.6213309 77.1077966,20.3741268 C77.0529362,20.0863582 76.9205355,19.8201314 76.7256242,19.6056679 L76.7714849,19.6056679 Z" id="Shape" fill="#FFD100" fill-rule="nonzero"></path>
                            <path d="M80.4586296,23 L81.6410627,25.4116893 C81.8507352,25.8016745 81.9727004,26.2379739 81.9974125,26.6864394 C82.0136999,27.068914 81.952952,27.4506747 81.8192376,27.8061523 C81.6589109,28.1610342 81.4393883,28.4820464 81.171329,28.7536016 C80.8791544,29.0523108 80.5459987,29.3020723 80.1832685,29.4943348 C79.8255048,29.6960519 79.4442635,29.8466484 79.0494285,29.9422199 C78.6858535,30.01926 78.311559,30.01926 77.947984,29.9422199 C77.5918206,29.8683657 77.2581212,29.7027499 76.9761211,29.4598821 C76.642663,29.1823202 76.3715336,28.8292416 76.1824331,28.4263009 L75,26.031838 L80.4586296,23 Z M76.2796194,26.6519867 L76.7817485,27.6511151 C76.9372193,27.9849577 77.1454124,28.287946 77.3972617,28.5468854 C77.6031267,28.7281563 77.8479697,28.8524342 78.1099611,28.9086388 C78.3606483,28.9680746 78.6205665,28.9680746 78.8712536,28.9086388 C79.1509312,28.8143049 79.4220003,28.6932258 79.6811394,28.5468854 C79.9402801,28.4087061 80.1846578,28.2412169 80.4100365,28.0473212 C80.6120139,27.8775789 80.7730411,27.6590834 80.8797702,27.4099462 C80.9904603,27.151199 81.0351518,26.8660214 81.0093519,26.5830813 C80.9574541,26.2136086 80.8421553,25.8574242 80.6691999,25.5322738 L80.1832685,24.5331453 L76.2796194,26.6519867 Z" id="Shape" fill="#FFD100" fill-rule="nonzero"></path>
                            <path d="M83.4372098,29 L83.7627911,30.0024172 L80.3279085,31.0674855 L79.7418622,31.2867643 C79.5536214,31.3648547 79.3824036,31.47645 79.2372112,31.6156824 C79.1029274,31.7678819 79.0130446,31.951652 78.9767462,32.1482166 C78.9338287,32.4129377 78.967626,32.6839192 79.0744206,32.931355 C79.1438268,33.1964419 79.2841347,33.4394349 79.4813972,33.6361796 C79.6335096,33.7714133 79.8180789,33.8682762 80.0186063,33.9181095 C80.2173549,33.9569244 80.4221831,33.9569244 80.6209317,33.9181095 L81.2395361,33.7614818 L84.6744187,32.6807507 L85,33.6675052 L81.2395361,34.8578756 C80.8972951,34.9605952 80.5397708,35.0082245 80.181397,34.9988405 C79.8789837,34.9731059 79.5853029,34.887804 79.3186065,34.7482362 C79.0475302,34.6002308 78.8183472,34.3904806 78.6511649,34.1373882 C78.2462662,33.5804632 78.0198826,32.9215785 78,32.2421932 C77.9995655,31.9413737 78.0604017,31.6433873 78.179072,31.3650781 C78.3141928,31.1022856 78.5023471,30.8680101 78.7325602,30.6759163 C79.0039791,30.4581077 79.3201973,30.2979778 79.6604669,30.2060332 L83.4372098,29 Z" id="Path" fill="#FFD100" fill-rule="nonzero"></path>
                            <path d="M84.3012083,40.6354699 C84.4546316,40.5707585 84.5977449,40.478334 84.7249667,40.3618011 C84.8565078,40.2675859 84.965627,40.1383898 85.0427854,39.9855065 C85.1340065,39.8367421 85.1959361,39.6675969 85.2243961,39.4894817 C85.2546202,39.2799115 85.2546202,39.0661929 85.2243961,38.8566226 C85.1935767,38.5407021 85.0891269,38.2396838 84.9217116,37.9843033 C84.7743524,37.7647811 84.5822472,37.5887442 84.3617452,37.4711743 C84.1306621,37.3376723 83.8787765,37.2563367 83.6201681,37.2317141 C83.3490046,37.1899595 83.0740833,37.1899595 82.8029198,37.2317141 C82.5333409,37.2771888 82.269281,37.3575362 82.01594,37.4711743 C81.7782821,37.584188 81.5584845,37.7401659 81.3651682,37.9329904 C81.1795181,38.1247454 81.0390783,38.3657666 80.9565441,38.6342667 C80.8593084,38.9231646 80.833158,39.2364421 80.880873,39.5407946 C80.9068882,39.7702568 80.9738195,39.9913699 81.0776179,40.1907581 C81.1809669,40.3674098 81.3148028,40.5186676 81.4711078,40.6354699 C81.6269386,40.7565754 81.801473,40.8435993 81.9856715,40.8920344 C82.1862529,40.9273302 82.3904593,40.9273302 82.5910406,40.8920344 L82.7272487,41.9867096 C82.4024264,42.0198373 82.0749871,41.9909261 81.7586581,41.9011881 C81.4688654,41.8030843 81.1971327,41.6466346 80.9565441,41.439372 C80.7180685,41.2325695 80.5219011,40.9700262 80.3814435,40.6696785 C80.2175494,40.3480056 80.1096676,39.9938421 80.0636247,39.6263161 C79.9787918,39.1867718 79.9787918,38.731725 80.0636247,38.2921807 C80.1614174,37.8938984 80.3372858,37.5256044 80.5781884,37.2146098 C80.8229499,36.8994943 81.1215171,36.6435109 81.4559736,36.4620206 C81.8049955,36.2517531 82.1841264,36.1127854 82.5759064,36.0515173 C82.9670494,35.9828276 83.3652331,35.9828276 83.7563761,36.0515173 C84.1222306,36.1302939 84.4714829,36.2870192 84.7855036,36.5133335 C85.0890121,36.7397142 85.3510728,37.0300808 85.5573491,37.3685485 C85.7759515,37.7504093 85.9156178,38.1830275 85.9659733,38.6342667 C86.0113422,38.9801643 86.0113422,39.3317315 85.9659733,39.6776291 C85.9236286,39.9957199 85.8313759,40.3027122 85.6935572,40.584157 C85.5580525,40.8542155 85.3721338,41.0876826 85.148725,41.268329 C84.9161415,41.4686057 84.6474925,41.608738 84.3617452,41.6788322 L84.3012083,40.6354699 Z" id="Path" fill="#FFD100" fill-rule="nonzero"></path>
                            <polygon id="Path" fill="#FFD100" fill-rule="nonzero" points="86 42.0161812 86 47 85.0866142 47 85.0866142 45.02589 80 45.02589 80 43.9417476 85.0866142 43.9417476 85.0866142 42"></polygon>
                            <polygon id="Path" fill="#FFD100" fill-rule="nonzero" points="86 48.7476636 85.8909091 50 80 49.2336449 80.1090909 48"></polygon>
                            <path d="M85.9040705,53.7568025 C85.8095452,54.1772897 85.6117109,54.5719068 85.3259424,54.9099856 C85.0685553,55.2222466 84.7394108,55.4774647 84.3623956,55.6571183 C83.9821226,55.8425702 83.5646143,55.953163 83.1360632,55.9819586 C82.2166216,56.0640743 81.2935029,55.8643807 80.5082082,55.4134881 C80.1469589,55.2053246 79.8318299,54.935216 79.5796995,54.6176293 C79.333257,54.2961719 79.160361,53.9313671 79.0716475,53.5456564 C78.9761175,53.1280077 78.9761175,52.6964279 79.0716475,52.2787792 C79.1778193,51.8619528 79.3745341,51.4695689 79.6497756,51.1255961 C79.9111563,50.8169013 80.239387,50.5623917 80.6133224,50.3784634 C80.9935954,50.1930115 81.4111037,50.0824187 81.8396548,50.0536232 C82.2918854,49.9821256 82.7539087,49.9821256 83.2061394,50.0536232 C83.6535579,50.1479731 84.0802022,50.3127835 84.4675098,50.5408836 C84.8287591,50.7490471 85.1438881,51.0191556 85.3960185,51.3367423 C85.648525,51.6549806 85.822016,52.0210409 85.9040705,52.4087153 C86.0319765,52.8502545 86.0319765,53.3152633 85.9040705,53.7568025 L85.9040705,53.7568025 Z M84.9755617,53.5294143 C85.0623152,53.2425898 85.0623152,52.9391701 84.9755617,52.6523455 C84.9098554,52.3907349 84.7708657,52.149826 84.572624,51.9539389 C84.3597864,51.7557744 84.118001,51.586287 83.8543436,51.4504364 C83.5755245,51.3219341 83.2815791,51.2238273 82.9783919,51.1580802 C82.6678507,51.0935725 82.3506047,51.0608924 82.0323641,51.0606281 C81.734865,51.0746349 81.4405069,51.1237572 81.1564125,51.2068062 C80.889593,51.3087746 80.6503208,51.4640562 80.4556511,51.6615826 C80.2543221,51.8890012 80.1106362,52.1554254 80.0351943,52.4411993 C79.9558455,52.7289279 79.9558455,53.0305396 80.0351943,53.3182681 C80.1148717,53.5782108 80.2588362,53.8173455 80.4556511,54.0166748 C80.6610215,54.218348 80.9044556,54.3834866 81.1739315,54.5039352 C81.4474829,54.6471185 81.7428002,54.751159 82.0498832,54.8125335 C82.3544946,54.8770351 82.6659365,54.9097226 82.9783919,54.9099856 C83.2778992,54.8998866 83.5736857,54.8450414 83.8543436,54.7475655 C84.1255406,54.6519535 84.3707534,54.5022428 84.572624,54.3090311 C84.7749865,54.084393 84.9135056,53.8163819 84.9755617,53.5294143 L84.9755617,53.5294143 Z" id="Shape" fill="#FFD100" fill-rule="nonzero"></path>
                            <polygon id="Path" fill="#FFD100" fill-rule="nonzero" points="84 58.445977 83.5987261 59.491954 78.7388535 60.2804598 78.7388535 60.2804598 82.5732484 62.0666667 82.2016985 63 77 60.5862069 77.4161359 59.5402299 82.2462845 58.7517241 82.2462845 58.7517241 78.4118896 56.9494253 78.7834395 56"></polygon>
                            <path d="M12,29.1259588 L11.0659631,31.616821 C10.9578258,31.9601911 10.7738467,32.2747165 10.5277045,32.5370122 C10.3456181,32.7261478 10.1239346,32.8724501 9.87862797,32.965377 C9.65405286,33.011541 9.42246429,33.011541 9.19788918,32.965377 C8.99306001,32.9382867 8.7915008,32.8904457 8.59630607,32.8225887 C8.40614213,32.7492983 8.22543286,32.6534218 8.05804749,32.5370122 C7.87996239,32.4238199 7.72430899,32.2785879 7.59894459,32.1086473 C7.47652618,31.8782554 7.40625927,31.6236642 7.39313984,31.3629752 C7.38544644,31.0031353 7.45565943,30.6458986 7.59894459,30.3158612 L8.1530343,28.8086515 L6,27.999518 L6.36411609,27 L12,29.1259588 Z M8.96042216,29.1259588 L8.42216359,30.5221109 C8.37159063,30.6371829 8.34466979,30.7612865 8.34300792,30.8870143 C8.31942385,31.0128369 8.31942385,31.1419604 8.34300792,31.267783 C8.37758085,31.3976752 8.4427263,31.5173667 8.53298153,31.616821 C8.65050144,31.7299493 8.79085928,31.8165101 8.94459103,31.8706669 C9.10211688,31.9282433 9.2677698,31.9603745 9.4353562,31.965859 C9.56371837,31.9578523 9.68842308,31.9198167 9.7994723,31.8548015 C9.91035305,31.7960151 10.0033358,31.7083127 10.0686016,31.6009557 C10.1360237,31.4895491 10.1942644,31.3728159 10.2427441,31.2519176 L10.7968338,29.7764388 L8.96042216,29.1259588 Z" id="Shape" fill="#FFD100" fill-rule="nonzero"></path>
                            <path d="M10,34.3262292 L9.40322581,37.3061515 C9.32705948,37.8542569 9.06462318,38.3581177 8.66129032,38.7306198 C8.27583698,38.9879827 7.8002683,39.0654639 7.35483871,38.9434714 C7.1152886,38.8897958 6.88630494,38.7957089 6.67741935,38.665127 C6.5252528,38.5599442 6.39393689,38.4266404 6.29032258,38.2721702 C6.2066143,38.1518669 6.14135668,38.0193759 6.09677419,37.8792135 C6.10435119,37.7920591 6.10435119,37.7043966 6.09677419,37.6172423 L6.09677419,37.6172423 C6.06083919,37.7110975 6.01196478,37.7993007 5.9516129,37.8792135 C5.88053178,37.9861398 5.78686186,38.0756343 5.67741935,38.1411846 C5.54611005,38.2123207 5.40459586,38.2620479 5.25806452,38.2885434 C5.05491958,38.3197465 4.84830622,38.3197465 4.64516129,38.2885434 C4.32301292,38.207931 3.99302112,38.1639982 3.66129032,38.1575578 C3.43313498,38.1376589 3.20405051,38.183035 3,38.2885434 L3.22580645,37.1424195 C3.37251372,37.0936668 3.53071209,37.0936668 3.67741935,37.1424195 L4.14516129,37.1424195 C4.38263959,37.2030244 4.62614341,37.2359831 4.87096774,37.2406587 C5.05229429,37.2573352 5.2349042,37.2292482 5.40322581,37.1587927 C5.55367348,37.0932924 5.68243089,36.9853174 5.77419355,36.8477019 C5.84912631,36.6484743 5.89267091,36.4385063 5.90322581,36.2255203 L6.22580645,34.5882004 L3.74193548,34.0806312 L3.96774194,33 L10,34.3262292 Z M7.03225806,34.8337983 L6.67741935,36.5857307 C6.58385206,36.8503521 6.58385206,37.1397693 6.67741935,37.4043907 C6.83800977,37.6325984 7.08201268,37.7859345 7.35483871,37.8300939 C7.51452694,37.8627304 7.67902145,37.8627304 7.83870968,37.8300939 C7.95883573,37.8061099 8.07031365,37.7495271 8.16129032,37.6663619 C8.25478648,37.574799 8.32649494,37.4628083 8.37096774,37.3388979 C8.41814982,37.2165267 8.45589775,37.0906202 8.48387097,36.9623143 L8.83870968,35.2267551 L7.03225806,34.8337983 Z" id="Shape" fill="#FFD100" fill-rule="nonzero"></path>
                            <path d="M8.9993581,43.1130638 C8.99841771,43.5571375 8.88480563,43.994624 8.66791413,44.3893561 C8.48147609,44.7407416 8.2131934,45.0483102 7.88291526,45.2893059 C7.54859255,45.5442561 7.16296807,45.7334597 6.74902801,45.8456385 C6.31434156,45.9699561 5.85934201,46.0198402 5.40580772,45.992903 C4.94674665,45.9807453 4.49294575,45.8978243 4.06258743,45.7474621 C3.66459071,45.6039358 3.29801462,45.3931918 2.98103343,45.1256787 C2.65647548,44.8445638 2.3954564,44.5051352 2.21347898,44.1275526 C2.05261464,43.725414 1.98136969,43.2966062 2.00414595,42.8676229 C2.01108245,42.4366059 2.11824344,42.0122045 2.3181455,41.624056 C2.51566622,41.2747941 2.78204347,40.9638576 3.10314437,40.7077435 C3.44040805,40.4607928 3.82545607,40.2774286 4.23703162,40.1677736 C4.67690719,40.0390656 5.13743223,39.983685 5.59769633,40.0041464 C6.05091068,40.0177899 6.49871691,40.1006923 6.9234722,40.2495872 C7.3227968,40.3980381 7.68946262,40.6143809 8.0050262,40.8877334 C8.31613923,41.156349 8.56033472,41.4859624 8.72024739,41.8531341 C8.91340916,42.2479873 9.00882798,42.6787161 8.9993581,43.1130638 L8.9993581,43.1130638 Z M8.05735946,43.1130638 C8.07539274,42.814976 8.01550837,42.5172694 7.88291526,42.2458394 C7.75314576,42.0037963 7.56133303,41.7957652 7.32469384,41.6404187 C7.08586458,41.4671948 6.81328831,41.3393577 6.52225055,41.2640761 C6.22312092,41.1739168 5.91178755,41.1243271 5.59769633,41.1168115 C5.29107457,41.0756386 4.97976387,41.0756386 4.67314211,41.1168115 C4.37655971,41.1729669 4.09301755,41.2782428 3.83580998,41.4277033 C3.59072398,41.5697348 3.38695449,41.7664905 3.24269972,42.0003986 C3.0900186,42.261655 3.00627496,42.5534153 2.99847785,42.8512602 C2.98044457,43.149348 3.04032894,43.4470545 3.17292204,43.7184845 C3.30269155,43.9605276 3.49450428,44.1685587 3.73114346,44.3239053 C3.96657836,44.4887804 4.23282673,44.6108749 4.51614233,44.6838852 C4.81763512,44.7646356 5.12768587,44.814021 5.44069656,44.8311497 C5.75719983,44.8441216 6.07411206,44.8165975 6.3826952,44.749336 C6.67051912,44.6913135 6.94707076,44.5919676 7.20258291,44.454807 C7.44766891,44.3127755 7.6514384,44.1160198 7.79569317,43.8821117 C7.95151112,43.6389497 8.04135861,43.3636474 8.05735946,43.0803383 L8.05735946,43.1130638 Z" id="Shape" fill="#FFD100" fill-rule="nonzero"></path>
                            <path d="M8.56199015,46 L8.96232377,48.6771413 C9.03339399,49.118509 9.00366164,49.5699515 8.87529472,49.9985508 C8.76299027,50.3677955 8.55967021,50.7038646 8.2834972,50.976737 C8.00981746,51.2605571 7.67737982,51.4829691 7.30877187,51.6288612 C6.90816879,51.7936792 6.48647864,51.9033945 6.05555359,51.9549233 C5.62254329,52.0150256 5.18312819,52.0150256 4.75011789,51.9549233 C4.35859506,51.8969205 3.98109033,51.7689772 3.63614609,51.5773777 C3.30607759,51.371765 3.0266169,51.0962323 2.81807304,50.7708031 C2.57893552,50.392291 2.43565849,49.9626154 2.40033362,49.5180382 L2,46.8237358 L8.56199015,46 Z M3.07916018,47.8362443 L3.21840666,48.968881 C3.26294358,49.3347951 3.37502678,49.6895834 3.54911704,50.0157119 C3.6787338,50.2657192 3.87799366,50.474085 4.12350875,50.6163526 C4.36145394,50.7568178 4.62999802,50.8391905 4.90677017,50.8566089 C5.21914834,50.8902032 5.53430571,50.8902032 5.84668388,50.8566089 C6.16175324,50.8265273 6.47170816,50.7573352 6.76919178,50.6506749 C7.32151218,50.4900474 7.74570079,50.0522166 7.88316358,49.5008771 C7.94717776,49.1374924 7.94717776,48.7659473 7.88316358,48.4025627 L7.74391711,47.2870872 L3.07916018,47.8362443 Z" id="Shape" fill="#FFD100" fill-rule="nonzero"></path>
                            <path d="M9.46673663,52 L9.77665156,53.0194936 L6.31865331,54.0230576 L5.79669131,54.2301422 C5.61097799,54.3077827 5.44002404,54.4154945 5.29104063,54.548734 C5.1543769,54.6981046 5.05894346,54.8790223 5.01374831,55.0744104 C4.94697521,55.6458061 5.11733755,56.2195145 5.48677638,56.6673691 C5.63529179,56.8016523 5.81410786,56.8998824 6.00873838,56.9541017 C6.20692112,57.0020059 6.41407419,57.0020059 6.61225694,56.9541017 L7.23208681,56.8107354 L10.6900851,55.7434531 L11,56.7629466 L7.18315288,57.8780178 C6.84623014,57.9825978 6.49133393,58.0205062 6.13922888,57.9895249 C5.83307372,57.9678707 5.53666184,57.8750202 5.27472931,57.7187219 C5.01526934,57.5583299 4.79302729,57.3467149 4.62227681,57.097468 C4.41505958,56.8126063 4.26048901,56.4945263 4.16556006,56.1576223 C4.05926588,55.827675 4.00428238,55.4840158 4.00244694,55.1381287 C3.98724182,54.8377309 4.04305416,54.5379468 4.16556006,54.2620014 C4.3029651,53.9915697 4.49754607,53.7526783 4.736456,53.5610996 C5.01874611,53.3531774 5.34022121,53.2016145 5.68251213,53.1150711 L9.46673663,52 Z" id="Path" fill="#FFD100" fill-rule="nonzero"></path>
                            <path d="M11.316066,62.0106648 C11.4577313,61.8889801 11.5861745,61.7536565 11.6994012,61.6067954 C11.8062559,61.4656495 11.8832307,61.3055327 11.9259175,61.1356143 C11.9611361,60.9633894 11.9611361,60.7861746 11.9259175,60.6139496 C11.8918617,60.404311 11.827336,60.2003644 11.7342499,60.0081454 C11.5944658,59.732437 11.3919404,59.490822 11.1418227,59.3013739 C10.8986071,59.1491007 10.6259365,59.0460558 10.3403036,58.9984718 C10.0515045,58.9567534 9.75788627,58.9567534 9.46908715,58.9984718 C9.16115014,59.0639222 8.86270233,59.1656511 8.58044638,59.3013739 C8.29107109,59.4176422 8.02553377,59.5829086 7.79635158,59.7893828 C7.55923606,59.9668686 7.36334361,60.1904533 7.22134873,60.4456707 C7.07605666,60.6806971 6.9923227,60.9464055 6.97740813,61.2197538 C6.96052619,61.529987 7.03289579,61.8386784 7.18650008,62.1116322 C7.28069648,62.3200614 7.42387508,62.5044315 7.60468397,62.6501248 C7.76645906,62.7839789 7.95685527,62.8816646 8.16226249,62.936199 C8.37494506,62.9783641 8.59428009,62.9783641 8.80696265,62.936199 C9.03699906,62.9017823 9.26412114,62.8511636 9.48651148,62.784748 L9.97439268,63.7607658 C9.6317257,63.9009075 9.26585605,63.9806953 8.8940843,63.9963564 C8.54426338,64.0147761 8.19427349,63.9632153 7.8660489,63.8449053 C7.54382372,63.7263248 7.24809248,63.5492477 6.99483246,63.3232406 C6.72257179,63.0714203 6.49843073,62.7752 6.33270797,62.4481901 C6.1270065,62.0503354 6.01400605,61.6138056 6.00164572,61.1692701 C5.98748998,60.765378 6.06479482,60.3633696 6.22816199,59.9913175 C6.40080776,59.6114636 6.6495176,59.2683258 6.9599838,58.9816439 C7.31402422,58.7304177 7.7084287,58.5371231 8.12741383,58.4094955 C8.531067,58.2100614 8.96722093,58.0791403 9.41681416,58.0224539 C9.84255611,57.9747195 10.2737633,58.0032432 10.6887902,58.1065934 C11.0973028,58.2126746 11.4775506,58.4020286 11.8039472,58.6619139 C12.1543832,58.9434677 12.4393773,59.2932503 12.640315,59.6884154 C12.7896536,59.9987195 12.8951434,60.3269957 12.9539529,60.6644333 C13.015349,60.9814142 13.015349,61.3066424 12.9539529,61.6236233 C12.884652,61.9205015 12.7542938,62.2009062 12.5706177,62.4481901 C12.379392,62.7160769 12.1295629,62.9401202 11.8387959,63.104478 L11.316066,62.0106648 Z" id="Path" fill="#FFD100" fill-rule="nonzero"></path>
                            <polygon id="Path" fill="#FFD100" fill-rule="nonzero" points="13.1 62 16 66.1300813 15.2166667 66.6666667 14.0833333 65.0406504 9.63333333 68 9 67.1056911 13.5333333 64.1463415 12.4 62.5203252"></polygon>
                            <polygon id="Path" fill="#FFD100" fill-rule="nonzero" points="17.2298507 67 18 67.8644068 12.7701493 72 12 71.1355932"></polygon>
                            <path d="M20.1261122,70.778312 C20.4321821,71.0484756 20.6707006,71.3859153 20.82272,71.7638252 C20.9631308,72.1104164 21.0213977,72.4845222 20.9930019,72.8571288 C20.973458,73.2345378 20.884251,73.6051457 20.7298389,73.9504324 C20.5515418,74.3097635 20.322144,74.6416756 20.0487113,74.9359456 C19.7690585,75.2259173 19.44515,75.4701676 19.0889406,75.6596818 C18.7534319,75.8392444 18.3847972,75.9492523 18.0053285,75.9830533 C17.6343172,76.027124 17.258086,75.9849551 16.9062362,75.8598641 C16.5200772,75.7235772 16.1668051,75.5085343 15.8690646,75.2285198 C15.5719174,74.9478146 15.3395301,74.6063232 15.187937,74.227608 C15.050415,73.8853233 14.9871131,73.5180071 15.0021749,73.149703 C15.0196125,72.7702505 15.1144131,72.3982844 15.280818,72.0563994 C15.4474322,71.6857964 15.6779507,71.3470513 15.9619456,71.0554876 C16.2394151,70.7630861 16.5637449,70.5185182 16.9217164,70.3317514 C17.2620541,70.1640738 17.628405,70.0547474 18.0053285,70.0083799 C18.3773679,69.97921 18.7514651,70.026381 19.1044208,70.1469677 C19.4916927,70.2712893 19.8424707,70.4880492 20.1261122,70.778312 Z M19.5533458,71.3788591 C19.3502962,71.1810019 19.0998872,71.0379075 18.8257776,70.9630958 C18.5817681,70.903088 18.3267389,70.903088 18.0827293,70.9630958 C17.824021,71.0147477 17.5772747,71.1139708 17.3551612,71.25567 C17.1156267,71.4001268 16.8969084,71.576252 16.7049939,71.7792238 C16.5096176,71.9815712 16.3429541,72.2095266 16.2096284,72.4567641 C16.0697608,72.6815781 15.9800196,72.9336305 15.9464654,73.1958989 C15.88614,73.4386234 15.88614,73.6923094 15.9464654,73.9350338 C16.0343455,74.2040599 16.1950241,74.4438083 16.4108706,74.6279727 C16.6060142,74.8281353 16.8521324,74.9718351 17.1229586,75.043736 C17.3718889,75.1063098 17.6325568,75.1063098 17.8814871,75.043736 C18.1378466,74.9770273 18.3829798,74.8732647 18.6090552,74.7357632 C18.8427107,74.5831452 19.0605077,74.407762 19.2592225,74.2122093 C19.446278,74.0122338 19.6074879,73.7897978 19.7391079,73.5500677 C19.8720717,73.3205393 19.9662073,73.070833 20.017751,72.8109329 C20.0806561,72.5633137 20.0806561,72.3040186 20.017751,72.0563994 C19.9267589,71.780068 19.7670067,71.5311077 19.5533458,71.3326632 L19.5533458,71.3788591 Z" id="Shape" fill="#FFD100" fill-rule="nonzero"></path>
                            <polygon id="Path" fill="#FFD100" fill-rule="nonzero" points="23.1940299 73 24.0597015 73.6393443 23.8656716 79.0491803 23.8656716 79.0491803 26.2089552 75.2459016 27 75.8360656 23.8059701 81 22.9402985 80.3442623 23.1343284 74.9508197 23.1343284 74.9508197 20.7910448 78.8032787 20 78.2131148"></polygon>
                            <polygon id="Path" fill="#FFD100" fill-rule="nonzero" points="30.1984733 77 31.129771 77.3880266 29.2671756 82.0443459 32 83.1773836 31.6641221 84 28 82.4478936"></polygon>
                            <polygon id="Path" fill="#FFD100" fill-rule="nonzero" points="33.8965517 79 35 79.3125 33.1034483 85 32 84.703125"></polygon>
                            <polygon id="Path" fill="#FFD100" fill-rule="nonzero" points="35.9198218 79 37.3697105 79.2386364 38.2427617 84.1863636 38.2427617 84.1863636 40.5812918 79.7954545 42 80.0340909 41.0489978 86 40.0668151 85.8409091 40.8151448 81.2272727 40.8151448 81.2272727 38.4454343 85.5704545 37.6035635 85.4272727 36.714922 80.5431818 36.714922 80.5431818 35.9821826 85.1568182 35 84.9818182"></polygon>
                            <polygon id="Path" fill="#FFD100" fill-rule="nonzero" points="43.45 80 44.79 80 44.55 86 43.21 86"></polygon>
                            <polygon id="Path" fill="#FFD100" fill-rule="nonzero" points="45 80.2442748 50 80 50 80.8854962 48.0357143 81.0076336 48.3766234 85.9236641 47.3051948 86 47.0454545 80.9923664 45.0974026 81.1145038"></polygon>
                            <path d="M50,79.6510319 L54.572238,78.7054409 L54.7592068,79.6679174 L51.3597734,80.3771107 L51.7167139,82.065666 L54.9121813,81.424015 L55.0991501,82.3189493 L51.9036827,82.9774859 L52.2776204,84.8180113 L55.796034,84.0919325 L56,85.0375235 L51.3767705,86 L50,79.6510319 Z M52.1926346,77.2532833 L53.3994334,77 L52.3966006,78.5196998 L51.6657224,78.6716698 L52.1926346,77.2532833 Z" id="Shape" fill="#FFD100" fill-rule="nonzero"></path>
                            <polygon id="Path" fill="#FFD100" fill-rule="nonzero" points="56 78.4596413 59.9037975 77 60.2075949 77.8475336 57.1696203 78.9618834 57.6860759 80.4372197 60.4202532 79.4013453 60.7088608 80.2017937 58.0962025 81.2219731 58.6734177 82.7914798 61.7113924 81.67713 62 82.5246637 58.035443 84"></polygon>
                            <path d="M52.2821199,63.920781 C51.531327,64.8574348 50.542744,65.5778986 49.4184068,66.0078103 C49.6462022,65.6195258 49.8739975,65.1988842 50.0855218,64.7782427 C50.8153388,63.292964 51.4511493,61.7638136 51.9892402,60.1997211 C53.0052876,59.3507964 53.7514472,58.2266839 54.137025,56.9640167 C53.7025589,57.5741768 53.1492425,58.091335 52.5099153,58.4847978 C53.235576,56.1403252 53.533152,53.6855931 53.3885546,51.2368201 C53.4997788,50.9589084 53.5868759,50.6720409 53.6488921,50.3793584 L53.3397413,50.767643 C53.1854115,49.3915559 52.6690947,48.0802071 51.8428003,46.9656904 C52.0871333,46.5285473 52.252354,46.0521334 52.3309332,45.558159 C52.084686,45.9115979 51.7824658,46.2230259 51.4360229,46.4803347 L51.4360229,46.4803347 L51.4360229,46.5774059 C49.8953996,47.5860921 48.1705805,48.2841873 46.3594405,48.6320781 C45.6760544,47.6613668 45.0414816,46.6421199 44.4719932,45.6552301 C45.9613922,45.2023901 47.1936836,44.1529874 47.8726526,42.7592748 C48.5334041,43.0954339 49.0733512,43.6266575 49.4184068,44.2800558 C53.0631326,43.5682008 55.0156643,43.5034868 58.3349682,47.5157601 C59.4902161,44.6198047 54.462447,41.3193863 53.453639,41.1576011 C54.5112603,40.4781032 59.0997097,40.7854951 62.7118934,44.1668061 C62.5166402,41.4164575 58.6929323,37.9704324 55.3573573,37.4203626 C58.0909017,36.0937238 61.8657963,39.3617852 63.9810389,38.6499303 C64.322732,37.4365411 60.9383437,34.6052999 58.5302213,34.7832636 C60.4664819,33.4728033 64.0786655,35.0097629 66.3728903,35.6407252 C65.0439166,32.4932761 61.4571445,30.9454738 58.2373416,32.1299861 C61.4915611,30.2856346 66.0149261,29.6870293 68,30.5121339 C65.0712025,27.8750349 62.9722309,26.5645746 59.0020832,27.8426778 C58.302426,27.0499303 59.9295357,25.2702929 62.484098,24.6069735 C61.0849762,23.2596685 59.0876396,22.7219282 57.1959913,23.1832636 C56.1709122,22.325802 58.2373416,16.9383543 58.9858121,16 C55.8454903,16 52.3309332,21.58159 51.6475471,25.2055788 C51.473894,22.6526349 50.3065774,20.2674476 48.3933277,18.5562064 C49.1380629,20.9325345 48.8796542,23.5077586 47.6773994,25.6909344 C47.2543509,19.9960948 45.1716504,20.6594142 42.6333592,19.753417 C44.5858909,22.4875872 45.0414816,24.6069735 43.8862337,26.4675035 C42.259124,22.9729428 40.8109963,22.5684798 39.0049045,23.1185495 C38.760838,26.3542538 42.4055638,28.6516039 41.4618402,31.0945607 C40.8272674,29.1046025 37.2150838,26.7101813 35.7181428,27.2764296 C37.4591502,29.2178522 37.6869456,30.8680614 39.1676155,33.4242678 C36.0272937,31.2563459 34.5466238,31.0622036 32.6591765,32.0329149 C36.5316977,34.1846583 38.7282958,35.4627615 37.9798254,38.7470014 C38.1750785,37.9866109 41.0062495,38.8926081 41.9174309,40.2677824 C41.5123387,41.6176643 41.5695708,43.0630897 42.0801419,44.3771269 C40.9086229,44.5550907 39.6557484,44.6845188 38.3866028,44.7654114 C37.1662705,42.0959554 36.5642399,39.7015342 37.084915,38.1322176 C35.6042451,39.6691771 35.6042451,42.0959554 36.4828844,44.8301255 C35.1811966,44.8301255 33.912051,44.8301255 32.7730742,44.7006974 C32.215886,43.2279213 32.1027945,41.625536 32.4476522,40.0898187 C31.3815705,41.2962292 30.8790763,42.8950619 31.064609,44.4903766 C30.3640786,44.3936816 29.6764913,44.2200498 29.0144507,43.9726639 C29.5171806,44.7594815 30.2931076,45.3352369 31.1947777,45.590516 C31.4423335,47.0059662 31.8630825,48.3859947 32.4476522,49.6998605 C30.7701737,49.6314219 29.1003199,49.4367225 27.4524254,49.1174338 C26.7073483,47.4296885 26.4918536,45.5576571 26.8341237,43.7461646 C24.2958325,46.0920502 25.0931162,50.4440725 27.4524254,55.0711297 C25.9342049,54.9264424 24.4315698,54.6503613 22.9616025,54.2460251 C22.3029007,52.7505232 22.1266775,51.088754 22.4571985,49.4895397 L22.213132,49.7645746 C26.0368399,42.2739191 31.1459645,37.9218968 37.4916924,36.9026499 C29.7629212,36.0451883 23.2382111,43.2446304 19.8538229,50.1528591 C15.2816445,59.4716876 19.6097564,67.7389121 27.9893716,71.7835425 C30.7086407,73.1060396 33.6999238,73.781757 36.7269509,73.7573222 C37.0451184,73.864734 37.3716446,73.9459011 37.7032167,74 C37.5496442,73.9201009 37.4027369,73.82813 37.2638971,73.7249651 C41.5945194,73.517222 45.5972446,71.3695951 48.1492612,67.8845188 C50.0326903,67.2103187 51.5365858,65.7679643 52.2821199,63.920781 Z M39.8510015,68.1433752 C38.7933802,67.0594142 37.6706745,65.8136681 36.5967821,64.4708508 C38.7186892,64.4418944 40.8350252,64.2471525 42.926239,63.888424 C44.0706154,64.9200209 45.3516579,65.7909637 46.7336757,66.4769874 L46.1804584,67.1079498 C44.0978442,67.6011099 41.9827427,67.9471158 39.8510015,68.1433752 L39.8510015,68.1433752 Z M43.105221,69.534728 C42.7415413,69.7581615 42.3668368,69.9633463 41.9825153,70.1495119 L41.592009,69.8259414 C42.1452263,69.7504417 42.6496303,69.6533705 43.105221,69.534728 Z M37.914741,68.2889819 C35.8027371,68.433465 33.6844873,68.465868 31.569013,68.386053 C30.3486807,66.9461646 29.1120773,65.3444909 27.9731005,63.6942817 C29.9457426,64.0987437 31.9483293,64.342232 33.9608643,64.4223152 C35.2085579,65.8024654 36.5514645,67.094484 37.9798254,68.2889819 L37.914741,68.2889819 Z M48.3119722,53.4856346 C47.0087151,53.87731 45.6829369,54.190661 44.3418244,54.4239888 C43.609625,53.5018131 42.8774257,52.5311018 42.1777685,51.5280335 C43.3577572,51.3946453 44.5267726,51.1783914 45.6760544,50.8808926 C46.4920518,51.8316197 47.3963881,52.7037266 48.3770566,53.4856346 L48.3119722,53.4856346 Z M42.2916662,54.7475593 C40.9086229,54.9417015 39.4767663,55.0873082 38.0449097,55.1682008 C37.2638971,54.0357043 36.5154266,52.8546722 35.8320405,51.7059972 C37.1662705,51.7059972 38.5493138,51.7868898 39.9160859,51.7059972 C40.6687436,52.7667176 41.4837159,53.7823379 42.3567505,54.7475593 L42.2916662,54.7475593 Z M44.0001314,56.5919107 C45.3575254,57.9963566 46.9012368,59.2101474 48.5885808,60.1997211 C46.7177359,60.7481724 44.8088737,61.1591357 42.8774257,61.4292887 C41.7547199,60.135007 40.599472,58.7112971 39.5093085,57.2228731 C41.0390408,57.1012633 42.5602866,56.8905811 44.0652158,56.5919107 L44.0001314,56.5919107 Z M48.7187496,63.3383543 C48.2929001,64.186253 47.7976761,64.9979119 47.2380798,65.7651325 C46.38124,65.0517819 45.561215,64.2958196 44.7811441,63.5001395 C46.383048,63.135552 47.9385931,62.5928521 49.4184068,61.8822873 L48.7187496,63.3383543 Z M40.5832009,61.7205021 C38.6469403,61.9308229 36.6455954,62.0440725 34.6930637,62.0926081 C33.4890025,60.4747559 32.3337546,58.8569038 31.2924043,57.2390516 C33.1356265,57.4246874 34.988762,57.4949329 36.8408485,57.4493724 C38.0077216,58.9504665 39.2685153,60.3769999 40.6157431,61.7205021 L40.5832009,61.7205021 Z M49.61366,59.8923291 C48.2867497,58.7496685 47.0518006,57.5055176 45.9201209,56.1712692 C47.3457471,55.7930563 48.7218998,55.250071 50.0204374,54.553417 C50.5893547,54.8860996 51.2029473,55.136677 51.8428003,55.297629 C51.5077807,56.7299963 51.067273,58.1359265 50.5248414,59.5040446 L49.61366,59.8923291 Z M50.9316189,54.0680614 C51.3830073,53.7715477 51.8028043,53.4300316 52.1844934,53.0488145 C52.136604,53.6737594 52.0496569,54.2951363 51.9241558,54.9093445 C51.5661917,54.6666667 51.2407697,54.3430962 50.8828056,54.0680614 L50.9316189,54.0680614 Z M51.6963604,47.3539749 C52.0693458,48.8022579 52.2552481,50.2918877 52.2495777,51.7868898 C51.4944396,52.2687073 50.6932627,52.6751453 49.8577264,53.0002789 C49.109256,52.2075314 48.3282433,51.3015342 47.5635017,50.3146444 C49.2003517,49.7720871 50.6273949,48.7375728 51.6475471,47.3539749 L51.6963604,47.3539749 Z M43.5608118,40.720781 C43.8699626,40.1383543 46.6360492,36.562901 48.3119722,36.9511855 C48.8836816,37.9296595 48.8479961,39.1458258 48.219886,40.0894935 C47.5917759,41.0331611 46.4798744,41.5411206 45.3506325,41.4002789 C49.2068825,38.5690377 45.2041926,38.9896792 43.5608118,40.720781 Z M49.3045091,37.2909344 C50.7038235,36.3525802 50.5085703,32.5506276 46.3919827,36.223152 C45.9526631,33.925802 48.7187496,32.7285914 50.8014501,33.18159 C51.2407697,33.0359833 51.6963604,37.1129707 49.3045091,37.2909344 L49.3045091,37.2909344 Z M53.8766875,43.0181311 C52.2495777,41.4002789 50.2319617,43.4225941 48.3282433,42.209205 C48.5560386,41.9503487 50.4434859,41.7562064 49.109256,40.3324965 C50.2970461,40.6398884 53.3397413,40.8663877 53.8766875,43.0181311 Z M58.8881855,40.0736402 C56.3498943,39.3132497 52.2495777,39.0382148 52.0217824,38.455788 C52.3472043,37.4527197 57.4400578,38.8764296 58.8881855,40.1383543 L58.8881855,40.0736402 Z M59.5553005,35.6892608 C57.9281907,35.9157601 53.7302476,35.2524407 52.0543246,36.0451883 C52.298391,33.4728033 57.7492087,35.2362622 59.5553005,35.7539749 L59.5553005,35.6892608 Z M61.7193564,32.7609484 C59.7017403,32.1623431 59.2461496,35.0097629 56.5776896,33.8449093 C57.7981794,32.2810711 59.9890296,31.8467728 61.7193564,32.8256625 L61.7193564,32.7609484 Z M63.3464662,29.2340307 C59.4576739,29.2340307 55.0156643,30.8518828 52.9004216,33.9096234 C53.1770303,28.2794979 61.0847836,28.8457462 63.4115505,29.2987448 L63.3464662,29.2340307 Z M58.2698838,25.2217573 C57.2001705,26.0918921 56.5987333,27.4075259 56.642774,28.7810321 C55.6827793,27.1631799 52.5912708,30.2209205 51.8753425,30.9165969 C51.3546674,28.8619247 55.5037972,24.7364017 58.2698838,25.2217573 Z M54.3973626,22.4875872 C54.9993932,24.0083682 53.5024522,25.8527197 52.9166927,27.0337517 C51.9404269,24.7525802 53.8766875,23.2317992 54.3973626,22.4390516 L54.3973626,22.4875872 Z M49.61366,24.962901 C50.0367085,26.6778243 50.8339923,30.0591353 50.0855218,31.4343096 C50.0855218,31.4343096 47.7912971,32.7933054 48.0679057,32.2917713 C48.8489184,30.8195258 47.6936705,30.5121339 47.4658751,29.3472803 C48.6048519,28.7972106 49.1906114,26.8396095 49.61366,24.962901 Z M45.9689342,29.1854951 C43.7886071,28.7001395 46.0828318,26.5969317 45.6597833,24.4128312 C46.2618139,24.8172943 48.1655323,27.260251 46.0014764,29.1854951 L45.9689342,29.1854951 Z M42.1289552,26.9690377 C42.352176,27.3594659 42.596604,27.7375239 42.8611546,28.1015342 C44.4882643,30.4797768 47.3682485,31.4828452 45.8387654,34.0552301 C44.8462284,35.5274756 42.4543771,27.9073919 42.1614974,26.9690377 L42.1289552,26.9690377 Z M43.9187759,34.5567643 C44.9601261,37.7924686 43.9187759,38.7793584 43.5933539,39.0058577 C43.7072516,35.0421199 40.5832009,36.3525802 40.6320142,31.7417015 C41.266587,33.3110181 43.3818297,35.0097629 43.9513181,34.5567643 L43.9187759,34.5567643 Z M37.7683011,34.7994421 C39.6571507,34.8898761 41.2146167,36.3026382 41.4781113,38.1645746 C38.3866028,38.0189679 40.8109963,37.2909344 37.8008433,34.7994421 L37.7683011,34.7994421 Z M42.6496303,41.7400279 C44.2306156,41.7850448 45.7972758,42.0519315 47.3031641,42.5327755 C46.1598117,43.2677197 44.8829946,43.7733423 43.5445407,44.0211994 C43.1827725,43.2869572 42.8834248,42.523905 42.6496303,41.7400279 L42.6496303,41.7400279 Z M42.6496303,46.1891213 C43.1174993,47.1784798 43.6614855,48.1304481 44.27674,49.0365411 C43.1703054,49.2306834 42.0150575,49.3762901 40.8435385,49.5057183 C40.2415079,48.5511855 39.6720195,47.6128312 39.2164288,46.674477 C40.3766981,46.6385021 41.531275,46.4977087 42.6659014,46.2538354 L42.6496303,46.1891213 Z M33.1473094,46.1891213 C34.4325637,46.4595403 35.7393302,46.6165429 37.0523728,46.6582985 C37.5369266,47.6807622 38.0801927,48.6746844 38.6794825,49.6351464 C37.3940658,49.6351464 36.0923781,49.7322176 34.8395036,49.7322176 C34.2210483,48.6021984 33.6616632,47.4411933 33.1635805,46.2538354 L33.1473094,46.1891213 Z M27.6802207,50.1366806 C29.4311214,50.7925169 31.2562298,51.2326147 33.1147672,51.4471409 C33.8030008,52.7742085 34.5690626,54.0599202 35.408992,55.297629 C33.6029002,55.297629 31.8293505,55.297629 30.1696986,55.297629 C29.2157707,53.6392661 28.3837725,51.9144467 27.6802207,50.1366806 Z M28.3147935,56.7051604 C29.4274994,58.5860936 30.6726343,60.3864031 32.0408748,62.0926081 C30.1534275,62.0926081 28.3636068,61.9470014 26.7527682,61.7690377 C25.3061662,59.5942083 24.0953485,57.2731205 23.1405846,54.8446304 C24.7353735,55.7763401 26.4895433,56.4071004 28.3147935,56.7051604 L28.3147935,56.7051604 Z M21.3344927,51.6736402 C20.7487332,54.3107392 21.9527944,57.8700139 24.0192238,61.3807531 C23.113599,61.2161283 22.2256051,60.9669546 21.3670349,60.6365411 C22.343854,61.6635637 23.5714857,62.421591 24.9304053,62.8368201 C26.2073435,64.7546054 27.6442661,66.562187 29.225975,68.2404463 C27.9909883,68.1488456 26.7628855,67.9813475 25.548707,67.7389121 C20.6096537,63.9752876 18.8734065,57.3564301 21.3344927,51.6736402 L21.3344927,51.6736402 Z M27.8429317,69.3244073 C28.8496971,69.5923674 29.8710102,69.8030301 30.901898,69.9553696 C31.3574887,70.3598326 31.7968084,70.7481172 32.236128,71.1040446 C31.1150088,70.8175975 30.0250032,70.4220091 28.9819085,69.9230126 L27.8429317,69.3244073 Z M34.4652683,71.4923291 C34.0422198,71.0932589 33.6191713,70.6564389 33.1961227,70.1818689 C35.5228376,70.3459697 37.8599257,70.2918021 40.1764235,70.0200837 L41.0550628,70.5701534 C38.9800104,71.3922313 36.7371815,71.708435 34.5140816,71.4923291 L34.4652683,71.4923291 Z" id="Shape" fill="#FFD100"></path>
                        </g>
                    </g>
                </g>
            </g>
        </g>
    </g>
</svg>