<?xml version="1.0" encoding="UTF-8"?>
<svg width="33px" height="71px" viewBox="0 0 33 71" version="1.1" xmlns="http://www.w3.org/2000/svg" xmlns:xlink="http://www.w3.org/1999/xlink">
    <title>pineapple</title>
    <g id="Page-1" stroke="none" stroke-width="1" fill="none" fill-rule="evenodd">
        <g id="animation" transform="translate(-899.000000, -578.000000)" fill="#FED103" fill-rule="nonzero">
            <g id="pineapple" transform="translate(915.500000, 613.500000) rotate(-360.000000) translate(-915.500000, -613.500000) translate(899.000000, 578.000000)">
                <path d="M29.6605099,37.1098938 C28.2645882,35.0709839 26.4169973,33.5493851 24.1365791,32.5499725 C26.4412227,29.2770996 28.3275742,27.3627776 28.3474929,27.3421936 C28.6914937,26.9960556 28.7490963,26.455452 28.4853085,26.0437699 C28.2220592,25.6326294 27.7090189,25.4609146 27.2535812,25.633171 C26.8013737,25.8038025 26.3534728,25.9825593 25.9109555,26.1694413 C28.828771,22.0168686 31.2184727,19.5901107 31.2475431,19.5614014 C31.5915439,19.2152633 31.6491466,18.674118 31.3853588,18.2624358 C31.1221094,17.8512955 30.609069,17.6795808 30.1536315,17.8518372 C28.9025239,18.3241882 27.7214008,18.8301238 26.6097238,19.3571854 C29.9189142,14.6011734 32.6644602,11.8125687 32.697299,11.7800675 C33.0412998,11.4339294 33.0989025,10.8927841 32.8351147,10.4816437 C32.5718653,10.0699616 32.0588251,9.89878838 31.6033874,10.0705033 C29.1114007,11.0108719 26.8718965,12.0736618 24.88326,13.1727448 L28.47185,5.95151523 C28.6737284,5.5452499 28.589747,5.05393975 28.2651265,4.73813633 C27.9399678,4.42233276 27.4489995,4.35570523 27.0522413,4.57346347 C25.1174388,5.63571167 23.2789997,6.77921299 21.5460758,7.99475864 C20.552834,5.45857998 19.1396854,2.91806797 17.3346235,0.427391018 C17.1408203,0.15871426 16.8301968,2.27373675e-13 16.5001928,2.27373675e-13 C16.1696507,2.27373675e-13 15.8595655,0.15871426 15.6646855,0.427391018 C13.8607004,2.91752618 12.4475517,5.45695489 11.4548485,7.99259189 C9.81936439,6.84638218 7.99061548,5.69475552 5.94760624,4.57346347 C5.55084796,4.35570523 5.05987975,4.42233276 4.73472097,4.73813633 C4.4101005,5.0533981 4.32611909,5.5452499 4.52799751,5.95151523 L7.72413598,12.3829651 C6.1263359,11.5661011 4.38641344,10.7817383 2.50113861,10.0705033 C2.04570092,9.89878838 1.533199,10.0699616 1.26994963,10.481102 C1.00616181,10.8922424 1.06376448,11.4333878 1.40722696,11.7795257 C1.44006581,11.8125687 4.18776514,14.6027985 7.4980322,19.3615189 C6.38581698,18.8328324 5.20361705,18.3247299 3.95143282,17.8518372 C3.49599526,17.6801224 2.98349335,17.8507537 2.71970553,18.2624358 C2.45591771,18.6735763 2.51352038,19.21418 2.85698287,19.5608597 C2.88605328,19.5901107 5.27575499,22.0163269 8.19464726,26.1694413 C7.75105317,25.9825593 7.30369064,25.8038025 6.85148307,25.633171 C6.39550707,25.4614563 5.88246685,25.6326294 5.61921748,26.0437699 C5.35596797,26.455452 5.41357063,26.9960556 5.75757143,27.3421936 C5.7764133,27.3616943 7.52548769,29.1330109 9.72407783,32.2054597 C7.04367126,33.1826629 4.90699052,34.8201828 3.33933761,37.1098938 C1.09229659,40.3925171 0,44.9562301 0,51.0626678 C0,57.1685638 1.09229659,61.7328186 3.33933761,65.0149002 C6.05850483,68.9865494 10.4863706,71 16.5001928,71 C22.5140152,71 26.9418811,68.9865494 29.6605099,65.0149002 C31.9075509,61.7328186 33,57.1685638 33,51.0626678 C33,44.9562301 31.9075509,40.3925171 29.6605099,37.1098938 Z M2.55981789,44.8663102 C2.68148319,44.9627304 2.80476355,45.0678177 2.93719584,45.1821136 C3.64027088,45.7893448 4.5156156,46.5444564 6.18663024,46.5444564 C7.85710658,46.5444564 8.73191285,45.7893448 9.43498803,45.1821136 C10.0357779,44.6637191 10.4325364,44.321373 11.3374898,44.321373 C12.2429817,44.321373 12.6402783,44.6637191 13.24053,45.1821136 C13.9441435,45.7893448 14.8189498,46.5444564 16.4899644,46.5444564 C18.1609791,46.5444564 19.036862,45.7893448 19.7404755,45.1826554 C20.3418038,44.6642609 20.7396388,44.321373 21.6462074,44.321373 C22.5543909,44.321373 22.9516875,44.6642609 23.5540926,45.183197 C24.2582444,45.7898865 25.1341275,46.5449982 26.8062187,46.5449982 C28.4783101,46.5449982 29.3547314,45.7898865 30.0588832,45.183197 C30.1918538,45.0683594 30.3167493,44.9621887 30.4400296,44.8646851 C30.6693634,46.1436081 30.8174076,47.5324936 30.8868538,49.0313416 C29.8823069,49.2675171 29.2481396,49.8124543 28.714104,50.2728882 C28.1122373,50.7918244 27.7144023,51.1341706 26.8062187,51.1341706 C25.8985736,51.1341706 25.5007386,50.7918244 24.8988719,50.2728882 C24.1947201,49.6661987 23.3182988,48.9110871 21.6462074,48.9110871 C19.9746544,48.9110871 19.0993098,49.6661987 18.3956963,50.2728882 C17.7938295,50.7918244 17.3965329,51.1341706 16.4899644,51.1341706 C15.5844725,51.1341706 15.187176,50.7918244 14.5869242,50.2734298 C13.8833107,49.6661987 13.0085045,48.9110871 11.3374898,48.9110871 C9.66701347,48.9110871 8.7922072,49.6667404 8.08913202,50.2734298 C7.4883421,50.7918244 7.09158369,51.1341706 6.18609193,51.1341706 C5.28060004,51.1341706 4.88384176,50.7918244 4.2825134,50.2734298 C3.7490161,49.8129959 3.1159255,49.2680587 2.11299367,49.0313416 C2.18243994,47.5330353 2.33048398,46.1446915 2.55981789,44.8663102 L2.55981789,44.8663102 Z M20.5178418,31.4671402 C21.582683,30.7347794 22.6927449,30.0603791 23.8458743,29.4477311 C23.3075319,30.148674 22.7223537,30.9454956 22.1129502,31.8311539 C21.5993715,31.6876067 21.066951,31.5668106 20.5178418,31.4671402 Z M22.2249254,27.9673005 C20.5469124,28.9033356 18.9561107,29.9645004 17.4638257,31.1442948 C17.1860411,31.133461 16.904488,31.1275024 16.6197049,31.1264191 C16.1583456,30.7624055 15.6867577,30.4097672 15.2070946,30.0685043 C15.810038,29.4022293 17.0110798,28.1628495 18.7940697,26.7100448 C20.5872879,25.2496566 23.2536977,23.3494186 26.7254674,21.6154785 C25.4442126,23.2242889 23.8453359,25.3959122 22.2249254,27.9673005 Z M22.7874931,21.3917618 C20.4440889,22.7849808 18.5318969,24.2058259 17.0455337,25.4522477 C16.3796042,24.8948518 15.6178498,24.2930374 14.7591938,23.669014 C15.2700806,23.0791169 16.6934578,21.5212249 19.0018698,19.6410294 C21.0502625,17.97155 24.1349641,15.7809677 28.16984,13.8130188 C26.6824,15.6552963 24.7352158,18.2824784 22.7874931,21.3917618 Z M21.5783763,15.1699447 C21.1643909,15.4424133 20.764941,15.7143401 20.3811029,15.9841003 C19.7162501,15.2046127 18.931347,14.3482056 18.0150883,13.4403381 C20.1356188,11.5346833 22.49625,9.76119995 25.0711414,8.14480591 L21.5783763,15.1699447 Z M16.5001928,2.85306553 C17.9176483,4.97756192 19.0287869,7.12589267 19.81369,9.25959785 C18.6557157,10.142006 17.5510371,11.059082 16.5028847,12.007576 C15.5204099,11.1181259 14.4178848,10.1945496 13.1872341,9.25743096 C13.9721372,7.12480923 15.0827375,4.97756192 16.5001928,2.85306553 Z M7.92816776,8.14318081 C13.095716,11.3846359 16.5464903,14.7040939 18.7063198,17.2148132 C18.1049915,17.6774139 17.5521139,18.1264725 17.0449954,18.5560303 C15.4800342,17.2326889 13.4364866,15.6915894 10.9213512,14.1661987 L7.92816776,8.14318081 Z M5.93253265,13.8097687 C10.0626951,15.8199691 13.2469901,18.0907211 15.4784191,19.9508744 C14.1438684,21.2016296 13.3352783,22.1349564 13.0451117,22.483261 C12.5019243,22.1257478 11.9291281,21.7655258 11.326723,21.4063874 C9.35262154,18.2429353 7.43935291,15.6753387 5.93253265,13.8097687 Z M7.37744351,21.6127701 C10.8497516,23.3450851 13.5538452,25.2637406 15.4735741,26.8438416 C14.4991744,27.7565841 13.8305532,28.4846115 13.4644805,28.9049606 C12.9444417,28.5788651 12.4147128,28.2652283 11.8763705,27.9651336 C10.2451932,25.3731613 8.66623502,23.2307893 7.37744351,21.6127701 Z M10.2591901,29.4477311 C11.3364131,30.0202942 12.3759522,30.6481095 13.3767306,31.32576 C12.8459251,31.3967209 12.3301931,31.4871826 11.8300731,31.5966033 C11.2788105,30.8041153 10.74962,30.0863801 10.2591901,29.4477311 Z M16.5001928,33.2054138 C21.4976249,33.2054138 25.1395108,34.6679688 27.5152157,37.7003327 C27.312799,37.7599182 27.0840035,37.7945862 26.8067572,37.7945862 C26.5052854,37.7945862 26.2458044,37.7561264 26.0132405,37.6759567 C25.4722064,37.4912415 24.8854132,37.7821273 24.7013002,38.3259811 C24.5177255,38.8692932 24.8068153,39.4602738 25.347311,39.6455307 C25.7979035,39.7999114 26.2754132,39.8746643 26.8067572,39.8746643 C27.5900452,39.8746643 28.1924503,39.7067414 28.6704983,39.4824829 C29.1851536,40.444519 29.6109824,41.5203094 29.9485231,42.7125626 C29.4408662,42.9779892 29.0500296,43.3132935 28.714104,43.603096 C28.1122373,44.1214905 27.7144023,44.4643783 26.8067572,44.4643783 C25.8985736,44.4643783 25.5007386,44.1214905 24.8988719,43.603096 C24.1947201,42.9964066 23.3188371,42.2412948 21.6462074,42.2412948 C19.9751927,42.2412948 19.0993098,42.9964066 18.3956963,43.603096 C17.794368,44.1214905 17.3965329,44.4643783 16.4899644,44.4643783 C15.5844725,44.4643783 15.1877143,44.1220321 14.5869242,43.603096 C13.8833107,42.9964066 13.0085045,42.2407532 11.3380281,42.2407532 C9.66755192,42.2407532 8.7922072,42.9964066 8.08913202,43.603096 C7.4883421,44.1220321 7.09158369,44.4643783 6.18663024,44.4643783 C5.28060004,44.4643783 4.88384176,44.1214905 4.2825134,43.603096 C3.93420587,43.3024597 3.55036781,42.9741975 3.05132442,42.7131042 C3.3888651,41.5213928 3.81415549,40.4461441 4.32881077,39.484108 C4.80632047,39.7078247 5.40764883,39.8746643 6.18609193,39.8746643 C7.85656813,39.8746643 8.73191285,39.1195525 9.43498803,38.5123214 C10.0352396,37.993927 10.4319979,37.6515808 11.3374898,37.6515808 C12.2429817,37.6515808 12.63974,37.993927 13.24053,38.5123214 C13.9441435,39.1195525 14.8189498,39.8746643 16.4894261,39.8746643 C18.1609791,39.8746643 19.036862,39.1195525 19.7404755,38.5128631 C20.3418038,37.993927 20.7391005,37.6515808 21.6462074,37.6515808 C22.2168502,37.6515808 22.6798247,37.18573 22.6798247,36.6115417 C22.6798247,36.0368119 22.2168502,35.5715027 21.6462074,35.5715027 C19.9746544,35.5715027 19.0993098,36.3266144 18.3951579,36.9333039 C17.7938295,37.4516983 17.3965329,37.7945862 16.4894261,37.7945862 C15.5839342,37.7945862 15.187176,37.45224 14.5863859,36.9338456 C13.8833107,36.3266144 13.0079661,35.5715027 11.3374898,35.5715027 C9.66701347,35.5715027 8.7922072,36.3266144 8.08859372,36.9338456 C7.4883421,37.45224 7.09158369,37.7945862 6.18609193,37.7945862 C5.9093839,37.7945862 5.68274181,37.7615433 5.48247845,37.7030411 C7.85872164,34.6690521 11.5006076,33.2054138 16.5001928,33.2054138 L16.5001928,33.2054138 Z M7.46950009,66.3788681 C8.35561152,66.1204834 8.93917462,65.6194229 9.43498803,65.1914901 C10.0357779,64.6725541 10.4325364,64.3302079 11.3374898,64.3302079 C12.2429817,64.3302079 12.6402783,64.6725541 13.24053,65.1914901 C13.9441435,65.7981796 14.8189498,66.5532914 16.4899644,66.5532914 C18.1609791,66.5532914 19.036862,65.7981796 19.7404755,65.1914901 C20.3418038,64.6730957 20.7396388,64.3302079 21.6462074,64.3302079 C22.5543909,64.3302079 22.9516875,64.6730957 23.5540926,65.1920319 C24.0520594,65.621048 24.6372374,66.1226501 25.5281941,66.3804932 C23.2633878,68.0884323 20.2669743,68.9199219 16.5001928,68.9199219 C12.7317964,68.9199219 9.73484468,68.0878906 7.46950009,66.3788681 L7.46950009,66.3788681 Z M27.5593597,64.3675842 C27.3370243,64.4385453 27.0904635,64.4732132 26.8062187,64.4732132 C25.8985736,64.4732132 25.5007386,64.130867 24.8988719,63.6119308 C24.1947201,63.0052414 23.3182988,62.2501297 21.6462074,62.2501297 C19.9746544,62.2501297 19.0993098,63.0052414 18.3956963,63.6119308 C17.7938295,64.130867 17.3965329,64.4732132 16.4899644,64.4732132 C15.5844725,64.4732132 15.187176,64.130867 14.5869242,63.6124725 C13.8833107,63.0052414 13.0085045,62.2501297 11.3374898,62.2501297 C9.66701347,62.2501297 8.7922072,63.0052414 8.08913202,63.6124725 C7.4883421,64.130867 7.09158369,64.4732132 6.18609193,64.4732132 C5.91153727,64.4732132 5.67251327,64.4412537 5.45609971,64.3746261 C5.45179297,64.3735428 5.44802454,64.3730012 5.4437178,64.3719177 C4.22867916,62.801567 3.3490277,60.8152009 2.79292009,58.3976517 C2.84029422,58.4382781 2.88766834,58.4789047 2.93719584,58.521698 C3.64027088,59.1283875 4.5156156,59.8834992 6.18609193,59.8834992 C6.43157604,59.8834992 6.67060004,59.8667069 6.89724214,59.8336639 C7.46196322,59.7513274 7.85333814,59.2231827 7.7709718,58.6549529 C7.68914376,58.0867233 7.16425994,57.6929168 6.59953885,57.7752532 C6.47195175,57.7942123 6.33252105,57.8034211 6.18609193,57.8034211 C5.28060004,57.8034211 4.88330346,57.4610749 4.2825134,56.9426803 C3.80392695,56.5293732 3.21605724,56.0228958 2.33425241,55.7601775 C2.16090625,54.3604583 2.07315641,52.8448181 2.06777292,51.2116317 C2.36870632,51.3627625 2.62549559,51.5832291 2.93719584,51.8519059 C3.64027088,52.4585953 4.5156156,53.2137069 6.18609193,53.2137069 C7.85656813,53.2137069 8.73191285,52.4585953 9.43498803,51.8513641 C10.0352396,51.3329696 10.4319979,50.9906234 11.3374898,50.9906234 C12.2429817,50.9906234 12.63974,51.3335114 13.24053,51.8519059 C13.9441435,52.4585953 14.8189498,53.2137069 16.4894261,53.2137069 C18.1609791,53.2137069 19.036862,52.4585953 19.7404755,51.8519059 C20.3418038,51.3335114 20.7391005,50.9906234 21.6462074,50.9906234 C22.5538526,50.9906234 22.9516875,51.3335114 23.5540926,51.8524475 C24.2577061,52.459137 25.1341275,53.2137069 26.8062187,53.2137069 C28.4783101,53.2137069 29.3547314,52.459137 30.0588832,51.8524475 C30.3716601,51.5826873 30.6295261,51.361679 30.9320745,51.2105484 C30.9266911,52.8437347 30.8389413,54.3599167 30.6655951,55.7596359 C29.7821752,56.0218124 29.1932287,56.5288314 28.714104,56.9421387 C28.111699,57.4605331 27.7144023,57.8034211 26.8062187,57.8034211 C25.8985736,57.8034211 25.5007386,57.4605331 24.8983334,56.9421387 C24.1947201,56.3354492 23.3182988,55.5803376 21.6462074,55.5803376 C19.9746544,55.5803376 19.0993098,56.3354492 18.3951579,56.9421387 C17.7938295,57.4610749 17.3965329,57.8034211 16.4894261,57.8034211 C15.5839342,57.8034211 15.187176,57.4610749 14.5863859,56.9426803 C13.8833107,56.3354492 13.0079661,55.5803376 11.3374898,55.5803376 C10.9181211,55.5803376 10.5353596,55.6269226 10.1676719,55.723343 C9.61533261,55.8674316 9.28317542,56.4351196 9.42691286,56.9908904 C9.57065016,57.547203 10.1348329,57.8808822 10.6871723,57.7362518 C10.8825906,57.6853333 11.0952357,57.6604157 11.3374898,57.6604157 C12.2429817,57.6604157 12.63974,58.0027619 13.24053,58.521698 C13.9436051,59.1283875 14.8189498,59.8834992 16.4894261,59.8834992 C18.1609791,59.8834992 19.036862,59.1283875 19.7404755,58.521698 C20.3418038,58.0033036 20.7391005,57.6604157 21.6462074,57.6604157 C22.5538526,57.6604157 22.9516875,58.0033036 23.5535543,58.521698 C24.2577061,59.1283875 25.1341275,59.8834992 26.8062187,59.8834992 C28.4783101,59.8834992 29.3541931,59.1283875 30.0583449,58.521698 C30.1094873,58.4778214 30.159015,58.4355697 30.2074657,58.3944015 C29.6518964,60.811409 28.7733217,62.7977752 27.5593597,64.3675842 L27.5593597,64.3675842 Z" id="Shape"></path>
            </g>
        </g>
    </g>
</svg>