<?xml version="1.0" encoding="UTF-8"?>
<svg width="12px" height="16px" viewBox="0 0 12 16" version="1.1" xmlns="http://www.w3.org/2000/svg" xmlns:xlink="http://www.w3.org/1999/xlink">
    <title>Group 3</title>
    <defs>
        <polygon id="path-1" points="0 0 11.9999 0 11.9999 16 0 16"></polygon>
    </defs>
    <g id="Page-1" stroke="none" stroke-width="1" fill="none" fill-rule="evenodd">
        <g id="home" transform="translate(-954.000000, -5370.000000)">
            <g id="footer" transform="translate(0.000000, 4890.000000)">
                <g id="Group-3" transform="translate(954.000000, 480.000000)">
                    <mask id="mask-2" fill="white">
                        <use xlink:href="#path-1"></use>
                    </mask>
                    <g id="Clip-2"></g>
                    <path d="M6.2009,-0.0002 C2.1519,0.0008 -0.0001,2.8108 -0.0001,5.8748 C-0.0001,7.2948 0.7329,9.0678 1.9069,9.6298 C2.2419,9.7938 2.1969,9.5948 2.4849,8.4008 C2.5079,8.3018 2.4959,8.2158 2.4219,8.1228 C0.7439,6.0208 2.0949,1.6998 5.9619,1.6998 C11.5579,1.6998 10.5119,10.0878 6.9349,10.0878 C6.0139,10.0878 5.3259,9.3038 5.5439,8.3338 C5.8069,7.1778 6.3229,5.9358 6.3229,5.1038 C6.3229,3.0048 3.4359,3.3158 3.4359,6.0968 C3.4359,6.9558 3.7169,7.5358 3.7169,7.5358 C3.7169,7.5358 2.7879,11.6008 2.6159,12.3588 C2.3249,13.6448 2.6559,15.7258 2.6839,15.9048 C2.7019,16.0038 2.8049,16.0348 2.8619,15.9538 C2.9529,15.8228 4.0759,14.0888 4.3899,12.8348 C4.5049,12.3778 4.9739,10.5248 4.9739,10.5248 C5.2839,11.1298 6.1769,11.6368 7.1269,11.6368 C9.9549,11.6368 11.9999,8.9428 11.9999,5.6018 C11.9909,2.3968 9.4589,-0.0002 6.2009,-0.0002" id="Fill-1" fill="#000000" mask="url(#mask-2)"></path>
                </g>
            </g>
        </g>
    </g>
</svg>