<?xml version="1.0" encoding="UTF-8"?>
<svg width="18px" height="24px" viewBox="0 0 18 24" version="1.1" xmlns="http://www.w3.org/2000/svg" xmlns:xlink="http://www.w3.org/1999/xlink">
    <title>Group 3</title>
    <defs>
        <polygon id="path-1" points="0 0 18 0 18 24 0 24"></polygon>
    </defs>
    <g id="Page-1" stroke="none" stroke-width="1" fill="none" fill-rule="evenodd">
        <g id="menu-mobile" transform="translate(-197.000000, -734.000000)">
            <g id="Group-6" transform="translate(41.000000, 719.000000)">
                <g id="Group-2-Copy-3" transform="translate(139.000000, 0.000000)">
                    <g id="Group-3" transform="translate(17.000000, 15.000000)">
                        <mask id="mask-2" fill="white">
                            <use xlink:href="#path-1"></use>
                        </mask>
                        <g id="Clip-2"></g>
                        <path d="M9.3015,0 C3.228,0.00149997419 0,4.21642745 0,8.81234837 C0,10.9423117 1.0995,13.601766 2.8605,14.4447515 C3.363,14.6907472 3.2955,14.3922524 3.7275,12.6012832 C3.762,12.4527857 3.744,12.3237879 3.633,12.1842903 C1.116,9.0313446 3.1425,2.54995612 8.943,2.54995612 C17.337,2.54995612 15.768,15.1317396 10.4025,15.1317396 C9.021,15.1317396 7.989,13.9557599 8.316,12.5007849 C8.7105,10.7668147 9.4845,8.90384679 9.4845,7.65586827 C9.4845,4.50742244 5.154,4.97391441 5.154,9.14534264 C5.154,10.4338205 5.5755,11.3038055 5.5755,11.3038055 C5.5755,11.3038055 4.182,17.4012006 3.924,18.538181 C3.4875,20.4671478 3.984,23.5885941 4.026,23.8570895 C4.053,24.0055869 4.2075,24.0520861 4.293,23.9305882 C4.4295,23.7340916 6.114,21.1331364 6.585,19.2521687 C6.7575,18.5666805 7.461,15.7872284 7.461,15.7872284 C7.926,16.6947127 9.2655,17.4551997 10.6905,17.4551997 C14.9325,17.4551997 18,13.4142692 18,8.40285541 C17.9865,3.59543813 14.1885,0 9.3015,0" id="Fill-1" fill="#FED103" mask="url(#mask-2)"></path>
                    </g>
                </g>
            </g>
        </g>
    </g>
</svg>