<?xml version="1.0" encoding="UTF-8"?>
<svg width="300px" height="19px" viewBox="0 0 300 19" version="1.1" xmlns="http://www.w3.org/2000/svg" xmlns:xlink="http://www.w3.org/1999/xlink">
    <title>Group 15</title>
    <g id="Page-1" stroke="none" stroke-width="1" fill="none" fill-rule="evenodd">
        <g id="home" transform="translate(-665.000000, -2930.000000)" fill="#161616">
            <g id="title-2" transform="translate(-201.000000, 2879.000000)">
                <g id="text" transform="translate(0.000000, 48.000000)">
                    <g id="Group-15" transform="translate(816.000000, 0.000000)">
                        <path d="M56.2539062,21 L56.2539062,14.625 L59.1601562,14.625 C61.3007812,14.625 62.8925781,14.1367188 63.9355469,13.1601562 C64.9785156,12.1835938 65.5,10.828125 65.5,9.09375 C65.5,7.40625 65.0214844,6.10546875 64.0644531,5.19140625 C63.1074219,4.27734375 61.6679688,3.8203125 59.7460938,3.8203125 L59.7460938,3.8203125 L50.921875,3.8203125 L50.921875,21 L56.2539062,21 Z M57.5546875,11.1445312 L56.2539062,11.1445312 L56.2539062,7.3125 L57.765625,7.3125 C58.7578125,7.3125 59.4335938,7.5 59.7929688,7.875 C60.1523438,8.25 60.3320312,8.70703125 60.3320312,9.24609375 C60.3320312,9.80078125 60.125,10.2558594 59.7109375,10.6113281 C59.296875,10.9667969 58.578125,11.1445312 57.5546875,11.1445312 L57.5546875,11.1445312 Z M73.6796875,21 L73.6796875,14.0273438 L74.1484375,14.0273438 C74.6328125,14.0273438 75.0664062,14.1601562 75.4492188,14.4257812 C75.7304688,14.6289062 76.0507812,15.0703125 76.4101562,15.75 L76.4101562,15.75 L79.2460938,21 L85.2460938,21 L82.6796875,16.0195312 C82.5546875,15.7695312 82.3066406,15.4140625 81.9355469,14.953125 C81.5644531,14.4921875 81.28125,14.1914062 81.0859375,14.0507812 C80.796875,13.8398438 80.3359375,13.6289062 79.703125,13.4179688 C80.4921875,13.2382812 81.1132812,13.0117188 81.5664062,12.7382812 C82.2773438,12.3085938 82.8359375,11.7480469 83.2421875,11.0566406 C83.6484375,10.3652344 83.8515625,9.54296875 83.8515625,8.58984375 C83.8515625,7.49609375 83.5859375,6.56835938 83.0546875,5.80664062 C82.5234375,5.04492188 81.8242188,4.5234375 80.9570312,4.2421875 C80.0898438,3.9609375 78.8359375,3.8203125 77.1953125,3.8203125 L77.1953125,3.8203125 L68.3476562,3.8203125 L68.3476562,21 L73.6796875,21 Z M75.9179688,10.78125 L73.6796875,10.78125 L73.6796875,7.2890625 L76.0117188,7.2890625 C76.9804688,7.2890625 77.640625,7.4375 77.9921875,7.734375 C78.34375,8.03125 78.5195312,8.45703125 78.5195312,9.01171875 C78.5195312,9.38671875 78.4082031,9.71875 78.1855469,10.0078125 C77.9628906,10.296875 77.6757812,10.4765625 77.3242188,10.546875 C76.6289062,10.703125 76.1601562,10.78125 75.9179688,10.78125 L75.9179688,10.78125 Z M95.359375,21.2929688 C97.265625,21.2929688 98.8574219,20.9355469 100.134766,20.2207031 C101.412109,19.5058594 102.388672,18.5058594 103.064453,17.2207031 C103.740234,15.9355469 104.078125,14.2890625 104.078125,12.28125 C104.078125,9.515625 103.304688,7.36523438 101.757812,5.83007812 C100.210938,4.29492188 98.0078125,3.52734375 95.1484375,3.52734375 C92.359375,3.52734375 90.1835938,4.30859375 88.6210938,5.87109375 C87.0585938,7.43359375 86.2773438,9.6171875 86.2773438,12.421875 C86.2773438,14.4296875 86.671875,16.1015625 87.4609375,17.4375 C88.25,18.7734375 89.2792969,19.75 90.5488281,20.3671875 C91.8183594,20.984375 93.421875,21.2929688 95.359375,21.2929688 Z M95.1835938,17.3203125 C94.0742188,17.3203125 93.1972656,16.9414062 92.5527344,16.1835938 C91.9082031,15.4257812 91.5859375,14.1796875 91.5859375,12.4453125 C91.5859375,10.6953125 91.9101562,9.44140625 92.5585938,8.68359375 C93.2070312,7.92578125 94.0664062,7.546875 95.1367188,7.546875 C96.2539062,7.546875 97.1386719,7.91992188 97.7910156,8.66601562 C98.4433594,9.41210938 98.7695312,10.59375 98.7695312,12.2109375 C98.7695312,14.1328125 98.4570312,15.4648438 97.8320312,16.2070312 C97.2070312,16.9492188 96.3242188,17.3203125 95.1835938,17.3203125 Z M111.226562,21 L111.226562,7.8984375 L114.578125,21 L118.503906,21 L121.867188,7.8984375 L121.867188,21 L126.203125,21 L126.203125,3.8203125 L119.242188,3.8203125 L116.558594,14.2734375 L113.863281,3.8203125 L106.878906,3.8203125 L106.878906,21 L111.226562,21 Z M138.003906,21.2929688 C139.910156,21.2929688 141.501953,20.9355469 142.779297,20.2207031 C144.056641,19.5058594 145.033203,18.5058594 145.708984,17.2207031 C146.384766,15.9355469 146.722656,14.2890625 146.722656,12.28125 C146.722656,9.515625 145.949219,7.36523438 144.402344,5.83007812 C142.855469,4.29492188 140.652344,3.52734375 137.792969,3.52734375 C135.003906,3.52734375 132.828125,4.30859375 131.265625,5.87109375 C129.703125,7.43359375 128.921875,9.6171875 128.921875,12.421875 C128.921875,14.4296875 129.316406,16.1015625 130.105469,17.4375 C130.894531,18.7734375 131.923828,19.75 133.193359,20.3671875 C134.462891,20.984375 136.066406,21.2929688 138.003906,21.2929688 Z M137.828125,17.3203125 C136.71875,17.3203125 135.841797,16.9414062 135.197266,16.1835938 C134.552734,15.4257812 134.230469,14.1796875 134.230469,12.4453125 C134.230469,10.6953125 134.554688,9.44140625 135.203125,8.68359375 C135.851562,7.92578125 136.710938,7.546875 137.78125,7.546875 C138.898438,7.546875 139.783203,7.91992188 140.435547,8.66601562 C141.087891,9.41210938 141.414062,10.59375 141.414062,12.2109375 C141.414062,14.1328125 141.101562,15.4648438 140.476562,16.2070312 C139.851562,16.9492188 138.96875,17.3203125 137.828125,17.3203125 Z M159.097656,21 L159.097656,8.0625 L164.511719,8.0625 L164.511719,3.8203125 L148.375,3.8203125 L148.375,8.0625 L153.789062,8.0625 L153.789062,21 L159.097656,21 Z M172.445312,21 L172.445312,3.8203125 L167.125,3.8203125 L167.125,21 L172.445312,21 Z M184.667969,21.2929688 C186.574219,21.2929688 188.166016,20.9355469 189.443359,20.2207031 C190.720703,19.5058594 191.697266,18.5058594 192.373047,17.2207031 C193.048828,15.9355469 193.386719,14.2890625 193.386719,12.28125 C193.386719,9.515625 192.613281,7.36523438 191.066406,5.83007812 C189.519531,4.29492188 187.316406,3.52734375 184.457031,3.52734375 C181.667969,3.52734375 179.492188,4.30859375 177.929688,5.87109375 C176.367188,7.43359375 175.585938,9.6171875 175.585938,12.421875 C175.585938,14.4296875 175.980469,16.1015625 176.769531,17.4375 C177.558594,18.7734375 178.587891,19.75 179.857422,20.3671875 C181.126953,20.984375 182.730469,21.2929688 184.667969,21.2929688 Z M184.492188,17.3203125 C183.382812,17.3203125 182.505859,16.9414062 181.861328,16.1835938 C181.216797,15.4257812 180.894531,14.1796875 180.894531,12.4453125 C180.894531,10.6953125 181.21875,9.44140625 181.867188,8.68359375 C182.515625,7.92578125 183.375,7.546875 184.445312,7.546875 C185.5625,7.546875 186.447266,7.91992188 187.099609,8.66601562 C187.751953,9.41210938 188.078125,10.59375 188.078125,12.2109375 C188.078125,14.1328125 187.765625,15.4648438 187.140625,16.2070312 C186.515625,16.9492188 185.632812,17.3203125 184.492188,17.3203125 Z M201.273438,21 L201.273438,11.5664062 L207.707031,21 L212.710938,21 L212.710938,3.8203125 L207.707031,3.8203125 L207.707031,13.3242188 L201.238281,3.8203125 L196.28125,3.8203125 L196.28125,21 L201.273438,21 Z M223.292969,21.2929688 C224.957031,21.2929688 226.335938,21.0527344 227.429688,20.5722656 C228.523438,20.0917969 229.375,19.3867188 229.984375,18.4570312 C230.59375,17.5273438 230.898438,16.5117188 230.898438,15.4101562 C230.898438,14.4726562 230.669922,13.625 230.212891,12.8671875 C229.755859,12.109375 229.025391,11.4746094 228.021484,10.9628906 C227.017578,10.4511719 225.355469,9.9453125 223.035156,9.4453125 C222.097656,9.25 221.503906,9.0390625 221.253906,8.8125 C220.996094,8.59375 220.867188,8.34765625 220.867188,8.07421875 C220.867188,7.69921875 221.023438,7.38085938 221.335938,7.11914062 C221.648438,6.85742188 222.113281,6.7265625 222.730469,6.7265625 C223.480469,6.7265625 224.068359,6.90234375 224.494141,7.25390625 C224.919922,7.60546875 225.199219,8.16796875 225.332031,8.94140625 L225.332031,8.94140625 L230.335938,8.6484375 C230.117188,6.8671875 229.431641,5.56835938 228.279297,4.75195312 C227.126953,3.93554688 225.453125,3.52734375 223.257812,3.52734375 C221.46875,3.52734375 220.060547,3.75195312 219.033203,4.20117188 C218.005859,4.65039062 217.236328,5.26757812 216.724609,6.05273438 C216.212891,6.83789062 215.957031,7.671875 215.957031,8.5546875 C215.957031,9.8984375 216.457031,11.0039062 217.457031,11.8710938 C218.449219,12.7382812 220.109375,13.4335938 222.4375,13.9570312 C223.859375,14.2695312 224.765625,14.6015625 225.15625,14.953125 C225.546875,15.3046875 225.742188,15.703125 225.742188,16.1484375 C225.742188,16.6171875 225.537109,17.0292969 225.126953,17.3847656 C224.716797,17.7402344 224.132812,17.9179688 223.375,17.9179688 C222.359375,17.9179688 221.578125,17.5703125 221.03125,16.875 C220.695312,16.4453125 220.472656,15.8203125 220.363281,15 L220.363281,15 L215.3125,15.3164062 C215.460938,17.0507812 216.097656,18.4804688 217.222656,19.6054688 C218.347656,20.7304688 220.371094,21.2929688 223.292969,21.2929688 Z" id="PROMOTIONS" fill-rule="nonzero"></path>
                        <polygon id="Polygon-Copy-23" points="342 4 349.794229 8.5 349.794229 17.5 342 22 334.205771 17.5 334.205771 8.5"></polygon>
                    </g>
                </g>
            </g>
        </g>
    </g>
</svg>