<?xml version="1.0" encoding="UTF-8"?>
<svg width="10px" height="12px" viewBox="0 0 10 12" version="1.1" xmlns="http://www.w3.org/2000/svg" xmlns:xlink="http://www.w3.org/1999/xlink">
    <title>Path</title>
    <g id="Page-1" stroke="none" stroke-width="1" fill="none" fill-rule="evenodd">
        <g id="Digital-Coupon-popup-Copy" transform="translate(-1446.000000, -494.000000)" fill="#000000" fill-rule="nonzero">
            <g id="Group-5" transform="translate(396.000000, 222.000000)">
                <g id="Group-3" transform="translate(35.000000, 177.000000)">
                    <path d="M1025.27874,100.181565 C1025.22964,100.173821 1025.17995,100.17025 1025.13023,100.170875 L1016.66447,100.170875 L1016.84906,100.087446 C1017.0295,100.00446 1017.19366,99.8915176 1017.33417,99.7537288 L1019.70818,97.4469087 C1020.02084,97.1568875 1020.07338,96.6903353 1019.83268,96.3414704 C1019.55254,95.9697147 1019.0153,95.8889968 1018.63269,96.161211 C1018.60178,96.1832155 1018.5724,96.2072014 1018.54479,96.2330123 L1014.25182,100.404477 C1013.91632,100.730112 1013.91603,101.25835 1014.25115,101.58435 C1014.25136,101.584559 1014.2516,101.584793 1014.25182,101.585002 L1018.54479,105.756467 C1018.88055,106.081815 1019.42418,106.081085 1019.75903,105.754825 C1019.78538,105.729144 1019.80998,105.701821 1019.83268,105.673038 C1020.07338,105.324173 1020.02084,104.857621 1019.70818,104.5676 L1017.33846,102.256608 C1017.21249,102.134071 1017.06766,102.031323 1016.90917,101.952091 L1016.65159,101.839461 L1025.08298,101.839461 C1025.52159,101.855287 1025.9064,101.557575 1025.9888,101.138655 C1026.0647,100.683835 1025.74681,100.255348 1025.27874,100.181565 Z" id="Path" transform="translate(1020.000000, 101.000000) rotate(-90.000000) translate(-1020.000000, -101.000000) "></path>
                </g>
            </g>
        </g>
    </g>
</svg>