<?xml version="1.0" encoding="UTF-8"?>
<svg width="21px" height="16px" viewBox="0 0 21 16" version="1.1" xmlns="http://www.w3.org/2000/svg" xmlns:xlink="http://www.w3.org/1999/xlink">
    <title>vimeo</title>
    <g id="Page-1" stroke="none" stroke-width="1" fill="none" fill-rule="evenodd">
        <g id="menu-mobile" transform="translate(-196.000000, -738.000000)" fill="#FED103" fill-rule="nonzero">
            <g id="Group-6" transform="translate(41.000000, 719.000000)">
                <g id="Group-2-Copy-3" transform="translate(139.000000, 0.000000)">
                    <g id="vimeo" transform="translate(16.000000, 19.000000)">
                        <path d="M17.9417182,0 C19.9735214,0.0504431622 20.9899266,1.14020582 21,3.27214324 C21,3.41205163 20.9949633,3.55767057 20.9869046,3.70709654 C20.8972514,5.51448456 19.4738811,7.97668193 16.7107497,11.0927369 C13.8609872,14.3572661 11.4433731,15.9914342 9.45790761,16 C8.22290977,16 7.19743848,15.0006543 6.37444237,13.0010112 L5.51014534,10.2599488 L4.65592172,7.52269347 C4.02633472,5.53923027 3.35343215,4.54940218 2.63519931,4.54940218 C2.4780544,4.54940218 1.9330839,4.83873654 0.997265794,5.41550175 L0,4.3009934 L1.54727299,3.08655047 L3.0693625,1.8844804 C4.43229242,0.852774969 5.46884444,0.295044911 6.1800259,0.212241984 C6.27471579,0.202724407 6.36940567,0.199869133 6.46611023,0.199869133 C7.92574471,0.199869133 8.83738667,1.19064898 9.19499209,3.17316043 C9.39444524,4.30384867 9.55964887,5.22324668 9.69362498,5.92945095 C9.82357174,6.63755874 9.93236437,7.13056927 10.0189955,7.41133781 C10.501511,9.28630064 11.021298,10.2285408 11.5803713,10.2361549 C12.0094978,10.2361549 12.6703123,9.62512641 13.5628148,8.40306942 C14.4351705,7.14770091 14.9045906,6.21783356 14.9650309,5.61251561 C14.9841704,5.48973886 14.9912218,5.37457617 14.9912218,5.2679793 C14.9912218,4.44851585 14.513743,4.04021177 13.5628148,4.04021177 C13.0802993,4.04021177 12.565549,4.13729106 12.0145345,4.32478734 C13.0017269,1.4495271 14.8995539,0.00951757778 17.7060009,0 C17.7845733,0 17.8621384,0 17.9417182,0 Z" id="Path"></path>
                    </g>
                </g>
            </g>
        </g>
    </g>
</svg>