<?xml version="1.0" encoding="UTF-8"?>
<svg width="422px" height="19px" viewBox="0 0 422 19" version="1.1" xmlns="http://www.w3.org/2000/svg" xmlns:xlink="http://www.w3.org/1999/xlink">
    <title>Group 17</title>
    <g id="Page-1" stroke="none" stroke-width="1" fill="none" fill-rule="evenodd">
        <g id="home" transform="translate(-923.000000, -4941.000000)">
            <g id="footer" transform="translate(0.000000, 4890.000000)">
                <g id="Group-17" transform="translate(923.000000, 51.000000)">
                    <path d="M12.6464844,18 L19.0214844,0.8203125 L13.6308594,0.8203125 L9.82226562,13.1835938 L5.95507812,0.8203125 L0.400390625,0.8203125 L6.89257812,18 L12.6464844,18 Z M26.2988281,18 L26.2988281,0.8203125 L20.9785156,0.8203125 L20.9785156,18 L26.2988281,18 Z M37.1621094,18.2929688 C38.8261719,18.2929688 40.2050781,18.0527344 41.2988281,17.5722656 C42.3925781,17.0917969 43.2441406,16.3867188 43.8535156,15.4570312 C44.4628906,14.5273438 44.7675781,13.5117188 44.7675781,12.4101562 C44.7675781,11.4726562 44.5390625,10.625 44.0820312,9.8671875 C43.625,9.109375 42.8945312,8.47460938 41.890625,7.96289062 C40.8867188,7.45117188 39.2246094,6.9453125 36.9042969,6.4453125 C35.9667969,6.25 35.3730469,6.0390625 35.1230469,5.8125 C34.8652344,5.59375 34.7363281,5.34765625 34.7363281,5.07421875 C34.7363281,4.69921875 34.8925781,4.38085938 35.2050781,4.11914062 C35.5175781,3.85742188 35.9824219,3.7265625 36.5996094,3.7265625 C37.3496094,3.7265625 37.9375,3.90234375 38.3632812,4.25390625 C38.7890625,4.60546875 39.0683594,5.16796875 39.2011719,5.94140625 L39.2011719,5.94140625 L44.2050781,5.6484375 C43.9863281,3.8671875 43.3007812,2.56835938 42.1484375,1.75195312 C40.9960938,0.935546875 39.3222656,0.52734375 37.1269531,0.52734375 C35.3378906,0.52734375 33.9296875,0.751953125 32.9023438,1.20117188 C31.875,1.65039062 31.1054688,2.26757812 30.59375,3.05273438 C30.0820312,3.83789062 29.8261719,4.671875 29.8261719,5.5546875 C29.8261719,6.8984375 30.3261719,8.00390625 31.3261719,8.87109375 C32.3183594,9.73828125 33.9785156,10.4335938 36.3066406,10.9570312 C37.7285156,11.2695312 38.6347656,11.6015625 39.0253906,11.953125 C39.4160156,12.3046875 39.6113281,12.703125 39.6113281,13.1484375 C39.6113281,13.6171875 39.40625,14.0292969 38.9960938,14.3847656 C38.5859375,14.7402344 38.0019531,14.9179688 37.2441406,14.9179688 C36.2285156,14.9179688 35.4472656,14.5703125 34.9003906,13.875 C34.5644531,13.4453125 34.3417969,12.8203125 34.2324219,12 L34.2324219,12 L29.1816406,12.3164062 C29.3300781,14.0507812 29.9667969,15.4804688 31.0917969,16.6054688 C32.2167969,17.7304688 34.2402344,18.2929688 37.1621094,18.2929688 Z M52.9707031,18 L52.9707031,0.8203125 L47.6503906,0.8203125 L47.6503906,18 L52.9707031,18 Z M66.2949219,18 L66.2949219,5.0625 L71.7089844,5.0625 L71.7089844,0.8203125 L55.5722656,0.8203125 L55.5722656,5.0625 L60.9863281,5.0625 L60.9863281,18 L66.2949219,18 Z M90.5292969,18.2929688 C92.4355469,18.2929688 94.0273438,17.9355469 95.3046875,17.2207031 C96.5820312,16.5058594 97.5585938,15.5058594 98.234375,14.2207031 C98.9101562,12.9355469 99.2480469,11.2890625 99.2480469,9.28125 C99.2480469,6.515625 98.4746094,4.36523438 96.9277344,2.83007812 C95.3808594,1.29492188 93.1777344,0.52734375 90.3183594,0.52734375 C87.5292969,0.52734375 85.3535156,1.30859375 83.7910156,2.87109375 C82.2285156,4.43359375 81.4472656,6.6171875 81.4472656,9.421875 C81.4472656,11.4296875 81.8417969,13.1015625 82.6308594,14.4375 C83.4199219,15.7734375 84.4492188,16.75 85.71875,17.3671875 C86.9882812,17.984375 88.5917969,18.2929688 90.5292969,18.2929688 Z M90.3535156,14.3203125 C89.2441406,14.3203125 88.3671875,13.9414062 87.7226562,13.1835938 C87.078125,12.4257812 86.7558594,11.1796875 86.7558594,9.4453125 C86.7558594,7.6953125 87.0800781,6.44140625 87.7285156,5.68359375 C88.3769531,4.92578125 89.2363281,4.546875 90.3066406,4.546875 C91.4238281,4.546875 92.3085938,4.91992188 92.9609375,5.66601562 C93.6132812,6.41210938 93.9394531,7.59375 93.9394531,9.2109375 C93.9394531,11.1328125 93.6269531,12.4648438 93.0019531,13.2070312 C92.3769531,13.9492188 91.4941406,14.3203125 90.3535156,14.3203125 Z M110.779297,18.3046875 C112.224609,18.3046875 113.462891,18.1132812 114.494141,17.7304688 C115.236328,17.4570312 115.945312,16.9824219 116.621094,16.3066406 C117.296875,15.6308594 117.792969,14.8417969 118.109375,13.9394531 C118.425781,13.0371094 118.583984,12.078125 118.583984,11.0625 L118.583984,11.0625 L118.583984,0.8203125 L113.287109,0.8203125 L113.287109,11.3085938 C113.287109,12.2617188 113.027344,12.9980469 112.507812,13.5175781 C111.988281,14.0371094 111.271484,14.296875 110.357422,14.296875 C109.435547,14.296875 108.714844,14.0332031 108.195312,13.5058594 C107.675781,12.9785156 107.416016,12.2460938 107.416016,11.3085938 L107.416016,11.3085938 L107.416016,0.8203125 L102.119141,0.8203125 L102.119141,11.0625 C102.119141,11.90625 102.283203,12.875 102.611328,13.96875 C102.814453,14.6484375 103.191406,15.3085938 103.742188,15.9492188 C104.292969,16.5898438 104.900391,17.0839844 105.564453,17.4316406 C106.228516,17.7792969 107.054688,18.0117188 108.042969,18.1289062 C109.03125,18.2460938 109.943359,18.3046875 110.779297,18.3046875 Z M127.501953,18 L127.501953,11.0273438 L127.970703,11.0273438 C128.455078,11.0273438 128.888672,11.1601562 129.271484,11.4257812 C129.552734,11.6289062 129.873047,12.0703125 130.232422,12.75 L130.232422,12.75 L133.068359,18 L139.068359,18 L136.501953,13.0195312 C136.376953,12.7695312 136.128906,12.4140625 135.757812,11.953125 C135.386719,11.4921875 135.103516,11.1914062 134.908203,11.0507812 C134.619141,10.8398438 134.158203,10.6289062 133.525391,10.4179688 C134.314453,10.2382812 134.935547,10.0117188 135.388672,9.73828125 C136.099609,9.30859375 136.658203,8.74804688 137.064453,8.05664062 C137.470703,7.36523438 137.673828,6.54296875 137.673828,5.58984375 C137.673828,4.49609375 137.408203,3.56835938 136.876953,2.80664062 C136.345703,2.04492188 135.646484,1.5234375 134.779297,1.2421875 C133.912109,0.9609375 132.658203,0.8203125 131.017578,0.8203125 L131.017578,0.8203125 L122.169922,0.8203125 L122.169922,18 L127.501953,18 Z M129.740234,7.78125 L127.501953,7.78125 L127.501953,4.2890625 L129.833984,4.2890625 C130.802734,4.2890625 131.462891,4.4375 131.814453,4.734375 C132.166016,5.03125 132.341797,5.45703125 132.341797,6.01171875 C132.341797,6.38671875 132.230469,6.71875 132.007812,7.0078125 C131.785156,7.296875 131.498047,7.4765625 131.146484,7.546875 C130.451172,7.703125 129.982422,7.78125 129.740234,7.78125 L129.740234,7.78125 Z M154.302734,18 L154.302734,0.8203125 L148.982422,0.8203125 L148.982422,18 L154.302734,18 Z M163.138672,18 L163.138672,8.56640625 L169.572266,18 L174.576172,18 L174.576172,0.8203125 L169.572266,0.8203125 L169.572266,10.3242188 L163.103516,0.8203125 L158.146484,0.8203125 L158.146484,18 L163.138672,18 Z M185.158203,18.2929688 C186.822266,18.2929688 188.201172,18.0527344 189.294922,17.5722656 C190.388672,17.0917969 191.240234,16.3867188 191.849609,15.4570312 C192.458984,14.5273438 192.763672,13.5117188 192.763672,12.4101562 C192.763672,11.4726562 192.535156,10.625 192.078125,9.8671875 C191.621094,9.109375 190.890625,8.47460938 189.886719,7.96289062 C188.882812,7.45117188 187.220703,6.9453125 184.900391,6.4453125 C183.962891,6.25 183.369141,6.0390625 183.119141,5.8125 C182.861328,5.59375 182.732422,5.34765625 182.732422,5.07421875 C182.732422,4.69921875 182.888672,4.38085938 183.201172,4.11914062 C183.513672,3.85742188 183.978516,3.7265625 184.595703,3.7265625 C185.345703,3.7265625 185.933594,3.90234375 186.359375,4.25390625 C186.785156,4.60546875 187.064453,5.16796875 187.197266,5.94140625 L187.197266,5.94140625 L192.201172,5.6484375 C191.982422,3.8671875 191.296875,2.56835938 190.144531,1.75195312 C188.992188,0.935546875 187.318359,0.52734375 185.123047,0.52734375 C183.333984,0.52734375 181.925781,0.751953125 180.898438,1.20117188 C179.871094,1.65039062 179.101562,2.26757812 178.589844,3.05273438 C178.078125,3.83789062 177.822266,4.671875 177.822266,5.5546875 C177.822266,6.8984375 178.322266,8.00390625 179.322266,8.87109375 C180.314453,9.73828125 181.974609,10.4335938 184.302734,10.9570312 C185.724609,11.2695312 186.630859,11.6015625 187.021484,11.953125 C187.412109,12.3046875 187.607422,12.703125 187.607422,13.1484375 C187.607422,13.6171875 187.402344,14.0292969 186.992188,14.3847656 C186.582031,14.7402344 185.998047,14.9179688 185.240234,14.9179688 C184.224609,14.9179688 183.443359,14.5703125 182.896484,13.875 C182.560547,13.4453125 182.337891,12.8203125 182.228516,12 L182.228516,12 L177.177734,12.3164062 C177.326172,14.0507812 177.962891,15.4804688 179.087891,16.6054688 C180.212891,17.7304688 182.236328,18.2929688 185.158203,18.2929688 Z M204.951172,18 L204.951172,5.0625 L210.365234,5.0625 L210.365234,0.8203125 L194.228516,0.8203125 L194.228516,5.0625 L199.642578,5.0625 L199.642578,18 L204.951172,18 Z M216.458984,18 L217.291016,15.1640625 L223.337891,15.1640625 L224.181641,18 L229.736328,18 L223.279297,0.8203125 L217.490234,0.8203125 L211.033203,18 L216.458984,18 Z M222.224609,11.4492188 L218.439453,11.4492188 L220.326172,5.2734375 L222.224609,11.4492188 Z M239.814453,18.2929688 C241.470703,18.2929688 242.902344,18.0996094 244.109375,17.7128906 C245.316406,17.3261719 246.705078,16.5976562 248.275391,15.5273438 L248.275391,15.5273438 L248.275391,8.203125 L240.072266,8.203125 L240.072266,11.7773438 L243.623047,11.7773438 L243.623047,13.3945313 C242.927734,13.8085938 242.310547,14.1015625 241.771484,14.2734375 C241.232422,14.4453125 240.666016,14.53125 240.072266,14.53125 C238.822266,14.53125 237.847656,14.1328125 237.148438,13.3359375 C236.449219,12.5390625 236.099609,11.2109375 236.099609,9.3515625 C236.099609,7.6015625 236.445312,6.32226562 237.136719,5.51367187 C237.828125,4.70507812 238.755859,4.30078125 239.919922,4.30078125 C240.701172,4.30078125 241.34375,4.47265625 241.847656,4.81640625 C242.351562,5.16015625 242.708984,5.65625 242.919922,6.3046875 L242.919922,6.3046875 L248.041016,5.390625 C247.728516,4.28125 247.261719,3.36523438 246.640625,2.64257812 C246.019531,1.91992188 245.238281,1.38671875 244.296875,1.04296875 C243.355469,0.69921875 241.935547,0.52734375 240.037109,0.52734375 C238.068359,0.52734375 236.501953,0.8046875 235.337891,1.359375 C233.845703,2.078125 232.712891,3.13085938 231.939453,4.51757812 C231.166016,5.90429688 230.779297,7.53515625 230.779297,9.41015625 C230.779297,11.1914062 231.132812,12.7695312 231.839844,14.1445312 C232.546875,15.5195312 233.542969,16.5546875 234.828125,17.25 C236.113281,17.9453125 237.775391,18.2929688 239.814453,18.2929688 Z M256.830078,18 L256.830078,11.0273438 L257.298828,11.0273438 C257.783203,11.0273438 258.216797,11.1601562 258.599609,11.4257812 C258.880859,11.6289062 259.201172,12.0703125 259.560547,12.75 L259.560547,12.75 L262.396484,18 L268.396484,18 L265.830078,13.0195312 C265.705078,12.7695312 265.457031,12.4140625 265.085938,11.953125 C264.714844,11.4921875 264.431641,11.1914062 264.236328,11.0507812 C263.947266,10.8398438 263.486328,10.6289062 262.853516,10.4179688 C263.642578,10.2382812 264.263672,10.0117188 264.716797,9.73828125 C265.427734,9.30859375 265.986328,8.74804688 266.392578,8.05664062 C266.798828,7.36523438 267.001953,6.54296875 267.001953,5.58984375 C267.001953,4.49609375 266.736328,3.56835938 266.205078,2.80664062 C265.673828,2.04492188 264.974609,1.5234375 264.107422,1.2421875 C263.240234,0.9609375 261.986328,0.8203125 260.345703,0.8203125 L260.345703,0.8203125 L251.498047,0.8203125 L251.498047,18 L256.830078,18 Z M259.068359,7.78125 L256.830078,7.78125 L256.830078,4.2890625 L259.162109,4.2890625 C260.130859,4.2890625 260.791016,4.4375 261.142578,4.734375 C261.494141,5.03125 261.669922,5.45703125 261.669922,6.01171875 C261.669922,6.38671875 261.558594,6.71875 261.335938,7.0078125 C261.113281,7.296875 260.826172,7.4765625 260.474609,7.546875 C259.779297,7.703125 259.310547,7.78125 259.068359,7.78125 L259.068359,7.78125 Z M273.787109,18 L274.619141,15.1640625 L280.666016,15.1640625 L281.509766,18 L287.064453,18 L280.607422,0.8203125 L274.818359,0.8203125 L268.361328,18 L273.787109,18 Z M279.552734,11.4492188 L275.767578,11.4492188 L277.654297,5.2734375 L279.552734,11.4492188 Z M293.052734,18 L293.052734,4.8984375 L296.404297,18 L300.330078,18 L303.693359,4.8984375 L303.693359,18 L308.029297,18 L308.029297,0.8203125 L301.068359,0.8203125 L298.384766,11.2734375 L295.689453,0.8203125 L288.705078,0.8203125 L288.705078,18 L293.052734,18 Z" id="VISITOURINSTAGRAM" fill="#000000" fill-rule="nonzero"></path>
                    <polygon id="Polygon-Copy-27" fill="#161616" points="414 0 421.794229 4.5 421.794229 13.5 414 18 406.205771 13.5 406.205771 4.5"></polygon>
                </g>
            </g>
        </g>
    </g>
</svg>