<?xml version="1.0" encoding="UTF-8"?>
<svg width="654px" height="23px" viewBox="0 0 654 23" version="1.1" xmlns="http://www.w3.org/2000/svg" xmlns:xlink="http://www.w3.org/1999/xlink">
    <title>Group 14</title>
    <g id="Page-1" stroke="none" stroke-width="1" fill="none" fill-rule="evenodd">
        <g id="home" transform="translate(-299.000000, -1002.000000)" fill="#161616">
            <g id="title" transform="translate(-441.000000, 951.000000)">
                <g id="text" transform="translate(0.000000, 48.000000)">
                    <g id="Group-14" transform="translate(740.000000, 3.000000)">
                        <g id="Group-13">
                            <path d="M9.02929688,18 L12.0292969,7.18359375 L15.0410156,18 L20.2441406,18 L24.0292969,0.8203125 L19.0136719,0.8203125 L17.1972656,10.4179688 L14.5371094,0.8203125 L9.50976562,0.8203125 L6.86132812,10.4179688 L5.04492188,0.8203125 L0.005859375,0.8203125 L3.82617188,18 L9.02929688,18 Z M31.1074219,18 L31.1074219,11.0507812 L36.9082031,11.0507812 L36.9082031,18 L42.2402344,18 L42.2402344,0.8203125 L36.9082031,0.8203125 L36.9082031,6.83203125 L31.1074219,6.83203125 L31.1074219,0.8203125 L25.7988281,0.8203125 L25.7988281,18 L31.1074219,18 Z M60.2402344,18 L60.2402344,14.109375 L51.0761719,14.109375 L51.0761719,10.7226563 L59.3378906,10.7226563 L59.3378906,7.21875 L51.0761719,7.21875 L51.0761719,4.48828125 L59.9824219,4.48828125 L59.9824219,0.8203125 L45.7558594,0.8203125 L45.7558594,18 L60.2402344,18 Z M68.1269531,18 L68.1269531,8.56640625 L74.5605469,18 L79.5644531,18 L79.5644531,0.8203125 L74.5605469,0.8203125 L74.5605469,10.3242188 L68.0917969,0.8203125 L63.1347656,0.8203125 L63.1347656,18 L68.1269531,18 Z M98.3496094,18 L101.349609,7.18359375 L104.361328,18 L109.564453,18 L113.349609,0.8203125 L108.333984,0.8203125 L106.517578,10.4179688 L103.857422,0.8203125 L98.8300781,0.8203125 L96.1816406,10.4179688 L94.3652344,0.8203125 L89.3261719,0.8203125 L93.1464844,18 L98.3496094,18 Z M129.568359,18 L129.568359,14.109375 L120.404297,14.109375 L120.404297,10.7226563 L128.666016,10.7226563 L128.666016,7.21875 L120.404297,7.21875 L120.404297,4.48828125 L129.310547,4.48828125 L129.310547,0.8203125 L115.083984,0.8203125 L115.083984,18 L129.568359,18 Z M147.486328,18.2929688 C149.150391,18.2929688 150.529297,18.0527344 151.623047,17.5722656 C152.716797,17.0917969 153.568359,16.3867188 154.177734,15.4570312 C154.787109,14.5273438 155.091797,13.5117188 155.091797,12.4101562 C155.091797,11.4726562 154.863281,10.625 154.40625,9.8671875 C153.949219,9.109375 153.21875,8.47460938 152.214844,7.96289062 C151.210938,7.45117188 149.548828,6.9453125 147.228516,6.4453125 C146.291016,6.25 145.697266,6.0390625 145.447266,5.8125 C145.189453,5.59375 145.060547,5.34765625 145.060547,5.07421875 C145.060547,4.69921875 145.216797,4.38085938 145.529297,4.11914062 C145.841797,3.85742188 146.306641,3.7265625 146.923828,3.7265625 C147.673828,3.7265625 148.261719,3.90234375 148.6875,4.25390625 C149.113281,4.60546875 149.392578,5.16796875 149.525391,5.94140625 L149.525391,5.94140625 L154.529297,5.6484375 C154.310547,3.8671875 153.625,2.56835938 152.472656,1.75195312 C151.320312,0.935546875 149.646484,0.52734375 147.451172,0.52734375 C145.662109,0.52734375 144.253906,0.751953125 143.226562,1.20117188 C142.199219,1.65039062 141.429688,2.26757812 140.917969,3.05273438 C140.40625,3.83789062 140.150391,4.671875 140.150391,5.5546875 C140.150391,6.8984375 140.650391,8.00390625 141.650391,8.87109375 C142.642578,9.73828125 144.302734,10.4335938 146.630859,10.9570312 C148.052734,11.2695312 148.958984,11.6015625 149.349609,11.953125 C149.740234,12.3046875 149.935547,12.703125 149.935547,13.1484375 C149.935547,13.6171875 149.730469,14.0292969 149.320312,14.3847656 C148.910156,14.7402344 148.326172,14.9179688 147.568359,14.9179688 C146.552734,14.9179688 145.771484,14.5703125 145.224609,13.875 C144.888672,13.4453125 144.666016,12.8203125 144.556641,12 L144.556641,12 L139.505859,12.3164062 C139.654297,14.0507812 140.291016,15.4804688 141.416016,16.6054688 C142.541016,17.7304688 144.564453,18.2929688 147.486328,18.2929688 Z M161.455078,18 L162.287109,15.1640625 L168.333984,15.1640625 L169.177734,18 L174.732422,18 L168.275391,0.8203125 L162.486328,0.8203125 L156.029297,18 L161.455078,18 Z M167.220703,11.4492188 L163.435547,11.4492188 L165.322266,5.2734375 L167.220703,11.4492188 Z M186.708984,18 L186.708984,10.8046875 L193.388672,0.8203125 L187.529297,0.8203125 L184.060547,6.62109375 L180.591797,0.8203125 L174.697266,0.8203125 L181.388672,10.8046875 L181.388672,18 L186.708984,18 Z M210.158203,18.2929688 C211.822266,18.2929688 213.201172,18.0527344 214.294922,17.5722656 C215.388672,17.0917969 216.240234,16.3867188 216.849609,15.4570312 C217.458984,14.5273438 217.763672,13.5117188 217.763672,12.4101562 C217.763672,11.4726562 217.535156,10.625 217.078125,9.8671875 C216.621094,9.109375 215.890625,8.47460938 214.886719,7.96289062 C213.882812,7.45117188 212.220703,6.9453125 209.900391,6.4453125 C208.962891,6.25 208.369141,6.0390625 208.119141,5.8125 C207.861328,5.59375 207.732422,5.34765625 207.732422,5.07421875 C207.732422,4.69921875 207.888672,4.38085938 208.201172,4.11914062 C208.513672,3.85742188 208.978516,3.7265625 209.595703,3.7265625 C210.345703,3.7265625 210.933594,3.90234375 211.359375,4.25390625 C211.785156,4.60546875 212.064453,5.16796875 212.197266,5.94140625 L212.197266,5.94140625 L217.201172,5.6484375 C216.982422,3.8671875 216.296875,2.56835938 215.144531,1.75195312 C213.992188,0.935546875 212.318359,0.52734375 210.123047,0.52734375 C208.333984,0.52734375 206.925781,0.751953125 205.898438,1.20117188 C204.871094,1.65039062 204.101562,2.26757812 203.589844,3.05273438 C203.078125,3.83789062 202.822266,4.671875 202.822266,5.5546875 C202.822266,6.8984375 203.322266,8.00390625 204.322266,8.87109375 C205.314453,9.73828125 206.974609,10.4335938 209.302734,10.9570312 C210.724609,11.2695312 211.630859,11.6015625 212.021484,11.953125 C212.412109,12.3046875 212.607422,12.703125 212.607422,13.1484375 C212.607422,13.6171875 212.402344,14.0292969 211.992188,14.3847656 C211.582031,14.7402344 210.998047,14.9179688 210.240234,14.9179688 C209.224609,14.9179688 208.443359,14.5703125 207.896484,13.875 C207.560547,13.4453125 207.337891,12.8203125 207.228516,12 L207.228516,12 L202.177734,12.3164062 C202.326172,14.0507812 202.962891,15.4804688 204.087891,16.6054688 C205.212891,17.7304688 207.236328,18.2929688 210.158203,18.2929688 Z M227.689453,18 L230.689453,7.18359375 L233.701172,18 L238.904297,18 L242.689453,0.8203125 L237.673828,0.8203125 L235.857422,10.4179688 L233.197266,0.8203125 L228.169922,0.8203125 L225.521484,10.4179688 L223.705078,0.8203125 L218.666016,0.8203125 L222.486328,18 L227.689453,18 Z M258.908203,18 L258.908203,14.109375 L249.744141,14.109375 L249.744141,10.7226563 L258.005859,10.7226563 L258.005859,7.21875 L249.744141,7.21875 L249.744141,4.48828125 L258.650391,4.48828125 L258.650391,0.8203125 L244.423828,0.8203125 L244.423828,18 L258.908203,18 Z M276.240234,18 L276.240234,14.109375 L267.076172,14.109375 L267.076172,10.7226563 L275.337891,10.7226563 L275.337891,7.21875 L267.076172,7.21875 L267.076172,4.48828125 L275.982422,4.48828125 L275.982422,0.8203125 L261.755859,0.8203125 L261.755859,18 L276.240234,18 Z M288.615234,18 L288.615234,5.0625 L294.029297,5.0625 L294.029297,0.8203125 L277.892578,0.8203125 L277.892578,5.0625 L283.306641,5.0625 L283.306641,18 L288.615234,18 Z M297.240234,22.828125 C298.693359,22.1875 299.720703,21.4492188 300.322266,20.6132812 C300.923828,19.7773438 301.224609,18.6367188 301.224609,17.1914062 L301.224609,17.1914062 L301.224609,13.265625 L296.126953,13.265625 L296.126953,18 L298.564453,18 C298.525391,18.5703125 298.335938,19.0644531 297.996094,19.4824219 C297.65625,19.9003906 297.033203,20.3203125 296.126953,20.7421875 L296.126953,20.7421875 L297.240234,22.828125 Z M319.681641,18 L322.681641,7.18359375 L325.693359,18 L330.896484,18 L334.681641,0.8203125 L329.666016,0.8203125 L327.849609,10.4179688 L325.189453,0.8203125 L320.162109,0.8203125 L317.513672,10.4179688 L315.697266,0.8203125 L310.658203,0.8203125 L314.478516,18 L319.681641,18 Z M350.900391,18 L350.900391,14.109375 L341.736328,14.109375 L341.736328,10.7226563 L349.998047,10.7226563 L349.998047,7.21875 L341.736328,7.21875 L341.736328,4.48828125 L350.642578,4.48828125 L350.642578,0.8203125 L336.416016,0.8203125 L336.416016,18 L350.900391,18 Z M366.052734,18 L366.052734,4.8984375 L369.404297,18 L373.330078,18 L376.693359,4.8984375 L376.693359,18 L381.029297,18 L381.029297,0.8203125 L374.068359,0.8203125 L371.384766,11.2734375 L368.689453,0.8203125 L361.705078,0.8203125 L361.705078,18 L366.052734,18 Z M398.888672,18 L398.888672,14.109375 L389.724609,14.109375 L389.724609,10.7226563 L397.986328,10.7226563 L397.986328,7.21875 L389.724609,7.21875 L389.724609,4.48828125 L398.630859,4.48828125 L398.630859,0.8203125 L384.404297,0.8203125 L384.404297,18 L398.888672,18 Z M405.439453,18 L406.271484,15.1640625 L412.318359,15.1640625 L413.162109,18 L418.716797,18 L412.259766,0.8203125 L406.470703,0.8203125 L400.013672,18 L405.439453,18 Z M411.205078,11.4492188 L407.419922,11.4492188 L409.306641,5.2734375 L411.205078,11.4492188 Z M425.443359,18 L425.443359,8.56640625 L431.876953,18 L436.880859,18 L436.880859,0.8203125 L431.876953,0.8203125 L431.876953,10.3242188 L425.408203,0.8203125 L420.451172,0.8203125 L420.451172,18 L425.443359,18 Z M455.466797,18.2929688 C457.130859,18.2929688 458.509766,18.0527344 459.603516,17.5722656 C460.697266,17.0917969 461.548828,16.3867188 462.158203,15.4570312 C462.767578,14.5273438 463.072266,13.5117188 463.072266,12.4101562 C463.072266,11.4726562 462.84375,10.625 462.386719,9.8671875 C461.929688,9.109375 461.199219,8.47460938 460.195312,7.96289062 C459.191406,7.45117188 457.529297,6.9453125 455.208984,6.4453125 C454.271484,6.25 453.677734,6.0390625 453.427734,5.8125 C453.169922,5.59375 453.041016,5.34765625 453.041016,5.07421875 C453.041016,4.69921875 453.197266,4.38085938 453.509766,4.11914062 C453.822266,3.85742188 454.287109,3.7265625 454.904297,3.7265625 C455.654297,3.7265625 456.242188,3.90234375 456.667969,4.25390625 C457.09375,4.60546875 457.373047,5.16796875 457.505859,5.94140625 L457.505859,5.94140625 L462.509766,5.6484375 C462.291016,3.8671875 461.605469,2.56835938 460.453125,1.75195312 C459.300781,0.935546875 457.626953,0.52734375 455.431641,0.52734375 C453.642578,0.52734375 452.234375,0.751953125 451.207031,1.20117188 C450.179688,1.65039062 449.410156,2.26757812 448.898438,3.05273438 C448.386719,3.83789062 448.130859,4.671875 448.130859,5.5546875 C448.130859,6.8984375 448.630859,8.00390625 449.630859,8.87109375 C450.623047,9.73828125 452.283203,10.4335938 454.611328,10.9570312 C456.033203,11.2695312 456.939453,11.6015625 457.330078,11.953125 C457.720703,12.3046875 457.916016,12.703125 457.916016,13.1484375 C457.916016,13.6171875 457.710938,14.0292969 457.300781,14.3847656 C456.890625,14.7402344 456.306641,14.9179688 455.548828,14.9179688 C454.533203,14.9179688 453.751953,14.5703125 453.205078,13.875 C452.869141,13.4453125 452.646484,12.8203125 452.537109,12 L452.537109,12 L447.486328,12.3164062 C447.634766,14.0507812 448.271484,15.4804688 449.396484,16.6054688 C450.521484,17.7304688 452.544922,18.2929688 455.466797,18.2929688 Z M472.998047,18 L475.998047,7.18359375 L479.009766,18 L484.212891,18 L487.998047,0.8203125 L482.982422,0.8203125 L481.166016,10.4179688 L478.505859,0.8203125 L473.478516,0.8203125 L470.830078,10.4179688 L469.013672,0.8203125 L463.974609,0.8203125 L467.794922,18 L472.998047,18 Z M504.216797,18 L504.216797,14.109375 L495.052734,14.109375 L495.052734,10.7226563 L503.314453,10.7226563 L503.314453,7.21875 L495.052734,7.21875 L495.052734,4.48828125 L503.958984,4.48828125 L503.958984,0.8203125 L489.732422,0.8203125 L489.732422,18 L504.216797,18 Z M521.548828,18 L521.548828,14.109375 L512.384766,14.109375 L512.384766,10.7226563 L520.646484,10.7226563 L520.646484,7.21875 L512.384766,7.21875 L512.384766,4.48828125 L521.291016,4.48828125 L521.291016,0.8203125 L507.064453,0.8203125 L507.064453,18 L521.548828,18 Z M533.923828,18 L533.923828,5.0625 L539.337891,5.0625 L539.337891,0.8203125 L523.201172,0.8203125 L523.201172,5.0625 L528.615234,5.0625 L528.615234,18 L533.923828,18 Z" id="WHENWESAYSWEET,WEMEANSWEET" fill-rule="nonzero"></path>
                            <polygon id="Polygon-Copy-8" points="645 0 652.794229 4.5 652.794229 13.5 645 18 637.205771 13.5 637.205771 4.5"></polygon>
                        </g>
                        <path d="M549.101857,8.672 L549.605857,6.296 L550.487857,8.672 L552.395857,8.672 L553.277857,6.278 L553.781857,8.672 L556.247857,8.672 L554.609857,1.4 L552.557857,1.4 L551.441857,4.46 L550.343857,1.4 L548.273857,1.4 L546.635857,8.672 L549.101857,8.672 Z M545.645857,8.654 L545.645857,3.398 L547.535857,3.398 L547.535857,1.4 L541.343857,1.4 L541.343857,3.398 L543.233857,3.398 L543.233857,8.654 L545.645857,8.654 Z" id="™" fill-rule="nonzero"></path>
                    </g>
                </g>
            </g>
        </g>
    </g>
</svg>