<?xml version="1.0" standalone="no"?>
<!DOCTYPE svg PUBLIC "-//W3C//DTD SVG 1.1//EN" "http://www.w3.org/Graphics/SVG/1.1/DTD/svg11.dtd" >
<svg xmlns="http://www.w3.org/2000/svg" xmlns:xlink="http://www.w3.org/1999/xlink" version="1.1">
<metadata>
Created by FontForge 20170731 at Mon Jan  4 19:43:53 2021
 By Aleksey,,,
Copyright (c) 2016 by Jakob Fischer / pizzadude.dk. All rights reserved.
</metadata>
<defs>
<font id="HogfishDEMO" horiz-adv-x="1069" >
  <font-face 
    font-family="Hogfish DEMO"
    font-weight="400"
    font-stretch="normal"
    units-per-em="2048"
    panose-1="2 0 5 3 0 0 0 2 0 4"
    ascent="1536"
    descent="-512"
    x-height="2060"
    cap-height="1972"
    bbox="-186 -672 2695 2879"
    underline-thickness="102"
    underline-position="-307"
    unicode-range="U+0020-FB02"
  />
<missing-glyph horiz-adv-x="966" 
d="M172 956q-27 4 -37.5 23.5t1 38t38.5 20.5l211 -4q-146 153 -192 299q-6 38 23 48.5t52 -17.5q34 -117 158 -258l4 311q8 36 39.5 37t42.5 -35l-4 -311q239 227 311 240q27 3 40 -14.5t4.5 -38.5t-34.5 -27q-7 0 -34 -27q-15 -14 -44.5 -36t-43.5 -34q-75 -62 -160 -143
q176 -4 262 -4q36 -11 35 -42.5t-37 -39.5q-78 0 -234 4q67 -70 94 -99t74 -85.5t76 -102.5q8 -13 13 -29.5t9 -37t7 -31.5q-3 -36 -34 -43.5t-46 27.5q-32 101 -95.5 185.5t-166.5 187.5q-6 -193 -6 -388q-2 -27 -20.5 -38.5t-38 -1t-23.5 37.5q0 192 6 379l-51 -45
q-72 -65 -150 -119q-5 -4 -18 -8.5t-28.5 -9t-20.5 -6.5v-2h-2q2 0 2 2q-4 -1 -5 -3l3 1q-10 -24 -31 -29t-36 11t-9 42q9 23 23.5 34.5t40 20.5t38.5 17q37 21 135 107q3 2 15.5 14t19.5 18zM158 727q-2 -2 -4 -6q4 4 4 6z" />
    <glyph glyph-name=".notdef" horiz-adv-x="966" 
d="M172 956q-27 4 -37.5 23.5t1 38t38.5 20.5l211 -4q-146 153 -192 299q-6 38 23 48.5t52 -17.5q34 -117 158 -258l4 311q8 36 39.5 37t42.5 -35l-4 -311q239 227 311 240q27 3 40 -14.5t4.5 -38.5t-34.5 -27q-7 0 -34 -27q-15 -14 -44.5 -36t-43.5 -34q-75 -62 -160 -143
q176 -4 262 -4q36 -11 35 -42.5t-37 -39.5q-78 0 -234 4q67 -70 94 -99t74 -85.5t76 -102.5q8 -13 13 -29.5t9 -37t7 -31.5q-3 -36 -34 -43.5t-46 27.5q-32 101 -95.5 185.5t-166.5 187.5q-6 -193 -6 -388q-2 -27 -20.5 -38.5t-38 -1t-23.5 37.5q0 192 6 379l-51 -45
q-72 -65 -150 -119q-5 -4 -18 -8.5t-28.5 -9t-20.5 -6.5v-2h-2q2 0 2 2q-4 -1 -5 -3l3 1q-10 -24 -31 -29t-36 11t-9 42q9 23 23.5 34.5t40 20.5t38.5 17q37 21 135 107q3 2 15.5 14t19.5 18zM158 727q-2 -2 -4 -6q4 4 4 6z" />
    <glyph glyph-name=".null" horiz-adv-x="0" 
 />
    <glyph glyph-name="nonmarkingreturn" horiz-adv-x="682" 
 />
    <glyph glyph-name="space" unicode=" " horiz-adv-x="657" 
 />
    <glyph glyph-name="exclam" unicode="!" horiz-adv-x="442" 
d="M379 819q1 -37 4.5 -152t3.5 -175q0 -31 -0.5 -44t-3 -30t-7.5 -22.5t-16 -12t-26 -7.5t-39 -1h-19q-30 0 -85 -8.5t-85 -8.5q-44 0 -37 133l3 35q0 100 -6.5 301.5t-6.5 302.5q0 514 13 791q0 68 11 88q12 23 40 23q26 0 88.5 3.5t95.5 2.5q16 -1 27 -12.5t16.5 -32.5
t8.5 -44.5t2.5 -54t-1.5 -55.5t-2.5 -54.5t-1.5 -45.5q7 -139 11.5 -286.5t8.5 -331t7 -300.5zM373 96v-21.5v-25t-0.5 -24t-2.5 -24.5t-6 -21t-10 -19t-15 -12.5t-20 -7.5q-131 -23 -176 -23q-15 0 -26 8.5t-17 24t-10 32t-5.5 39t-1.5 37t0.5 35.5t0.5 25q0 29 23 52
t56.5 34t64.5 16.5t55 5.5q16 0 27.5 -1t21 -2t16 -6t11.5 -6.5t8 -11t5 -13t2.5 -18t0.5 -20v-25v-28.5h-2z" />
    <glyph glyph-name="quotedbl" unicode="&#x22;" horiz-adv-x="894" 
d="M78 1585q0 51 -5 156t-5 157q0 36 3 57.5t18 39.5t44 18q113 0 144 -5q74 -15 75 -64v-25q0 -40 7.5 -117t7.5 -116v-314q0 -58 -60.5 -77t-185.5 -19q-16 0 -26 23t-13 58.5t-5 78t-1 81t0 68.5h2zM825 1636q0 -180 -2 -270v-16q0 -74 -248 -74q-12 0 -20.5 9.5
t-13.5 29t-8.5 38.5t-4 47.5t-1 46.5t0 45.5t0.5 33.5q0 64 9.5 188.5t9.5 190.5q0 50 50 67t157 17q37 -2 54.5 -49.5t17.5 -107.5t0.5 -117.5t2.5 -78.5h-4z" />
    <glyph glyph-name="numbersign" unicode="#" horiz-adv-x="1337" 
d="M242 219q0 18 -1 48t-1 44q0 20 2 61.5t2 63.5q0 29 -16.5 41t-40.5 13t-48 4.5t-40.5 23t-16.5 60.5q0 24 -3 68.5t-3 66.5q0 32 17 45t41 13t48 2.5t41 24t17 66.5q0 24 1 68t1 73t-0.5 68t-5 64.5t-12 49.5t-21.5 36t-33 12h-90q-39 0 -39 59q0 87 5 107q11 46 67 62
q25 7 61 10q9 0 16 1.5t12 5t9 6t6 9.5t3.5 10.5t2 12.5t0.5 12.5v14.5v14q0 61 2 179.5t2 176.5q1 30 24 50.5t59.5 29.5t68 12.5t63.5 3.5q50 0 50 -76q0 -18 -4.5 -65.5t-2.5 -73.5q1 -26 8 -116t7 -136q0 -37 9.5 -47t47.5 -10q20 1 72 1t80.5 1.5t64.5 6.5t53 16t17 28
v19q8 188 8 274q0 8 -1 24.5t-1 24.5v9q0 26 0.5 38t3.5 29t10 23.5t19.5 12t31.5 5.5q12 -2 37 -2q20 0 56.5 6t54.5 6q14 0 25 -11.5t18 -32.5t13 -46t9 -57.5t5 -60.5t2 -62t0.5 -55t0 -46.5t-0.5 -29.5v-18q0 -64 10.5 -75.5t71.5 -11.5q69 -4 69 -196q-2 -21 -15 -29
t-31 -5t-38 4t-37 -2t-28 -23t-11 -58t2 -113.5t2 -113.5q0 -30 -5 -91.5t-5 -89.5q0 -27 17.5 -35t42.5 -4t50 5.5t42.5 -14t17.5 -54.5q0 -43 -1 -64t-7 -46t-19 -36t-35.5 -20t-58.5 -12q-6 -1 -16.5 -2.5t-15 -3t-10.5 -5t-8.5 -9.5t-4.5 -17t-2 -27q0 -76 10.5 -232.5
t10.5 -238.5q0 -13 -7 -23t-21 -16t-29.5 -10t-38 -6.5t-39 -3.5t-41 -2t-37.5 -2q-20 0 -34.5 13.5t-22.5 42t-12.5 57.5t-5.5 75.5t-1 80.5t1 87t1 82q0 20 2 60.5t2 58.5q0 8 -4.5 14t-14 10t-20 7.5t-26 5t-27.5 3t-30 1.5h-28h-26h-21h-22q-31 0 -45.5 -0.5t-35.5 -4
t-30 -11t-16.5 -22t-7.5 -36.5q0 -67 12 -202.5t12 -204.5q0 -17 -6 -29t-21 -19.5t-27 -12t-37 -6t-37.5 -2t-41.5 0t-37 0.5q-27 0 -44 18t-22.5 54t-7 62.5t0.5 72.5t2 55zM844 1075h4q-1 21 0.5 56t1 55t-5.5 42t-19 32t-39 10q-22 -1 -58 -1.5t-60 -1t-54 -2.5
t-49.5 -7t-37.5 -13.5t-26.5 -22.5t-8.5 -34q0 -16 -1.5 -45t-1.5 -45q0 -54 6.5 -163t6.5 -163q6 -29 35 -29q20 0 57 3.5t55 3.5h41q14 0 40 -1t39.5 -1.5t32 2.5t27.5 10t16 22t7 37q0 43 -4 128t-4 128z" />
    <glyph glyph-name="dollar" unicode="$" horiz-adv-x="989" 
d="M457 840q-47 -1 -96 0.5t-95.5 2.5t-88 15t-72 38t-48.5 71t-18 114q0 23 -1 67t-1 66q0 62 6.5 126.5t22 139.5t50 128.5t83.5 66.5q15 4 39.5 8.5t35.5 7.5t24.5 9.5t19 18.5t6.5 30q2 45 2 135q0 7 -1 22.5t-1 22.5q2 28 20 39.5t41 12t70 2.5t86 10q2 0 7 1t7 1
q23 0 37 -19.5t20.5 -60t8.5 -79t2 -99.5q2 -25 28.5 -40t60 -22t71 -29.5t55.5 -60.5q32 -67 42.5 -129.5t10.5 -159.5q0 -14 -4.5 -25.5t-15 -19.5t-20.5 -14.5t-28 -10t-28.5 -5.5t-32 -3t-30 -1h-29.5h-23q-34 0 -49 17t-14 43t-2 55.5t-10.5 55.5t-40.5 43t-91 17
q-84 0 -128 -52.5t-44 -146.5q7 -55 28 -77.5t85 -22.5q16 0 46 3t46 3q249 0 289 -25q37 -18 53.5 -28t39 -30t30.5 -42t17.5 -61.5t12 -92.5t2.5 -131q0 -67 -2.5 -114.5t-10.5 -98.5t-23.5 -86.5t-40.5 -68t-62.5 -53t-87.5 -31.5q-16 -4 -26.5 -9.5t-16 -10t-7.5 -18
t-2.5 -20.5t-0.5 -30q0 -27 6 -80t6 -80q0 -14 -7 -25.5t-22 -19.5t-28.5 -13.5t-38.5 -9t-39.5 -5t-42.5 -2.5t-37 -1h-33t-39 24t-19.5 59t-7 74t-1 69t-0.5 45q-2 19 -31.5 32t-70.5 25t-83 30.5t-74.5 60t-39.5 101.5q-2 12 -7 41.5t-7 51t-1 41.5q0 18 1 27t6 22
t18 18.5t35 5.5q15 0 47 -2t47 -2q21 0 63 2t64 2q21 0 31 -12.5t11 -31.5t4 -41t8 -41t25 -31.5t54 -12.5q86 0 140.5 48t54.5 124q0 30 -4 51.5t-10 37t-21 25.5t-27.5 16t-38.5 8.5t-46 3t-58 0.5z" />
    <glyph glyph-name="percent" unicode="%" horiz-adv-x="2217" 
d="M35 1315q1 29 1.5 101t1 134t7 139t19 133t38.5 98t64 50q148 49 332 49q84 0 140.5 -22t92 -62t54.5 -114.5t25.5 -159.5t6.5 -217q0 -102 -3 -162t-15 -138.5t-40.5 -134.5t-74.5 -96q-72 -55 -141.5 -71.5t-161.5 -16.5q-114 0 -177 30.5t-132 131.5q-17 25 -26 62.5
t-9.5 78t-1 90t-0.5 97.5zM508 1386h-2v56q0 280 -84 280q-37 0 -60 -17.5t-31.5 -58t-10 -68.5t-1.5 -87v-27q0 -8 -0.5 -40.5t0 -52t1 -55.5t3 -60t6 -56t10 -52.5t15 -40t21 -29t28.5 -9.5q21 0 38 9t27.5 22.5t18 36.5t11.5 43.5t6 51t2.5 51.5t0.5 54t1 49zM2173 244
q-1 -8 -3 -43.5t-3 -51.5t-4.5 -51.5t-8 -55.5t-11.5 -50t-16.5 -48t-22 -37.5t-29.5 -30.5t-37 -15q-25 -5 -116.5 -42.5t-135.5 -37.5q-51 0 -89 3t-81 12t-74.5 24.5t-61.5 43t-48.5 65.5t-29.5 93t-11 125q0 22 4 69t4 71v61q0 42 -1.5 108.5t-3 108t0.5 98.5t8.5 93.5
t20.5 77.5t36 67t56.5 46t80.5 28q20 1 81 9.5t94 8.5q146 0 196 -14q82 -21 122 -103q50 -101 73 -378q10 -120 10 -213v-41zM1880 350q-2 19 -4.5 74.5t-7 96.5t-12.5 88t-25 72.5t-41 25.5q-119 0 -119 -80q0 -4 1 -12t1 -11q0 -245 -31 -285q-8 -13 -8 -28
q0 -258 115 -258q27 0 47.5 10.5t33 31.5t21 43t13.5 56t7.5 58.5t4.5 62t4 55.5zM870 -141q-10 1 -27 1.5t-25 1.5t-17.5 3.5t-13 8t-3.5 15.5q0 26 13.5 78.5t15.5 75.5q16 169 78 457.5t74 361.5q20 128 81.5 428t88.5 486q2 17 5.5 52t6 57.5t10 52.5t19 47.5t32 30
t49.5 12.5q6 0 18.5 -1.5t18.5 -1.5q22 0 65 5.5t66 5.5q32 0 47 -7.5t15 -29.5q0 -97 -19 -211t-50.5 -254t-43.5 -211q-33 -184 -47 -261t-47.5 -226t-67.5 -261q-86 -229 -139 -651q-4 -19 -19 -32t-40.5 -19t-46 -8t-53.5 -3.5t-44 -2.5z" />
    <glyph glyph-name="ampersand" unicode="&#x26;" horiz-adv-x="1308" 
d="M924 735q30 -2 57.5 -0.5t51.5 -0.5t42.5 -6.5t30.5 -18.5t14 -37q1 -16 8 -78.5t7 -95.5q0 -25 -19 -36.5t-42.5 -13t-42.5 -13.5t-19 -38q0 -93 59 -152.5t135 -62.5h25q21 0 34 -10.5t13 -28.5q0 -11 0.5 -33.5t0.5 -33t-1 -29.5t-4 -28.5t-7.5 -23t-13 -20.5
t-19.5 -14.5t-27 -10.5t-36 -3h-16h-6q-117 0 -215 102q-14 14 -27 14q-31 0 -118 -42t-95 -44q-11 -2 -44.5 -8.5t-49.5 -9t-43 -7t-49.5 -6t-44.5 -1.5q-89 0 -157 33t-120 105.5t-80 194t-32 291.5q-1 34 -6 119t-5 131q0 85 28 123.5t118 83.5q12 6 12 16q0 5 -5 13
t-9 8q-59 37 -93 98.5t-43.5 121t-9.5 140.5q0 73 0.5 110t4 103.5t11 105.5t22 93.5t35 91t52.5 74t74 65.5q46 27 126.5 42.5t133.5 15.5q113 0 198.5 -42t139.5 -119.5t80.5 -182.5t26.5 -236q0 -23 -7 -40.5t-21.5 -27.5t-29 -16t-37.5 -7.5t-38 -2t-40 0.5t-34 1
q-22 0 -33 10.5t-14 34.5t-3 51t-2.5 73t-9.5 87q-9 51 -50.5 82t-96.5 31q-49 0 -84 -18t-54.5 -46.5t-31 -77.5t-14.5 -97.5t-3 -119.5v-48t2.5 -47t6.5 -48t12.5 -40t21 -35.5t32 -20.5t44.5 -9q9 0 27 1.5t27 1.5h12q25 0 35.5 -1t23.5 -7.5t19 -21.5t10 -42
q10 -175 10 -209q0 -33 -43 -33q-8 0 -24 2t-23 2q-38 0 -65 -2.5t-49.5 -12.5t-36.5 -21t-24.5 -35.5t-16 -48t-9 -68t-4 -85t-0.5 -108.5q0 -55 10.5 -102.5t33 -88t63 -64t94.5 -23.5q65 0 96.5 13.5t47.5 57.5t16 134q0 29 -50.5 35.5t-104 10t-58.5 25.5
q-22 88 -19 125q1 19 22.5 33.5t58 23.5t76.5 15t89 8.5t83.5 3.5t72 1.5t43.5 0.5z" />
    <glyph glyph-name="quotesingle" unicode="'" horiz-adv-x="407" 
d="M338 1634q0 -36 1 -106.5t1 -106.5q0 -44 -12.5 -62t-53.5 -18q-7 0 -20.5 1t-20.5 1q-19 0 -56 -4t-56 -4q-11 0 -19.5 5.5t-13.5 17t-8 22.5t-4 29t-1 29.5t0.5 31.5t0.5 27v45q0 14 -3 40t-3 40q0 18 3 56t3 57q0 37 -8.5 114.5t-8.5 114.5q0 72 66 72q12 0 42 0.5
t41.5 0t34 -2t32.5 -5.5t23.5 -11t20.5 -18.5t11 -27.5q0 -4 -1 -13t-1 -13q0 -21 5 -61.5t5 -59.5v-51v-140z" />
    <glyph glyph-name="parenleft" unicode="(" horiz-adv-x="634" 
d="M55 664q4 50 4 75q0 20 -2 59t-2 56q6 108 14 306t17 359.5t23 305.5q2 17 6.5 55.5t7 56.5t9.5 52t15.5 52.5t23.5 45.5t34 44t47.5 35.5t64.5 31.5q76 26 127 26q30 0 49 -1.5t44.5 -7.5t39 -21.5t13.5 -39.5q0 -7 0.5 -34.5t0 -41.5t-1.5 -39.5t-4 -40t-7.5 -30.5
t-12 -23.5t-18.5 -7.5q-9 0 -92 5q-116 0 -113 -427v-18v-47q0 -22 -1 -62.5t-1 -60.5v-80v-117v-55q0 -90 -7 -269.5t-7 -268.5q5 -70 13.5 -237.5t16.5 -256.5q2 -33 12.5 -55.5t23.5 -35t39.5 -20.5t48 -10.5t61.5 -5.5q28 -3 40.5 -15t12.5 -38q0 -16 1 -44.5t0.5 -41
t-2.5 -33.5t-8 -30t-17 -21.5t-28 -17.5t-42.5 -9t-59.5 -4q-285 0 -319 193q-5 28 -21.5 81.5t-19.5 83.5q-19 204 -23 504q0 24 1 70t1 70h-2z" />
    <glyph glyph-name="parenright" unicode=")" horiz-adv-x="636" 
d="M326 782q0 27 -1 109.5t-1 128.5q0 22 2 64t2 63q0 59 -3.5 125.5t-10 150t-9.5 125.5q-1 9 -2 28q-11 173 -33 239q-39 118 -145 118q-3 0 -8 -1t-8 -1q-17 0 -30 12t-20 34.5t-12 46t-6 54.5t-1 51t0.5 45t0.5 28q0 24 41 37.5t84 13.5q108 0 179.5 -16.5t123 -58.5
t75 -115.5t23.5 -184.5v-23q0 -27 3 -81t3 -82q0 -8 -1 -23.5t-1 -23.5q0 -27 5.5 -85t5.5 -87q0 -112 -10.5 -333t-10.5 -329q0 -51 5 -156t5 -157q0 -171 -38.5 -388.5t-83.5 -289.5q-41 -67 -124.5 -98t-181.5 -31q-20 0 -33.5 10.5t-19.5 25.5t-8 39t-1.5 43.5t2 48
t1.5 42.5q0 20 15 33t38.5 19.5t50.5 21t51 34.5t41 63t19 103q17 448 27 608z" />
    <glyph glyph-name="asterisk" unicode="*" horiz-adv-x="909" 
d="M463 1978q10 -1 26.5 -2t25.5 -1.5t20.5 -3t18 -7t11.5 -13t6 -20.5q1 -17 8 -81.5t7 -98.5q0 -7 -1 -21t-1 -20q0 -45 23 -57.5t77 -12.5q16 0 54.5 4.5t56.5 4.5q48 -4 62.5 -46.5t14.5 -132.5q-2 -22 -29.5 -32t-59.5 -10.5t-58.5 -6t-26.5 -20.5q0 -22 18 -65.5
t44 -97t35 -77.5q4 -13 26.5 -65t22.5 -72q0 -16 -25.5 -27t-61.5 -15.5t-61 -6.5t-39 -2q-32 0 -56.5 53t-36.5 116t-28.5 116t-33.5 53q-10 0 -85 -242l-9 -29q-13 -33 -120 -32h-9h-11q-22 0 -33 0.5t-27 2.5t-23 8.5t-7 16.5q0 49 46 173.5t46 160.5q0 23 -24 23
q-31 0 -89.5 -4.5t-86.5 -4.5q-24 0 -35.5 9.5t-11.5 33.5q0 11 -1 32q-1 66 12 89q27 44 151 54q52 4 128 4q25 8 25 59q0 18 -1 55.5t-1 57.5q0 8 -0.5 28.5t-0.5 34t1 33.5t4 33.5t8 27.5t14 22.5t21 10.5q13 3 40 5t40 5z" />
    <glyph glyph-name="plus" unicode="+" horiz-adv-x="958" 
d="M930 891q0 -11 1.5 -41.5t1 -47.5t-4.5 -38t-16 -31t-33 -10q-11 0 -42.5 1.5t-54 1t-48.5 -2.5t-40 -10t-14 -21v-61q0 -30 6 -88t6 -86q0 -57 -12 -71.5t-62 -14.5q-6 0 -18 1t-18 1q-29 0 -86 -9.5t-84 -9.5q-37 0 -37 33q1 36 4.5 139.5t3.5 159.5q0 26 -39.5 40.5
t-104.5 15.5t-94 0t-61 -3h-2q-35 0 -50.5 9t-15.5 34q0 30 7.5 89t7.5 87v46q0 27 29 42t61 15q38 0 113 -8.5t114 -8.5q16 0 26.5 7t16 16t8 26.5t2 29t-1 33t-0.5 30.5q0 22 -2 45.5t-5.5 52t-4.5 45.5q0 21 23.5 35t61 19.5t66.5 7.5t58 2q34 0 44.5 -18t10.5 -62
q0 -262 58 -266q50 -5 59 -5q20 0 60 3.5t61 3.5q11 0 19 -3.5t12.5 -11.5t7 -16.5t3 -24.5t0.5 -28t-0.5 -35.5t-0.5 -38.5z" />
    <glyph glyph-name="comma" unicode="," horiz-adv-x="518" 
d="M209 297q13 -1 37 -2.5t43.5 -2.5t36.5 -1q14 0 36 3t33 3q17 0 30 -12t20 -37t11.5 -45.5t6 -57.5t2 -51t0.5 -47q0 -62 -6.5 -113t-25.5 -102.5t-49.5 -86.5t-82.5 -57t-121 -22q-71 0 -88.5 27t-17.5 112q0 57 12 73.5t60 35.5q10 4 16 6q13 5 25 18t12 27
q0 24 -20 32.5t-43.5 8t-43.5 15.5t-20 53q0 28 -5.5 87t-5.5 89t9 41.5t36 11.5q16 0 50 -4t51 -4z" />
    <glyph glyph-name="hyphen" unicode="-" horiz-adv-x="935" 
d="M299 1044q41 0 125 5.5t131 5.5q29 0 96 -6t101 -5q8 0 24.5 1.5t24.5 1.5q34 0 50.5 -12.5t16.5 -45.5q0 -28 -7.5 -81.5t-8.5 -69.5q0 -9 1 -27t1 -27q0 -16 -11.5 -27t-32.5 -17.5t-44.5 -10t-53 -4t-51.5 -0.5t-48 1t-35 1q-18 2 -56 2q-20 0 -57 -2t-57 -2
q-15 0 -44 3t-42 3q-7 0 -23 -1t-23 -1q-16 0 -43 -0.5t-41 -1t-35 1t-32 5t-24 10.5t-19.5 17.5t-11 27t-4.5 38.5q10 137 10 166v8q0 19 16.5 30t46 14t55.5 3t60.5 -2t44.5 -2z" />
    <glyph glyph-name="period" unicode="." horiz-adv-x="436" 
d="M369 162q-1 -18 -1.5 -43t-1 -36.5t-4 -27.5t-11.5 -23t-22 -15.5t-37.5 -11.5t-57 -5t-80.5 -2q-33 0 -52.5 13t-27.5 51.5t-9.5 69.5t-1.5 104v32q0 33 13 48.5t47 15.5q23 -2 65 -2.5t68 -2t54.5 -7.5t42.5 -20.5t14 -37.5q0 -8 1.5 -42t0.5 -58z" />
    <glyph glyph-name="slash" unicode="/" horiz-adv-x="743" 
d="M106 -141q-10 1 -27 1.5t-25 1.5t-17.5 3.5t-13 8t-3.5 15.5q0 26 13.5 78.5t15.5 75.5q16 169 78 457.5t74 361.5q20 128 81.5 428t88.5 486q2 17 5.5 52t6 57.5t10.5 52.5t19.5 47.5t32 30t49.5 12.5q6 0 18 -1.5t18 -1.5q22 0 66 5.5t66 5.5q32 0 46.5 -7.5
t14.5 -29.5q0 -97 -19 -211t-50.5 -254t-43.5 -211q-1 -8 -14 -79.5t-15.5 -87t-14.5 -79.5t-17 -88t-16 -80t-19 -88.5t-19.5 -79.5t-22.5 -87t-23 -79q-87 -233 -140 -651q-4 -19 -19 -32t-40.5 -19t-46 -8t-53.5 -3.5t-44 -2.5z" />
    <glyph glyph-name="zero" unicode="0" horiz-adv-x="1021" 
d="M940 1409q0 -48 4 -133.5t4 -126.5q0 -15 -1 -46t-1 -46q0 -99 7 -280.5t8 -235.5q0 -34 2 -100q0 -55 1.5 -106.5t-7 -98.5t-23.5 -87t-49 -72.5t-83 -55.5t-124.5 -35.5t-175.5 -12.5q-67 7 -102 12.5t-81 21t-68 37t-51.5 63.5t-44 98t-32.5 142.5t-30 193.5t-25 256
q-11 124 -11 307q0 306 52 811q4 39 16.5 71t30.5 55t41.5 41.5t50.5 30t57 20t61 11.5t62.5 6t61 2t57.5 0h26q43 0 78 -3.5t64.5 -13.5t52 -21.5t41.5 -34t32.5 -43t26 -57t20.5 -68t16 -84.5t14 -97t14 -114q0 -41 4 -118t4 -89zM649 1309q-1 27 -2 80.5t-2 99t-4 101.5
t-9.5 99t-16.5 81t-27.5 58.5t-40.5 20.5q-44 0 -77 -14.5t-52 -39t-32 -58t-16.5 -71t-6 -77t-1 -78t-0.5 -73.5q-2 -47 -2 -142q0 -18 -0.5 -76.5t-0.5 -88.5t3.5 -76t10.5 -80q6 -74 6.5 -195.5t6.5 -225.5t26 -194q12 -67 77 -67q46 0 77.5 11.5t49 29.5t27 53t12 68.5
t2.5 89.5q0 126 -4 382t-4 382z" />
    <glyph glyph-name="one" unicode="1" horiz-adv-x="622" 
d="M25 1937q0 11 -1 35t-1 35q0 58 17 74t93 16q39 0 63.5 -0.5t72 -3t79.5 -8.5t66.5 -15.5t53.5 -27t21 -39.5q41 -389 41 -602v-72q0 -70 15.5 -217t15.5 -219q-2 -18 -2 -55q0 -19 1 -59.5t1 -61.5q0 -78 -2 -232.5t-2 -232.5q0 -30 2 -91.5t2 -92.5q0 -74 -25 -100.5
t-90 -26.5q-9 0 -26.5 1t-26.5 1q-17 0 -49 -1t-49 -1q-14 0 -24.5 13.5t-16 38t-9 52t-3.5 62v61t1 57t1 41.5v74q0 42 -2 128t-2 128q6 62 6 123q0 25 -1 75t-1 76q8 320 8 478q0 26 -2 76t-2 75q0 13 1 42t1 44v25v31t-0.5 31.5t-1.5 33.5t-3 31t-5 29t-7.5 21.5
t-11 15.5t-14.5 5q-26 0 -79.5 -5t-76.5 -5q-11 0 -17.5 8t-8.5 24.5t-2 31t1 39t1 36.5z" />
    <glyph glyph-name="two" unicode="2" horiz-adv-x="1026" 
d="M375 -27q-21 0 -52 -1t-47.5 -1.5t-40.5 1t-36.5 7t-29.5 16t-25.5 27.5t-18.5 42.5t-14.5 60.5t-7.5 82t-3 106q-6 141 -6 142q0 8 2 24.5t2 24.5q0 14 -1 40t-1 40q0 59 2 102.5t10.5 99.5t23 96.5t41.5 83t64 71t92.5 49t125.5 26.5q30 8 48 13t48 15t49 20.5t39 24.5
t29.5 32t9.5 38q-10 257 -26 362q-8 52 -19 97q-13 53 -40.5 66.5t-105.5 13.5q-50 0 -80 -8t-45 -29t-19.5 -45t-4.5 -67q0 -23 5 -70t5 -72q0 -13 -4.5 -22.5t-15.5 -14.5t-19 -8.5t-26.5 -4.5t-25 -1h-26.5q-32 0 -51 1.5t-40 7t-32 17t-22 29.5t-16 46.5t-8 67t-3 91.5
q0 57 6 100t22 88.5t47.5 77.5t79.5 58.5t122 39.5t170 13q230 0 345.5 -105t115.5 -342q0 -21 -2 -59.5t-2 -58.5v-58q-1 -28 -2.5 -81.5t-3 -86t-4.5 -83t-9 -83t-15 -73.5t-23 -68t-33.5 -52.5t-46.5 -40.5t-60 -21q-25 -5 -68 -12t-72 -11.5t-69 -14.5t-66.5 -21.5
t-56 -31t-46.5 -44.5t-28.5 -61t-11.5 -81q0 -92 29.5 -224t66.5 -132q36 0 106 15t105 15h37q36 0 105.5 9.5t105.5 9.5q20 0 34 -33.5t20.5 -80t9 -78t2.5 -44.5q0 -75 -361 -75h-20q-16 0 -49.5 -4.5t-49.5 -4.5q-13 0 -36.5 1t-34.5 1q-29 0 -43 -2z" />
    <glyph glyph-name="three" unicode="3" horiz-adv-x="1058" 
d="M938 1565q-1 -28 -1.5 -91.5t-1 -98.5t-4.5 -89.5t-11.5 -89t-21.5 -70.5t-34 -59q-26 -26 -26 -39q0 -7 22.5 -26t50.5 -42t53 -61t29 -78q11 -242 11 -260q0 -106 -7 -189.5t-26 -170t-59 -142.5t-99 -73q-133 -37 -219 -37q-85 0 -150.5 7.5t-129 29.5t-107.5 58.5
t-76 97t-45 143.5q-25 171 -25 245q0 20 16.5 32.5t56 17.5t64 5.5t78.5 0.5h29q26 0 32.5 -17t6.5 -59v-25q0 -37 0.5 -57.5t2 -50t5 -45t10 -37t16.5 -32.5t24.5 -23.5t33.5 -18.5t44.5 -10t56.5 -4q194 0 194 188q0 75 -5.5 153t-18 165t-39.5 141.5t-64 54.5
q-26 0 -77 -4t-74 -4q-26 0 -36.5 15.5t-10.5 46.5q0 18 -1 47.5t-1 44t2 36.5t8.5 33t18 24t31.5 20t48 10q88 9 131 51t43 123q-1 20 -2 65.5t-2 78t-4.5 78t-10.5 77.5t-17.5 63.5t-28.5 49.5t-41 22q-7 1 -38 8t-46 6q-52 0 -86.5 -19.5t-51 -57.5t-22.5 -77.5t-6 -95.5
q0 -12 1 -36t1 -37q-2 -9 -6 -28t-5.5 -22.5t-8 -11.5t-16 -9t-26.5 -1q-11 0 -45 1.5t-53 0.5q-12 0 -34.5 -3t-33.5 -3q-51 4 -51 49q0 18 7.5 51.5t7.5 50.5v37q0 63 2 107t10 98.5t22.5 91.5t41 75t63.5 60.5t92.5 37t126.5 14.5q62 0 121 -6.5t126 -25.5t117.5 -49
t87.5 -81.5t44 -118.5q1 -15 8.5 -74t7.5 -88v-65z" />
    <glyph glyph-name="four" unicode="4" horiz-adv-x="1062" 
d="M471 741q8 0 24 -0.5t22.5 0t18 1t16.5 3t11 7t8 11.5t2 17q0 125 -22 174v7q0 40 95 37l16 -1h16q20 0 59 7.5t58 7.5q35 0 47.5 -45t8.5 -98.5t-0.5 -98.5t23.5 -45q16 0 57.5 6t59.5 6q30 0 40.5 -13t10.5 -46q0 -4 -1 -12.5t-1 -12.5q0 -17 2 -49t2 -49
q-2 -19 -9.5 -31.5t-22.5 -17t-27 -6t-34 -1.5t-31 -1h-17q-39 0 -39 -41q0 -64 1 -191.5t1 -189.5q0 -26 -0.5 -38t-3.5 -30.5t-9 -27t-17.5 -15.5t-28.5 -8q-24 -2 -92 -13t-103 -10q-19 0 -26.5 10t-7.5 31q0 73 3 229t3 228q0 21 -4.5 34t-9.5 20t-22 10t-27 3.5
t-40 0.5q-53 0 -164.5 -11.5t-166.5 -11.5h-10q-23 0 -36.5 0.5t-33.5 3.5t-29.5 12t-9.5 23q0 6 2 10q11 32 14.5 93t5.5 73q17 135 25 193t30 166t48 188q13 33 21.5 75.5t17.5 106.5t12 82q5 26 14.5 83t17.5 102.5t19 104.5t23 103t26 83.5t30.5 61t33.5 21.5
q8 0 36.5 0.5t44 0t42.5 -1.5t42.5 -4.5t32.5 -9.5t25 -16t8 -24q0 -88 -22 -211.5t-51.5 -247.5t-32.5 -139q-15 -83 -66.5 -300.5t-67.5 -336.5q0 -17 27 -24t54.5 -6.5t27.5 -0.5z" />
    <glyph glyph-name="five" unicode="5" horiz-adv-x="1007" 
d="M219 563q11 0 36 1.5t39.5 1t32 -3t27 -11t11.5 -23.5q0 -12 -2.5 -40.5t-2.5 -43.5q0 -262 111 -262q116 0 177 80.5t61 226.5q0 52 -1.5 90t-7.5 82.5t-16 76t-28 63t-43.5 50.5t-62 30.5t-83.5 11.5q-143 0 -346 -39q-22 0 -32 8t-11.5 17t-1.5 29v7q30 345 30 566
q0 11 -1 33t-1 34q0 11 1 32.5t1 33.5q0 27 -2 76.5t-2 74.5q0 12 1 37t1 39q0 10 -1 32t-1 32q0 25 6 44.5t15 31.5t25 20.5t29 13t36 6t36.5 1.5t38.5 -0.5t36 -0.5q60 0 180 -9t176 -9q57 -15 57 -199q-4 -28 -17 -35.5t-48 -7.5q-55 8 -121 8q-8 0 -43 1t-49.5 0
t-37.5 -5t-32.5 -15t-9.5 -28q10 -84 10 -249q0 -27 -5 -77t-5 -75v-20.5v-24.5t0.5 -24t1.5 -24.5t2.5 -22.5t5 -20.5t7.5 -15t10 -11t14 -3.5q15 0 47 4t49 4q451 0 451 -375q0 -76 -1 -132.5t-4.5 -129.5t-10 -127t-18 -116.5t-28 -107.5t-41 -89.5t-55 -73t-72 -48
t-90.5 -23.5q-165 -15 -203 -15q-80 0 -145 26.5t-109 72t-74 110t-43.5 138t-13.5 157.5q0 21 0.5 31t1.5 29.5t5 29.5t10.5 22.5t18 17.5t26.5 5q17 0 49 -1t49 -1z" />
    <glyph glyph-name="six" unicode="6" 
d="M369 989q25 13 51.5 32.5t42.5 31.5t51 21t86 9q96 0 175.5 -41.5t130 -111.5t77.5 -157.5t27 -182.5v-17q0 -96 -1.5 -151t-12.5 -150.5t-32.5 -153.5t-65.5 -114t-107 -78q-113 -41 -254 -41q-54 0 -77 0.5t-77 5t-89 17t-56 33.5q-86 74 -119 156.5t-41 232.5
q0 44 2 131t2 131q0 21 -2 64t-2 67q2 18 2 55q0 83 -10.5 235.5t-10.5 219.5q0 90 3 165t11.5 162t26.5 154t44 125.5t67 93t94 41.5q28 4 87 13.5t104.5 14.5t87.5 5q101 0 173 -23t125.5 -77.5t80 -150t26.5 -234.5v-13q0 -37 -1 -56.5t-6 -45.5t-18 -37.5t-34 -11.5h-22
h-47.5t-46 1.5t-46.5 5.5t-36 10.5t-27.5 18.5t-8.5 27q0 19 1 58t1.5 63t-1.5 59.5t-7 58t-15 48.5t-25.5 41t-39.5 25t-55 10q-112 -3 -161.5 -76t-49.5 -209q0 -345 10 -473q0 -24 15 -37zM702 541v14q0 256 -141 256q-54 0 -76.5 -11t-50.5 -46q-4 -7 -16.5 -28.5
t-15 -29.5t-8.5 -32.5t-7.5 -58t-1.5 -85.5q0 -72 8.5 -128.5t29.5 -105.5t61 -75.5t98 -26.5q25 0 44.5 10t32 25t21.5 40.5t13 49t6 57.5t2 58.5v60.5t1 56z" />
    <glyph glyph-name="seven" unicode="7" horiz-adv-x="952" 
d="M457 2068q32 -3 95 -3t115 -1t105 -5.5t84 -20t33 -41.5q1 -7 5.5 -69t16.5 -91q7 -21 7 -37q0 -40 -24 -131t-28 -117q-105 -603 -176 -952q-43 -212 -94 -573q0 -31 -24.5 -51t-65 -26.5t-77 -8.5t-76.5 -0.5t-48 0.5q-20 -4 -33 -4q-25 0 -33 9.5t-8 35.5
q9 57 34 174.5t34 179.5q17 33 25 81.5t13.5 115.5t8.5 90q23 171 62.5 362t93 415t76.5 335q2 10 2 37q-1 8 -8 14.5t-18.5 10t-24 5.5t-27.5 2.5t-25.5 0.5t-21.5 -0.5t-13 -0.5q-25 0 -37.5 -0.5t-29 -4.5t-25 -11.5t-15.5 -21.5t-11 -35q-1 -23 -2 -58t-1.5 -59
t-2.5 -53t-7 -48.5t-14 -36.5t-24.5 -25.5t-36.5 -8.5q-20 0 -59 -2t-58 -2q-40 0 -56 15t-16 48q0 10 1 32t1 34q0 17 -1 52t-1 54q0 39 6 117t6 117q0 13 -6 37.5t-6 35.5q0 55 410 88z" />
    <glyph glyph-name="eight" unicode="8" horiz-adv-x="1077" 
d="M934 1288v-18q0 -142 -47 -189q-15 -23 -15 -26q0 -2 25.5 -20t55 -48t38.5 -61q33 -210 33 -377q0 -56 -1.5 -97.5t-7 -94t-15.5 -91t-27.5 -82t-42.5 -74.5t-61.5 -61t-82.5 -48t-107.5 -29t-135.5 -11q-98 0 -177.5 17t-144.5 54.5t-103.5 103t-43.5 155.5
q-1 13 -8.5 83t-6.5 107q1 23 5 89.5t4 103.5v33q0 72 3.5 119t24 107.5t58.5 96.5q10 10 10 25t-25 97.5t-26 127.5q-2 60 -11.5 214.5t-9.5 227.5q0 82 16.5 142.5t58 111t119 76t191.5 25.5q87 0 148 -12t116.5 -45.5t90 -93t57 -156.5t29.5 -234q4 -88 16 -248zM762 477
q-1 17 -3 59.5t-3.5 68t-5.5 68t-9.5 70t-14 62.5t-21.5 57.5t-30 43t-40.5 30.5t-52.5 10q-118 -4 -159.5 -58t-41.5 -188q4 -116 33 -366q6 -49 45.5 -75t89.5 -26q105 0 155 63.5t58 180.5zM639 1427q-1 24 -2 72.5t-1.5 83t-6.5 78t-17.5 70.5t-34 46t-55.5 19
q-31 0 -54.5 -9.5t-38.5 -23.5t-25 -37.5t-14.5 -44.5t-6 -53t-1 -54t1.5 -55.5t1 -50.5q0 -346 115 -346q29 0 51.5 9.5t37 22t24.5 38t15 45t7.5 56.5t3 58t0.5 64v12z" />
    <glyph glyph-name="nine" unicode="9" horiz-adv-x="1001" 
d="M954 1362q0 -168 -15.5 -304.5t-59.5 -284.5t-78 -237t-114 -284q-24 -58 -36 -88q-9 -20 -22.5 -55.5t-20.5 -51t-23 -38.5t-34 -33t-48 -17.5t-71 -7.5q-8 0 -23.5 1t-23.5 1q-5 0 -15 -1t-14 -1q-23 0 -44 14t-21 35q0 29 15 76t31 82.5t45 97t38 80.5
q159 358 201 473q10 23 10 35q0 16 -19 16q-27 0 -86.5 -11t-89.5 -11q-109 0 -179 23.5t-120.5 85.5t-72 171t-21.5 279v47v105t3 96t9 93t18 81t29.5 75.5t44 60t61.5 52t82 34t105 22.5q4 0 14 1t15 1q79 0 139.5 -3t111 -10t87 -17.5t65.5 -27t48 -36.5t32.5 -48.5
t20.5 -61t11.5 -74.5t6 -89t3.5 -106q1 -41 1.5 -64.5t2 -63.5t3.5 -75q0 -32 -2 -37zM672 1509q-1 17 -1.5 56t-1.5 62t-5.5 58t-15 56t-27.5 42.5t-45 31.5t-66 10q-82 0 -125 -50.5t-43 -148.5q0 -64 2.5 -123t11 -131.5t22.5 -124.5t39.5 -87.5t59.5 -35.5q33 0 60 6
t46.5 14.5t34.5 25.5t25 32t16 41t9 45t4.5 51.5t1 53.5t-1 58t-0.5 58z" />
    <glyph glyph-name="colon" unicode=":" horiz-adv-x="432" 
d="M66 1083q0 15 -1.5 43t-1.5 41q0 58 213 58q39 0 57.5 -13.5t18.5 -52.5q0 -5 -1 -16t-1 -17q0 -36 12.5 -112.5t12.5 -112.5q-2 -11 -8 -18.5t-12.5 -11t-19 -5.5t-19 -2.5t-22.5 0t-20 0.5h-40t-42 1.5t-45.5 5t-35.5 9t-28 15.5t-9 23q0 28 -5.5 83t-5.5 82h3z
M369 459q-1 -18 -1.5 -43t-1 -36.5t-4 -27.5t-11.5 -23t-22 -15.5t-37.5 -11.5t-57 -5t-80.5 -2q-33 0 -52.5 13t-27.5 51.5t-9.5 69.5t-1.5 104v32q0 33 13 48.5t47 15.5q23 -2 65 -2.5t68 -2t54.5 -7.5t42.5 -20.5t14 -37.5q0 -8 1.5 -42t0.5 -58z" />
    <glyph glyph-name="semicolon" unicode=";" horiz-adv-x="522" 
d="M221 631q13 -1 37 -2.5t43.5 -2.5t36.5 -1q14 0 36.5 3t33.5 3q17 0 29.5 -11.5t19.5 -34t11.5 -43.5t6 -54.5t2 -50.5t0.5 -47v-9q0 -62 -6.5 -113t-25 -102.5t-49.5 -86.5t-82.5 -57t-120.5 -22q-71 0 -89 27t-18 112q0 57 12 73.5t60 35.5q5 2 8.5 3t7.5 3q13 5 25 18
t12 27q0 24 -20 32.5t-43.5 8t-43.5 15.5t-20 53q0 28 -5 87t-5 89t9 41.5t36 11.5q17 0 50 -4t50 -4zM406 1044q-1 -13 -1 -37t-1 -39.5t-2.5 -37t-5.5 -35t-11 -26.5t-18.5 -19t-26.5 -6q-16 0 -60 -2t-72 -1.5t-62 4t-52 17t-20 35.5q-17 204 -17 293q1 8 4 13.5t8.5 9
t10 5.5t13.5 2.5t13.5 0.5h15h13.5q21 0 63 -5.5t62 -5.5q13 0 42 2t44 2q41 0 49 -25.5t8 -120.5v-24h3z" />
    <glyph glyph-name="less" unicode="&#x3c;" horiz-adv-x="946" 
d="M623 2003q46 4 69 4q25 0 36 -8.5t11 -28.5q0 -42 -21 -106t-43.5 -112.5t-52 -107t-32.5 -65.5q-121 -264 -244 -504q-12 -21 -12 -41q0 -25 21 -68t63.5 -111t48.5 -79q35 -61 197 -321.5t237 -409.5q2 -6 2 -16q0 -18 -12.5 -29.5t-34.5 -11.5t-67 1t-68 1
q-13 0 -44 -6.5t-44 -6.5q-28 0 -58.5 26t-61.5 72.5t-55.5 90.5t-55 102t-46.5 84q-141 241 -319 635q-19 29 -19 49q0 19 20 56t50.5 87t44.5 78q44 88 165.5 329.5t186.5 375.5q19 43 68 43q4 0 11 -1t11 -1q7 0 23.5 1t24.5 1v-2z" />
    <glyph glyph-name="equal" unicode="=" horiz-adv-x="940" 
d="M674 1130q-187 11 -283 11q-21 0 -64 -1t-65 -1q-11 0 -36 -0.5t-39 -0.5t-36 1.5t-34.5 5.5t-25.5 11t-19 19t-6 29q3 24 4.5 58.5t2.5 55t6.5 45t15 37t28.5 21.5t47 9q36 0 107.5 4t107.5 4q27 0 83 -4t83 -4q133 0 248 14q63 0 63 -58q0 -12 1 -38t1.5 -47t0 -48
t-3.5 -47t-9 -38.5t-17 -28t-26 -9.5h-139h4zM305 965q41 0 125 5t131 5q28 0 95.5 -5.5t101.5 -4.5q8 0 24.5 1t24.5 1q34 0 50.5 -12.5t16.5 -45.5q0 -28 -7.5 -81.5t-8.5 -69.5q0 -9 1 -26.5t1 -26.5q0 -16 -11.5 -27.5t-32.5 -17.5t-44 -9.5t-53 -4.5t-52 -1t-48.5 1
t-34.5 1q-18 2 -56 2q-20 0 -57 -2t-57 -2q-15 0 -44 3t-42 3q-7 0 -22.5 -1t-22.5 -1q-16 0 -49 -1t-46.5 -0.5t-37.5 3t-34 8.5t-22.5 17t-17 29t-4.5 43q10 138 10 165v9q0 19 16.5 30t46 14t55.5 3t60.5 -2t44.5 -2z" />
    <glyph glyph-name="greater" unicode="&#x3e;" horiz-adv-x="929" 
d="M289 -61q-12 1 -40 1.5t-48.5 1.5t-43.5 4.5t-35.5 12t-12.5 21.5q0 17 72 164.5t93 185.5q50 80 122 244t114 237q27 45 50.5 106t23.5 95q0 30 -29 78t-70.5 101t-48.5 64q-44 56 -82 123t-80.5 151.5t-70.5 133.5q-24 40 -47.5 85.5t-55 108.5l-43.5 87q-4 6 -4 20
q0 26 54.5 36.5t115.5 10.5q34 0 64.5 -13t51 -31.5t41 -46.5t32 -50t26 -51t21.5 -41q15 -26 37.5 -71.5t42 -79t43.5 -60.5q38 -39 96.5 -150.5t85.5 -146.5q145 -239 145 -266q0 -54 -149 -340q-53 -99 -164 -335.5t-176 -348.5q-8 -14 -18.5 -22.5t-26.5 -11.5t-26 -4
t-31.5 0t-28.5 1v-4z" />
    <glyph glyph-name="question" unicode="?" horiz-adv-x="954" 
d="M305 467q-2 28 -8.5 94t-10 115.5t-3.5 95.5q0 51 1.5 82.5t11 79t26.5 78t51.5 58.5t83.5 40q22 7 56.5 15t52.5 13t41.5 17t34.5 28t19.5 44.5t8.5 68.5q0 52 -1 87t-5 87t-11.5 87t-22.5 74.5t-36 63t-52.5 39t-72.5 15.5q-7 0 -22.5 -1t-22.5 -1h-12
q-69 0 -103.5 -54.5t-34.5 -136.5q0 -21 5.5 -65.5t5.5 -67.5q0 -37 -47 -37q-17 1 -51.5 1.5t-58.5 2t-50 5.5t-39.5 15t-13.5 28q0 68 1.5 117.5t7 107t14.5 98t25 84t38.5 73t55 57.5t74 44t96 25.5t120.5 9.5q133 0 219 -37q97 -44 146.5 -96.5t74.5 -153t25 -276.5
q0 -26 -0.5 -51t-2.5 -54t-2.5 -48t-4 -52.5t-4.5 -46.5t-6 -52t-6 -48t-6.5 -54t-6.5 -51q-4 -30 -13 -52t-19.5 -36.5t-33 -29t-40.5 -24t-55 -27.5t-65 -34q-67 -37 -67 -124q0 -50 14 -149t14 -148q0 -13 -6 -23.5t-18.5 -17.5t-26 -12.5t-34.5 -8.5t-36.5 -5
t-40.5 -2.5t-38.5 -1t-38 0t-31.5 0.5q-8 1 -14.5 2.5t-11.5 3t-8.5 5.5t-6 7.5t-4 11t-2 12.5t-0.5 16v19v23.5v26.5h4zM629 29q0 -81 -9 -103q-15 -31 -53 -32q-22 1 -58.5 2.5t-55.5 2t-45 5t-40 12t-26 22.5t-16 37q-1 21 -7 71.5t-6 74.5q0 34 21 45.5t76 11.5
q9 0 33 0.5t38.5 0.5t38 -1t38.5 -4t30.5 -7.5t24 -12.5t10.5 -19q3 -18 5 -53.5t5 -52.5h-4z" />
    <glyph glyph-name="at" unicode="@" horiz-adv-x="1566" 
d="M299 936q-2 -47 0 -106.5t2.5 -119t13.5 -121.5t33.5 -115.5t62 -101t99.5 -77.5q112 -59 223.5 -79.5t278.5 -20.5q71 0 113 43.5t42 107.5q0 24 -2 68.5t-2 66.5q3 27 52.5 45.5t91.5 18.5q20 0 34.5 -29.5t21 -75.5t9 -84.5t2.5 -72.5q0 -76 -39 -133.5t-107 -91.5
t-153 -51t-184 -17q-210 0 -297 30q-23 6 -61 15t-62 15t-59 16.5t-58 20t-53 25.5t-50 34t-42.5 44t-37.5 56t-27 69.5t-19 85.5q-5 41 -24.5 133.5t-24.5 143.5q-15 317 -15 383q0 113 7.5 236.5t23 300t19.5 225.5q2 26 8 48t19 39t24.5 31t34 25.5t36 19.5t43 14.5
t43 10.5t47 8.5t44 5.5t45.5 5q243 29 313 30q19 -2 69.5 -5.5t71.5 -5.5t64 -6.5t70 -8.5t65.5 -10t74.5 -14.5t74 -18.5q54 -15 97 -61.5t69.5 -110.5t44.5 -132t26.5 -139.5t11.5 -117.5t3 -80q0 -94 -1.5 -151t-7 -157t-21.5 -165t-41 -91q-61 -63 -133.5 -86.5
t-194.5 -33.5q-23 0 -54 22.5t-40 22.5q-8 0 -23 -11q-36 -26 -85 -39t-84.5 -15.5t-94.5 -2.5q-72 0 -123 15t-91.5 52.5t-60.5 108t-20 174.5q0 159 16 224q33 141 163 167q34 7 73 7q6 0 18.5 -1t18.5 -1t18.5 1t18.5 1q73 0 123.5 -17t87 -57.5t61 -93.5t49.5 -138
q8 -26 10 -63t3.5 -61.5t11 -48.5t37 -36t76.5 -12q86 6 86 248v16q0 15 1 46.5t1 48.5q0 50 -1 83t-4.5 78t-11.5 75.5t-20.5 66.5t-32.5 60.5t-47 48t-65 39t-85 24.5q-13 2 -47.5 9t-52 10t-44.5 6t-48 3q-16 0 -46 -1t-46 -1h-29q-62 0 -102.5 -1.5t-84.5 -7t-70 -14.5
t-54.5 -27t-43 -40.5t-30.5 -59t-22.5 -78.5t-13 -103.5t-8 -130t-1.5 -160.5q0 -23 1 -78t1 -88zM846 1008q-2 16 -4 41.5t-3.5 39t-5 31.5t-9 27.5t-15 17.5t-23.5 9q-60 0 -84 -17.5t-24 -60.5q0 -27 0.5 -43.5t3.5 -42t9.5 -41t17.5 -31.5t29 -23.5t42 -7.5
q20 0 33.5 13t18 25t9 36t5.5 27z" />
    <glyph glyph-name="A" unicode="A" horiz-adv-x="1071" 
d="M82 492q-3 98 -9.5 313.5t-9.5 333.5q0 155 27 612q18 184 92 255t234 71q296 0 379 -66q11 -8 42 -31.5t45.5 -36t37 -34t35.5 -44t20 -48.5q7 -25 12 -50.5t9 -55.5t7 -50.5t4.5 -56.5t2.5 -52.5t1.5 -58t0.5 -53.5v-59.5v-55.5q0 -40 -5.5 -128.5t-5.5 -133.5
q0 -15 1.5 -42t1.5 -42q0 -57 1 -198.5t1 -220t-4 -193.5t-13 -207q0 -28 -11 -52t-34 -24q-20 0 -50.5 -1.5t-53.5 -2.5t-50 -1.5t-46.5 2.5t-36.5 9.5t-26 18.5t-9 30q0 19 1 56t1 55t1 51t1 56t-0.5 53t-4.5 50t-10.5 39t-18 28.5t-28.5 9.5q-34 0 -102 -1t-102 -1
q-3 0 -10.5 1t-10.5 1q-14 -1 -21.5 -6t-11 -16.5t-4 -21t-0.5 -29.5v-7q0 -239 41 -420v-17q0 -18 -14 -30t-43 -18t-51 -8.5t-61 -4t-50 -2.5q-25 0 -36.5 1.5t-23.5 9t-16 24t-4 45.5q-12 182 -12 455zM692 1161q-4 15 -4.5 41.5t1 66.5t1.5 56q0 91 -5 175.5t-26.5 177
t-58.5 104.5q-56 18 -100 18q-35 0 -61 -17t-41 -56.5t-24.5 -73.5t-13 -101.5t-4 -105t-0.5 -116.5v-34v-75q0 -57 -3 -177t-3 -184q0 -41 29 -41q25 0 72.5 6t70.5 6h17q13 0 35 -1q63 -1 80 10q28 19 34 107q4 54 4 214z" />
    <glyph glyph-name="B" unicode="B" horiz-adv-x="1064" 
d="M1004 1477q-1 -26 -3 -77t-3.5 -86.5t-5 -87t-9 -88.5t-15 -80t-22 -73.5t-31.5 -57t-43 -40.5q-26 -16 -26 -29q0 -6 27 -28.5t58 -59.5t40 -76q18 -95 18 -157q0 -17 -2 -52.5t-2 -52.5v-51q-2 -65 -15.5 -130t-41 -128.5t-76.5 -105.5t-113 -48q-55 -6 -108 -6
q-30 0 -91.5 3t-93.5 3q-15 0 -41.5 -1t-39.5 -1q-48 4 -89 1.5t-75 2.5t-58.5 18.5t-37.5 48.5t-13 93v43q0 39 -7 114.5t-7 112.5q0 19 2 59t2 60v142v45q0 73 -8 226t-8 222q0 127 13 394t13 397q0 77 80 102q64 20 260 20h46h61q57 0 123 -12t134.5 -37t118 -71
t60.5 -105q3 -18 9.5 -53.5t10 -56.5t6.5 -51.5t3 -57.5v-108v-39zM360 1354h-2q0 -37 2 -110.5t2 -110.5q0 -21 -2 -62t-2 -61q0 -39 31 -39h8q30 0 48 0.5t53.5 2.5t59 6.5t53.5 14t48 23t32 34.5t16 48q8 126 8 192v41q1 34 0 71t-1.5 74.5t-4.5 74.5t-10 70.5t-17 63
t-25 51.5t-35 36.5t-47 17.5q-29 4 -83 4h-23.5t-23 0.5t-21 0t-20 -1.5t-16.5 -2.5t-14.5 -5t-10.5 -7.5t-7 -10.5t-2 -14.5q0 -25 3 -74t3 -73v-84v-56v-114zM348 532q6 -258 6 -260q3 -29 17.5 -38t50.5 -9q77 0 125 7t88 28t58 62.5t18 107.5q0 117 -41 180.5t-148 63.5
q-12 0 -34.5 0.5t-31.5 0t-25.5 -1t-23 -3t-18 -7.5t-16 -12t-11 -17.5t-8.5 -25t-4 -33.5t-2 -43z" />
    <glyph glyph-name="C" unicode="C" horiz-adv-x="1058" 
d="M381 1475q0 -54 -3 -161.5t-3 -148.5q0 -40 14 -125.5t14 -130.5q0 -70 -7 -206.5t-7 -204.5q0 -37 2 -65.5t9.5 -64t21 -59.5t39.5 -41t61 -18q201 0 201 160q0 35 -16.5 114t-16.5 119q0 33 26.5 42t92.5 9h22h24.5t24 -0.5t25 -2t22 -4.5t20.5 -8t16 -11t12.5 -15.5
t5.5 -21.5q16 -128 16 -242q0 -71 -16.5 -139t-49.5 -128t-89.5 -98.5t-128.5 -43.5q-24 0 -76.5 -8.5t-79.5 -8.5h-10q-79 0 -116.5 2t-99 13.5t-90.5 36t-68 71.5t-56 117.5t-30 175.5t-13 244q2 18 2 53q0 18 -1 53t-1 53q0 15 2.5 53.5t1.5 59.5q-2 63 -6.5 173.5
t-7.5 198t-3 165.5v46q-3 43 -0.5 92.5t4.5 100.5t13 102t26.5 97.5t44.5 87t66.5 70t93.5 46.5t125 17q24 0 50.5 -2t47 -4t51 -7t46 -7.5t51 -9.5t47.5 -9q40 0 111.5 -46t95.5 -81q21 -34 35.5 -87t21 -93t10 -113t3.5 -93v-87q0 -18 -4.5 -32.5t-15 -24.5t-20.5 -17.5
t-28 -11.5t-31 -6.5t-35 -3.5t-35 -1t-36 0.5t-33 0.5q-9 1 -16 2.5t-12 5.5t-9 6.5t-6 10t-3.5 11t-2 14.5t-0.5 15.5v19v19.5q2 16 2 49q0 135 -16 187q-33 104 -150 104q-50 0 -81.5 -11t-49.5 -24.5t-27 -53.5t-10.5 -68t-3.5 -98q-1 -45 -2 -70h2z" />
    <glyph glyph-name="D" unicode="D" horiz-adv-x="1136" 
d="M1073 1176v-324q0 -59 -2.5 -118.5t-9.5 -154t-8 -118.5q0 -258 -134 -386t-417 -128h-39q-36 0 -108 -5t-109 -5q-46 0 -71 6.5t-43.5 23.5t-26 53t-12.5 90t-10 140q-2 38 -3 59q-8 129 -12 379v29q0 8 -1 24.5t-1 24.5q0 340 22 565q1 16 2 48t2 48q0 9 -1 29t-1 29
q0 164 16 504q3 28 28.5 47t58 28t78 13t77.5 3.5t68 -2t39 -1.5q118 0 218 -15.5t183 -47.5t134 -87t59 -129q15 -126 18 -250q0 -5 -1 -16t-1 -16q0 -187 8 -340zM557 1794q-91 -5 -114 -15q-38 -16 -49 -77q-9 -55 -9 -301v-78q0 -63 4 -186.5t4 -186.5q0 -19 -3 -58.5
t-3 -60.5q0 -24 6.5 -70.5t7.5 -66.5q9 -315 15 -418q0 -25 9.5 -32.5t35.5 -7.5q55 0 107.5 12t100.5 46.5t62 86.5q41 163 41 356q0 15 -1 43t-1 43q0 88 11.5 269.5t11.5 269.5q0 24 -4 76.5t-3 79.5v36q0 37 -4 70.5t-13.5 70t-31 60t-51.5 27.5z" />
    <glyph glyph-name="E" unicode="E" horiz-adv-x="811" 
d="M537 1784q-14 0 -39.5 1.5t-38 2t-30.5 -3.5t-26.5 -14t-15 -31t-6.5 -53q0 -14 3 -43t3 -44q0 -39 -9 -119.5t-9 -119.5q0 -37 32 -37q21 0 66 4t68 4q95 0 112 -3q42 -9 57 -53q15 -46 15 -185q0 -36 -37.5 -53t-91 -20t-106.5 -5t-90.5 -14t-37.5 -40q0 -39 4.5 -116
t4.5 -115v-133q0 -53 16 -155t16 -154q2 -14 12 -24t26 -15.5t33 -9t39 -4t37.5 -0.5t35 0.5t24.5 0.5q84 0 101 -5q40 -11 51 -64q6 -30 6 -82q0 -28 -1 -42t-4.5 -32.5t-12 -27t-23.5 -9.5q-13 0 -34 3t-32 3q-27 0 -83 -7t-85 -7q-22 0 -32 2q-39 0 -116 -8t-116 -8h-19
h-18t-15.5 0.5t-14.5 1t-12 2.5t-11 4.5t-8 6.5t-7 9t-4 12t-3 15q-1 17 -8 75.5t-7 88.5q2 14 2 45q0 21 -2 62t-2 61q0 24 2 73t2 74q0 21 -4 65t-4 66q0 14 1 37t1 35q0 196 -13 581t-13 574q0 15 1 46t1 46q0 13 -2.5 39t-2.5 39q0 22 27.5 38.5t71 24.5t84 11.5
t78.5 3.5q26 0 77 -5t76 -5q20 0 62.5 1t64.5 1h37h16q16 0 27.5 -7t18.5 -23.5t11 -30t5.5 -40.5t2 -41.5t0 -45.5t-0.5 -40q0 -22 -6.5 -36.5t-15 -21.5t-24.5 -10t-27 -3t-32 1t-30 1q-3 0 -49 4z" />
    <glyph glyph-name="F" unicode="F" horiz-adv-x="751" 
d="M362 1499v-74q0 -57 -5 -169t-5 -169q1 -21 1.5 -49t1 -41t3.5 -27t10.5 -19t20.5 -5q21 0 66.5 4t68.5 4q50 0 79 -2t53.5 -11.5t35.5 -22t18.5 -42.5t9 -62t1.5 -91q0 -73 -275 -88q-92 0 -92 -39q0 -90 12.5 -275t12.5 -276q0 -25 -11.5 -41.5t-28 -23.5t-43 -10
t-47.5 -2t-50.5 3t-44.5 2q-27 0 -40.5 4.5t-19.5 13t-7 29t-0.5 43.5t-1.5 66t-9 88q0 34 -3 100.5t-3 100.5q0 11 1 33.5t1 35.5q0 21 -1 61t-1 60q0 18 2 56t2 57q-4 46 -4 67q0 24 2 71t2 71q0 16 -1 45.5t-1 44.5q0 24 1 73t1 74q0 35 -3 101t-3 100q0 82 9 246t9 246
q1 12 2 34q0 23 1 33.5t4 28.5t8.5 26t16 20t26 17t38 12.5t52.5 10t69.5 4.5t89.5 2h33q32 0 96 6t96 6q20 0 36.5 -5.5t27.5 -15t19.5 -23t13 -29.5t7.5 -34t4 -37t1.5 -39t-0.5 -39v-23q0 -39 -47 -39q-39 0 -118 1t-118 1q-22 0 -37 -5.5t-24 -16.5t-13.5 -28t-6 -39.5
t-1.5 -51t0.5 -63t-0.5 -75.5z" />
    <glyph glyph-name="G" unicode="G" horiz-adv-x="1067" 
d="M713 870q13 0 70.5 3.5t88.5 3.5q37 0 59.5 -18t31 -50t11.5 -63.5t5 -70t6 -57.5q10 -92 10 -163q0 -19 0.5 -56.5t0.5 -58t-1 -54t-4 -54.5t-8.5 -50.5t-15 -50t-22.5 -43.5t-31.5 -42t-41.5 -36q-10 -6 -45.5 -25t-51 -27t-48 -22.5t-56 -21.5t-55.5 -12.5t-63 -5.5
q-69 0 -103.5 1.5t-86 9.5t-77.5 24.5t-60 47.5t-53 77.5t-37.5 115t-31.5 160.5q-10 68 -10 123v22q0 171 -14 443.5t-14 355.5q0 5 1 14.5t1 14.5q0 12 -3.5 33.5t-3.5 31.5q0 45 12 132t13 128q2 93 20.5 159.5t60.5 120.5t115.5 87.5t182.5 50.5q16 5 41 6t62 -0.5
t48 -1.5q396 0 396 -524q0 -34 -20.5 -48t-67.5 -14q-12 0 -37 1t-37 1h-76q-46 0 -63 11.5t-25 58t-8 162.5q0 41 -33 70.5t-76 29.5q-62 0 -96.5 -8t-59.5 -36t-33.5 -77t-8.5 -135q0 -107 7 -328.5t7 -332.5q0 -29 -3 -86t-3 -84q0 -30 -1 -81.5t-1 -84.5t0.5 -80
t4.5 -77.5t11 -67.5t20 -60t31 -44t44 -30.5t59 -9.5q67 0 101.5 19.5t51.5 73.5t17 159v23q0 79 -9 95q-10 17 -55 25q-7 1 -25 4q-61 9 -106 19q-31 6 -40 32t-11 76.5t-12 81.5q-2 6 -2 19q0 72 168 73q72 0 88 -6v-2z" />
    <glyph glyph-name="H" unicode="H" 
d="M358 913q12 -12 31 -12q23 0 68.5 6t68.5 6h11q141 0 141 72q0 23 -2 70t-2 71q0 18 2 53t2 52v47q0 40 7 122t7 124q0 70 1 211t1 211v10q0 17 7 29t22.5 19t30 11t40 5.5t42 1.5t46 -0.5t42.5 -0.5q29 0 47.5 -54.5t24.5 -136.5t8 -160t1 -142.5t-1 -65.5
q0 -571 -21 -901q-2 -25 -2 -72v-71q0 -26 -2 -80t-2 -80v-111q0 -90 -7 -110q-11 -34 -60 -48q-38 -10 -156 -24q-31 0 -41 10t-17 50q-2 58 -6 172.5t-6 171.5q0 17 1 49t1 49q0 9 0.5 29.5t0.5 29t-1.5 24.5t-5 23t-9.5 17t-15.5 14.5t-23.5 8t-32 3.5q-17 -1 -45.5 -1
t-48 -0.5t-44.5 -2t-41.5 -5.5t-32 -11t-23 -19t-7.5 -28q0 -7 1 -20.5t1 -20.5v-57q0 -35 6.5 -105.5t6.5 -105.5q0 -11 1 -34.5t1 -35.5t-3 -30t-8.5 -27.5t-17.5 -18t-29 -10.5q-21 -3 -94.5 -24t-109.5 -21q-13 0 -22.5 12t-15 33.5t-8.5 44.5t-4 52t-1 48.5t0.5 41.5
t0.5 24q0 56 7.5 164.5t7.5 163.5q0 27 -2 85t-2 87q0 17 2 49t2 49q0 13 -1 40t-1 40q0 37 1 110.5t1 110.5v133q0 29 -3 117t-3.5 159t2.5 150.5t16.5 128.5t36.5 57q55 17 115 17h6q26 0 39 -1t30 -5t24 -14t7 -27q0 -25 6 -74t6 -72q0 -19 -4 -56t-4 -56q0 -105 3 -315
t3 -314q0 -12 -1 -35t-1 -35q0 -27 2 -39z" />
    <glyph glyph-name="I" unicode="I" horiz-adv-x="458" 
d="M66 248q0 17 -1.5 47t-1.5 45q0 36 8.5 110t8.5 109q0 17 -3 53.5t-3 55.5q0 34 6 102t6 102q0 18 -2 57t-2 58q0 63 3 189t3 190q0 53 -8 159t-8 158q0 18 -1 57t-0.5 59t2.5 52t8.5 49t17 35.5t29 26.5t44.5 8q23 0 70.5 1t72.5 1q10 0 18.5 -3t14 -10t10 -13t7 -18.5
l4 -20t2 -23t0.5 -22.5v-23.5v-21.5q0 -8 -2 -25t-2 -25q0 -25 4 -77t4 -78q0 -32 -3 -95.5t-3 -93.5q0 -28 1 -84t1 -82q0 -31 -6.5 -103t-4.5 -110q0 -414 37 -772q4 -44 4 -200q0 -23 -8.5 -40.5t-25.5 -28.5t-34 -18.5t-42 -11t-40.5 -5t-38.5 -2.5t-28 -1
q-18 -2 -53 -2q-16 1 -28 13t-18.5 31t-11 43.5t-5.5 50.5l-2 52t0 49v21v25z" />
    <glyph glyph-name="J" unicode="J" horiz-adv-x="956" 
d="M879 1540q4 -122 4 -223q0 -16 -1 -51.5t-1 -53.5q0 -78 7 -260.5t5 -277.5q-1 -36 -1 -107q-1 -87 -2.5 -130t-8 -116.5t-19 -114t-36.5 -95t-58.5 -87.5t-87 -64.5t-121.5 -51.5q-34 -10 -82 -10q-101 0 -181.5 23.5t-146 75.5t-101.5 144.5t-36 220.5q0 78 3 92
q9 35 56 46q40 10 132 10q6 0 18.5 -1t18.5 -1q5 0 16.5 1t17.5 1q40 0 55.5 -31t15 -76t1 -89.5t23 -75.5t71.5 -31q54 0 91.5 31.5t53 76.5t15.5 97q0 561 -51 1536q0 23 30.5 38.5t79.5 21t72 6.5t45 1q45 0 66.5 -28.5t29 -97.5t7.5 -216v-133z" />
    <glyph glyph-name="K" unicode="K" horiz-adv-x="1085" 
d="M420 379q0 -27 1 -80t1 -80q0 -6 0.5 -23.5t0 -28t-1 -27t-4 -26.5t-8.5 -21t-13.5 -16.5t-20.5 -6.5q-24 -2 -107.5 -12.5t-128.5 -10.5q-26 0 -36.5 12t-10.5 43q12 450 12 678q0 147 -13 441t-13 438v96q0 25 -10.5 70t-10.5 67q0 33 1 48.5t7 38.5t19 33t36 21t60 15
t90 4q54 0 74 -10t23 -45q3 -47 25.5 -294t21.5 -376q0 -57 -1 -165.5t-1 -160.5q0 -27 5.5 -38t22.5 -11q100 0 165 67.5t65 168.5q0 40 -4 119.5t-4 119.5q0 20 2 61.5t2 63.5v52v62.5t-1 57t-3.5 65t-6.5 54.5t-10 55q-12 55 -12 113q0 52 20 66t97 14q110 0 146 -10
q48 -13 50 -45q19 -273 19 -373v-35q0 -56 6 -166t6 -166q0 -98 -3.5 -151.5t-17.5 -124t-47 -127t-88 -111.5q-2 -2 -2 -6q0 -9 19 -20q50 -27 85 -66t54 -79t29.5 -99.5t13 -108.5t2.5 -124q0 -18 0.5 -54.5t0.5 -57t-1 -53t-3.5 -51.5t-7 -44.5t-12 -39.5t-18.5 -28.5
t-26.5 -20.5t-34.5 -6h-15q-31 0 -94 -9t-94 -9q-28 0 -37.5 82.5t-6 178t-3.5 169.5q-11 129 -30 186q-43 129 -155 129q-29 0 -45.5 -28t-20 -68t-3 -80t2.5 -68t1 -28z" />
    <glyph glyph-name="L" unicode="L" horiz-adv-x="778" 
d="M346 1815l6 -93q0 -20 -3 -61t-3 -62q0 -46 6 -139t6 -139q0 -52 -1 -155t-1 -156q0 -22 1 -64.5t1 -62.5q0 -7 -1 -22t-1 -23q0 -100 15.5 -300t15.5 -298q3 -27 39 -27q50 0 140.5 10.5t125.5 12.5q24 0 40.5 -32.5t23 -80t8.5 -75t2 -42.5q0 -24 -35.5 -40.5
t-87.5 -23.5t-88.5 -9.5t-60.5 -2.5h-23q-345 -1 -354 52q-35 190 -35 370v43q0 10 -1 31t-1 31q0 16 2 49.5t2 50.5q0 19 -3 56t-3 55q0 22 2 68t2 69q0 55 -7 165.5t-7 166.5q0 29 1 90t1 90q0 18 -1 55.5t-1 57.5t1 56.5t1 55.5v35v119q0 136 -7 225q0 22 0.5 30.5
t4 24.5t11.5 22.5t23.5 12.5t38.5 6h7h45t37 -1.5t32.5 -4t25 -7.5t21 -12t15 -18t12 -25.5t6.5 -34t5 -43t1 -54.5q0 -2 -2 -2z" />
    <glyph glyph-name="M" unicode="M" horiz-adv-x="1652" 
d="M815 1208q18 9 32 68.5t24 133t14 87.5q25 91 54.5 263.5t43.5 234.5q5 23 14 33t27 10q195 -10 236 -10q28 0 88 4t88 4t49 -45t33.5 -116t20 -136.5t12 -129t5.5 -71.5q29 -199 29 -629q0 -92 -4 -275t-4 -274q0 -48 3 -145.5t3 -146.5q0 -25 -2 -42t-7.5 -36.5
t-19.5 -30t-36 -10.5q-24 0 -75 12t-79 12q-38 0 -56 15t-18 63q-20 364 -20 551q0 40 3 121t3 121q0 21 -2 64.5t-2 66.5v117q0 358 -37 395q-24 -36 -41 -100t-29 -133t-18 -89q-12 -41 -35 -176.5t-52 -218t-75 -86.5q-40 -4 -88.5 -6t-78 -2.5t-92 0t-81.5 0.5
q-17 4 -28.5 48t-23 126.5t-15.5 103.5q-80 398 -183 641q-3 6 -14 17q-12 -27 -12 -99q0 -51 6 -160t6 -157q0 -99 -8 -295t-8 -293q0 -24 3 -71t3 -70q0 -27 -3 -84t-3 -84q0 -64 8 -182q0 -35 -11.5 -55.5t-46.5 -20.5t-99 -14.5t-99 -14.5q-14 0 -23.5 7t-15 21
t-8.5 28.5t-3.5 35.5t-0.5 37t1 37t1 31q0 75 11 222t11 222v45q0 20 1 57.5t1 55.5q0 56 -8 156t-8 151v25q0 61 -5 194t-5 199q0 29 -1 74.5t-1 75t0.5 70t3.5 68t8 59.5t14.5 53t23.5 40t34 29.5t45 13.5q161 17 233 17h11q56 0 74 -12q31 -20 59 -119q5 -21 12 -47
q86 -314 209 -621q9 -23 24 -29z" />
    <glyph glyph-name="N" unicode="N" horiz-adv-x="1339" 
d="M961 612q10 46 10 119q0 418 -35 1110q-1 15 -6.5 53.5t-5.5 55.5q0 25 20 40t54.5 19.5t63.5 5t65.5 -1.5t41.5 -2q15 0 27.5 -12t21 -36t15 -49t10 -63t6 -65t3.5 -68t1 -60v-52v-33q2 -49 7 -150.5t7.5 -180.5t2.5 -150q0 -29 -3 -85t-3 -83q0 -60 3 -171t3 -165
q0 -82 -12.5 -245t-12.5 -245q-6 -74 -11 -87q-11 -27 -57 -34q-34 -4 -139 -4q-43 0 -122.5 -14t-106.5 -14q-21 0 -46.5 45t-50 122.5t-43.5 146t-40 152.5t-27 105q-19 67 -38 142t-32 129.5t-33 143.5t-28.5 129t-31 145.5t-29.5 137.5q-12 58 -29 80
q-11 -27 -16.5 -66.5t-6 -64t0.5 -69t1 -47.5q0 -22 -4 -71.5t-4 -74.5q0 -163 20 -466t23 -388v-31q1 -23 0.5 -42t-4.5 -35.5t-13 -29.5t-26 -22.5t-43 -16t-64.5 -10t-90.5 -3.5q-58 4 -58 311q0 428 -24 944q0 12 1 34t1 32q-4 118 -4 176q0 27 3 82t3 82q0 49 -10 299
q0 73 268 73q30 0 76 -16t65 -16t36 -21t31 -61.5t24 -75.5t23 -88t19 -74q124 -445 254 -764q6 -15 23 -93t36.5 -138t39.5 -60z" />
    <glyph glyph-name="O" unicode="O" horiz-adv-x="1081" 
d="M1012 1237q0 -65 -2 -193t-2 -192q0 -62 5 -188t5 -189q0 -17 0.5 -56t0.5 -58.5t-1 -55.5t-3.5 -57t-8 -52.5t-13 -51.5t-19 -45t-26.5 -42t-36 -33.5t-46 -27.5q-95 -43 -173.5 -62.5t-188.5 -19.5q-63 0 -112 9t-88 34t-67 52t-49.5 80.5t-35.5 101t-26.5 132.5
t-20 156t-17.5 189q-2 24 -16 102.5t-13 124.5q0 61 5.5 186t5.5 187q0 87 -7 213v33q0 61 0.5 92.5t3.5 88.5t10 88.5t20.5 79t33 74.5t49.5 59t69.5 49t93 28.5t118.5 11.5h8q29 0 90 5t90 5q69 0 122 -19t89.5 -53.5t62 -89.5t41 -118.5t24.5 -149t14 -174t10 -199.5
q1 -36 2 -55h-2zM717 799h2q-6 201 -33 772q-3 39 -6 64.5t-12 64t-21 61.5t-34.5 40.5t-51.5 17.5q-55 0 -91.5 -12.5t-54 -30.5t-26.5 -50t-9.5 -58.5t-1 -69.5t-3.5 -70q-8 -90 -8 -131v-83v-90t1 -83.5t3 -91t6 -82t10 -84.5v-13q0 -18 -7 -53t-7 -55q0 -30 -2 -89.5
t-2.5 -100.5t1.5 -95.5t11 -91.5t24 -71.5t42 -52t65 -17.5q114 0 163.5 56t49.5 175q0 62 -3.5 174.5t-4.5 149.5z" />
    <glyph glyph-name="P" unicode="P" horiz-adv-x="1019" 
d="M504 2077q22 0 67 1t66 1q76 0 136 -26.5t97.5 -66.5t64 -102t39 -116.5t18 -128.5t5.5 -118.5t-2 -106t-2 -73.5q0 -568 -286 -614q-24 -1 -70 -2t-70 -2q-3 0 -10 1t-10 1q-12 -1 -39 -2t-43.5 -2.5t-36 -6.5t-30 -16.5t-11.5 -29.5q0 -117 10.5 -334t12.5 -279
q0 -26 -14.5 -46t-35 -30t-51 -17t-53 -9t-50 -3.5t-34.5 -2.5q-22 0 -39 62.5t-28 175.5t-16.5 201t-10.5 209.5t-6 131.5v37q0 28 1 85t1 85q0 26 -3 79t-3 79q0 30 1 91t1 91v72q0 106 7.5 297t8.5 245q0 16 -2 49t-2 50q0 39 102 64.5t201 25.5h68h51zM354 1569h-4
q3 -49 4.5 -138.5t3 -156.5t7 -135.5t19.5 -106t36 -37.5q65 0 111 7.5t89 28.5t65 64t22 109q0 228 -7 307q-23 281 -139 281q-23 0 -45.5 -2.5t-52.5 -7t-43 -6.5q-21 -3 -35 -14t-20.5 -23.5t-9.5 -36.5t-3 -40t1 -47t1 -46z" />
    <glyph glyph-name="Q" unicode="Q" horiz-adv-x="1097" 
d="M1030 1083q-1 -17 -3.5 -81.5t-2.5 -96.5q0 -85 5 -259.5t5 -260.5q0 -67 -4 -117t-16.5 -111.5t-41.5 -106.5t-73 -70q-19 -6 -35 -21.5t-16 -26.5q0 -18 33.5 -63t33.5 -59q0 -27 -43 -27h-28q-28 0 -82 -7t-82 -7q-26 0 -44.5 18t-27 40t-23.5 40t-36 18q-7 1 -69.5 6
t-87.5 8t-72 10.5t-73.5 18t-41.5 25.5q-26 30 -47 65.5t-34 64t-22.5 75t-14 70.5t-8 79.5t-4 73.5t-1.5 80q-2 67 -7 206t-7.5 247.5t-2.5 207.5q0 39 5.5 118t5.5 118v65q0 65 11 182.5t13 155.5q0 73 35 145t101.5 121.5t146.5 49.5q19 0 58 4t59 4q14 0 43 -3t43 -3
q7 0 22.5 2t22.5 2q57 0 98.5 -4t88 -18t78 -39t58 -69t39.5 -106q25 -107 33.5 -239t8.5 -298.5t3 -226.5zM735 1225q0 23 1 69t1 80.5t-0.5 83.5t-4 86t-9 79t-16.5 72t-26 55.5t-37 38.5t-50 13q-163 0 -195 -88t-29 -441q1 -129 1 -204q2 -36 6.5 -105.5t7 -121.5
t2.5 -101q0 -65 -7 -201.5t-7 -193.5q0 -186 196 -186q95 0 124.5 67.5t29.5 227.5v145v35v106q0 92 5.5 274.5t6.5 209.5z" />
    <glyph glyph-name="R" unicode="R" horiz-adv-x="1089" 
d="M66 862q0 68 2 233.5t2 243.5q-2 20 -2 64q0 48 4 145t4 146v28v33q-1 28 -0.5 59.5t1.5 61.5t5.5 57.5t11.5 48.5t19 33.5t28 12.5q24 -3 47 -3q43 0 127.5 6.5t126.5 6.5q128 0 264.5 -29.5t178.5 -81.5q22 -27 39 -61.5t28 -65t19 -74.5t11.5 -74t5.5 -80t2 -76
t-0.5 -78.5t-0.5 -71.5q0 -161 -41 -308t-94 -186q-39 -32 -39 -43q0 -9 37 -27.5t80 -48t55 -65.5q45 -140 45 -351q0 -29 1.5 -78.5t2.5 -86.5t0.5 -83t-5 -78t-13.5 -61t-25 -44t-39 -15q-30 0 -93 -3t-93 -3q-33 0 -47 13t-14 40q0 9 2 28.5t2 28.5q0 72 -2.5 138
t-9.5 152t-22.5 154.5t-38.5 129.5t-60 95t-84 34h-33t-27 -1.5t-24 -5t-17.5 -9.5t-15 -15.5t-9 -23.5t-7 -33.5t-1.5 -44.5q0 -201 21 -471q1 -4 2 -11t2 -10q0 -24 -26 -40t-67.5 -22.5t-71 -8.5t-58.5 -2q-22 0 -39 15t-27 45t-16.5 61t-9 78.5t-3.5 81.5t-1 83
q0 334 2 500q0 1 -0.5 3t-1 6t-0.5 9zM709 1323q-10 34 -11 97t-2.5 118t-13 108.5t-48.5 86t-102 34.5q-17 0 -46 1q-29 0 -51.5 0.5t-39 -8.5t-28 -26.5t-18.5 -53t-10 -87.5t-3 -131q2 -54 6.5 -229t9.5 -270q0 -23 9.5 -32t33.5 -9q306 21 310 176q4 152 4 225z" />
    <glyph glyph-name="S" unicode="S" horiz-adv-x="1105" 
d="M735 473v92q0 105 -24 153t-93 48h-24q-33 0 -99 8t-100 8h-20q-42 0 -77.5 12t-61 31.5t-47.5 49.5t-36.5 59.5t-28 69t-21.5 70.5t-18 71q-5 20 -7 29q-25 74 -25 278q0 31 6.5 95.5t6.5 99.5v16q0 77 24 138t65 101t99.5 66.5t123.5 37.5t140 11h74h31q71 0 128.5 -11
t109.5 -39t87 -72t55.5 -113.5t20.5 -159.5v-12q0 -26 4 -82t4 -82q0 -39 -18 -55.5t-74 -16.5q-10 0 -30.5 1t-30.5 1q-17 0 -52 -2t-53 -2q-39 0 -39 39q0 22 8.5 68t8.5 67q0 85 -55.5 135t-157.5 50q-66 0 -107.5 -72.5t-50 -163.5t-14 -174.5t1.5 -104.5v-6
q0 -36 14 -62t33 -39.5t50 -21.5t54 -10.5t57 -4.5q13 -1 19 -1q19 0 49 5t33 5q75 0 131.5 -16t91 -40.5t59.5 -66t37.5 -79.5t24.5 -95q20 -102 20 -180q0 -14 -1 -44t-1 -44q0 -25 3.5 -74.5t3.5 -74.5q0 -79 -7.5 -139t-31.5 -122t-64.5 -105.5t-110 -78.5t-165.5 -53
q-20 -4 -31 -4q-73 0 -139 10.5t-132.5 38.5t-116 71.5t-83.5 113.5t-41 161q-12 126 -12 195q1 19 14.5 31.5t38.5 19t47 10t55 6t47 4.5q18 0 29.5 -2t23.5 -9t17.5 -22.5t5.5 -39.5q0 -10 -3 -31t-3 -31q0 -92 49.5 -158.5t126.5 -66.5q41 0 70 6.5t49 24.5t31.5 39
t17.5 59.5t8 77t2 100.5h-4z" />
    <glyph glyph-name="T" unicode="T" horiz-adv-x="954" 
d="M776 1743q-10 0 -30.5 1t-30.5 1q-7 0 -27 0.5t-28.5 0.5t-23 -2.5t-21 -8t-12 -16.5t-5.5 -27q0 -53 8 -172t8 -181v-53q4 -136 4 -201q0 -10 -1 -30.5t-1 -30.5q0 -21 3.5 -122.5t3.5 -156.5q0 -35 -3.5 -103.5t-3.5 -104.5q1 -16 8 -76.5t7 -91.5q0 -10 -2 -29.5
t-2 -28.5q0 -27 2 -78.5t2 -76.5q0 -15 2 -49.5t2.5 -58.5t-2.5 -51.5t-13.5 -44t-29.5 -20.5q-12 -1 -76.5 -10.5t-95.5 -9.5q-25 0 -43 13t-27 37t-14.5 51t-6 62t0.5 63t2.5 61t1.5 49q-8 122 -8 188q0 20 4 62t4 63q0 18 -1 55t-1 56q0 47 1 139.5t1 138.5q0 16 -1 49
t-1 50q0 42 3 125.5t3 125.5q0 20 1.5 93t1 121t-3.5 107.5t-12 90.5t-24 31q-35 0 -108 -4t-109 -4q-19 0 -30 9.5t-15.5 34t-5 40.5t-0.5 53v20q0 79 41.5 107.5t136.5 28.5q17 0 49 -3.5t49 -3.5q13 0 37 3.5t35 3.5q23 0 69.5 -8.5t69.5 -8.5q57 0 170 5t168 5
q13 0 23 -5.5t17 -18.5t12.5 -24.5t8.5 -32.5t5.5 -34t3 -37.5t0.5 -34v-32v-24.5q0 -39 -43 -39q-17 0 -53 2t-54 2z" />
    <glyph glyph-name="U" unicode="U" 
d="M70 997q0 31 -1 93t-1 92q0 218 12 436q0 23 -2 65t-2 62q0 53 6 106q0 23 -2 72t-2 72q0 25 13 33t46 8q17 0 49 -3t47 -3q6 0 84 10q22 0 35.5 -19.5t18.5 -51.5t6.5 -63t1.5 -65t2 -47q10 -65 13 -156t1 -168t0 -167q0 -29 -2 -87.5t-2 -85.5q0 -10 2 -31.5t2 -31.5
q0 -62 -7 -184.5t-7 -180.5q0 -30 -1 -81.5t-2 -85t1 -79.5t7 -76t16 -63t28 -52t44 -31.5t63 -12.5q44 0 75 14.5t50 39.5t29.5 68.5t14 92t3.5 119.5t-8.5 203.5t-8.5 189.5q0 8 1 24t1 23q0 38 -5 111.5t-5 110.5q0 22 3 68.5t3 70.5q0 16 -2 50t-2 50q0 28 4 86t4 86
q0 16 -2 47t-2 47q0 17 -2 66t-1.5 83t3.5 73t14.5 60t30.5 21q13 0 58.5 -6t68.5 -6h33q32 0 52 -15.5t27 -41t10 -57.5t1 -64.5t0 -62.5q2 -41 6.5 -143t7 -176t2.5 -142q0 -11 -1 -35t-1 -37q0 -21 2.5 -61.5t2.5 -59.5q0 -40 -3.5 -118t-3.5 -117q0 -28 2 -82t2 -80
q0 -32 -3.5 -109.5t-2.5 -117.5v-27q0 -270 -51 -365q-49 -73 -104.5 -117t-145.5 -70t-217 -26q-84 0 -143 15.5t-107 57.5t-77.5 107t-49 172t-27 244.5t-7.5 331.5q0 23 2 70t2 71v39z" />
    <glyph glyph-name="V" unicode="V" horiz-adv-x="1120" 
d="M616 389q53 312 85 652.5t32 592.5q10 171 27 314q0 61 55 61q8 -2 27 -2q18 0 55 4t55 4q63 0 88.5 -10.5t28.5 -50.5q0 -90 -10 -249.5t-12 -221.5q-9 -305 -54 -594q-13 -86 -44 -334t-56 -383q-1 -8 -3 -36.5t-3.5 -39t-4.5 -35t-7 -35.5t-10 -30t-14.5 -28
t-19.5 -19.5t-26 -14.5t-33 -4q-30 0 -92 1t-92 1q-18 0 -54 -5t-53 -5q-23 0 -45.5 33.5t-39.5 81.5t-33 109.5t-25.5 110t-17 90t-7.5 42.5q-27 117 -75.5 404t-87.5 434q-15 57 -28 116t-25 129t-19 113.5t-19.5 130.5t-17.5 119q-4 20 -4 27q0 59 104 59q41 0 66.5 -1
t65 -5.5t63 -16t29.5 -30.5q0 -2 2 -4q20 -73 38.5 -153t31.5 -140t29 -157.5t23.5 -142t23 -160t19 -145.5t20.5 -164.5t19 -154.5q1 -11 6 -87.5t13.5 -122.5t25.5 -48z" />
    <glyph glyph-name="W" unicode="W" horiz-adv-x="1562" 
d="M1159 451q10 12 10 36q0 29 -1 90t-1 91q0 154 17 536q1 23 6.5 81t5.5 89q0 270 -18 537q-4 32 -4 51q0 23 17.5 36t50 16.5t61.5 3.5t70 -2.5t57 -2.5q18 -1 31.5 -17.5t21 -46t12 -60.5t5.5 -73t1 -71t-1 -66.5t-1 -48.5q-3 -53 -11.5 -155.5t-13 -184.5t-4.5 -157
q0 -21 1.5 -63t1.5 -64q0 -78 -3.5 -232t-3.5 -231q0 -49 1 -146t1 -145q0 -24 -5 -71.5t-5 -71.5q0 -7 1 -20.5t1 -20.5q0 -29 -13 -47.5t-39 -26.5t-48 -10t-57 -2q-8 0 -24 2t-24 2q-26 0 -76 -7.5t-73 -7.5q-48 0 -96 73.5t-80 164.5t-70.5 193.5t-64.5 140.5
q-6 6 -13 6q-16 0 -37 -55.5t-43.5 -139.5t-29.5 -102q-8 -21 -26.5 -76.5t-33.5 -96t-35 -85.5t-41.5 -69.5t-43.5 -24.5q-26 0 -80 -4.5t-80 -4.5q-15 0 -51.5 -0.5t-52 -0.5t-44 2t-41.5 7t-29 14t-22 23.5t-6 34.5q0 65 4 193.5t4 195.5q-2 115 -15 447.5t-13 511.5
q0 10 1 31.5t1 31.5q0 7 -1 21.5t-1 21.5q0 77 13 235.5t13 235.5q0 3 -1 8.5t-1 8.5q0 33 16 53.5t46 20.5q17 0 52 -1t54 -1q14 0 43 1t43 1q39 0 54.5 -14t15.5 -44q0 -15 -2 -42.5t-2 -41.5q0 -23 4 -71.5t4 -73.5q0 -46 -3 -141t-3 -142q2 -20 2 -61q0 -26 -2 -81
t-2 -81q0 -15 3 -42t3 -40q0 -109 -12.5 -329.5t-12.5 -325.5q0 -148 27 -148q14 0 30 22t32 65t30 85.5t30 105t25 99t22 92.5t15 64q5 24 11 59t9.5 59.5t11.5 52.5t18 45t27.5 28.5t41.5 11.5q9 0 33 0.5t37.5 0.5t34 -2t33 -6.5t24 -13.5t16.5 -22q137 -384 229 -563
q1 -2 5.5 -10t6.5 -11.5t7.5 -9.5t11.5 -10z" />
    <glyph glyph-name="X" unicode="X" horiz-adv-x="1150" 
d="M508 635q-25 -13 -49 -81t-48.5 -171.5t-33.5 -130.5q-3 -9 -11.5 -38.5t-13.5 -45t-14.5 -45t-16 -46.5t-16 -41.5t-18 -38.5t-18 -28.5t-19 -21t-19.5 -6.5q-41 0 -69 2.5t-55 9.5t-40.5 21.5t-13.5 37.5q0 35 11.5 78.5t30 96.5t24.5 77q22 114 61.5 227t99 250.5
t72.5 171.5q7 18 24 52t28.5 61t11.5 41q0 30 -25 109.5t-58 169t-36 98.5q-25 82 -76 245.5t-76 245.5q-2 7 -8.5 25.5t-10 32t-3.5 24.5q0 22 72 36.5t122 14.5q36 0 71.5 -66.5t63.5 -161t52.5 -189.5t47 -161.5t38.5 -66.5q27 0 90 163t70 198q68 276 131 276q27 0 81 1
t82 1q22 0 38 -10t16 -29q0 -68 -54 -192q-206 -503 -319 -770q-8 -16 -8 -37q0 -38 20 -94.5t49.5 -121.5t38.5 -91q74 -237 117 -434q8 -35 54 -159.5t46 -180.5q0 -18 -33.5 -31.5t-84 -19t-89 -7.5t-69.5 -2q-13 0 -26.5 15t-27 42.5t-25.5 56.5t-24 67.5t-19.5 63.5
t-17 57.5t-10.5 37.5q-13 43 -43.5 192.5t-64.5 219.5z" />
    <glyph glyph-name="Y" unicode="Y" horiz-adv-x="1083" 
d="M1038 1341v-139q0 -93 -10.5 -186t-35.5 -192t-75 -170t-120 -91q-10 -3 -39.5 -9t-45.5 -11t-31 -17.5t-15 -31.5q0 -91 9 -272t9 -267q0 -66 -25.5 -82t-113.5 -16h-22h-24.5t-23 1t-23.5 3t-19.5 6.5t-17.5 10.5t-10.5 16t-5.5 22q-18 257 -16 350v131q0 54 -2 72.5
t-18.5 31.5t-38 16t-75.5 27t-116 64q-16 10 -29 25.5t-22 37.5t-16 42.5t-11 50.5t-6.5 50.5t-3 54.5t-1 51.5t0 51.5t0.5 44q0 26 3 81t3 81q0 12 -1 35t-1 36q0 28 3 84.5t3 81.5q0 5 -1 15.5t-1 15.5q0 45 8.5 128.5t10.5 115.5q0 45 -2 135t-2 135q0 37 9.5 53.5
t37.5 16.5q37 0 109 1t108 1q28 0 37.5 -12t9.5 -40q-8 -59 -8 -178v-41q0 -107 -9.5 -297t-9.5 -284q4 -74 4 -109q0 -23 -2 -70.5t-2 -72.5q0 -41 19 -69.5t51 -42.5t64 -19.5t69 -5.5q88 0 121 41t33 126t-3.5 254.5t-3.5 253.5q0 29 3 56q0 83 -14.5 251t-14.5 246
q0 14 9 23.5t26 14t36.5 7t45 2.5t47 -1t47 -2t39.5 -1q20 0 36.5 -34t27 -90t17 -109t12.5 -109.5t9 -74.5q6 -36 8.5 -79t2.5 -71t-0.5 -81t-0.5 -73z" />
    <glyph glyph-name="Z" unicode="Z" horiz-adv-x="940" 
d="M729 -49q-19 -1 -71.5 -5.5t-79.5 -4.5h-19q-20 -1 -69.5 -5t-73.5 -4h-97q-27 0 -79 -4t-78 -4q-58 0 -75 68t-17 227q0 31 13 70.5t42 105.5t35 80q298 740 383 1198q2 12 2 37q0 29 -49 29q-60 -2 -188.5 -19.5t-196.5 -17.5q-26 0 -35.5 14t-9.5 45q0 5 -0.5 38.5
t0 47.5t2 45t6 47.5t11.5 36.5t18.5 30.5t27.5 12.5q22 3 77.5 12t95 14t77.5 7q76 0 201 -10t159 -12q36 -5 58 -20t30.5 -41.5t11.5 -52.5t6.5 -66t10.5 -68q6 -21 6 -43q0 -95 -102 -336q-19 -45 -42 -127.5t-36 -118.5q-46 -124 -148 -434.5t-165 -468.5q-2 -4 -2 -12
q0 -23 28 -23q31 0 98 10.5t103 10.5q130 0 165 -5q117 -17 118 -92q0 -20 3.5 -68.5t2.5 -74.5q-1 -31 -24 -41t-77 -10q-9 0 -28.5 1t-28.5 1z" />
    <glyph glyph-name="bracketleft" unicode="[" horiz-adv-x="624" 
d="M76 131v225q0 64 -3 192.5t-3 190.5v21q0 10 -1 31.5t-1 33.5q0 86 5 260.5t5 260.5q0 58 -3 172t-3 172q0 299 14 481q0 16 6 27.5t13.5 17t23.5 8.5t24.5 3t29.5 -0.5t28 -0.5q49 0 144 -12t143 -12q23 0 40.5 -6t27.5 -19.5t16 -26.5t7.5 -35.5t2 -37t-0.5 -41
t-1 -37.5q0 -31 -13 -43t-53 -12q-6 0 -18.5 2t-18.5 2q-26 0 -41 -1t-32.5 -5.5t-26.5 -13t-15.5 -24t-6.5 -38.5q0 -24 3 -70t3 -70q0 -35 -1 -104t-1 -104q0 -55 2 -161t2 -159q-13 -364 -13 -502q0 -41 1 -121t1 -120q0 -31 -1 -91.5t-1 -89.5v-32q-1 -26 -0.5 -54.5
t1 -56.5t3 -55.5t5.5 -52t9.5 -45.5t14.5 -36t20 -23.5t27 -8.5q18 0 48 3t44 3q15 0 24 -9.5t12 -29.5t3.5 -36t-1 -44t-1.5 -39q0 -47 -14 -63.5t-59 -16.5h-41q-25 0 -76 -4t-82 -4h-47q-18 0 -54 -5t-55 -5t-32.5 7t-20 15.5t-10 26t-3.5 27.5t0.5 32.5t0.5 28.5
q0 54 1 165.5t1 168.5h-2z" />
    <glyph glyph-name="backslash" unicode="\" horiz-adv-x="743" 
d="M637 -141q-11 1 -44.5 2.5t-54 3.5t-46 8t-40.5 19t-18 32q-53 422 -139 651q-79 259 -162 748q-12 66 -44.5 210t-50.5 256t-18 210q0 22 14.5 29.5t47.5 7.5q23 0 65.5 -5.5t63.5 -5.5q6 0 19.5 1.5t19.5 1.5q29 0 49.5 -12.5t32 -30t19.5 -47.5t10.5 -52.5t6 -57.5
t5.5 -52q28 -191 89.5 -493.5t80.5 -420.5q13 -85 74.5 -368.5t76.5 -450.5q2 -23 14.5 -75.5t12.5 -78.5q0 -10 -3.5 -15.5t-12.5 -8t-16.5 -3.5t-24.5 -1.5t-27 -1.5z" />
    <glyph glyph-name="bracketright" unicode="]" horiz-adv-x="679" 
d="M602 1683q12 -184 12 -280q0 -106 -8 -319.5t-8 -311.5v-129q0 -53 -4 -158.5t-4 -158.5q2 -43 7.5 -132t8.5 -141t5.5 -126.5t2.5 -137.5q0 -29 -13 -47.5t-39 -26t-50 -10.5t-60 -5t-55 -5q-34 -5 -101 -19t-121 -23t-97 -9q-14 0 -22.5 6.5t-12 20.5t-4 22.5
t-0.5 26.5v8q0 11 -0.5 37.5t0 37t1.5 31t4.5 29t10 22t16 19t23.5 10t33 4.5q14 -2 45 -2q52 0 79 11.5t28 45.5t7.5 169t6.5 208q0 25 -3 77t-3 79q0 62 11 182.5t11 171.5q0 514 -39 1051q0 21 -7 33.5t-24 17t-27.5 5.5t-35.5 1q-9 0 -27.5 -1t-27.5 -1q-36 0 -49 14.5
t-13 47.5q0 10 -0.5 33t-0.5 35.5t1.5 32.5t5 31.5t9 23.5t15.5 18.5t24 7.5q25 2 67.5 1.5t67.5 0.5q34 -2 99 -6t99 -6q14 0 40 1t38 1q82 -8 82 -443q0 -9 -1 -28.5t-1 -28.5q0 -3 1 -9.5t1 -9.5h-4z" />
    <glyph glyph-name="asciicircum" unicode="^" horiz-adv-x="876" 
d="M412 1501q-11 -6 -21.5 -27.5t-19.5 -55t-15 -58.5t-12.5 -60.5t-7.5 -39.5q-6 -23 -15.5 -72t-18.5 -87.5t-21.5 -79t-30 -64.5t-39.5 -27q-98 -15 -117 -15q-55 0 -55 66q0 26 5.5 61t12 60t18 69t15.5 62q3 13 22 96t27 115t24.5 90.5t33.5 101.5q16 40 32 90t25 83
t24.5 96t20.5 84q6 28 20 40.5t43 12.5q6 0 18.5 -1t18.5 -1q13 0 41 1t43 1q27 0 39.5 -2t21 -13.5t11.5 -24.5t13 -46t24 -66q17 -42 41.5 -148t48.5 -153q31 -78 57.5 -168.5t55 -207t43.5 -169.5q4 -20 4 -30q0 -27 -87 -56.5t-141 -29.5q-26 0 -70 137.5t-82 282
t-50 153.5z" />
    <glyph glyph-name="underscore" unicode="_" horiz-adv-x="743" 
d="M244 160q30 0 93 5t101 5q23 0 75 -5.5t75 -4.5q6 0 18.5 1t18.5 1q27 0 39 -13t12 -47q0 -22 -2 -47t-5.5 -55.5t-4.5 -46.5q0 -9 1 -26.5t1 -26.5q0 -16 -9 -27.5t-25.5 -17.5t-34.5 -9.5t-41 -4.5t-40 -1t-36.5 1t-24.5 1q-14 2 -41 2q-16 0 -45 -2t-43 -2
q-12 0 -35 3t-31 3q-5 0 -17 -1t-18 -1q-11 0 -37.5 -0.5t-35.5 0t-27.5 2.5t-25.5 8.5t-17 17.5t-13 28.5t-3 42.5q8 110 8 166v8q0 18 11 28.5t33 14t40.5 3.5t47 -1.5t38.5 -1.5z" />
    <glyph glyph-name="grave" unicode="`" horiz-adv-x="546" 
d="M369 1536q-6 -2 -17 -2q-51 0 -194 209q-10 14 -48.5 61t-62.5 83t-24 57q0 44 272 63q11 0 25 -12.5t28 -34t29 -49t29 -58t27 -61t23.5 -58t18.5 -49t13 -33.5l4 -12q14 -37 14 -57q0 -47 -137 -47z" />
    <glyph glyph-name="a" unicode="a" horiz-adv-x="1040" 
d="M975 1163q0 -55 1 -160t1 -155q0 -389 -57 -803q-5 -27 -16.5 -38t-37.5 -11q-15 0 -44.5 -0.5t-42 -0.5t-33.5 2t-30 7.5t-19.5 14.5t-14.5 24.5t-4 36.5q0 16 2.5 56.5t1.5 62.5q-8 91 -8 202v99v63q0 29 3 89t3 91q0 41 -8.5 56.5t-34.5 15.5q-16 0 -44.5 0.5t-47 0.5
t-44.5 -0.5t-43.5 -2t-38 -4t-33.5 -7.5t-25 -11.5t-17.5 -16.5t-5.5 -22q14 -439 24 -549q2 -14 14.5 -47.5t12.5 -53.5q0 -57 -15.5 -75.5t-66.5 -18.5q-126 0 -161 6q-74 13 -74 58q0 46 -4.5 137.5t-4.5 136.5q0 26 5.5 80t5.5 80q0 28 -2 84t-2 84q2 78 4 236t4 237
q0 21 -1 63t-1 64q0 24 4 74t4 75q0 13 -2 37t-2 37v4q0 70 1 107.5t7.5 104.5t19 106t38 89t62 76.5t93 46t129.5 19.5q96 0 176 -16.5t149.5 -54t118 -95.5t76 -145.5t27.5 -198.5q0 -314 -2 -377zM692 1462q0 14 -0.5 45.5t-1 48.5t-2.5 46t-4.5 46t-8 41.5t-13 39
t-19.5 31t-26.5 25.5t-35 15t-44.5 6q-34 0 -61 -6.5t-47.5 -14.5t-36 -29.5t-25.5 -36.5t-17 -51.5t-10.5 -58.5t-5.5 -73t-2 -80v-94v-25q0 -11 2 -36.5t2 -40.5q0 -18 -3 -53.5t-3 -51.5q0 -23 11 -31t34 -8q25 0 77.5 3t79.5 3q17 0 48 -1t45 -1q24 0 38 13t18 37.5
t4.5 47.5t-1 55.5t-0.5 49.5q1 25 4 72t4 67z" />
    <glyph glyph-name="b" unicode="b" horiz-adv-x="1021" 
d="M76 414q6 210 6 215q-16 418 -16 624q0 95 9 287t9 289v100q0 62 18.5 108t57.5 46h20q43 0 128 7t128 7h34q58 0 86.5 -0.5t79 -4t77 -11t66 -23t60.5 -37.5t47 -56t38 -78t21 -104t9 -134q0 -478 -112 -590q-23 -23 -23 -37q0 -4 24 -30.5t54 -66.5t41 -73
q25 -102 25 -289q0 -73 -5 -134.5t-20 -131t-39.5 -122t-68 -96.5t-101.5 -65q-17 -7 -37.5 -12.5t-38.5 -9.5t-42.5 -7t-41 -5t-43.5 -3.5t-40.5 -2t-42.5 -1t-38.5 -0.5h-38.5h-34q-12 1 -37.5 1.5t-44.5 1t-44 2.5t-43.5 6t-35 10.5t-25.5 17.5t-10 25q-14 177 -14 233
v144h-2zM444 276h17q5 0 16.5 -1t16.5 -1q121 0 169 73t48 245q0 55 -5.5 99t-21.5 88.5t-43 74t-73.5 48t-108.5 18.5q-79 0 -103 -10q-32 -13 -32 -46q0 -235 24 -526q0 -64 35 -64q41 0 61 2zM700 1423q-2 26 -4.5 74t-4 75t-6.5 68t-12 64.5t-20.5 52t-31.5 43t-45 25
t-62 10.5t-57 -2t-41 -10.5t-28 -18t-17 -34t-10.5 -48.5t-5.5 -70t-3.5 -90t-3.5 -118.5t-8 -145.5q0 -12 -2 -36t-2 -37q0 -31 53 -31q151 8 210 28q87 30 93 95q4 38 8 106z" />
    <glyph glyph-name="c" unicode="c" horiz-adv-x="991" 
d="M330 1468q0 -70 5 -203t5 -200q0 -91 -11.5 -258t-13.5 -209q0 -20 -1.5 -67t-1 -73.5t3 -67.5t11.5 -65t23.5 -48.5t40 -36t60.5 -11.5q56 0 91 7t63.5 27t41 59t12.5 100q0 26 -5 76.5t-5 74.5q0 58 246 58q24 0 31.5 -28t7.5 -89q0 -60 -1 -94.5t-9.5 -100.5
t-24.5 -107.5t-49.5 -94t-80 -83t-120 -52t-166.5 -21.5q-217 0 -309 121.5t-92 378.5q0 11 1 32t1 33q0 67 -11.5 202t-11.5 198q0 62 11.5 201.5t11.5 185.5q0 7 -1 21.5t-1 21.5q10 265 10 332q0 10 -1 31.5t-1 31.5q0 58 11 114t36 113.5t75.5 95t121.5 42.5
q20 1 57.5 3t57.5 3q11 0 37 -3t38 -3h11q102 0 190 -43.5t147 -135t64 -215.5q0 -48 -3 -143.5t-3 -142.5q-3 -27 -16.5 -37t-43.5 -10q-27 6 -79 6h-82q-27 3 -36 16.5t-9 46.5q0 10 1 31t1 31q0 280 -166 280q-33 -2 -59 -9t-44 -20.5t-31 -27t-20.5 -36.5t-12 -40.5
t-5.5 -47t-1.5 -48t0.5 -52.5t1 -51h2z" />
    <glyph glyph-name="d" unicode="d" horiz-adv-x="1075" 
d="M1012 1509q-19 -325 -19 -411q0 -14 1 -43t1 -45q0 -93 -10 -285.5t-10 -292.5q0 -5 1 -16.5t1 -16.5q0 -94 -24.5 -166t-69 -117.5t-99 -71t-122.5 -36.5q-127 -20 -228 -20q-14 0 -40 2t-40 2h-39q-33 0 -47.5 0.5t-48 2t-51 6.5t-39.5 13t-33 22.5t-12 33.5
q-25 360 -23 516q7 43 10 93.5t4 112t3 95.5q3 49 11 183.5t11.5 203.5t7 176.5t3.5 196.5q0 19 -1 58t-1 60v33v42t0.5 44t1.5 48t2.5 45t4.5 42.5t7 33t9.5 25.5t12.5 11q161 47 381 47q75 0 141 -10.5t130 -38t109.5 -70t73.5 -111.5t28 -159q0 -39 3 -118t3 -120h-4z
M352 1350q0 -140 -8 -427.5t-8 -447.5v-20q0 -37 0.5 -53.5t5 -40.5t14 -34t27.5 -21.5t45.5 -15t67.5 -3.5q39 0 65.5 5t48 20.5t34 35t23 58.5t17 81t14.5 111q19 163 27 465.5t14 392.5q0 12 2 36t2 36v18v51t-1.5 48t-4.5 48t-9.5 42.5t-15 39.5t-22.5 31.5t-31.5 26
t-42 14.5t-53.5 6q-10 -1 -46.5 -1.5t-58.5 -2.5t-50 -7t-42 -18t-14 -32q-6 -63 -6 -186q0 -4 6 -256z" />
    <glyph glyph-name="e" unicode="e" horiz-adv-x="813" 
d="M358 1501q0 -46 -1 -138.5t-1 -139.5q0 -35 39 -35q59 0 246 14q24 0 39 -15.5t21 -46.5t7 -51.5t1 -55.5v-9q0 -83 -8 -102q-13 -30 -54 -31q-41 0 -122 -5t-122 -5q-19 0 -30.5 -12.5t-15 -37t-3.5 -45.5t2 -55t2 -49q6 -69 1 -161.5t5 -173.5t42 -81q47 0 140.5 20.5
t135.5 20.5q36 0 49.5 -11t13.5 -48q0 -33 9.5 -97.5t9.5 -97.5q0 -22 -18 -36.5t-51.5 -20t-58 -7t-61.5 -1.5q-9 0 -28.5 4t-28.5 4q-23 0 -66.5 -7t-64.5 -7q-13 0 -37 3t-37 3q-25 0 -75 -3t-74 -3q-31 0 -51.5 87t-27.5 224t-9 207.5t-2 130.5q0 27 -1 82t-1 82
q0 17 2 52t2 54q0 42 -5 134t-5 141q0 16 1 50t1 50q0 40 -1 119t-1 118q0 85 6 245t6 239q0 48 10 64q26 42 177 52q55 3 130 3q50 0 140.5 -14t119.5 -17q24 -3 39 -17.5t20 -42.5t6 -49t-1 -59t-2 -51q0 -62 -47 -62q-210 15 -260 15q-27 0 -39.5 -49.5t-11 -109.5
t1.5 -109.5t-3 -49.5z" />
    <glyph glyph-name="f" unicode="f" horiz-adv-x="733" 
d="M70 1047q1 24 4.5 100t3.5 117q0 60 -2 180.5t-2 183.5q0 52 13 160.5t13 161.5q0 5 -2 18t-2 19q0 31 75 47t146 16q20 0 82 2t105 1.5t94 -3.5t79.5 -15t31.5 -32q6 -35 6 -70q-1 -11 -1.5 -42t-2 -46.5t-6 -36t-15 -30t-26.5 -9.5q-6 0 -18.5 1.5t-18.5 1.5h-27
q-17 1 -73.5 4.5t-86.5 3.5q-64 0 -77 -27.5t-13 -142.5q0 -14 1 -39t1 -37q0 -26 -1 -76t-1 -76q0 -14 1 -44t1 -44t-2 -43t-2 -43q0 -29 36 -39.5t88 -8.5t104.5 3.5t89.5 -9.5t39 -42q2 -25 2 -72q0 -84 -1 -91q-6 -46 -50 -63q-59 -24 -255 -24q-19 0 -30.5 -6.5
t-16 -23t-5.5 -29t-1 -40.5v-5.5v-5.5q0 -106 6 -307.5t6 -278.5q0 -10 0.5 -33.5t0.5 -36.5t-1.5 -33.5t-5.5 -32.5t-11 -24.5t-19 -18t-29 -5.5q-90 12 -139 12h-17q-20 0 -35 28.5t-22.5 78t-12 104.5t-5.5 120t-0.5 112t1.5 93t1 52v45v88q0 49 1 104.5t2.5 123
t2.5 104.5h-2z" />
    <glyph glyph-name="g" unicode="g" horiz-adv-x="1032" 
d="M70 801q0 69 -2 204t-2 201q0 34 8 100.5t8 100.5v33q0 73 2.5 129.5t12.5 126t27 120t47.5 101.5t72 83.5t103.5 52.5t140 20q91 0 160.5 -9.5t133.5 -35.5t105 -70t65 -115t24 -168q0 -123 -6 -155q-13 -69 -54 -70q-10 0 -14 2q-29 0 -86.5 -4t-83.5 -4q-8 0 -14.5 2
t-11.5 7.5t-8 10.5t-5 15t-3 17.5t-1 22v23.5v26.5v28.5v13q0 35 -6 66t-19.5 60t-40 45.5t-63.5 16.5t-66 -6.5t-50 -21t-36 -30t-25 -42.5t-15.5 -49t-9 -58.5t-5 -62t-3 -68t-3.5 -69.5q2 -16 2 -48q0 -22 -2 -64t-2 -62q0 -16 1 -45.5t1 -43.5v-86v-61q0 -41 -1 -123
t-1 -123q0 -67 10 -350q0 -80 49 -119t136 -39q32 0 55.5 6.5t37.5 22.5t22.5 29.5t11.5 41t3.5 42t0.5 47.5v18q0 55 -33 60q-27 0 -73 -6.5t-68 -6.5q-10 0 -18.5 4t-14 13t-9.5 18.5t-6.5 25t-4 28t-1.5 31.5v31v32.5v29.5q0 16 12 29t33 21t45 14t54.5 9t53 5t49.5 3.5
t36 2.5q90 8 131 8q21 0 36.5 -8.5t24.5 -24.5t14.5 -34t7.5 -43.5t2.5 -46t1 -47.5t1.5 -43q10 -185 10 -222q0 -45 -5 -82t-19 -77.5t-37 -71.5t-61.5 -60t-90 -48t-125.5 -30t-165 -11h-80h-25q-282 0 -280 495v12q0 60 2 179t2 178z" />
    <glyph glyph-name="h" unicode="h" horiz-adv-x="1060" 
d="M63 803q0 24 -1 73t-1 74q0 167 16.5 453t16.5 350q0 13 -0.5 42.5t-0.5 50.5t0.5 50t4 49t8.5 39t15 29t24 10q9 0 28 1t28 1q25 0 72 -4t71 -4h14q23 0 34 -10t11 -35q-1 -31 -16.5 -272.5t-15.5 -366.5q1 -19 -0.5 -52t-1 -54.5t4.5 -44t17 -34t35 -11.5q150 0 192 7
q78 12 78 52v102q0 18 1 54t1 53q0 19 -2 59.5t-2 61.5q0 131 8 397q0 12 -2 38t-2 34q0 20 11.5 26.5t40.5 6.5q30 -3 61 -3q47 0 115 7q32 0 48.5 -9.5t16.5 -40.5q-4 -50 -4 -71q0 -38 3 -113t3 -112q0 -49 -4 -148.5t-4 -148.5q0 -48 3 -151t3 -157q0 -141 -11 -390.5
t-11 -371.5q0 -25 1 -76t1 -77q0 -10 1.5 -39.5t1 -46.5t-4 -39.5t-14.5 -35.5t-29 -17q-6 -1 -56.5 -15t-82 -20t-58.5 -6q-51 0 -51 225q0 36 -1 109t-1 110q0 62 4 190.5t4 192.5q0 29 -12.5 39t-42.5 10q-12 0 -55 1.5t-71 1t-62 -3.5t-52 -12t-18 -24q0 -48 -6.5 -160
t-4.5 -175q1 -33 5 -123.5t4 -141.5q0 -57 -13.5 -79.5t-50.5 -22.5h-20q-26 0 -75 -7t-73 -7q-27 3 -39.5 15.5t-13.5 39.5q-21 265 -21 678z" />
    <glyph glyph-name="i" unicode="i" horiz-adv-x="434" 
d="M68 354q0 32 1 96t1 95q0 23 -2 71.5t-2 73.5q0 20 2 62.5t2 64.5q-2 20 -2 62q0 22 1 68.5t1 70.5v35q0 39 1 115t1 114q0 64 -1 194t-1 195q0 19 -1 56.5t-1 62.5t1 59t6 56t13 43.5t23 32t36 10.5q28 0 83.5 10t80.5 10q22 0 35.5 -18.5t18 -56t5.5 -67t-1 -79
t-2 -64.5q0 -32 -4.5 -94t-4.5 -94q2 -18 2 -53q0 -23 -2 -68t-2 -67v-37q0 -25 -1 -74t-1 -74q0 -87 2 -273t2 -282q0 -63 -5 -189t-5 -185q0 -42 12.5 -123t12.5 -119q0 -35 -51 -35q-5 0 -36.5 -0.5t-45.5 0t-43.5 1.5t-45 4.5t-35 8.5t-29 13.5t-11.5 19.5
q-1 12 -3 33.5t-3 32.5q0 47 1 141t1 141h-4z" />
    <glyph glyph-name="j" unicode="j" horiz-adv-x="915" 
d="M842 1106q0 -222 -1 -321.5t-10.5 -277.5t-29.5 -319q-15 -76 -54 -130.5t-93.5 -83.5t-113 -41.5t-126.5 -12.5q-71 0 -137 22t-121.5 64.5t-91 114t-39.5 162.5q-1 16 -6.5 82t-6.5 100q0 37 14.5 46t63.5 9q23 0 65.5 -5t63.5 -5q7 0 22.5 1t22.5 1q26 0 37.5 -31
t14.5 -75t8 -87.5t25.5 -74.5t58.5 -31q42 0 71 13.5t44 32t23 54.5t9.5 63.5t1.5 76.5q0 149 -16.5 440t-16.5 432q0 48 3 151t3 156v189q0 105 10 138q19 60 83 60q16 -2 46.5 -2t53.5 -1t47 -4.5t38 -15.5t15 -32q29 -188 29 -313q0 -317 -10 -545z" />
    <glyph glyph-name="k" unicode="k" horiz-adv-x="1073" 
d="M371 1718q0 -107 -6.5 -308.5t-6.5 -223.5q0 -56 27 -56q69 0 121.5 20.5t84.5 53.5t52 80.5t27.5 94.5t7.5 102q0 16 -1 50t-1 52q0 59 10 178t10 178v25q0 31 27.5 39.5t82.5 9.5t87 10q21 7 31 7q84 0 84 -381q0 -193 -48 -352.5t-159 -305.5q-6 -9 -6 -18
q0 -5 26.5 -25.5t60.5 -51.5t48 -58q32 -61 48.5 -140t19.5 -136t3 -148q0 -49 -3.5 -110t-6.5 -94t-11.5 -116t-10.5 -100q-9 -55 -54 -55q-22 0 -55 -1t-48.5 -1t-39 1.5t-34 6t-24 13.5t-19 23t-9.5 35t-4 50q-3 38 -6 109t-5.5 124.5t-10 125t-17.5 124.5t-29.5 108.5
t-46 91t-66.5 58t-91 22.5q-18 0 -25.5 -8.5t-7.5 -27.5q0 -26 4 -75t4 -73q0 -25 -3 -76t-3 -77q0 -16 3 -48t3 -47q0 -29 -1 -87t-1 -85q0 -35 1 -104.5t1 -104.5q0 -40 -15.5 -56.5t-50.5 -16.5q-3 0 -9 1t-9 1q-28 0 -86 -11.5t-88 -11.5q-24 2 -38 49t-17 122.5
t-3 111.5t1 75v3q0 15 1 47t1 47q0 39 -2 116.5t-2 116.5q0 24 3 76.5t3 79.5q0 16 -2 45t-2 45q0 36 1 107.5t1 107.5v217q0 36 1 107t1 106q0 19 -2 56t-2 55q0 39 2 82.5t5.5 96.5t4.5 83q1 25 8 40t18.5 23t33 13t43.5 7.5t59.5 9t72.5 15.5q20 5 25 5q17 0 25 -15.5
t8 -34.5q-4 -74 -4 -219z" />
    <glyph glyph-name="l" unicode="l" horiz-adv-x="722" 
d="M68 989q0 15 -1 43t-1 43q0 80 11 236t11 235q0 20 1 81.5t1 97t-4.5 80.5t-13.5 71q-6 18 -6 39q0 98 57 98q17 0 59 2t72 2.5t63.5 -2.5t51.5 -13.5t18 -29.5q2 -46 9 -157.5t7 -169.5q0 -23 -1 -67t-1 -65q0 -19 1 -60t1 -62q0 -88 -14 -260.5t-14 -249.5q0 -13 4 -37
t4 -35q0 -17 -4 -48t-4 -46q0 -62 3 -135.5t8 -164.5t7 -145q0 -37 10 -49t39 -12q33 0 98.5 2t98.5 2q16 0 27.5 -8.5t18 -26.5t11 -35t5.5 -45.5t1.5 -45t0 -47.5t-0.5 -40q-5 -34 -14.5 -46.5t-36.5 -12.5q-17 0 -51 4t-51 4q-8 -2 -25 -2q-27 0 -77.5 7t-75.5 7
q-10 0 -32 -1t-34 -1q-39 8 -96 7q-25 0 -35 1.5t-24.5 9t-19 28t-12 53.5t-11.5 90t-9 133t-11 186q-4 80 -7 125q0 39 -6 118t-6 118v196z" />
    <glyph glyph-name="m" unicode="m" horiz-adv-x="1697" 
d="M1243 1509q-30 -20 -51 -65.5t-38.5 -104.5t-29.5 -82q-13 -27 -38.5 -104t-51.5 -122t-61 -48q-28 -2 -113 -13.5t-129 -11.5q-24 0 -45.5 25t-37.5 66.5t-27.5 81t-22.5 82.5t-16 57q-97 273 -156 395q-8 28 -25 35q-15 -3 -21.5 -62t-6.5 -114v-37q0 -97 5 -287
t5 -287q0 -23 -1 -71t-1 -72q0 -26 1 -76t1 -76t-2 -78t-2 -77q0 -77 11 -220.5t11 -215.5q0 -28 -13.5 -47t-33 -27.5t-49 -12t-52 -2.5t-52.5 3t-41 2q-25 0 -41.5 33.5t-23 93t-8.5 111t-2 118t-1 82.5q-16 323 -16 401q0 84 9 250t9 236q0 110 -1 342t-1 344
q0 19 3 33.5t5 24t12.5 16.5t14.5 10.5t23.5 6.5t26 3.5t34.5 3.5q31 3 91 10t109 11t91 4t73 -39.5t44.5 -87t31.5 -115.5t31 -98q6 -14 35 -96t55 -137.5t43 -55.5q15 0 40.5 45.5t46.5 98.5t41.5 107t22.5 58q16 32 43 116t55 135t66 56q155 21 224 21q27 0 80.5 -4
t78.5 -4h23q49 0 55 -43q29 -304 29 -437v-73q0 -39 3 -115.5t3 -114.5q0 -148 -9.5 -445t-9.5 -446q0 -64 14.5 -195t14.5 -196q0 -20 -9.5 -34.5t-21.5 -21.5t-33.5 -10.5t-34.5 -4t-36 -0.5h-6h-37q-35 -1 -50 -0.5t-35 5t-27 14t-15 28t-10 45.5t-2 69q-56 626 -56 1338
q0 36 -12 69z" />
    <glyph glyph-name="n" unicode="n" horiz-adv-x="1144" 
d="M760 1061q8 18 8 53q-27 501 -27 887q6 33 50 33q17 0 45.5 0.5t46.5 0.5h43t41 -2t35.5 -5.5t31.5 -10t22.5 -15t15.5 -21.5t5 -29v-33q0 -19 1 -58t1 -59q0 -199 -16 -589t-16 -586q0 -17 1 -51t1 -52q0 -64 -5.5 -194t-5.5 -195q0 -14 3 -43.5t3 -46.5q-1 -12 -11 -20
t-28.5 -11t-31 -3.5t-33.5 -0.5q-13 0 -43.5 7.5t-46.5 7.5q-29 0 -117 -9q-12 0 -24.5 18.5t-24.5 52.5t-23.5 74t-23 90.5t-20.5 94.5t-18 94t-14.5 80.5t-10.5 63.5l-5 32q-26 130 -65 392q0 4 -2 8q-14 47 -44.5 217.5t-70.5 251.5q-12 -2 -12 -23q4 -141 4 -422
q0 -4 -1 -11t-1 -11q0 -8 1 -23.5t1 -23.5q-6 -119 -6 -359q0 -96 8 -278.5t8 -272.5q0 -28 -12 -47t-29 -28t-46 -13t-50 -3.5t-55.5 2t-49.5 1.5q-28 0 -44.5 18t-20.5 46.5t-5.5 63.5t0.5 70t-1 65q-6 66 -6 264q0 28 2 86t2 86q0 14 -1 39t-1 39q0 45 3 136.5t3 137.5
v285q0 47 1 142t1 146v56q0 23 3 70.5t3 72.5q0 29 -6 89.5t-6 90.5q2 19 17.5 31t44.5 16.5t48 5.5t53 1h9q19 0 54 -4.5t52 -4.5q16 0 45 3.5t43 3.5q28 0 65.5 -80.5t74 -207t65.5 -241t54 -223.5t26 -113q13 -58 35 -102z" />
    <glyph glyph-name="o" unicode="o" horiz-adv-x="1128" 
d="M1065 1042v-102q0 -20 0.5 -89t0 -101t-1.5 -99t-3.5 -105t-7 -95.5t-12.5 -94.5t-18 -78.5t-25 -70.5t-33 -49q-138 -150 -453 -150q-91 0 -162 22.5t-119 67t-81 101t-51 133.5t-25.5 156t-7.5 176q0 22 5 65t5 64q0 38 -5 120.5t-5 126.5q0 37 3 110.5t3 109.5
q0 26 -2 77t-2 76q0 235 9 326q30 289 184 376q38 22 85 33q83 19 215 19q65 0 117 -5.5t110 -23.5t99.5 -48.5t74.5 -84.5t46 -127q57 -410 57 -836zM375 561q0 -264 153 -264q58 0 99 12.5t66.5 37t40.5 60t21 81t7.5 101.5t0.5 121t1 138q0 4 -1 10.5t-1 9.5q8 207 8 623
q0 23 -3 68t-3 67q0 9 2 30.5t2 31.5q0 51 -6 90.5t-22.5 78t-51.5 59.5t-86 21q-52 0 -87.5 -13t-58 -44.5t-35 -71t-17.5 -104.5t-6 -132.5t0 -168.5q1 -92 1 -143q0 -26 6.5 -77t6.5 -77q0 -61 -17.5 -182t-17.5 -174q0 -17 2 -48.5t2 -46.5t-3 -47t-3 -47z" />
    <glyph glyph-name="p" unicode="p" horiz-adv-x="1038" 
d="M70 709q0 47 -1 141t-1 141q0 31 2 95.5t2 97.5q0 26 -2 78t-2 79q0 197 14 488q2 35 12 126t10 138q4 18 22 31.5t45.5 20t58 9.5t63 3t57.5 -1t44 -2l20 -2q16 2 49 2q12 -1 34.5 -2.5t41 -2.5t34.5 -1h19q426 0 426 -424q0 -36 1 -108q4 -73 1 -145t-8.5 -137.5
t-27 -125.5t-55 -108.5t-92.5 -87t-139 -60.5q-32 -9 -80.5 -11.5t-90.5 -2t-81.5 -1.5t-62.5 -13t-23 -33q13 -221 13 -320v-26q0 -69 7 -206t7 -206q0 -25 -1.5 -36t-7.5 -25t-21.5 -19.5t-41.5 -5.5q-7 0 -21.5 2t-21.5 2q-22 0 -66 -8t-67 -8q-67 0 -67 674h-2z
M371 1595h6q-2 -34 -12.5 -150t-10.5 -179q0 -27 13 -35t47 -8h73h35q47 0 83 12.5t57.5 37t36 51.5t20.5 65.5t8 68t2 70.5q0 344 -135 344q-24 0 -63 1q-33 -1 -56.5 0.5t-38.5 -6t-24.5 -17.5t-15 -34.5t-9.5 -57.5t-9 -86q-4 -49 -7 -77z" />
    <glyph glyph-name="q" unicode="q" horiz-adv-x="1040" 
d="M55 1016v258q0 220 39 624q7 78 50.5 131.5t119.5 82t164 40t205 11.5q60 0 106 -9t81.5 -30.5t61 -49t43.5 -73.5t28.5 -93.5t16 -120t7.5 -142t2 -170.5q0 -100 -8 -296t-8 -294q0 -51 1 -153.5t1 -153.5v-34q1 -178 -18 -260q-34 -145 -146 -218q-35 -22 -35 -43
q0 -14 24.5 -80t24.5 -88q0 -13 -10.5 -23t-24.5 -10h-22q-26 0 -78 -4t-78 -4q-12 0 -22.5 8t-19.5 25t-14.5 30.5t-13.5 37t-12 32.5q-8 20 -14 30t-12 17t-19 10t-24.5 4.5t-41 4.5t-57.5 7q-68 10 -118.5 52.5t-76 99t-42 124t-20.5 124t-8.5 104.5t-8.5 60
q-13 32 -19 91.5t-6.5 106t1 129t1.5 105.5zM690 1245q0 22 -1 63.5t-1 61.5q0 22 2 65.5t2 63.5q0 169 -19 243q-35 134 -141 134q-46 0 -76.5 -8t-49 -27t-28 -41.5t-14 -62t-6.5 -77t-7.5 -97.5t-14.5 -113q-17 -185 -17 -467v-9q0 -109 1 -166t6 -153.5t18 -150t34 -112
t56.5 -85t83.5 -26.5q191 0 191 219q0 24 -2 73t-2 74q0 15 1 43t1 43q0 96 -8 274t-9 238z" />
    <glyph glyph-name="r" unicode="r" horiz-adv-x="1089" 
d="M795 1028q136 -136 179 -292.5t58 -532.5q0 -92 -2 -103q-7 -39 -45 -51q-44 -14 -209 -14q-45 0 -62.5 28t-21 93.5t-5.5 147t-25 215.5t-70 272q-59 147 -166 147q-13 0 -21.5 -9.5t-11.5 -31t-3.5 -36t-0.5 -43.5v-15q0 -27 3 -83t3 -83v-481q0 -41 -23.5 -54.5
t-60.5 -7.5t-81 6.5t-85 -12.5q-8 -4 -14 -4q-12 0 -21.5 10t-9.5 23q0 7 1 21.5t1 21.5q0 57 -13 174t-13 178v113q-8 133 -8 305q0 50 -1.5 223.5t-0.5 255t7.5 214.5t20.5 237q4 49 0.5 106t7.5 108t41 58q93 22 230 22q23 0 69 -3t72 -3h23q239 0 350.5 -112.5
t111.5 -380.5q0 -62 -1 -109t-5.5 -116.5t-14 -122t-25 -105.5t-41 -87.5t-58.5 -47.5q-11 -5 -18.5 -9.5t-19 -13.5t-21.5 -16zM739 1528q-1 17 -1.5 49t-1 51t-2.5 48t-5.5 47t-10.5 42t-16.5 38.5t-24 31t-33 25t-43.5 14.5t-56 6h-19.5h-22.5t-21 -0.5t-22 -2.5
t-19 -4.5t-18 -7.5t-13.5 -11t-10.5 -15t-4 -20q0 -66 -3 -205t-3 -207q0 -18 -1 -49.5t-1 -49t1.5 -43t7.5 -39.5t16.5 -28t28 -20.5t42.5 -6.5q56 0 88.5 3t64.5 16t47.5 35t29 63.5t18.5 97.5t8 142z" />
    <glyph glyph-name="s" unicode="s" horiz-adv-x="1048" 
d="M694 625q0 8 0.5 39t0 43t-2.5 40t-7 41.5t-13.5 36t-22.5 35t-33 26.5t-46.5 22t-61.5 12q-246 34 -345.5 126.5t-99.5 292.5q0 10 2.5 32t2.5 32v29q1 32 2.5 90.5t2 98.5t5 97.5t12 98t22.5 87t35.5 78.5t53 59t73.5 40q234 76 379 76q61 0 116.5 -27.5t95.5 -73
t69.5 -102.5t44 -117t14.5 -115q0 -15 1.5 -59.5t0.5 -67.5q-4 -27 -6.5 -39.5t-10 -24.5t-20 -16t-34.5 -4q-26 0 -76.5 -13t-73.5 -13q-41 0 -41 61q0 4 1 13.5t1 13.5q0 63 -8.5 110.5t-29.5 89t-61 63.5t-99 22q-51 0 -88.5 -17t-60 -46t-36 -74.5t-18 -94t-4.5 -113.5
q0 -131 37 -198t141 -92q16 -1 47 -2q49 -2 73.5 -3.5t67 -8t64.5 -17t55.5 -31t51.5 -49.5t40 -72.5t33.5 -100t21 -133t11.5 -169.5q0 -489 -168 -561q-93 -41 -169.5 -57.5t-168.5 -16.5q-15 0 -43 4t-43 4h-8q-54 0 -99.5 24.5t-76.5 62t-55.5 88.5t-38.5 97.5t-24 96
t-13.5 76t-4.5 45.5q-1 9 -4.5 40t-3.5 48q0 26 34 43.5t85 24.5t84.5 9.5t58.5 2.5q20 -2 35 -23t23.5 -54.5t14 -65t10.5 -68.5t8 -51q8 -43 51.5 -76t105.5 -33q36 0 61.5 17.5t38 41t20 61.5t8.5 63t1 61v84h2z" />
    <glyph glyph-name="t" unicode="t" horiz-adv-x="940" 
d="M612 575q2 -105 12 -268.5t13 -224.5q0 -64 -43 -64h-29q-31 0 -97 -7t-99 -7q-11 0 -19.5 4.5t-14.5 13.5t-10 18.5t-6.5 25t-4 27.5t-2 30.5t-0.5 30.5t0.5 30.5t0.5 26.5q0 67 9.5 196.5t9.5 192.5q0 18 -1 51t-1 51q0 26 1 76t1 76v195q2 25 2 71q0 22 -2 64.5
t-2 62.5q0 81 6 243t6 243v15v15.5t-0.5 14t-1.5 14t-3.5 12t-6 11t-8.5 7.5t-11.5 5.5t-15.5 1.5q-35 0 -107 -9.5t-106 -9.5q-41 0 -41 45q0 3 1 9.5t1 9.5q-2 28 -7 82.5t-7 81.5q0 61 313 61q18 0 51 -3t51 -3q22 0 66.5 2t64.5 2q21 0 61 1t64 1t57 -1t53.5 -7
t40.5 -15.5t29 -26.5t9 -40q0 -28 7 -80.5t7 -77.5q0 -43 -41 -43q-28 0 -111.5 11.5t-125.5 11.5q-9 0 -16 -3t-11 -10.5t-6.5 -14t-3 -18.5t-1 -19.5t0 -21.5t0.5 -20q0 -103 8 -305.5t8 -302.5v-100q0 -55 4 -167t4 -163v-111z" />
    <glyph glyph-name="u" unicode="u" horiz-adv-x="1067" 
d="M377 1649q0 -108 -12.5 -307.5t-12.5 -290.5q0 -8 1 -25t1 -25q0 -19 -1 -55t-1 -55q0 -40 2 -121.5t2 -122.5q0 -40 -1 -85t-2.5 -100t-2.5 -85q0 -38 37.5 -72t85 -51.5t86.5 -17.5q38 0 66 12t45.5 36.5t28 50t15 64.5t6 67t1.5 71q0 25 -4 77t-4 78q0 18 2 55t2 56
q0 26 -1 78t-1 77q0 83 2 251.5t2 250.5q0 98 -10.5 292t-10.5 290q0 47 62 47q12 0 41.5 1t47 0.5t44 -2t43 -6.5t33.5 -13t26 -22.5t11 -33.5q0 -410 -31 -870q0 -35 2 -102.5t2 -102.5q0 -28 -1 -83t-1 -83q0 -18 1 -55t1 -55q0 -263 -16 -376q-37 -250 -181 -323
q-60 -30 -141 -33q-62 -4 -94 -4q-104 0 -190.5 31t-153 92t-103.5 161t-37 230q0 26 3.5 77t3.5 77q-2 23 -2 72q0 161 13 484t13 484q0 59 -4 174t-4 170q1 23 16.5 37t44.5 18t53.5 4.5t64 -1.5t54.5 -2q17 -2 29.5 -15t19 -35t10 -46t4 -55.5t0 -56t-1.5 -54t-1 -43.5
q0 -26 -4 -80h2z" />
    <glyph glyph-name="v" unicode="v" horiz-adv-x="1110" 
d="M555 344q24 42 34.5 131.5t12.5 192.5t4 118q16 145 77 565t79 672q2 19 18 32.5t36.5 19.5t51 9t51 3t47 -1t29.5 -1q43 0 58.5 -10t15.5 -43q-15 -115 -63 -468.5t-70 -545.5q-3 -39 -17 -117.5t-16 -120.5q-6 -109 -22.5 -223.5t-44 -268t-37.5 -220.5q-1 -8 -3 -25
t-3 -23.5t-4.5 -17.5t-8.5 -15.5t-14 -9t-21 -6.5t-36 -6.5t-38.5 -7t-35.5 -4.5t-39 -2q-19 0 -57.5 5t-55.5 5q-8 0 -24.5 -3t-24.5 -3q-29 0 -76 161.5t-78.5 311t-33.5 174.5q-21 136 -67 383t-62 354q-61 408 -78 658q0 24 22.5 41t59 25t69.5 11t68 3q37 0 62 -29
t37.5 -81.5t18 -101.5t10.5 -113.5t9 -92.5q17 -155 66.5 -557t73.5 -637q9 -87 20 -121z" />
    <glyph glyph-name="w" unicode="w" horiz-adv-x="1769" 
d="M1329 487q15 66 23 158t9 140t0 180.5t-1 146.5q0 106 -5 313t-5 306q0 46 -15.5 142.5t-15.5 137.5q0 18 10 28.5t32.5 14.5t37.5 5t44 1h11q85 0 99 -3q46 -8 60 -56q11 -36 11 -105v-34q0 -156 10.5 -319t30.5 -378t27 -311q4 -66 4 -102v-23q0 -34 2 -101t2 -100
q0 -26 -2 -78t-2 -77q0 -31 3 -93t3 -92q0 -13 0.5 -43t0.5 -52t-0.5 -51.5t-3 -51t-7.5 -42t-14 -31.5t-21 -13q-233 -28 -293 -31h-26h-28t-25.5 0.5t-26.5 2t-23.5 4t-23.5 6.5t-19.5 10t-17.5 14t-12.5 18t-10.5 23q-82 283 -143 411q-23 47 -64 155t-70 163
q-9 18 -20 18q-22 0 -123 -309q-26 -72 -69.5 -205.5t-63.5 -191.5q-3 -6 -9.5 -19.5t-8.5 -16.5t-7.5 -12t-9.5 -10.5t-11 -6.5t-15 -6t-19 -2t-26 -1q-46 0 -226 10q-10 0 -29.5 -1t-31.5 -1q-19 0 -33.5 17t-22.5 47t-13.5 65t-8 77t-3.5 76t-1.5 68.5t-1.5 49.5
q-20 382 -29 569.5t-19 501.5t-10 575q0 20 8.5 32.5t28 17t32.5 5.5t40 1h12q11 0 36 0.5t36.5 0t33.5 -1t33 -3t27 -6.5t24.5 -11t17.5 -16.5t12.5 -23t3.5 -30.5q0 -59 -3.5 -174t-3.5 -170q0 -21 1 -63t1 -62q0 -84 -9 -251.5t-9 -251.5q0 -132 12 -267v-49.5v-65.5
t0.5 -66.5t2.5 -68.5t5 -54.5t8.5 -41.5t12.5 -14q18 0 46 57t57 146t44 139.5t27 93.5q6 22 19.5 81.5t24.5 100.5t27 88t35.5 72t41.5 25q39 0 117.5 7t117.5 7q31 0 49.5 -12t28.5 -41q32 -90 74 -189.5t96.5 -222t79.5 -180.5q2 -2 7.5 -9.5t10.5 -13.5z" />
    <glyph glyph-name="x" unicode="x" horiz-adv-x="1275" 
d="M680 1454q6 2 14 11.5t16.5 27.5t16 35t17.5 43.5t16 42.5t15.5 44t12.5 36q16 45 37.5 93t51.5 107.5t45 92.5q8 18 30 28t54.5 12.5t60.5 2t66.5 -2.5t54.5 -2q19 0 30 -8t11 -22q0 -12 -13 -50t-31.5 -87.5t-25.5 -71.5q-120 -364 -305 -739q-8 -19 -8 -43
q0 -34 22 -93q9 -25 53.5 -136.5t69 -182t39.5 -135.5q17 -59 67 -178.5t66 -184.5q3 -13 12 -34t9 -29q0 -26 -20 -46t-44 -20h-22q-34 0 -98 -17.5t-91 -17.5q-10 0 -24 14.5t-30 42t-30.5 56t-31.5 67t-28 64.5t-25 60t-17 42q-5 13 -19 47.5t-23.5 57.5t-21.5 49.5
t-21 40.5t-15 14q-13 0 -34.5 -36t-47.5 -100.5t-49 -126.5t-51.5 -141.5t-43.5 -117.5q-4 -18 -17 -32t-37 -22t-44 -13t-56 -6.5t-52.5 -2t-51.5 -0.5h-18q-53 0 -53 31q0 19 10 39q43 93 112.5 282t110.5 279q35 91 148 385q6 15 6 31q0 19 -6 37q-25 69 -78.5 203
t-92 242t-63.5 206q-11 29 -50.5 123t-60 157t-20.5 105q0 53 281 53q22 0 44.5 -32.5t37 -70t32.5 -88.5t25 -67q3 -7 14.5 -34.5t18.5 -44t20 -47.5t23 -52t22.5 -48.5t23 -46t21 -36.5t19 -27.5t14.5 -11.5z" />
    <glyph glyph-name="y" unicode="y" horiz-adv-x="1073" 
d="M1018 1671q2 -51 7 -154.5t7 -154.5q0 -167 -4 -206q-14 -144 -97 -209q-63 -48 -171 -66q-18 -3 -29 -14t-14.5 -31t-4 -35.5t1 -43.5t1.5 -38q0 -9 1 -27.5t1 -27.5q0 -35 -2 -104.5t-2 -104.5q0 -15 1 -44t1 -44q0 -24 1 -69.5t1.5 -77t-0.5 -73t-5.5 -69.5
t-12.5 -54.5t-22 -39.5t-34 -13h-29q-26 0 -78 -6t-79 -6t-38 11t-11 42v23q0 134 -13.5 406t-13.5 407q-4 23 -26.5 35.5t-54 16.5t-70 17.5t-72.5 34.5t-62.5 71t-40.5 124q-22 136 -18 373q12 248 47 467q1 9 2 31.5t2.5 36t11 25t27.5 11.5q27 0 73 -8t70 -8h19h37
t26 -2.5t21.5 -7t11.5 -14t8.5 -23.5t1.5 -35v-58v-116q0 -74 -5 -223.5t-5 -221.5q0 -28 0.5 -43t2.5 -38t6.5 -35t12.5 -29t20 -25.5t30 -19t41.5 -15.5t55.5 -8.5t71 -3.5q52 0 76.5 32.5t31.5 92.5q0 147 -16.5 394t-16.5 366q0 22 13.5 35.5t36.5 13.5q11 0 40 1t49 1
t48 -1.5t47.5 -6.5t38 -13t28 -22.5t9.5 -34.5q6 -61 7 -179.5t3 -164.5h-2z" />
    <glyph glyph-name="z" unicode="z" horiz-adv-x="1019" 
d="M72 166q0 16 -1 45.5t-1 44.5q0 25 13.5 67.5t28 76t39.5 88.5t33 73q28 68 131 326.5t164 396.5q103 227 156 465q2 6 2 18q0 33 -49 33q-4 0 -13.5 -1t-13.5 -1q-9 0 -28.5 1t-28.5 1q-73 0 -214.5 -15.5t-176.5 -17.5q-21 0 -33.5 13.5t-16.5 41t-5 49t1 58.5t2 49
q0 129 353 129h8q51 0 157 -4t158 -4q21 0 62 2t61 2q33 0 56 -40t32 -98t12 -93.5t3 -54.5q0 -41 -58.5 -159t-60.5 -128q-14 -40 -87 -220.5t-95 -287.5q-30 -110 -70.5 -237.5t-88.5 -272t-69 -211.5q-2 -6 -2 -18q0 -10 8 -16t23 -7.5t28 -1.5t32 1t26 1q28 0 87 5t89 5
q12 0 40 0.5t42.5 0.5t38.5 -2t36.5 -7.5t27 -14.5t20.5 -24.5t6 -36.5q0 -12 0.5 -41.5t0.5 -43.5t-1.5 -37.5t-6 -35.5t-11.5 -26t-19 -19.5t-29 -5.5q-7 0 -22.5 2.5t-22.5 2.5q-36 0 -104 -9.5t-103 -9.5q-24 0 -71 3t-68 3q-5 0 -15 -1t-15 -1q-28 0 -94 11.5
t-101 11.5q-119 0 -144 9q-29 10 -34 49q-2 9 -4 118z" />
    <glyph glyph-name="braceleft" unicode="{" horiz-adv-x="768" 
d="M406 868q43 -44 60.5 -67t29.5 -65t12 -107q0 -29 -6 -86t-6 -86v-39v-107v-24q-1 -22 0 -47.5t1.5 -53t3.5 -55t8 -53t14 -47.5t20 -38.5t28.5 -26t38.5 -9.5q16 0 52 8q19 0 32 -21t18.5 -55.5t8 -65t2.5 -61.5q0 -30 -58.5 -49t-104 -22.5t-75.5 -3.5
q-129 0 -188 78.5t-59 252.5q0 30 1 93.5t1 95.5q0 60 -0.5 92t-2 92t-6 96t-11 85.5t-18.5 80t-28 60.5t-39 45t-51 18q-24 5 -35.5 8.5t-20 12.5t-8.5 24q0 32 0.5 51t4 52t10 52.5t19.5 36t32 19.5q84 25 101 36q37 22 46 84q5 37 5 101q0 106 -10.5 317t-10.5 316
q0 65 2 94t13.5 70t36 61t70 41t116.5 37q34 6 67 6q185 0 185 -81q0 -20 1 -53t1 -43.5t-4 -30t-11.5 -25.5t-24 -16.5t-39.5 -16.5t-59 -14q-23 -5 -36.5 -10t-27 -18.5t-13.5 -33.5q0 -30 -2.5 -90.5t-2.5 -91.5q0 -63 10.5 -188t10.5 -187q0 -78 -2 -122.5t-11 -105
t-30.5 -105.5t-56.5 -80z" />
    <glyph glyph-name="bar" unicode="|" horiz-adv-x="409" 
d="M74 903q-1 19 -8 194t-7 267v98q0 21 -1 60.5t-1 58.5q0 5 -0.5 53.5t0 72.5t1.5 72.5t4.5 77.5t8.5 62t13.5 50.5t19.5 21.5q63 20 187 20q21 -6 29 -18t8 -37q0 -24 -3 -70t-3 -69t2 -68t2 -68q0 -89 -5.5 -272t-5.5 -279q7 -349 29 -925q0 -7 3 -41t3 -51
q0 -84 -31 -117t-126 -33q-29 0 -39.5 0.5t-27.5 4t-22 10.5t-12 21.5t-8.5 36t-1.5 54.5v105q0 38 -2 114t-2 115q2 20 2 59q0 67 -3 203.5t-3 216.5z" />
    <glyph glyph-name="braceright" unicode="}" horiz-adv-x="778" 
d="M586 1548q0 -24 -1 -70t-1 -69v-35.5v-36t0.5 -33.5t2.5 -33.5t6 -28.5t9.5 -27t14 -21t19.5 -17.5t26.5 -9.5t33.5 -4q38 -4 47 -55t9 -203q0 -20 -20.5 -35.5t-50 -29t-59.5 -30t-50.5 -47.5t-20.5 -73q0 -67 13.5 -203.5t13.5 -205.5v-58q0 -40 3 -118t3 -117
q0 -146 -95 -221.5t-309 -75.5q-24 0 -40.5 19t-23.5 46.5t-9.5 64t-1.5 64t2.5 55t1.5 29.5q0 21 12.5 31t32.5 12t44 2t47.5 6t43.5 19.5t32.5 46t12.5 82.5q0 89 -16.5 260.5t-16.5 257.5v15q0 53 1.5 81t7.5 70t23 73.5t44 57.5q2 2 7.5 7t8.5 8t6.5 7t5 8t1.5 7
q0 12 -34 38t-42 50q-31 84 -31 156q0 24 4 74t4 77q-1 23 -1.5 73.5t-2 88t-4.5 88t-10.5 87.5t-19.5 71.5t-32 55t-47 24.5q-18 0 -53 -2.5t-53 -2.5q-16 0 -26 16t-12.5 46.5t-3 55.5t1 62t1.5 48q1 11 5 20.5t13.5 16t17.5 11t23 7.5t23.5 5t26.5 2.5t24.5 0.5h24h18.5
q302 0 348 -260q1 -21 9 -84.5t8 -99.5q0 -11 -1 -33t-1 -33q0 -21 1 -65t1 -66z" />
    <glyph glyph-name="asciitilde" unicode="~" horiz-adv-x="1243" 
d="M920 1077q-3 23 -4 71.5t-5.5 84.5t-17.5 61q0 4 -1 12t-1 11q0 51 203 51q20 -2 35.5 -30t24 -73t14.5 -90t8.5 -92.5t3 -68t0.5 -29.5q0 -230 -85.5 -345.5t-285.5 -115.5q-323 0 -334 217q-8 165 -27 221q-22 64 -65 64q-25 0 -44 -26t-28.5 -67t-13.5 -80t-4 -77
q0 -23 5 -71t5 -74q0 -30 -12.5 -51.5t-27.5 -31.5t-42.5 -15.5t-42.5 -6t-43 -0.5q-18 1 -31 10.5t-20.5 29.5t-12 36t-6 45.5t-2 41.5t-0.5 40q0 17 3.5 52t3.5 53q0 12 -2 36t-2 37q0 75 7 134t28.5 118.5t57 98.5t95.5 63.5t141 24.5q245 0 283 -228q3 -20 10.5 -60.5
t11.5 -71t5 -58.5v-8q0 -55 25 -91t75 -36q24 0 43 11.5t31 26.5t20.5 42.5t12.5 47t6 53t2 47.5v42v14z" />
    <glyph glyph-name="exclamdown" unicode="&#xa1;" horiz-adv-x="442" 
d="M379 1139q2 -2 4 -2q-3 -117 -7 -300.5t-8.5 -331t-11.5 -286.5q0 -16 1.5 -45.5t2.5 -54.5t1.5 -55.5t-2.5 -54t-8.5 -44.5t-16.5 -32.5t-27 -12.5q-33 -1 -95.5 2.5t-88.5 3.5q-18 0 -29.5 8.5t-15.5 27t-5 31t-1 35.5v9q-13 277 -13 790q0 101 6.5 303t6.5 302l-4 62
q0 105 38 105q30 0 85 -8t85 -8h19q24 0 39 -1t26 -7.5t16 -12t7.5 -22.5t3 -30t0.5 -44q0 -60 -3.5 -175t-4.5 -152zM373 1862h2v-28.5v-25t-0.5 -20t-2.5 -18t-5 -13t-8 -11t-11.5 -6.5t-16 -6t-21 -2t-27.5 -1q-24 0 -55 5.5t-64.5 16.5t-56.5 34t-23 52q0 4 -0.5 25
t-0.5 35.5t1.5 37t5.5 39t10 32t17 24t26 8.5q45 0 176 -23q11 -2 20 -7.5t15 -12.5t10 -19t6 -21t2.5 -24.5t0.5 -24v-25v-21.5z" />
    <glyph glyph-name="cent" unicode="&#xa2;" horiz-adv-x="919" 
d="M643 764q0 11 -1 35t-1 37q0 33 1.5 46t11 22t30.5 9h16h38t32 -1t29 -3t24 -6t21.5 -10t16 -14.5t13 -20.5t8 -27.5t6 -35t1.5 -43.5q0 -64 -0.5 -97t-6 -91.5t-16 -92t-31 -78.5t-50.5 -71t-76.5 -49t-106.5 -33q-14 -2 -24 -11.5t-15.5 -23.5t-9.5 -32t-4.5 -37.5
t-1.5 -39.5t0 -39v-18q0 -11 3 -34t3 -34q0 -25 -18 -41.5t-51 -22.5t-56 -7.5t-57 -1.5q-43 0 -60.5 14t-17.5 51q0 35 4 76t11 96t9 72q0 19 -16.5 29t-36.5 10q-39 7 -70 26t-51.5 43.5t-35.5 60.5t-22.5 69t-12 79t-5.5 80t-1 82q2 14 2 43q0 143 -15.5 346t-15.5 219
q0 60 1.5 97.5t9.5 94.5t23 93t45.5 70t73.5 49q10 3 35 8t41 9.5t35 11.5t29.5 17.5t11.5 24.5q12 172 23 226q23 114 69 114q18 2 66.5 11.5t72.5 9.5q16 0 26.5 -4.5t16 -10.5t8 -20t3 -23t0.5 -30q-13 -214 -25 -297q0 -15 21 -27t51.5 -23.5t62 -28t56 -49t30.5 -77.5
q13 -108 11 -151q0 -12 1 -42t0.5 -50t-4.5 -42.5t-15 -34.5t-30 -12q-28 0 -89.5 -13t-92.5 -11q-22 1 -28.5 16.5t-6.5 46.5q0 8 1 24.5t1 24.5q0 25 -3.5 49t-12 48.5t-24 39.5t-37.5 15q-81 0 -135 -50t-54 -128q2 -37 10.5 -124.5t8.5 -135.5v-23q0 -61 0.5 -97t3 -86
t8 -79t15 -64t24 -54.5t35 -38t48.5 -26t64 -7.5q30 0 51.5 6.5t34.5 23t20.5 30t10.5 44.5t3.5 48t0.5 56v21z" />
    <glyph glyph-name="sterling" unicode="&#xa3;" horiz-adv-x="1198" 
d="M516 1425q-6 -141 -6 -149q0 -15 0.5 -22.5t3.5 -18.5t11 -16t20 -5q27 0 78.5 2.5t79.5 2t61 -5t48 -19t15 -39.5q1 -13 8 -61t7 -74q0 -21 -16.5 -34.5t-50 -19.5t-59 -8t-70 -2.5t-56.5 -1.5q-6 0 -18.5 1t-18.5 1q-30 0 -36.5 -13t-6.5 -52q6 -117 6 -336
q0 -43 -19.5 -120t-19.5 -122q0 -16 19 -16q28 0 84 13.5t84 13.5q24 0 71.5 -9.5t73.5 -9.5q41 0 60.5 37.5t19.5 85.5q0 11 -4 36.5t-4 39.5t8 25.5t20 18.5t29 11.5t33 7t34.5 3t30.5 0.5t24 -0.5t13 -0.5q36 -4 51 -74.5t15 -146.5q0 -105 -56 -199.5t-147 -119.5
q-11 -3 -41.5 -12.5t-51.5 -14t-40 -4.5q-50 0 -128.5 28.5t-107.5 28.5q-34 0 -127 -39t-123 -39q-33 0 -113.5 75.5t-80.5 103.5q0 16 24.5 46.5t51.5 72.5t32 83q7 61 7 109q0 74 -4.5 218t-4.5 216q0 27 -19 38.5t-47 11.5t-56 1.5t-49 17t-23 48.5q0 14 -0.5 36t-1 31
t1.5 24t5.5 20.5t11 16t18.5 15t29 12t40 13t54 12.5q25 5 32.5 14t7.5 35q0 23 -1 68t-1 67q0 32 -2 114t-2.5 135.5t4.5 130.5t17 127.5t37.5 96t62.5 64.5q79 40 166.5 53t249.5 13q197 0 277.5 -112t80.5 -376q0 -23 -0.5 -36.5t-7 -25t-11.5 -16t-22.5 -10.5t-31 -8
t-47.5 -7.5t-62 -11.5q-42 -6 -43 -6q-21 0 -28 11.5t-7 37.5q0 28 11.5 79t11.5 71q0 61 -45 92t-119 31q-42 0 -67.5 -3t-49 -14.5t-36.5 -29.5t-24 -52.5t-17.5 -78.5t-12.5 -113q0 -20 1 -57t1 -56z" />
    <glyph glyph-name="currency" unicode="&#xa4;" horiz-adv-x="1261" 
d="M229 1778q31 -3 59 -34.5t46 -68t42 -66.5t48 -30q52 0 150 14.5t147 14.5q26 0 79 -8.5t77 -8.5q18 0 43.5 26.5t47 58.5t47 58.5t44.5 26.5q31 0 89 -52t58 -75q0 -30 -42.5 -97.5t-63.5 -86.5q-33 -30 -33 -86q0 -51 9 -155.5t9 -155.5q0 -141 -28 -342q-2 -6 -2 -17
q0 -25 24 -57.5t52.5 -58t52.5 -53t24 -44.5q0 -27 -40 -71t-79 -74.5t-45 -30.5q-20 0 -62 46.5t-86.5 93.5t-70.5 47q-30 0 -90 -4.5t-88 -4.5q-20 0 -67 6.5t-70 6.5q-22 0 -68 -50t-91 -107t-52 -63q-9 -6 -16 -6q-25 0 -77 48.5t-69 74.5q-16 26 -16 47q0 28 51 104
t51 95q0 33 -14 112t-14 121q0 45 3.5 149t2.5 159q0 6 -1 17.5t-1 16.5q0 23 5 69t5 67q0 48 -38 124t-76 133t-38 58q0 8 4.5 16t13 16t18 15.5t23.5 15t25 13t26 12t24 10.5t22 9t16 6zM483 1065h4q0 -8 -1 -24.5t-1 -24.5v-11q0 -97 16 -133q33 -71 158 -71q26 0 45 3.5
t32.5 8t23 15.5t14.5 18.5t8.5 26t5 28t3.5 33.5q1 16 10.5 115t9.5 147q0 4 0.5 29.5t0 32t-2.5 27.5t-5.5 28l-10.5 21t-17 19t-25 10t-34 5q-13 0 -37 4t-35 4q-91 0 -127.5 -49t-36.5 -166q0 -9 1 -28.5t1 -28.5v-39z" />
    <glyph glyph-name="yen" unicode="&#xa5;" horiz-adv-x="1079" 
d="M246 477q-14 0 -35.5 -1t-32 -1t-26 1.5t-23 7t-16.5 16t-13 27t-7 41.5t-3 59q0 69 94 69q24 0 72 -3t72 -3q8 1 14.5 3t11.5 4.5t9 8t6 9t4 12t2.5 13t1 15t0.5 16v19v19.5q0 57 -16 123t-50 165.5t-43 129.5q-17 57 -75 232.5t-92 296t-52 233.5v4q0 37 51 37
q20 0 58.5 -5.5t56.5 -5.5q19 0 57 2t58 2q14 0 27 -14t25 -41.5t21.5 -54.5t19.5 -67.5t15.5 -65t13 -61.5t9.5 -44q14 -69 32 -205.5t33 -205.5q3 -6 13 -11q18 0 55 141t37 156q17 70 46.5 212t45.5 208q0 55 57 55h17h50t50.5 -1.5t51.5 -4.5t40 -8.5t31 -15t10 -21.5
q0 -10 -2 -14q-26 -64 -59.5 -219.5t-63.5 -216.5q-26 -59 -49.5 -121.5t-50 -145t-38.5 -122t-42.5 -144t-34.5 -119.5q-10 -38 -10 -67v-10q0 -34 3 -47t10 -27t37 -16.5t63.5 -4.5t111.5 -2q31 -7 40.5 -11.5t15.5 -20.5t6 -52q0 -9 0.5 -30.5t0.5 -32.5t-1.5 -28.5
t-5.5 -27t-11 -19.5t-19 -14.5t-28 -4.5q-9 0 -27.5 2t-27.5 2h-29h-28.5t-24.5 -1t-24 -3t-18.5 -6t-17.5 -10.5t-11.5 -15t-8.5 -21t-2 -27.5q0 -38 6.5 -53.5t30.5 -18.5q25 0 172 10q27 0 46 -9.5t19 -29.5v-26v-30.5t-0.5 -30.5t-3 -32t-5.5 -28.5t-8.5 -27t-13 -19.5
t-18.5 -14.5t-24 -4.5q-8 1 -68.5 7t-91.5 6q-26 0 -35.5 -17t-8 -42t2.5 -50t-11 -44t-42 -21q-26 -5 -57.5 -8t-76 -4.5t-61.5 -2.5q-40 0 -55.5 21t-13 51t6.5 60.5t-4.5 54t-37.5 26.5q-17 2 -54 7t-66 7.5t-54 2.5q-49 0 -62.5 31.5t-13.5 130.5q0 34 22.5 43.5
t85.5 9.5q22 0 66 -1t66 -1q18 2 28.5 11t14.5 27.5t5 31.5t1 39v3v3v4q0 12 -7.5 19.5t-23 9.5t-28 2.5t-35 -0.5t-31.5 -1v-2z" />
    <glyph glyph-name="brokenbar" unicode="&#xa6;" horiz-adv-x="421" 
d="M72 76q0 15 -2 49t-2 53q1 36 10.5 222.5t9.5 279.5q0 26 -3 80t-3 80q0 38 55 53.5t121 15.5q24 0 41 -39.5t25 -101.5t12 -120.5t5.5 -114t2.5 -64.5q31 -341 31 -473q-1 -18 -13 -32t-35.5 -22t-43.5 -13t-55 -6.5t-51 -2t-50 -0.5h-16q-24 3 -32.5 17t-8.5 45
q0 15 1 46.5t1 47.5zM66 1554q0 24 -1.5 70t-1.5 68q0 12 -0.5 51t0 60.5t1.5 58t5.5 58t12 44.5t20 34t29.5 11q103 0 134 -8q54 -13 54 -53q0 -71 6.5 -212t6.5 -208q0 -19 2 -78.5t1.5 -99t-4.5 -86.5t-18 -72t-37 -25q-154 0 -182.5 48t-27.5 277v62z" />
    <glyph glyph-name="section" unicode="&#xa7;" horiz-adv-x="1089" 
d="M594 1516q5 0 51 3t68 3q114 -6 151 -17q80 -25 114 -114q36 -93 36 -287q0 -57 -0.5 -82.5t-9.5 -68.5t-27 -66q-10 -17 -10 -29q0 -11 31.5 -60t31.5 -89q0 -7 0.5 -71t0 -86t-2.5 -72t-6.5 -88t-11.5 -75q-23 -122 -35 -156q-36 -106 -135 -155q-128 -63 -402 -63
q-95 0 -159.5 18t-111.5 62.5t-69 122.5t-22 194q4 28 7 45t13.5 30.5t17 19t30.5 10t39.5 5.5t58 4t73.5 5q23 0 32 -7t9 -26q0 -16 -2 -47t-2 -47q0 -60 33.5 -85.5t112.5 -25.5q57 0 111 15.5t96.5 56.5t42.5 100q0 160 -107 160q-49 0 -159 -13.5t-160 -13.5
q-59 0 -100 13t-75.5 47.5t-51.5 100.5t-17 165q0 275 84 336q26 23 26 37q0 10 -28 35q-58 50 -78.5 120t-20.5 176q0 100 11.5 187t38.5 173t81 148t130 88q96 33 159 35h39h70q67 0 132.5 -18.5t121 -53t91 -91.5t38.5 -128q4 -86 4 -127q-3 -33 -4.5 -46t-6.5 -32.5
t-13.5 -26t-24.5 -14.5t-39 -10t-58 -2q-33 0 -50.5 1t-32 6.5t-19 12t-10 23.5t-6.5 34t-6.5 51t-12.5 67q-9 41 -29.5 57.5t-64.5 16.5q-107 -5 -141 -15q-79 -23 -96 -111q-5 -29 -5 -65q0 -41 2 -65.5t10.5 -49.5t23.5 -38.5t41.5 -25t65 -15.5t93.5 -4v-2zM735 989
q-5 110 -45 169t-131 59q-108 0 -154.5 -61.5t-46.5 -205.5q0 -71 26 -102t97 -31q27 0 86 9.5t90 9.5q18 0 31.5 7.5t20.5 18t12.5 29t7 31.5t3.5 35.5t3 31.5z" />
    <glyph glyph-name="dieresis" unicode="&#xa8;" horiz-adv-x="643" 
d="M375 1921v66q0 43 162 43q57 0 57 -52q-2 -10 -2 -28q0 -28 9 -83t9 -83q-1 -11 -6 -17.5t-15 -9t-16 -3t-21 0t-17 0.5q-13 1 -36.5 1.5t-41.5 1.5t-36 4t-28 11.5t-10 22.5q-4 39 -8 125zM264 1903q-2 -15 -3 -33.5t-1.5 -27.5t-3 -21t-8.5 -17.5t-16.5 -11.5
t-28.5 -8.5t-42.5 -4t-60.5 -1.5q-25 0 -39.5 8.5t-20.5 38t-6.5 50.5t-0.5 79v41q0 37 45 37q18 -1 50 -2q39 -1 54.5 -2t35.5 -6t25.5 -11t12.5 -22t7.5 -34.5t0.5 -51.5z" />
    <glyph glyph-name="copyright" unicode="&#xa9;" horiz-adv-x="1880" 
d="M1001 -10h-22q-117 0 -228 29t-192 71.5t-150.5 95.5t-110 96.5t-62.5 79.5q-101 161 -144 299.5t-43 335.5q0 182 49.5 362t143.5 308q101 138 142 184q139 154 301 177q31 4 63 4q18 0 51 3t49 3q185 0 387.5 -71t290.5 -167q46 -50 75.5 -86t71.5 -102.5t69 -132
t50 -161.5t31 -204q0 -15 3 -47t3 -49q0 -302 -136 -575t-323 -367q-30 -22 -64 -37.5t-77.5 -23.5t-71 -11.5t-82.5 -7.5t-74 -6zM266 1006v-23q0 -126 52 -273t120 -208q67 -60 108 -93.5t97.5 -70t107.5 -54t119.5 -29t151.5 -11.5q292 0 455 319q86 170 125 414
q0 246 -58 369q-40 84 -93.5 166t-94.5 106q-108 68 -194 105t-218 61q-77 14 -92 14q-124 0 -231 -56t-180.5 -151.5t-117.5 -221.5t-51 -267q-3 -46 -6 -96zM905 961q0 -8 -0.5 -28t0 -30.5t1 -29.5t3 -30t6 -26.5t9.5 -24t14.5 -17.5t21 -13t27.5 -4q29 0 41.5 15.5
t16.5 38t10 44.5t31.5 37.5t72.5 15.5q8 0 14.5 -3t10 -9t5.5 -12t3 -15.5t1 -16t-0.5 -17.5t-0.5 -15q0 -40 -4.5 -77t-18 -78.5t-35 -71.5t-59.5 -50t-88 -20q-131 0 -196.5 85.5t-65.5 232.5v57v162q0 152 15 214q23 99 89 120q12 4 42 15.5t53 17.5t45 6q50 0 85 -11
t65 -39.5t44.5 -83.5t14.5 -137q0 -63 -14 -78t-99 -43q-3 0 -10.5 -1t-10.5 -1q-23 0 -33 19.5t-10.5 43t-8.5 43t-27 19.5q-15 0 -26 -8.5t-17.5 -25t-10.5 -32.5t-5 -40t-1.5 -38t0 -35.5t0.5 -24.5z" />
    <glyph glyph-name="ordfeminine" unicode="&#xaa;" horiz-adv-x="1060" 
d="M995 1317v-150q0 -15 0.5 -56.5t0.5 -67.5t-1 -66t-5.5 -65.5t-11 -51.5t-18.5 -38.5t-28 -12.5q-13 0 -39 -0.5t-42.5 -0.5t-39.5 0.5t-37.5 4.5t-28.5 9.5t-21 16t-7 25.5q-8 148 -8 328q0 43 -37 43q-8 0 -36 0.5t-46 0t-46.5 -1t-47.5 -3t-38 -6t-28.5 -10
t-9.5 -15.5q0 -5 2 -19t2 -20q0 -21 -4 -65t-4 -66q0 -26 19.5 -87t19.5 -97q0 -27 -102 -40t-195 -13q-70 0 -90 466q-5 110 -5 173q0 8 -1 24.5t-1 24.5q0 107 9 185.5t35 150t69.5 115.5t115 70t169.5 26q93 0 164 -8.5t140 -32t114.5 -63.5t75.5 -106.5t36 -156.5
q6 -95 6 -193q0 -8 -1 -24.5t-1 -24.5q0 -17 1 -51t1 -51zM395 1602q2 -4 2 -29q0 -3 -1 -11t-1 -12q0 -33 10 -43t41 -10q104 0 179 16.5t75 55.5q-7 42 -10.5 62t-14 53.5t-23 49.5t-35 29t-52.5 13q-89 0 -129.5 -37.5t-40.5 -136.5z" />
    <glyph glyph-name="guillemotleft" unicode="&#xab;" horiz-adv-x="1253" 
d="M547 522h-103q-12 0 -29.5 8.5t-43 29t-40 32.5t-46.5 41.5t-37 34.5q-9 8 -46.5 39.5t-57.5 49.5t-47.5 45.5t-40.5 49t-13 37.5q0 57 119 217q15 21 46.5 68t57 83.5t55.5 75t55.5 60.5t43.5 22q11 0 36 0.5t44.5 1t45.5 0t44.5 -2.5t36 -5.5t26.5 -10.5t9 -16
q0 -28 -23.5 -67.5t-48.5 -68t-63.5 -68.5t-45.5 -48q-38 -41 -76 -98t-38 -82q0 -15 58 -73t138 -140.5t117 -142.5q16 -32 16 -43q0 -12 -9.5 -19.5t-28.5 -9.5t-35 -2t-41 1t-35 1zM1032 1382h9.5h10.5t10 -0.5t9.5 -1.5t8 -3t7 -5t4 -7.5t1.5 -10.5q0 -53 -65 -178
t-107 -185q-7 -14 -7 -24q0 -19 26 -51t65.5 -69.5t80 -77t74.5 -84t45 -81.5v-8q0 -22 -100 -44t-162 -22q-9 0 -25.5 11t-38 31.5t-44.5 44.5t-50.5 55.5t-50 57.5t-49 58.5t-41.5 50.5t-33 40.5t-18 23.5q-12 15 -12 31q0 19 20.5 53t57.5 85t49 69q8 13 30 50t37.5 60.5
t37 52.5t41.5 44.5t38 17.5q23 0 69 8t72 8z" />
    <glyph glyph-name="logicalnot" unicode="&#xac;" horiz-adv-x="866" 
d="M27 1012q0 28 -4 86v24q1 10 8.5 17.5t23 12t29.5 7t38 3.5t37.5 1.5t38.5 0t31 -0.5q37 0 112 -2t112 -2q30 0 88 2t86 2h21.5h24.5t23.5 -0.5t24.5 -2.5t22 -4.5t20.5 -7.5t15.5 -12t11.5 -16.5t4.5 -21.5q0 -11 -2 -37t-2 -39q4 -46 4 -72q0 -25 -2 -76t-2 -77
q0 -22 2 -63.5t2 -59.5v-9q0 -23 -1 -36t-6.5 -32t-20 -28.5t-38.5 -9.5h-45h-26h-28t-27.5 0.5t-27.5 1.5t-24 3.5t-22.5 6.5t-16.5 9.5t-12.5 13.5t-5.5 18q-11 118 -11 127q0 15 5.5 41t5.5 41v31l-17 4q-35 4 -100 4h-80l-209 6q-39 1 -51 23.5t-12 73.5q0 8 1 24.5
t1 24.5z" />
    <glyph glyph-name="registered" unicode="&#xae;" horiz-adv-x="1880" 
d="M1001 -10h-22q-117 0 -228 29t-192 71.5t-150.5 95.5t-110 96.5t-62.5 79.5q-101 161 -144 299.5t-43 335.5q0 182 49.5 362t143.5 308q101 138 142 184q139 154 301 177q31 4 63 4q18 0 51 3t49 3q185 0 387.5 -71t290.5 -167q46 -50 75.5 -86t71.5 -102.5t69 -132
t50 -161.5t31 -204q0 -15 3 -47t3 -49q0 -302 -136 -575t-323 -367q-30 -22 -64 -37.5t-77.5 -23.5t-71 -11.5t-82.5 -7.5t-74 -6zM266 1006v-23q0 -126 52 -273t120 -208q67 -60 108 -93.5t97.5 -70t107.5 -54t119.5 -29t151.5 -11.5q292 0 455 319q86 170 125 414
q0 246 -58 369q-40 84 -93.5 166t-94.5 106q-108 68 -194 105t-218 61q-77 14 -92 14q-124 0 -231 -56t-180.5 -151.5t-117.5 -221.5t-51 -267q-3 -46 -6 -96zM666 920q0 26 1 77t1 76q0 19 -2 58t-2 59q0 19 -1 49.5t-1.5 47.5t1.5 41.5t7 37.5t15.5 29t26.5 24t41 13.5
t58 5.5q58 0 104.5 -4.5t100.5 -19.5t90.5 -41t61 -72.5t24.5 -110.5q0 -51 -15.5 -105.5t-43.5 -85.5q-15 -15 -15 -22q0 -4 15 -28t32 -56t21 -55q2 -11 12 -54t14.5 -71t4.5 -56q0 -41 -41 -41h-23h-26.5t-26.5 0.5t-27.5 2t-24.5 4t-23 6.5t-17 9.5t-13.5 13.5t-5.5 18
q-1 8 -2.5 32.5t-3 43t-5 44.5t-9.5 45t-14.5 37t-22.5 27.5t-31 9.5q-9 0 -15.5 -8.5t-6.5 -23.5q0 -4 1 -12.5t1 -12.5q-2 -45 0 -81.5t-2.5 -64t-19 -46t-49 -28t-93.5 -9.5q-51 0 -51 51q0 41 1 123t1 123h-2zM872 1145q0 -29 1 -42t8.5 -24.5t23.5 -11.5
q37 0 56.5 29.5t19.5 68.5q0 30 -16 44t-52 14q-43 0 -43 -49q0 -5 1 -14.5t1 -14.5z" />
    <glyph glyph-name="macron" unicode="&#xaf;" horiz-adv-x="690" 
d="M397 2032q25 0 75 1t75 1q43 0 62.5 -46.5t19.5 -175.5q0 -14 -8 -24t-23.5 -15t-31.5 -8.5t-38 -4t-38 -0.5t-36.5 0.5t-27.5 0.5h-90q-35 0 -105.5 -5t-105.5 -5q-16 0 -26.5 3.5t-17 12.5t-10 18.5t-5 27t-1.5 32.5t-0.5 40t-1.5 44q0 32 23 53t66.5 30t80 12.5
t91.5 5t73 2.5z" />
    <glyph glyph-name="degree" unicode="&#xb0;" 
d="M53 1458v66v32q0 104 57.5 203.5t145.5 160t174 60.5q135 0 235 -26.5t177 -87t121.5 -164.5t58.5 -254q0 -114 -69.5 -220.5t-180.5 -171.5t-227 -65q-69 0 -140.5 16t-138 47t-116.5 82.5t-68 116.5q-26 98 -29 205zM500 1696q-66 0 -97.5 -26.5t-64.5 -106.5
q-12 -27 -12 -58q0 -78 45 -130t129 -52q91 0 151 54t60 136q0 168 -211 183z" />
    <glyph glyph-name="plusminus" unicode="&#xb1;" horiz-adv-x="892" 
d="M164 1323q10 -2 29 -2q147 0 147 57q0 35 -3 102t-3 97q1 8 3.5 14t7.5 11t9.5 8.5t13 6t14 4t16 3t15.5 2t16 1.5t15 1q39 0 59 -29t25 -70.5t6.5 -83t9.5 -70.5t29 -29q31 0 96 11t97 11q25 0 49.5 -67t24.5 -105q0 -22 -16.5 -29.5t-51.5 -7.5h-39q-33 0 -56 -1.5
t-53.5 -6.5t-46.5 -17.5t-16 -31.5q1 -21 4.5 -63t5.5 -76t2 -64q0 -25 -12.5 -34t-42.5 -9q-20 2 -63 2h-25q-17 0 -30 6t-20 18.5t-11 26t-5 35.5t-1 38.5t1 44.5t1 44q0 35 -9.5 45t-31.5 10q-37 0 -110.5 -8t-109.5 -8q-39 0 -53 39t-14 125q0 12 3 20.5t11.5 14t16 8.5
t26 4.5t31 1.5h39.5zM592 520h-41q-29 0 -79 -5t-73 -5q-87 0 -201 24.5t-122 63.5q-4 28 -4 45q0 68 105.5 83t401.5 15h58q9 0 27.5 -2t27.5 -2q20 0 57.5 4t55.5 4q13 0 22.5 -2.5t15 -10t9 -12t5 -18.5t2 -18.5t0 -22t-0.5 -20.5q0 -5 0.5 -19.5t0 -22t-1.5 -20.5
t-4.5 -20.5t-9 -15.5t-14.5 -11.5t-22 -3.5q-36 0 -109 -4.5t-106 -3.5z" />
    <glyph glyph-name="twosuperior" unicode="&#xb2;" horiz-adv-x="512" 
d="M186 1010q-11 0 -32 -1t-29 -0.5t-22.5 3t-20 9t-14 18.5t-11.5 30.5t-5.5 46t-2.5 64.5q0 12 -1 35t-1 36q0 4 1 12.5t1 12.5q0 6 -1 19.5t-1 19.5q0 35 2 60.5t7.5 57.5t17.5 54t31.5 43t50 33.5t71.5 15.5q23 6 36.5 11t34 14t30.5 21t10 26q-4 153 -23 229
q-6 27 -19.5 34t-51.5 7q-48 0 -62 -17t-14 -59q0 -11 3 -33.5t3 -35.5q0 -10 -5 -15.5t-15.5 -8t-18 -3t-20.5 -0.5q-37 0 -53 7t-24.5 35t-8.5 89q0 43 7.5 73t29.5 58.5t68.5 42.5t117.5 14q116 0 173.5 -52.5t57.5 -170.5q0 -10 -1 -29.5t-1 -29.5v-29q-1 -15 -2 -52.5
t-2.5 -57t-4.5 -51.5t-9.5 -50t-16.5 -38.5t-26 -31.5t-37 -14q-13 -3 -45.5 -8t-49 -8.5t-42 -13.5t-38.5 -22.5t-23.5 -34.5t-10.5 -52q0 -46 14.5 -112t32.5 -66q19 0 54.5 8t52.5 8h18q18 0 53 4t52 4q10 0 17 -16.5t10 -39.5t4 -38t1 -22q0 -39 -180 -39h-10
q-8 0 -24.5 -2t-24.5 -2q-6 0 -18 1t-17 1q-15 0 -23 -2z" />
    <glyph glyph-name="threesuperior" unicode="&#xb3;" horiz-adv-x="528" 
d="M469 1806q0 -8 -0.5 -54t-1.5 -62t-4.5 -48.5t-11 -52t-19.5 -33.5q-14 -10 -14 -18q0 -4 18 -18t37.5 -37t22.5 -49q1 -14 2.5 -40.5t2.5 -48t1 -40.5q0 -260 -96 -289q-66 -19 -109 -19q-54 0 -93.5 6.5t-75 24t-57 52t-28.5 85.5q-12 82 -12 123q0 20 27 24.5t78 4.5
h16q13 0 16.5 -9t3.5 -30v-12q0 -29 0.5 -42.5t3 -33.5t8.5 -28.5t16.5 -18.5t27 -13.5t40.5 -3.5q97 0 97 95q0 53 -4.5 106t-20 102.5t-39.5 49.5q-13 0 -38 -2t-38 -2q-22 0 -22 30q0 8 -1 31t0 30t6 20t16.5 18.5t31.5 7.5q86 9 86 88q0 8 -0.5 32.5t-1 39t-2 38.5
t-5 39.5t-9 31.5t-14.5 25t-21 11q-5 1 -13.5 3t-15.5 3t-12 0q-50 0 -67 -33t-17 -92q0 -6 1 -18.5t1 -18.5q-2 -6 -3.5 -14.5t-2.5 -10.5t-4 -5.5t-7.5 -4t-13.5 -0.5h-49q-6 0 -17.5 -1t-17.5 -1q-24 0 -24 25q0 8 3 25t3 26v19q0 45 2.5 74t12.5 64t28.5 55t53 34
t83.5 14q39 0 76.5 -6t76.5 -20t65 -44t30 -71q1 -7 4.5 -36.5t3.5 -43.5v-33z" />
    <glyph glyph-name="acute" unicode="&#xb4;" horiz-adv-x="546" 
d="M178 1536q-137 0 -137 47q0 20 14 57l7 20q7 19 19.5 52t28.5 72t34.5 78t37 71.5t37 53t33.5 20.5q-7 0 1 -1h7q262 -17 264 -62q0 -21 -24 -57t-62.5 -83t-48.5 -61q-3 -5 -16.5 -23.5t-20.5 -28.5t-21.5 -29.5t-24.5 -31.5t-24 -29t-25 -27t-23 -20.5t-22 -15
t-19 -4.5t-15 2z" />
    <glyph glyph-name="mu" unicode="&#xb5;" horiz-adv-x="1157" 
d="M864 188q-15 -26 -22 -39t-19.5 -30t-17 -23t-21 -18t-23 -15t-31.5 -14t-39 -15.5t-53.5 -18t-66.5 -23.5q-20 -4 -30 -4q-110 0 -154 37q-3 1 -7.5 4.5t-9 5.5t-8.5 2q-18 0 -18 -113q0 -8 1 -26t1 -27q0 -13 -1 -36t-1 -36q0 -65 8 -199t8 -200q0 -24 -13.5 -32.5
t-43.5 -8.5q-18 2 -55 2q-14 0 -44 -2t-44 -2q-39 0 -39 43q0 32 2 94t2 94q0 87 -10.5 262.5t-10.5 262.5q0 189 -20.5 541t-20.5 491q3 16 20 26t47 12.5t54.5 3t61.5 -1t49 -1.5q17 0 29 -6t19 -19t10.5 -26.5t4.5 -34t0.5 -36t-1.5 -39t-1 -36.5q1 -30 3.5 -112.5
t4 -124t4 -108t6.5 -122.5t9 -110q6 -66 48.5 -98.5t107.5 -32.5q73 0 104 29t31 108q2 28 6.5 86t7 93.5t4.5 85t2 91.5q0 62 -17.5 177t-17.5 175q0 39 38.5 49.5t138.5 10.5q4 0 24 0.5t25 0l20 -2t19.5 -6t12.5 -11.5t10.5 -18.5t2.5 -26.5q0 -52 -1 -158t-1 -159
q0 -41 2 -124t2 -124q0 -9 -1 -28.5t-1 -28.5q0 -62 21.5 -86.5t85.5 -24.5q19 -3 33.5 -9.5t24 -12.5t16 -20.5t9.5 -24t4.5 -33.5t1.5 -37.5t-0.5 -48t-0.5 -54.5q0 -39 -30.5 -52t-92.5 -13q-57 0 -85.5 22t-72.5 84z" />
    <glyph glyph-name="paragraph" unicode="&#xb6;" horiz-adv-x="1214" 
d="M295 309q0 15 -1 45t-1 45q0 76 5 228.5t5 228.5v131q0 15 2 43t2 43q0 72 -10 93q-19 41 -108 50q-2 1 -5 1q-43 4 -72 24.5t-44 58t-21 80.5t-6 101q0 481 250 497q11 1 101 13t136 12q14 0 39 -4t39 -4q20 1 72 5.5t80 4.5q31 0 92 -10t90 -10h70h22h23t21 -0.5
t21 -2.5t18 -4.5t16 -7.5l11 -11t8.5 -15.5t2.5 -20.5q0 -30 1 -89t1 -87q0 -23 -15.5 -33t-33.5 -10t-33.5 -5t-15.5 -20q0 -132 18.5 -371t18.5 -333q0 -165 -7 -473.5t-8 -399.5q0 -159 -61 -163q-28 -2 -87 -18.5t-93 -16.5q-19 0 -30.5 21.5t-16 69t-5 75t-0.5 86.5v30
q0 31 2.5 95.5t2.5 97.5q0 194 -5 408t-14 476t-12 369q-3 27 -11.5 46t-16.5 28.5t-25.5 14t-26.5 5t-32 -0.5t-30 -1q-45 0 -45 -47q1 -48 8 -231t7 -285q0 -37 -4 -108t-4 -105q0 -12 1 -37t1 -39q0 -30 -1 -92t-1 -92q0 -58 1 -178t1 -182q-15 -287 -15 -346
q-1 -14 -9.5 -25t-23.5 -16.5t-31 -9t-38.5 -4.5t-38.5 -0.5t-38 1t-32 0.5q-16 0 -27.5 8.5t-18 26t-11 34.5t-5.5 45t-1.5 45t0 47.5t0.5 39.5q0 22 1 67t1 68z" />
    <glyph glyph-name="periodcentered" unicode="&#xb7;" horiz-adv-x="436" 
d="M369 1063q-1 -18 -1.5 -43t-1 -36.5t-4 -27.5t-11.5 -23t-22 -15.5t-37.5 -11.5t-57 -5t-80.5 -2q-33 0 -52.5 13t-27.5 51.5t-9.5 69.5t-1.5 104v32q0 33 13 48.5t47 15.5q23 -2 65 -2.5t68 -2t54.5 -7.5t42.5 -20.5t14 -37.5q0 -8 1.5 -42t0.5 -58z" />
    <glyph glyph-name="cedilla" unicode="&#xb8;" horiz-adv-x="591" 
d="M205 106q9 -1 33 -1t38.5 -1.5t32.5 -6.5t27.5 -16t11.5 -28q1 -10 1.5 -30t1 -33t2 -31t5.5 -30t10.5 -23.5t17 -17t24.5 -5.5q49 -7 84.5 -50.5t49 -92t13.5 -94.5q0 -139 -80 -224.5t-244 -85.5q-16 1 -36 0t-40 1t-37 5.5t-27.5 14t-10.5 27.5q1 11 2.5 40.5t3.5 48
t7.5 41t17 35.5t28.5 15q63 9 98 31t35 73q0 15 -11 25.5t-30 15.5t-38 7.5t-39 2.5h-35q-55 0 -55 193q0 110 14.5 151t69.5 41h55v2z" />
    <glyph glyph-name="onesuperior" unicode="&#xb9;" horiz-adv-x="311" 
d="M12 1993q0 5 -1 17t-1 18q0 28 9 36.5t47 8.5q174 0 178 -48q20 -192 20 -301v-36q0 -35 8.5 -108.5t8.5 -109.5q-2 -10 -2 -28q0 -9 1 -29.5t1 -30.5q0 -39 -1 -116.5t-1 -116.5q0 -15 1 -46t1 -46q0 -36 -12.5 -50t-45.5 -14q-5 0 -13.5 1t-12.5 1q-8 0 -25 -1t-25 -1
q-10 0 -16 12t-8 35.5t-2.5 41t0 45t0.5 30.5v37q0 20 -1 63t-1 64q4 40 4 61q0 14 -1 39t-1 37q4 160 4 240q0 12 -1 37t-1 39q0 6 1 21t1 22q0 110 -23 110q-12 0 -38 -2t-39 -2q-5 0 -8 4t-4 12.5t-1.5 15t0 20t0.5 18.5z" />
    <glyph glyph-name="ordmasculine" unicode="&#xba;" horiz-adv-x="1103" 
d="M1026 1114q0 -76 9 -230.5t9 -226.5q0 -45 -2 -75.5t-10.5 -71t-24 -67.5t-45 -53t-71.5 -40q-16 -5 -51 -17.5t-48.5 -16.5t-40 -10.5t-52.5 -8.5t-60 -2q-141 0 -240.5 23t-171.5 76.5t-109 142t-44 217.5q-2 23 -10.5 87.5t-8.5 98.5q0 14 7.5 42.5t7.5 41.5
q0 52 -6.5 158t-6.5 159q0 22 -1 73q-3 268 20 392q40 211 160 238q26 4 73.5 12.5t77.5 13.5t76 9t92 4h22q53 0 79 -0.5t71 -6.5t69.5 -18t59 -35t56 -57.5t43 -86.5t36.5 -120q2 -10 2 -28v-21q0 -112 16 -317.5t19 -278.5h-2zM748 1096q4 70 4 131q0 124 -1 180t-11 156
t-31 176q-21 73 -70 73q-39 0 -58.5 -0.5t-56 -3t-56 -8t-46 -16.5t-40.5 -27t-24 -41t-10 -57q0 -39 -2 -117t-2 -117q0 -35 2 -108t2 -109q0 -14 -6 -43t-6 -45q1 -28 2.5 -93t3 -105.5t6 -100.5t13 -98t21.5 -76.5t34 -58t49 -21.5q123 -12 125 -12q40 0 70 16.5t48 42.5
t29 65.5t15 78.5t4.5 88.5t-2 88.5t-4.5 86.5t-2 74.5zM360 211q10 0 31 -1t31 -1q46 0 141 6t146 6q13 -1 38.5 -1t38.5 -1h19q8 0 23.5 -2t23.5 -2q20 0 61 6t60 6q55 0 57 -147q1 -62 -4 -70q0 -27 -18.5 -43t-52.5 -20.5t-63.5 -5t-72.5 2.5t-59 3q-123 -10 -148 -10
q-30 0 -91 5t-93 5q-7 0 -20 -1t-19 -1q-201 0 -207 55q-10 78 -10 139q0 23 9 38t20 23t34 11.5t38 3.5t45 -1t42 -1v-2z" />
    <glyph glyph-name="guillemotright" unicode="&#xbb;" horiz-adv-x="1253" 
d="M707 522q-10 0 -35.5 -1t-42 -1t-35.5 2t-29 9.5t-10 19.5q0 16 18 43q37 60 117 142.5t138.5 140.5t58.5 73q0 25 -37.5 79.5t-77.5 100.5q-6 7 -45 48t-63.5 69t-48 67.5t-23.5 67.5q0 9 9 16t26.5 10.5t36 5.5t44.5 2.5t45.5 0t44.5 -1t36 -0.5q18 0 43.5 -22
t55.5 -60.5t55.5 -75t57 -83.5t46.5 -68q118 -166 118 -217q0 -16 -13.5 -38t-39.5 -48t-48.5 -46t-56 -49t-46.5 -40q-8 -7 -27 -24.5t-31 -28t-30.5 -26.5t-32 -26.5t-28.5 -20.5t-27 -15t-21 -5h-102zM221 1382q26 0 72 -8t69 -8q17 -2 37 -17.5t41 -44t37.5 -53t38 -60
t31.5 -50.5q12 -18 49 -69t57.5 -85t20.5 -53q0 -16 -12 -31q-300 -373 -353 -373q-61 0 -161.5 22t-100.5 44q0 1 1 3.5t1 4.5q11 37 45 81.5t74.5 84t80 77t65.5 69.5t26 51q0 12 -6 24q-42 60 -107 185t-65 178q0 7 1.5 12t5.5 8t7.5 5t10.5 2.5t10.5 0.5h12h11.5z" />
    <glyph glyph-name="onequarter" unicode="&#xbc;" horiz-adv-x="1415" 
d="M227 25q-3 1 -8.5 3t-7.5 3t-5 3.5t-3.5 6t0 9t2.5 13.5q7 23 26 69.5t27 70.5q54 155 160.5 421t126.5 320q48 130 154.5 399.5t164.5 425.5q5 15 19.5 57.5t23.5 65t22.5 51t26 40t25.5 8.5l12 -6q10 -3 27 -4t24 -3q23 -6 13 -41q-28 -90 -67.5 -193.5t-90.5 -228
t-76 -190.5q-194 -506 -270 -676q-94 -201 -236 -588q-7 -17 -15.5 -27t-19.5 -12.5t-19 -2t-20 3t-16 2.5zM51 1993q0 5 -1 17t-1 18q0 28 8.5 36.5t46.5 8.5q175 0 179 -48q20 -192 20 -301v-36q0 -35 8 -108.5t8 -109.5q-2 -10 -2 -28q0 -9 1 -29.5t1 -30.5
q0 -39 -1 -116.5t-1 -116.5q0 -15 1 -46t1 -46q0 -37 -12.5 -50.5t-44.5 -13.5q-5 0 -13.5 1t-12.5 1q-8 0 -25 -1t-25 -1q-10 0 -16 12t-8 35.5t-2.5 41t0 45t0.5 30.5v37q0 20 -1 63t-1 64q4 40 4 61q0 14 -1 39t-1 37q4 160 4 240q0 12 -1 37t-1 39q0 6 1 21t1 22
q0 110 -23 110q-13 0 -39 -2t-39 -2q-5 0 -8 4t-4 12t-1 15.5t0.5 20t0.5 18.5zM1055 371h12h11h9t8 1t6 3t4 5.5t1 8.5q0 61 -12 88v2q3 23 55 19h8q10 0 30 4t30 4q17 0 23 -22.5t3.5 -49.5t-0.5 -49.5t12 -22.5q8 0 29.5 3.5t30.5 3.5q15 0 19.5 -6.5t4.5 -24.5v-12
q0 -8 1 -25t1 -25q-1 -9 -5 -15t-11.5 -8.5t-13.5 -3t-17 -1t-16 -0.5h-8q-19 0 -19 -21v-190q0 -22 -0.5 -31t-7 -18.5t-20.5 -10.5q-11 -1 -45.5 -6t-53.5 -4q-16 0 -16 21q0 36 1 113.5t1 113.5q0 24 -10 29.5t-41 5.5q-26 0 -82 -6t-84 -6h-7.5h-8.5h-8.5t-8.5 0.5
t-7.5 1.5t-7.5 2.5t-5.5 3.5t-4 5t-1.5 7q0 2 2 4q5 17 7 47t3 37q20 180 51 272q10 26 25 134q2 13 10 59.5t14 76t15.5 67t20 56.5t22.5 19q5 0 18 0.5t22 0.5t21.5 -0.5t21 -2.5t17 -4.5t12.5 -7.5t4 -12q0 -44 -11 -105.5t-26 -124.5t-16 -69q-7 -38 -33.5 -149
t-34.5 -171q0 -8 14 -11t28 -3h14z" />
    <glyph glyph-name="onehalf" unicode="&#xbd;" horiz-adv-x="1378" 
d="M227 25q-3 1 -8.5 3t-7.5 3t-5 3.5t-3.5 6t0 9t2.5 13.5q7 23 26 69.5t27 70.5q54 155 160.5 421t126.5 320q48 130 154.5 399.5t164.5 425.5q5 15 19.5 57.5t23.5 65t22.5 51t26 40t25.5 8.5l12 -6q10 -3 27 -4t24 -3q23 -6 13 -41q-28 -90 -67.5 -193.5t-90.5 -228
t-76 -190.5q-194 -506 -270 -676q-94 -201 -236 -588q-7 -17 -15.5 -27t-19.5 -12.5t-19 -2t-20 3t-16 2.5zM51 1993q0 5 -1 17t-1 18q0 28 8.5 36.5t46.5 8.5q175 0 179 -48q20 -192 20 -301v-36q0 -35 8 -108.5t8 -109.5q-2 -10 -2 -28q0 -9 1 -29.5t1 -30.5
q0 -39 -1 -116.5t-1 -116.5q0 -15 1 -46t1 -46q0 -37 -12.5 -50.5t-44.5 -13.5q-5 0 -13.5 1t-12.5 1q-8 0 -25 -1t-25 -1q-10 0 -16 12t-8 35.5t-2.5 41t0 45t0.5 30.5v37q0 20 -1 63t-1 64q4 40 4 61q0 14 -1 39t-1 37q4 160 4 240q0 12 -1 37t-1 39q0 6 1 21t1 22
q0 110 -23 110q-13 0 -39 -2t-39 -2q-5 0 -8 4t-4 12t-1 15.5t0.5 20t0.5 18.5zM1006 -14q-11 0 -28.5 -0.5t-26 -1t-22 1t-19.5 6t-14.5 12t-12.5 20t-8 31t-5.5 43.5t-1.5 58q0 12 -1 35t-1 36q0 4 1 12.5t1 12.5q0 6 -1 19.5t-1 19.5q0 42 2.5 72.5t13 67t29 60.5
t53.5 42t83 22q23 6 36.5 11t33.5 14t30 21t10 26q-4 157 -22 229q-6 27 -19.5 34t-52.5 7q-48 0 -62 -17t-14 -59q0 -11 3 -33.5t3 -35.5q0 -10 -5 -15.5t-15.5 -8t-18 -3t-20.5 -0.5q-37 0 -53 7t-24.5 35t-8.5 89q0 43 7.5 73t29.5 58.5t68.5 42.5t117.5 14
q116 0 174 -52.5t58 -170.5q0 -10 -1.5 -29.5t-1.5 -29.5v-29q-1 -15 -2 -52.5t-2.5 -57t-4.5 -51.5t-9.5 -50t-16.5 -38.5t-26 -31.5t-37 -14q-13 -3 -45.5 -8t-49 -8.5t-42 -13.5t-38.5 -22.5t-23.5 -34.5t-10.5 -52q0 -46 14.5 -112t32.5 -66q19 0 54.5 8t52.5 8h18
q17 0 52 4t53 4t25.5 -44.5t7.5 -71.5q0 -39 -181 -39h-10q-8 0 -24.5 -2t-24.5 -2q-6 0 -18 1t-17 1q-14 0 -22 -2z" />
    <glyph glyph-name="threequarters" unicode="&#xbe;" horiz-adv-x="1523" 
d="M336 25q-3 1 -10 3.5t-9 4t-5 5t-2.5 9.5t3.5 16q7 23 26.5 69.5t27.5 70.5q54 155 161.5 425t124.5 316q48 130 154.5 399t165.5 426q5 15 19.5 57.5t23.5 65t22.5 51t26 40t25.5 8.5l12 -6q10 -3 27 -4t24 -3q22 -6 12 -41q-28 -90 -67 -193t-90 -228.5t-76 -190.5
q-194 -506 -270 -676q-94 -201 -236 -588q-7 -17 -15.5 -27t-19.5 -12.5t-19 -2t-20 3t-16 2.5zM1163 371h12h11h9t8 1t6 3t4 5.5t1 8.5q0 61 -12 88v2q3 23 55 19h9q10 0 29.5 4t29.5 4q22 0 25 -36t2.5 -72t11.5 -36q8 0 29 3.5t30 3.5q15 0 20 -6.5t5 -24.5v-12
q0 -8 1 -25t1 -25q-1 -9 -5 -15t-12 -8.5t-13.5 -3t-17 -1t-16.5 -0.5h-8q-18 0 -18 -21v-190q0 -21 -1 -31t-7.5 -19t-20.5 -10q-11 -1 -45 -6t-53 -4q-16 0 -16 21q0 36 1 113.5t1 113.5q0 24 -10.5 29.5t-41.5 5.5q-26 0 -82 -6t-84 -6h-7.5h-8.5h-8.5t-8.5 0.5t-7.5 1.5
t-7.5 2.5t-5.5 3.5t-4 5t-1.5 7q0 2 2 4q5 17 7 47t3 37q20 176 52 272q5 13 9 31.5t6 32t5 37.5t4 33q2 13 10 59.5t14 76t15.5 67t20 56.5t22.5 19q5 0 18.5 0.5t22 0.5t21.5 -0.5t21.5 -2.5t17 -4.5t12.5 -7.5t4 -12q0 -44 -11 -105.5t-26 -124.5t-16 -69
q-7 -38 -33.5 -149t-34.5 -171q0 -8 14 -11t28 -3h13zM496 1806q0 -8 -0.5 -54t-1.5 -62t-4.5 -48.5t-11 -52t-19.5 -33.5q-15 -11 -15 -18q0 -4 18 -18t37.5 -37t22.5 -49q1 -14 2.5 -40.5t2.5 -48t1 -40.5q0 -260 -96 -289q-66 -19 -108 -19q-54 0 -93.5 6.5t-75 24
t-57 52t-28.5 85.5q-13 89 -13 123q0 20 27 24.5t78 4.5h16q13 0 17 -9t4 -30v-12q0 -29 0.5 -42.5t3 -33.5t8.5 -28.5t16.5 -18.5t27 -13.5t40.5 -3.5q96 0 96 95q0 38 -2.5 77t-9 82.5t-19.5 71t-32 27.5q-12 0 -38 -2t-38 -2q-23 0 -23 30q0 9 -0.5 27t-0.5 25t2.5 19.5
t8 17.5t16.5 10.5t28 7.5q86 9 86 88q0 6 -0.5 32t-1 39.5t-2.5 38.5t-5.5 39.5t-9 31t-14.5 25.5t-21 11q-5 1 -13.5 3t-15.5 3t-12 0q-50 0 -67 -33t-17 -92q0 -6 1.5 -18.5t1.5 -18.5q-2 -6 -3.5 -14.5t-2.5 -10.5t-4 -5.5t-7.5 -4t-13.5 -0.5h-49q-6 0 -17.5 -1
t-17.5 -1q-25 0 -25 25q0 8 3 25t3 26v19q0 45 2.5 74t12.5 64t28.5 55t53.5 34t84 14q31 0 60.5 -3.5t62.5 -13t58.5 -24.5t44 -40.5t21.5 -59.5q1 -9 5 -37.5t4 -42.5v-33z" />
    <glyph glyph-name="questiondown" unicode="&#xbf;" horiz-adv-x="954" 
d="M641 1481q2 -31 9 -95t10.5 -114t3.5 -96q0 -50 -1.5 -82.5t-11 -79.5t-27 -77.5t-52 -58.5t-83.5 -40q-21 -7 -56 -15.5t-53 -13.5t-41.5 -17t-34.5 -28t-19.5 -44.5t-8.5 -68.5q0 -52 1 -87t5 -87t11.5 -86.5t22.5 -74t36 -63t52.5 -39t72.5 -15.5q7 0 22.5 1t22.5 1
h13q69 0 103 54t34 136q0 21 -5 65.5t-5 67.5q0 37 47 37q17 -1 51 -1.5t58.5 -1.5t50 -5t39.5 -15t14 -28q0 -68 -1.5 -118t-7 -106.5t-15 -97.5t-25.5 -84.5t-38.5 -73t-55 -57.5t-74 -44t-96 -25.5t-120.5 -9.5q-135 0 -219 36q-97 44 -146.5 97t-74 153.5t-24.5 276.5
q0 152 38 456q4 30 13 52t19.5 36.5t33 29t40.5 24t55 27.5t65 34q67 37 67 125q0 50 -14 149t-14 148q0 13 6 23.5t18.5 17.5t26 12.5t34.5 8.5t36.5 5t40.5 2.5t38.5 1t38 0t31.5 -0.5q8 -1 14.5 -2.5t11.5 -3t8.5 -5.5t6 -7.5t4 -11t2 -12.5t0.5 -16v-19v-23.5v-26.5h-4z
M317 1919q0 81 9 103q14 32 53 32q22 -1 58.5 -2.5t55.5 -2.5t45.5 -5.5t40 -12t26 -22.5t16.5 -37q1 -20 6.5 -70t5.5 -75q0 -34 -21 -46t-75 -12q-9 0 -33 -0.5t-38.5 -0.5t-38 1t-38.5 4t-30.5 7.5t-24 12.5t-10.5 19q-3 17 -5.5 53t-5.5 54h4z" />
    <glyph glyph-name="Agrave" unicode="&#xc0;" horiz-adv-x="1071" 
d="M82 492q-3 98 -9.5 313.5t-9.5 333.5q0 155 27 612q18 184 92 255t234 71q296 0 379 -66q11 -8 42 -31.5t45.5 -36t37 -34t35.5 -44t20 -48.5q7 -25 12 -50.5t9 -55.5t7 -50.5t4.5 -56.5t2.5 -52.5t1.5 -58t0.5 -53.5v-59.5v-55.5q0 -40 -5.5 -128.5t-5.5 -133.5
q0 -15 1.5 -42t1.5 -42q0 -57 1 -198.5t1 -220t-4 -193.5t-13 -207q0 -28 -11 -52t-34 -24q-20 0 -50.5 -1.5t-53.5 -2.5t-50 -1.5t-46.5 2.5t-36.5 9.5t-26 18.5t-9 30q0 19 1 56t1 55t1 51t1 56t-0.5 53t-4.5 50t-10.5 39t-18 28.5t-28.5 9.5q-34 0 -102 -1t-102 -1
q-3 0 -10.5 1t-10.5 1q-14 -1 -21.5 -6t-11 -16.5t-4 -21t-0.5 -29.5v-7q0 -239 41 -420v-17q0 -18 -14 -30t-43 -18t-51 -8.5t-61 -4t-50 -2.5q-25 0 -36.5 1.5t-23.5 9t-16 24t-4 45.5q-12 182 -12 455zM692 1161q-4 15 -4.5 41.5t1 66.5t1.5 56q0 91 -5 175.5t-26.5 177
t-58.5 104.5q-56 18 -100 18q-35 0 -61 -17t-41 -56.5t-24.5 -73.5t-13 -101.5t-4 -105t-0.5 -116.5v-34v-75q0 -57 -3 -177t-3 -184q0 -41 29 -41q25 0 72.5 6t70.5 6h17q13 0 35 -1q63 -1 80 10q28 19 34 107q4 54 4 214zM424 2173q-6 -2 -16 -2q-52 0 -195 209
q-10 15 -48.5 61t-62.5 82t-24 57q1 44 272 64q11 0 25 -12.5t28 -34t29 -49t29 -58t27 -61t23.5 -58t18.5 -49t12 -33.5l5 -12q14 -37 14 -57q0 -47 -137 -47z" />
    <glyph glyph-name="Aacute" unicode="&#xc1;" horiz-adv-x="1071" 
d="M82 492q0 -273 12 -455q0 -54 16.5 -67t63.5 -13q11 1 50 2.5t61 4t51 8.5t43 18t14 30v17q-41 181 -41 420q0 54 9 66q8 12 28 14q3 0 10.5 -1t10.5 -1q34 0 102 1t102 1q17 0 28.5 -9.5t18 -28.5t10.5 -39t4.5 -50t0.5 -53t-1 -56t-1 -51t-1 -55t-1 -56q0 -18 9 -30
t26 -18.5t36.5 -9.5t46.5 -2.5t50 1.5t53.5 2.5t50.5 1.5q23 0 34 24t11 52q9 92 13 207t4 193.5t-1 220t-1 198.5q0 15 -1.5 42t-1.5 42q0 45 5.5 133.5t5.5 128.5v55.5v59.5t-0.5 53.5t-1.5 58t-2.5 52.5t-4.5 56.5t-7 50.5t-9 55.5t-12 50.5q-7 26 -20 48.5t-35.5 44
t-37 34t-45.5 36t-42 31.5q-83 66 -379 66q-160 0 -234 -71t-92 -255q-27 -457 -27 -612q3 -118 9.5 -333.5t9.5 -313.5zM692 1161q0 -228 -12 -277q-11 -43 -44 -51q-21 -3 -97 -2h-17q-23 0 -70.5 -6t-72.5 -6q-29 0 -29 41q0 64 3 184t3 177v75v34v69.5t1 66.5t3 67
t5 60.5t8.5 57.5t13 48.5t18.5 43t24.5 30t31.5 21t39 6.5q44 0 100 -18q37 -12 58.5 -104.5t26.5 -177t5 -175.5q0 -16 -1.5 -56t-1 -66.5t4.5 -41.5zM549 2185q-137 0 -137 47q0 21 14 58l7 20q7 19 19.5 51.5t28.5 71.5t34.5 78.5t37 71.5t37 52.5t33.5 20.5q-7 0 1 -1h7
q264 -17 264 -62q0 -21 -24 -57t-62.5 -83t-48.5 -61q-1 -2 -16.5 -23.5t-21 -29t-21.5 -29t-25 -32t-23.5 -28.5t-25 -27.5t-23 -20t-22.5 -15t-19 -4.5q-8 0 -14 2z" />
    <glyph glyph-name="Acircumflex" unicode="&#xc2;" horiz-adv-x="1071" 
d="M82 492q0 -273 12 -455q0 -54 16.5 -67t63.5 -13q11 1 50 2.5t61 4t51 8.5t43 18t14 30v17q-41 181 -41 420q0 54 9 66q8 12 28 14q3 0 10.5 -1t10.5 -1q34 0 102 1t102 1q17 0 28.5 -9.5t18 -28.5t10.5 -39t4.5 -50t0.5 -53t-1 -56t-1 -51t-1 -55t-1 -56q0 -18 9 -30
t26 -18.5t36.5 -9.5t46.5 -2.5t50 1.5t53.5 2.5t50.5 1.5q23 0 34 24t11 52q9 92 13 207t4 193.5t-1 220t-1 198.5q0 15 -1.5 42t-1.5 42q0 45 5.5 133.5t5.5 128.5v55.5v59.5t-0.5 53.5t-1.5 58t-2.5 52.5t-4.5 56.5t-7 50.5t-9 55.5t-12 50.5q-7 26 -20 48.5t-35.5 44
t-37 34t-45.5 36t-42 31.5q-83 66 -379 66q-160 0 -234 -71t-92 -255q-27 -457 -27 -612q3 -118 9.5 -333.5t9.5 -313.5zM692 1161q0 -228 -12 -277q-11 -43 -44 -51q-21 -3 -97 -2h-17q-23 0 -70.5 -6t-72.5 -6q-29 0 -29 41q0 64 3 184t3 177v75v34v69.5t1 66.5t3 67
t5 60.5t8.5 57.5t13 48.5t18.5 43t24.5 30t31.5 21t39 6.5q44 0 100 -18q37 -12 58.5 -104.5t26.5 -177t5 -175.5q0 -16 -1.5 -56t-1 -66.5t4.5 -41.5zM686 2193h-37q-24 0 -52.5 22t-50 49t-45 49t-38.5 22q-13 0 -36.5 -25.5t-46.5 -56.5t-53 -56.5t-55 -25.5
q-6 0 -28 -0.5t-35 0t-34.5 1t-35 3.5t-27.5 7t-21 11t-7 17q0 34 37 99t80 116q10 13 68.5 103.5t112 152t91.5 61.5q25 0 65 -29t83.5 -76.5t77.5 -88t65 -82.5q2 -3 47 -52t72.5 -90t27.5 -69q0 -11 -8 -20t-25 -15t-33 -10.5t-42.5 -7.5t-41.5 -4.5t-41.5 -3.5t-33.5 -3
v2z" />
    <glyph glyph-name="Atilde" unicode="&#xc3;" horiz-adv-x="1071" 
d="M82 492q-3 98 -9.5 313.5t-9.5 333.5q0 155 27 612q18 184 92 255t234 71q296 0 379 -66q11 -8 42 -31.5t45.5 -36t37 -34t35.5 -44t20 -48.5q7 -25 12 -50.5t9 -55.5t7 -50.5t4.5 -56.5t2.5 -52.5t1.5 -58t0.5 -53.5v-59.5v-55.5q0 -40 -5.5 -128.5t-5.5 -133.5
q0 -15 1.5 -42t1.5 -42q0 -57 1 -198.5t1 -220t-4 -193.5t-13 -207q0 -28 -11 -52t-34 -24q-20 0 -50.5 -1.5t-53.5 -2.5t-50 -1.5t-46.5 2.5t-36.5 9.5t-26 18.5t-9 30q0 19 1 56t1 55t1 51t1 56t-0.5 53t-4.5 50t-10.5 39t-18 28.5t-28.5 9.5q-34 0 -102 -1t-102 -1
q-3 0 -10.5 1t-10.5 1q-14 -1 -21.5 -6t-11 -16.5t-4 -21t-0.5 -29.5v-7q0 -239 41 -420v-17q0 -18 -14 -30t-43 -18t-51 -8.5t-61 -4t-50 -2.5q-25 0 -36.5 1.5t-23.5 9t-16 24t-4 45.5q-12 182 -12 455zM692 1161q-4 15 -4.5 41.5t1 66.5t1.5 56q0 91 -5 175.5t-26.5 177
t-58.5 104.5q-56 18 -100 18q-35 0 -61 -17t-41 -56.5t-24.5 -73.5t-13 -101.5t-4 -105t-0.5 -116.5v-34v-75q0 -57 -3 -177t-3 -184q0 -41 29 -41q25 0 72.5 6t70.5 6h17q13 0 35 -1q63 -1 80 10q28 19 34 107q4 54 4 214zM928 2474q-38 -320 -312 -320q-40 0 -68 10.5
t-47.5 34t-32 47t-30.5 64.5q-5 13 -8 19q-18 41 -39 41q-29 0 -41 -26.5t-12 -49.5q0 -10 2 -32t2 -30q-1 -12 -9 -21t-21.5 -14t-27.5 -8t-35 -4t-35 -1t-35 0.5t-29 0.5q-31 0 -43.5 16t-12.5 48q3 52 12.5 100t31 97.5t53 86t82 59.5t114.5 23q75 0 113 -36t78 -136
q8 -17 24 -28t35 -11q28 0 39 20.5t10.5 49t-1.5 57.5t10 49.5t38 20.5q17 -1 40 -1h36.5t31 -2t28 -6.5t22 -13t18 -22t12 -34t7.5 -48.5z" />
    <glyph glyph-name="Adieresis" unicode="&#xc4;" horiz-adv-x="1071" 
d="M82 492q-3 98 -9.5 313.5t-9.5 333.5q0 155 27 612q18 184 92 255t234 71q296 0 379 -66q11 -8 42 -31.5t45.5 -36t37 -34t35.5 -44t20 -48.5q7 -25 12 -50.5t9 -55.5t7 -50.5t4.5 -56.5t2.5 -52.5t1.5 -58t0.5 -53.5v-59.5v-55.5q0 -40 -5.5 -128.5t-5.5 -133.5
q0 -15 1.5 -42t1.5 -42q0 -57 1 -198.5t1 -220t-4 -193.5t-13 -207q0 -28 -11 -52t-34 -24q-20 0 -50.5 -1.5t-53.5 -2.5t-50 -1.5t-46.5 2.5t-36.5 9.5t-26 18.5t-9 30q0 19 1 56t1 55t1 51t1 56t-0.5 53t-4.5 50t-10.5 39t-18 28.5t-28.5 9.5q-34 0 -102 -1t-102 -1
q-3 0 -10.5 1t-10.5 1q-14 -1 -21.5 -6t-11 -16.5t-4 -21t-0.5 -29.5v-7q0 -239 41 -420v-17q0 -18 -14 -30t-43 -18t-51 -8.5t-61 -4t-50 -2.5q-25 0 -36.5 1.5t-23.5 9t-16 24t-4 45.5q-12 182 -12 455zM692 1161q-4 15 -4.5 41.5t1 66.5t1.5 56q0 91 -5 175.5t-26.5 177
t-58.5 104.5q-56 18 -100 18q-35 0 -61 -17t-41 -56.5t-24.5 -73.5t-13 -101.5t-4 -105t-0.5 -116.5v-34v-75q0 -57 -3 -177t-3 -184q0 -41 29 -41q25 0 72.5 6t70.5 6h17q13 0 35 -1q63 -1 80 10q28 19 34 107q4 54 4 214zM549 2331v65q0 43 162 43q27 0 42 -10t15 -41
q-2 -10 -2 -29q0 -27 9 -83t9 -83q-1 -11 -6 -17.5t-15 -8.5t-16.5 -2.5t-20.5 0t-17 0.5q-13 1 -36.5 1.5t-41.5 1.5t-36 4t-28 11.5t-10 22.5q-4 39 -8 125zM438 2312q-2 -15 -3 -33.5t-1.5 -27.5t-3 -21t-8.5 -17.5t-16.5 -11.5t-28.5 -8.5t-42.5 -4t-60.5 -1.5
q-25 0 -39.5 8.5t-20.5 38t-6.5 50.5t-0.5 79v41q0 37 45 37q18 -1 50 -2q39 -1 54.5 -2t35.5 -6t25.5 -11t12.5 -22t7.5 -34.5t0.5 -51.5z" />
    <glyph glyph-name="Aring" unicode="&#xc5;" horiz-adv-x="1071" 
d="M82 492l-19 647q0 155 27 612q14 154 71.5 232.5t164.5 87.5l-43 38q-84 75 -84 189q0 80 46 149.5t138 108.5l55 16q21 6 43 6q75 0 148 -54t116 -130t43 -143q0 -55 -32 -112.5t-74 -84.5l31 -8q62 -17 110.5 -47t79 -67.5t53 -82t32 -91t16 -94t5.5 -91t0.5 -82.5
t0.5 -68q0 -17 1 -49t1 -49q0 -40 -5.5 -128.5t-5.5 -133.5q0 -15 1.5 -42t1.5 -42q1 -32 -3 -91.5t-4 -84.5v-426q0 -15 0.5 -50t0.5 -56.5t-1 -54t-4.5 -52.5t-9 -40.5t-15.5 -30t-24 -9.5q-20 0 -50.5 -1.5t-53.5 -2.5t-50 -1.5t-46.5 2.5t-36.5 9.5t-26 18.5t-9 30
q0 49 2 74v37q0 18 1 51t1 56t-0.5 53t-4.5 50t-10.5 39t-18 28.5t-28.5 9.5q-24 0 -72 -1t-71 -1h-61q-3 0 -10.5 1t-10.5 1q-14 -1 -21.5 -6t-11 -16.5t-4 -21t-0.5 -29.5v-7q0 -238 41 -416v-4v-17q0 -18 -14 -30t-43 -18t-51 -8.5t-61 -4t-50 -2.5q-25 0 -36.5 1.5
t-23.5 9t-16 24t-4 45.5q-12 182 -12 455zM692 1047v114l-2 164q-4 256 -41 389l-18 41q-9 22 -50 33.5t-81 11.5q-35 0 -61 -17t-41 -56.5t-24.5 -73.5t-13 -101.5t-4 -105t-0.5 -116.5v-34v-75v-50v-176q-6 -129 -6 -135q0 -41 29 -41q25 0 72.5 6t70.5 6h17q12 0 38 -1
t36.5 -0.5t28 4t25 11.5t13.5 23.5t6 38.5zM471 2247q21 0 38 12t17 35q0 20 -29 40.5t-53 20.5q-15 0 -25.5 -13t-10.5 -32q0 -27 19 -43.5t44 -19.5z" />
    <glyph glyph-name="AE" unicode="&#xc6;" horiz-adv-x="1423" 
d="M74 932q0 18 -1 51t-1 49q0 68 6 202t6 202q-2 14 -2 43q0 82 2.5 136t13 129t30 124t56 103t88.5 85.5t131 52.5t179 21q91 0 275 -25.5t282 -25.5h61q51 0 73.5 -15.5t32 -59t9.5 -140.5q-2 -31 -41 -31q-28 0 -84.5 7t-87.5 7q-55 0 -70.5 -10.5t-15.5 -48.5
q0 -30 3 -91t3 -91q0 -42 -1 -126.5t-1 -127.5q0 -12 -1 -34q2 -16 -0.5 -28t2.5 -22t9 -17t18.5 -12.5t31 -9t46 -5t64.5 -2.5t86 -1q31 0 40 -11.5t9 -46.5q-2 -27 -3 -60.5t-1 -50t-4 -38t-9 -30.5t-19.5 -22t-31.5 -18t-49.5 -12.5t-69.5 -12t-94 -10.5q-20 -4 -31 -51
t-13.5 -120.5t-1.5 -140t3.5 -139t2.5 -87.5q0 -17 6.5 -29t14 -18t23 -9t25 -3t29.5 0.5t26 0.5q12 1 85 11t112 10q11 0 19.5 -4t13.5 -13.5t8 -17.5t4 -25.5t1 -28t-0.5 -33.5t-0.5 -34q-4 -32 -4 -49q0 -13 4 -33q0 -71 -63 -71q-29 0 -90 1t-91 1h-39h-57
q-46 0 -141 -13.5t-139 -13.5q-14 0 -24 8t-16 26t-9.5 32.5t-5 43.5t-1.5 41.5v42.5v17q0 59 8.5 182t8.5 176v25q0 43 6 130.5t6 131.5q-1 7 -8 12.5t-20 9.5t-27 7t-34.5 4.5t-37 2.5t-40.5 1h-38h-35.5h-29.5q-40 0 -49 -14t-9 -60q0 -21 2.5 -119.5t-0.5 -117.5
q-6 -159 -6 -160q6 -318 6 -320q0 -47 -10.5 -69t-42.5 -23q-29 -2 -86.5 -5t-85.5 -5q-25 0 -39.5 14.5t-21.5 45.5t-10 63.5t-7.5 85.5t-11.5 94q0 61 -9.5 184.5t-9.5 182.5q0 262 11 262zM741 1761q2 6 2 45q-1 17 -11 24t-32 7q-20 -1 -51.5 -1.5t-49.5 -0.5t-44 -3
t-41 -8t-35 -15t-31 -25t-23.5 -38t-19 -53.5t-10.5 -72t-4 -92.5q-8 -131 -8 -295q0 -24 9.5 -31.5t33.5 -7.5q119 0 209 25t90 59q0 155 16 483z" />
    <glyph glyph-name="Ccedilla" unicode="&#xc7;" horiz-adv-x="1058" 
d="M379 1475h2v-132q0 -7 -1 -20t-1 -20v-62q0 -12 -2 -37t-2 -39q0 -40 14 -125.5t14 -130.5q0 -70 -7 -206.5t-7 -204.5q0 -37 2 -65.5t9.5 -64t21 -59.5t39.5 -41t61 -18q201 0 201 160q0 30 -6 65l-25 146q-2 8 -2 22q0 33 26.5 42t92.5 9h22h24.5t24 -0.5t25 -2
t22 -4.5t20.5 -8t16 -11t12.5 -15.5t5.5 -21.5q16 -128 16 -242q0 -71 -16.5 -139t-49.5 -128t-89.5 -98.5t-128.5 -43.5q-9 0 -28 -4.5t-28 -4.5q0 -46 11 -66.5t27 -22.5t42 -11.5t47 -32.5q76 -85 76 -200q0 -139 -79.5 -224.5t-243.5 -85.5l-119 6q-15 2 -24 13t-9 28
q1 11 2.5 40.5t3.5 48.5t7.5 41.5t17 35.5t28.5 15q63 9 98.5 31.5t35.5 72.5q0 28 -36 39.5t-83 11.5h-35q-55 0 -55 193q0 21 4 67h-11q-55 6 -98.5 29.5t-73.5 56t-51.5 82.5t-34 100.5t-19.5 119t-9 127.5t-2 137q2 18 2 53q1 18 -1 53t-1 53l4 113l-15 344q0 31 -1 96
t-1 97q0 192 15 309l12 63q21 70 43.5 116.5t61 88t98.5 62t143 20.5q64 0 125 -6h10q23 -8 89 -17t92 -22q96 -48 124 -69q73 -56 101 -170q29 -120 29 -355q0 -86 -74 -86l-164 -10q-49 3 -49 47v57q2 16 2 49q0 135 -16 187q-33 104 -150 104q-95 0 -131.5 -36
t-36.5 -126z" />
    <glyph glyph-name="Egrave" unicode="&#xc8;" horiz-adv-x="811" 
d="M537 1784q-14 0 -39.5 1.5t-38 2t-30.5 -3.5t-26.5 -14t-15 -31t-6.5 -53q0 -14 3 -43t3 -44q0 -39 -9 -119.5t-9 -119.5q0 -37 32 -37q21 0 66 4t68 4q95 0 112 -3q42 -9 57 -53q15 -46 15 -185q0 -36 -37.5 -53t-91 -20t-106.5 -5t-90.5 -14t-37.5 -40q0 -39 4.5 -116
t4.5 -115v-133q0 -53 16 -155t16 -154q2 -14 12 -24t26 -15.5t33 -9t39 -4t37.5 -0.5t35 0.5t24.5 0.5q84 0 101 -5q40 -11 51 -64q6 -30 6 -82q0 -28 -1 -42t-4.5 -32.5t-12 -27t-23.5 -9.5q-13 0 -34 3t-32 3q-27 0 -83 -7t-85 -7q-22 0 -32 2q-39 0 -116 -8t-116 -8h-19
h-18t-15.5 0.5t-14.5 1t-12 2.5t-11 4.5t-8 6.5t-7 9t-4 12t-3 15q-1 17 -8 75.5t-7 88.5q2 14 2 45q0 21 -2 62t-2 61q0 24 2 73t2 74q0 21 -4 65t-4 66q0 14 1 37t1 35q0 196 -13 581t-13 574q0 15 1 46t1 46q0 13 -2.5 39t-2.5 39q0 22 27.5 38.5t71 24.5t84 11.5
t78.5 3.5q26 0 77 -5t76 -5q20 0 62.5 1t64.5 1h37h16q16 0 27.5 -7t18.5 -23.5t11 -30t5.5 -40.5t2 -41.5t0 -45.5t-0.5 -40q0 -22 -6.5 -36.5t-15 -21.5t-24.5 -10t-27 -3t-32 1t-30 1q-3 0 -49 4zM315 2179q-6 -2 -16 -2q-52 0 -195 209q-10 14 -48.5 61t-62.5 83t-24 57
q0 44 273 63q11 0 25 -12.5t28 -34t29 -49t28.5 -58t26.5 -61t23.5 -57.5t18.5 -48.5t13 -33.5l4 -12q15 -40 15 -58q0 -47 -138 -47z" />
    <glyph glyph-name="Eacute" unicode="&#xc9;" horiz-adv-x="811" 
d="M537 1784q46 -4 49 -4q9 0 30 -1t32 -1t27 3t24.5 10t15 21.5t6.5 36.5q0 9 0.5 40t0 45.5t-2 41.5t-5.5 40.5t-11 30t-18.5 23.5t-27.5 7h-16h-37q-22 0 -64.5 -1t-62.5 -1q-25 0 -76 5t-77 5q-38 0 -78.5 -3.5t-84 -11.5t-71 -24.5t-27.5 -38.5q0 -13 2.5 -39t2.5 -39
q0 -15 -1 -46t-1 -46q0 -189 13 -574t13 -581q0 -12 -1 -35t-1 -37q0 -22 4 -66t4 -65q0 -25 -2 -74t-2 -73q0 -20 2 -61t2 -62q0 -31 -2 -45q0 -30 7 -88.5t8 -75.5q1 -8 3 -15t4 -12t7 -9t8 -6.5t11 -4.5t12 -2.5t14.5 -1t15.5 -0.5h18h19q39 0 116 8t116 8q10 -2 32 -2
q29 0 85 7t83 7q11 0 32 -3t34 -3q15 1 23.5 9.5t12 27t4.5 32.5t1 42q0 33 -2.5 56.5t-7.5 40t-12.5 27t-18 16.5t-24.5 8t-31.5 3t-37.5 0h-24q-5 0 -24.5 -0.5t-35 -0.5t-37.5 0.5t-39 4t-33 9t-26 15.5t-12 24q0 52 -16 154t-16 155v133q0 38 -4.5 115t-4.5 116
q0 28 37.5 40t90.5 14t106.5 5t91 20t37.5 53q0 54 -2 90t-6.5 64.5t-12 43t-19 26t-27.5 13t-37 4.5t-48 0h-32q-23 0 -68 -4t-66 -4q-32 0 -32 37q0 39 9 119.5t9 119.5q0 15 -3 44t-3 43q0 32 6.5 53t15 31t26.5 14t30.5 3.5t38 -2t39.5 -1.5zM424 2202q-137 0 -137 47
q0 20 14 57l7 20q7 19 19.5 52t28.5 72t34.5 78t37 71.5t37 53t33.5 20.5q2 -1 9 -1q263 -18 263 -63q0 -21 -24 -57t-62.5 -83t-48.5 -61q-3 -4 -10 -14q-27 -38 -44.5 -61.5t-47 -59.5t-54 -54.5t-41.5 -18.5q-8 0 -14 2z" />
    <glyph glyph-name="Ecircumflex" unicode="&#xca;" horiz-adv-x="811" 
d="M537 1784q46 -4 49 -4q9 0 30 -1t32 -1t27 3t24.5 10t15 21.5t6.5 36.5q0 9 0.5 40t0 45.5t-2 41.5t-5.5 40.5t-11 30t-18.5 23.5t-27.5 7h-16h-37q-22 0 -64.5 -1t-62.5 -1q-25 0 -76 5t-77 5q-38 0 -78.5 -3.5t-84 -11.5t-71 -24.5t-27.5 -38.5q0 -13 2.5 -39t2.5 -39
q0 -15 -1 -46t-1 -46q0 -189 13 -574t13 -581q0 -12 -1 -35t-1 -37q0 -22 4 -66t4 -65q0 -25 -2 -74t-2 -73q0 -20 2 -61t2 -62q0 -31 -2 -45q0 -30 7 -88.5t8 -75.5q1 -8 3 -15t4 -12t7 -9t8 -6.5t11 -4.5t12 -2.5t14.5 -1t15.5 -0.5h18h19q39 0 116 8t116 8q10 -2 32 -2
q29 0 85 7t83 7q11 0 32 -3t34 -3q15 1 23.5 9.5t12 27t4.5 32.5t1 42q0 33 -2.5 56.5t-7.5 40t-12.5 27t-18 16.5t-24.5 8t-31.5 3t-37.5 0h-24q-5 0 -24.5 -0.5t-35 -0.5t-37.5 0.5t-39 4t-33 9t-26 15.5t-12 24q0 52 -16 154t-16 155v133q0 38 -4.5 115t-4.5 116
q0 28 37.5 40t90.5 14t106.5 5t91 20t37.5 53q0 54 -2 90t-6.5 64.5t-12 43t-19 26t-27.5 13t-37 4.5t-48 0h-32q-23 0 -68 -4t-66 -4q-32 0 -32 37q0 39 9 119.5t9 119.5q0 15 -3 44t-3 43q0 32 6.5 53t15 31t26.5 14t30.5 3.5t38 -2t39.5 -1.5zM557 2216h-37
q-24 0 -52.5 22t-50 48.5t-45 48.5t-38.5 22q-13 0 -36.5 -25.5t-46.5 -56.5t-53 -56.5t-55 -25.5q-6 0 -28 -0.5t-35 0t-34.5 1t-35 3.5t-27.5 7t-21 11t-7 17q0 34 37 99t80 116q10 13 68.5 104t112 152.5t91.5 61.5q33 0 93.5 -54t106.5 -108.5t91 -114.5q2 -3 47 -52
t72.5 -90t27.5 -69q0 -11 -8.5 -20t-25 -15t-33 -10t-42 -7t-41.5 -5t-41.5 -3.5t-33.5 -2.5v2z" />
    <glyph glyph-name="Edieresis" unicode="&#xcb;" horiz-adv-x="811" 
d="M537 1784q-14 0 -39.5 1.5t-38 2t-30.5 -3.5t-26.5 -14t-15 -31t-6.5 -53q0 -14 3 -43t3 -44q0 -39 -9 -119.5t-9 -119.5q0 -37 32 -37q21 0 66 4t68 4q95 0 112 -3q42 -9 57 -53q15 -46 15 -185q0 -36 -37.5 -53t-91 -20t-106.5 -5t-90.5 -14t-37.5 -40q0 -39 4.5 -116
t4.5 -115v-133q0 -53 16 -155t16 -154q2 -14 12 -24t26 -15.5t33 -9t39 -4t37.5 -0.5t35 0.5t24.5 0.5q84 0 101 -5q40 -11 51 -64q6 -30 6 -82q0 -28 -1 -42t-4.5 -32.5t-12 -27t-23.5 -9.5q-13 0 -34 3t-32 3q-27 0 -83 -7t-85 -7q-22 0 -32 2q-39 0 -116 -8t-116 -8h-19
h-18t-15.5 0.5t-14.5 1t-12 2.5t-11 4.5t-8 6.5t-7 9t-4 12t-3 15q-1 17 -8 75.5t-7 88.5q2 14 2 45q0 21 -2 62t-2 61q0 24 2 73t2 74q0 21 -4 65t-4 66q0 14 1 37t1 35q0 196 -13 581t-13 574q0 15 1 46t1 46q0 13 -2.5 39t-2.5 39q0 22 27.5 38.5t71 24.5t84 11.5
t78.5 3.5q26 0 77 -5t76 -5q20 0 62.5 1t64.5 1h37h16q16 0 27.5 -7t18.5 -23.5t11 -30t5.5 -40.5t2 -41.5t0 -45.5t-0.5 -40q0 -22 -6.5 -36.5t-15 -21.5t-24.5 -10t-27 -3t-32 1t-30 1q-3 0 -49 4zM459 2331v65q0 43 162 43q27 0 42 -10t15 -41q-2 -10 -2 -29q0 -27 9 -83
t9 -83q-1 -11 -6 -17.5t-15 -8.5t-17 -2.5t-21 0t-17 0.5q-13 1 -36.5 1.5t-41 1.5t-35.5 4t-28 11.5t-10 22.5q-4 39 -8 125zM348 2312q-2 -15 -3 -33.5t-1.5 -27.5t-3 -21t-8.5 -17.5t-16.5 -11.5t-28.5 -8.5t-42.5 -4t-60.5 -1.5q-25 0 -39.5 8.5t-20.5 38t-6.5 50.5
t-0.5 79v41q0 37 45 37q18 -1 50 -2q39 -1 54.5 -2t35.5 -6t25.5 -11t12.5 -22t7.5 -34.5t0.5 -51.5z" />
    <glyph glyph-name="Igrave" unicode="&#xcc;" horiz-adv-x="458" 
d="M66 248q0 17 -1.5 47t-1.5 45q0 36 8.5 110t8.5 109q0 17 -3 53.5t-3 55.5q0 34 6 102t6 102q0 18 -2 57t-2 58q0 63 3 189t3 190q0 53 -8 159t-8 158q0 18 -1 57t-0.5 59t2.5 52t8.5 49t17 35.5t29 26.5t44.5 8q23 0 70.5 1t72.5 1q10 0 18.5 -3t14 -10t10 -13t7 -18.5
l4 -20t2 -23t0.5 -22.5v-23.5v-21.5q0 -8 -2 -25t-2 -25q0 -25 4 -77t4 -78q0 -32 -3 -95.5t-3 -93.5q0 -28 1 -84t1 -82q0 -31 -6.5 -103t-4.5 -110q0 -414 37 -772q4 -44 4 -200q0 -23 -8.5 -40.5t-25.5 -28.5t-34 -18.5t-42 -11t-40.5 -5t-38.5 -2.5t-28 -1
q-18 -2 -53 -2q-16 1 -28 13t-18.5 31t-11 43.5t-5.5 50.5l-2 52t0 49v21v25zM164 2107q-6 -2 -17 -2q-51 0 -194 209q-10 14 -48.5 61t-62.5 83t-24 57q0 44 272 63q11 0 25 -12.5t28 -34t29 -49t29 -58t27 -61t23.5 -57.5t18.5 -48.5t12 -33.5l5 -12q14 -37 14 -58
q0 -47 -137 -47z" />
    <glyph glyph-name="Iacute" unicode="&#xcd;" horiz-adv-x="458" 
d="M66 248v-25v-21v-50t1.5 -50.5t6 -52.5t11 -41.5t18.5 -32.5t28 -12q35 0 53 2q5 0 28 1t38.5 2.5t40.5 5t42 11t34 18.5t25.5 28.5t8.5 40.5q0 156 -4 200q-37 358 -37 772q-2 38 4.5 110t6.5 103q0 26 -1 82t-1 84q0 30 3 93.5t3 95.5q0 26 -4 78t-4 77q0 8 2 25t2 25
v21.5v23.5t-0.5 22.5t-2 23l-4 20t-7 18.5t-10 13t-14 10t-18.5 3q-25 0 -72.5 -1t-70.5 -1q-26 0 -44.5 -8t-29 -26.5t-17 -35.5t-8.5 -49t-2.5 -52t0.5 -59t1 -57q0 -52 8 -158t8 -159q0 -64 -3 -190t-3 -189q0 -19 2 -58t2 -57q0 -34 -6 -102t-6 -102q0 -19 3 -55.5
t3 -53.5q0 -35 -8.5 -109t-8.5 -110q0 -15 1.5 -45t1.5 -47zM236 2101q-138 0 -138 47q0 18 15 58l7 20q7 19 19.5 51.5t28 71.5t34 78.5t37 71.5t37 52.5t33.5 20.5q-7 0 1 -1h7q265 -17 265 -62q0 -21 -24.5 -57t-63 -82.5t-48.5 -61.5q-3 -5 -16.5 -23.5t-20.5 -28.5
t-21.5 -29.5t-24.5 -31.5t-24 -29t-25 -27t-23 -20.5t-22 -15t-19 -4.5q-8 0 -14 2z" />
    <glyph glyph-name="Icircumflex" unicode="&#xce;" horiz-adv-x="458" 
d="M66 248v-25v-21v-50t1.5 -50.5t6 -52.5t11 -41.5t18.5 -32.5t28 -12q35 0 53 2q5 0 28 1t38.5 2.5t40.5 5t42 11t34 18.5t25.5 28.5t8.5 40.5q0 156 -4 200q-37 358 -37 772q-2 38 4.5 110t6.5 103q0 26 -1 82t-1 84q0 30 3 93.5t3 95.5q0 26 -4 78t-4 77q0 8 2 25t2 25
v21.5v23.5t-0.5 22.5t-2 23l-4 20t-7 18.5t-10 13t-14 10t-18.5 3q-25 0 -72.5 -1t-70.5 -1q-26 0 -44.5 -8t-29 -26.5t-17 -35.5t-8.5 -49t-2.5 -52t0.5 -59t1 -57q0 -52 8 -158t8 -159q0 -64 -3 -190t-3 -189q0 -19 2 -58t2 -57q0 -34 -6 -102t-6 -102q0 -19 3 -55.5
t3 -53.5q0 -35 -8.5 -109t-8.5 -110q0 -15 1.5 -45t1.5 -47zM426 2060h-37q-24 0 -52.5 22t-50 49t-45 49t-38.5 22q-13 0 -36.5 -25.5t-46.5 -56.5t-53 -56.5t-55 -25.5q-6 0 -28 -0.5t-35 0t-34.5 1t-35 3.5t-27.5 7t-21 11t-7 17q0 34 37 99t80 116q10 13 68.5 103.5
t112 152t91.5 61.5q25 0 65 -29t83.5 -76.5t77.5 -88t65 -82.5q2 -3 47 -52t72.5 -90t27.5 -69q0 -11 -8 -20t-25 -15t-33 -10.5t-42.5 -7.5t-41.5 -4.5t-41.5 -3.5t-33.5 -3v2z" />
    <glyph glyph-name="Idieresis" unicode="&#xcf;" horiz-adv-x="458" 
d="M66 248q0 17 -1.5 47t-1.5 45q0 36 8.5 110t8.5 109q0 17 -3 53.5t-3 55.5q0 34 6 102t6 102q0 18 -2 57t-2 58q0 63 3 189t3 190q0 53 -8 159t-8 158q0 18 -1 57t-0.5 59t2.5 52t8.5 49t17 35.5t29 26.5t44.5 8q23 0 70.5 1t72.5 1q10 0 18.5 -3t14 -10t10 -13t7 -18.5
l4 -20t2 -23t0.5 -22.5v-23.5v-21.5q0 -8 -2 -25t-2 -25q0 -25 4 -77t4 -78q0 -32 -3 -95.5t-3 -93.5q0 -28 1 -84t1 -82q0 -31 -6.5 -103t-4.5 -110q0 -414 37 -772q4 -44 4 -200q0 -23 -8.5 -40.5t-25.5 -28.5t-34 -18.5t-42 -11t-40.5 -5t-38.5 -2.5t-28 -1
q-18 -2 -53 -2q-16 1 -28 13t-18.5 31t-11 43.5t-5.5 50.5l-2 52t0 49v21v25zM283 2292v65q0 43 161 43q27 0 42.5 -10t15.5 -41q-2 -10 -2 -29q0 -28 9 -83t9 -83q-1 -11 -6 -17.5t-15 -8.5t-17 -2.5t-21 0t-17 0.5q-13 1 -36.5 1.5t-41 1.5t-35.5 4t-28 11.5t-10 22.5
q-4 39 -8 125zM172 2273q-2 -15 -3 -33.5t-1.5 -27.5t-3 -21t-8.5 -17.5t-16.5 -11.5t-28.5 -8.5t-42.5 -4t-60.5 -1.5q-25 0 -39.5 8.5t-20.5 38t-6.5 50.5t-0.5 79v41q0 37 45 37q18 -1 50 -2q39 -1 54.5 -2t35.5 -6t25.5 -11t12.5 -22t7.5 -34.5t0.5 -51.5z" />
    <glyph glyph-name="Eth" unicode="&#xd0;" horiz-adv-x="1136" 
d="M10 1188h41q29 10 29 33q0 33 2 49l6 61q1 16 2 48t2 48q0 9 -1 29t-1 29q0 123 8 373l8 131q3 28 28.5 47t58 28t78 13t77.5 3.5t68 -2t39 -1.5q118 0 218 -15.5t183 -47.5t134 -87t59 -129q15 -126 18 -250q0 -5 -1 -16t-1 -16q0 -56 2 -169t2 -171h4v-244v-80
q0 -59 -6.5 -169t-7.5 -136l-6 -86q0 -29 -13 -105l-24 -120q-9 -55 -35 -100t-61.5 -74t-79 -52t-87 -33.5t-86.5 -19t-76.5 -8.5t-57 -2.5t-29.5 0.5h-2h-39q-53 0 -80 -6h-12q-21 0 -63 -2t-62 -2q-106 0 -129 51t-35 284q0 8 -0.5 12.5t-1 11.5t-0.5 13q-9 124 -8 160
l-4 219v29q0 8 -1 24.5t-1 24.5q0 28 4 86q0 6 -0.5 11t-1 8.5t-2.5 6.5t-2.5 5t-4.5 3t-5.5 2t-7 1h-8h-10.5h-12h-18q-19 6 -24 26t-5 64l6 88q0 13 1 37t1 35v10q0 37 33 39zM557 1794q-88 -4 -103 -8q-43 -10 -57 -56q-12 -39 -12 -116v-291v-86q0 -30 4.5 -35t30.5 -10
q28 -4 41 -4q5 0 17 1t18 1q26 0 37.5 -11.5t11.5 -43.5q0 -21 -2 -46t-6 -55t-5 -45q0 -9 1.5 -26.5t1.5 -26.5q0 -44 -33 -47l-84 -4q-31 -21 -31 -54q0 -24 6.5 -70.5t7.5 -66.5l15 -418q0 -25 9 -32.5t36 -7.5q55 0 107.5 12t100.5 46.5t62 86.5q41 163 41 356
q0 15 -1 43t-1 43q0 31 3.5 92t4.5 80l15 367q-1 15 -4 70.5t-3 85.5v36q0 37 -4 70.5t-13.5 70t-31 60t-51.5 27.5z" />
    <glyph glyph-name="Ntilde" unicode="&#xd1;" horiz-adv-x="1339" 
d="M961 612q10 46 10 119q0 418 -35 1110q-1 15 -6.5 53.5t-5.5 55.5q0 25 20 40t54.5 19.5t63.5 5t65.5 -1.5t41.5 -2q15 0 27.5 -12t21 -36t15 -49t10 -63t6 -65t3.5 -68t1 -60v-52v-33q2 -49 7 -150.5t7.5 -180.5t2.5 -150q0 -29 -3 -85t-3 -83q0 -60 3 -171t3 -165
q0 -82 -12.5 -245t-12.5 -245q-6 -74 -11 -87q-11 -27 -57 -34q-34 -4 -139 -4q-43 0 -122.5 -14t-106.5 -14q-21 0 -46.5 45t-50 122.5t-43.5 146t-40 152.5t-27 105q-19 67 -38 142t-32 129.5t-33 143.5t-28.5 129t-31 145.5t-29.5 137.5q-12 58 -29 80
q-11 -27 -16.5 -66.5t-6 -64t0.5 -69t1 -47.5q0 -22 -4 -71.5t-4 -74.5q0 -163 20 -466t23 -388v-31q1 -23 0.5 -42t-4.5 -35.5t-13 -29.5t-26 -22.5t-43 -16t-64.5 -10t-90.5 -3.5q-58 4 -58 311q0 428 -24 944q0 12 1 34t1 32q-4 118 -4 176q0 27 3 82t3 82q0 49 -10 299
q0 73 268 73q30 0 76 -16t65 -16t36 -21t31 -61.5t24 -75.5t23 -88t19 -74q124 -445 254 -764q6 -15 23 -93t36.5 -138t39.5 -60zM1040 2427q-38 -320 -311 -320q-40 0 -67.5 9.5t-48.5 35.5t-31.5 45.5t-30.5 65.5q-5 12 -8 18q-18 41 -39 41q-29 0 -41 -26.5t-12 -48.5
q0 -11 2 -33t2 -29q-1 -12 -9 -21t-22 -14t-28 -8t-35 -4t-35 -1t-35 0.5t-29 0.5q-31 0 -43 15.5t-12 48.5q3 52 12.5 100t31 97.5t53 86t82 59.5t114.5 23q75 0 112.5 -36t77.5 -136q7 -17 24 -28t36 -11q28 0 39 20.5t10.5 49.5t-1.5 57.5t10 49t38 20.5q18 -1 51.5 -1
t47 -1t35 -7.5t31 -19.5t18 -37t11.5 -61z" />
    <glyph glyph-name="Ograve" unicode="&#xd2;" horiz-adv-x="1081" 
d="M1012 1237q0 -65 -2 -193t-2 -192q0 -62 5 -188t5 -189q0 -17 0.5 -56t0.5 -58.5t-1 -55.5t-3.5 -57t-8 -52.5t-13 -51.5t-19 -45t-26.5 -42t-36 -33.5t-46 -27.5q-95 -43 -173.5 -62.5t-188.5 -19.5q-63 0 -112 9t-88 34t-67 52t-49.5 80.5t-35.5 101t-26.5 132.5
t-20 156t-17.5 189q-2 24 -16 102.5t-13 124.5q0 61 5.5 186t5.5 187q0 87 -7 213v33q0 61 0.5 92.5t3.5 88.5t10 88.5t20.5 79t33 74.5t49.5 59t69.5 49t93 28.5t118.5 11.5h8q29 0 90 5t90 5q69 0 122 -19t89.5 -53.5t62 -89.5t41 -118.5t24.5 -149t14 -174t10 -199.5
q1 -36 2 -55h-2zM717 799h2q-6 201 -33 772q-3 39 -6 64.5t-12 64t-21 61.5t-34.5 40.5t-51.5 17.5q-55 0 -91.5 -12.5t-54 -30.5t-26.5 -50t-9.5 -58.5t-1 -69.5t-3.5 -70q-8 -90 -8 -131v-83v-90t1 -83.5t3 -91t6 -82t10 -84.5v-13q0 -18 -7 -53t-7 -55q0 -30 -2 -89.5
t-2.5 -100.5t1.5 -95.5t11 -91.5t24 -71.5t42 -52t65 -17.5q114 0 163.5 56t49.5 175q0 62 -3.5 174.5t-4.5 149.5zM418 2193q-6 -2 -17 -2q-51 0 -194 209q-10 14 -48.5 61t-62.5 83t-24 57q0 44 272 63q11 0 25 -12.5t28 -34t29 -49t29 -58t27 -61t23.5 -57.5t18.5 -48.5
t12 -33.5l5 -12q14 -37 14 -57q0 -48 -137 -48z" />
    <glyph glyph-name="Oacute" unicode="&#xd3;" horiz-adv-x="1081" 
d="M1012 1237h2q-15 342 -29 452q-30 235 -118 326q-78 80 -218 80q-29 0 -90 -5t-90 -5h-8q-65 0 -118.5 -12t-93 -28t-69.5 -49t-49.5 -58.5t-33 -74.5t-20.5 -79t-10 -89.5t-3.5 -88t-0.5 -92.5v-33q7 -126 7 -213q0 -62 -5.5 -187t-5.5 -186q-1 -46 13 -124.5t16 -102.5
q10 -118 17.5 -189t20 -156t26.5 -132.5t35.5 -101t49.5 -80.5t67 -52t88 -34t112 -9q110 0 188.5 19.5t173.5 62.5q25 11 46 27.5t36 33.5t26.5 42t19 45t13 51.5t8 52.5t3.5 57t1 55.5t-0.5 58.5t-0.5 56q0 63 -5 189t-5 188q0 64 2 192t2 193zM717 799q1 -37 4.5 -149.5
t3.5 -174.5q0 -119 -49.5 -175t-163.5 -56q-38 0 -65 17.5t-42 52t-24 71.5t-11 91.5t-1.5 95.5t2.5 100.5t2 89.5q0 20 7 55t7 53v13q-7 46 -11.5 94t-6.5 114t-2.5 94.5t0 115t0.5 96.5q0 41 8 131q3 27 3.5 70t1 69.5t9.5 58.5t26.5 50t54 30.5t91.5 12.5
q29 0 51.5 -17.5t34.5 -40.5t21 -61.5t12 -64t6 -64.5q27 -571 33 -772h-2zM539 2185q-138 0 -138 47q0 18 15 58l7 20q7 19 19.5 51.5t28 71.5t34 78.5t37 71.5t37 52.5t33.5 20.5q-7 0 1 -1h7q263 -17 265 -62q0 -21 -24 -57t-62.5 -83t-48.5 -61q-1 -2 -16.5 -23.5
t-21 -29t-21.5 -29t-25 -32t-23.5 -28.5t-25 -27.5t-23 -20t-22.5 -15t-19 -4.5q-8 0 -14 2z" />
    <glyph glyph-name="Ocircumflex" unicode="&#xd4;" horiz-adv-x="1081" 
d="M1012 1237h2q-15 342 -29 452q-30 235 -118 326q-78 80 -218 80q-29 0 -90 -5t-90 -5h-8q-65 0 -118.5 -12t-93 -28t-69.5 -49t-49.5 -58.5t-33 -74.5t-20.5 -79t-10 -89.5t-3.5 -88t-0.5 -92.5v-33q7 -126 7 -213q0 -62 -5.5 -187t-5.5 -186q-1 -46 13 -124.5t16 -102.5
q10 -118 17.5 -189t20 -156t26.5 -132.5t35.5 -101t49.5 -80.5t67 -52t88 -34t112 -9q110 0 188.5 19.5t173.5 62.5q25 11 46 27.5t36 33.5t26.5 42t19 45t13 51.5t8 52.5t3.5 57t1 55.5t-0.5 58.5t-0.5 56q0 63 -5 189t-5 188q0 64 2 192t2 193zM717 799q1 -37 4.5 -149.5
t3.5 -174.5q0 -119 -49.5 -175t-163.5 -56q-38 0 -65 17.5t-42 52t-24 71.5t-11 91.5t-1.5 95.5t2.5 100.5t2 89.5q0 20 7 55t7 53v13q-7 46 -11.5 94t-6.5 114t-2.5 94.5t0 115t0.5 96.5q0 41 8 131q3 27 3.5 70t1 69.5t9.5 58.5t26.5 50t54 30.5t91.5 12.5
q29 0 51.5 -17.5t34.5 -40.5t21 -61.5t12 -64t6 -64.5q27 -571 33 -772h-2zM692 2222h-37q-24 0 -52.5 22t-50 48.5t-45 48.5t-38.5 22q-16 0 -48.5 -40.5t-71 -81.5t-70.5 -41q-7 0 -28 -0.5t-35 -0.5t-35 1t-35 3.5t-28 6.5t-21 11t-7 17q0 34 37 99.5t80 116.5
q10 13 68.5 103.5t112 152t91.5 61.5q33 0 93.5 -54t106.5 -108.5t91 -114.5q3 -4 47.5 -52t72.5 -89t28 -69q0 -11 -8.5 -20t-25.5 -15t-33 -10.5t-42 -7.5t-41.5 -4.5t-42 -3.5t-33.5 -3v2z" />
    <glyph glyph-name="Otilde" unicode="&#xd5;" horiz-adv-x="1081" 
d="M1012 1237q0 -65 -2 -193t-2 -192q0 -62 5 -188t5 -189q0 -17 0.5 -56t0.5 -58.5t-1 -55.5t-3.5 -57t-8 -52.5t-13 -51.5t-19 -45t-26.5 -42t-36 -33.5t-46 -27.5q-95 -43 -173.5 -62.5t-188.5 -19.5q-63 0 -112 9t-88 34t-67 52t-49.5 80.5t-35.5 101t-26.5 132.5
t-20 156t-17.5 189q-2 24 -16 102.5t-13 124.5q0 61 5.5 186t5.5 187q0 87 -7 213v33q0 61 0.5 92.5t3.5 88.5t10 88.5t20.5 79t33 74.5t49.5 59t69.5 49t93 28.5t118.5 11.5h8q29 0 90 5t90 5q69 0 122 -19t89.5 -53.5t62 -89.5t41 -118.5t24.5 -149t14 -174t10 -199.5
q1 -36 2 -55h-2zM717 799h2q-6 201 -33 772q-3 39 -6 64.5t-12 64t-21 61.5t-34.5 40.5t-51.5 17.5q-55 0 -91.5 -12.5t-54 -30.5t-26.5 -50t-9.5 -58.5t-1 -69.5t-3.5 -70q-8 -90 -8 -131v-83v-90t1 -83.5t3 -91t6 -82t10 -84.5v-13q0 -18 -7 -53t-7 -55q0 -30 -2 -89.5
t-2.5 -100.5t1.5 -95.5t11 -91.5t24 -71.5t42 -52t65 -17.5q114 0 163.5 56t49.5 175q0 62 -3.5 174.5t-4.5 149.5zM944 2511q-38 -320 -311 -320q-40 0 -68 10t-49 35.5t-32 46.5t-31 66q-5 11 -7 16q-18 41 -38 41q-29 0 -41.5 -26.5t-12.5 -48.5q0 -11 2 -33t2 -29
q-1 -12 -9 -21t-21.5 -14t-27.5 -8t-35 -4t-35 -1t-35 0.5t-29 0.5q-31 0 -43 15.5t-12 48.5q3 52 12 100t30.5 97.5t53 86t82 59.5t114.5 23q75 0 113 -36t78 -136q8 -17 24 -28t35 -11q28 0 39 20.5t10.5 49.5t-1 57.5t10.5 49t38 20.5q18 -1 51.5 -1t47 -1t35 -7.5
t31 -19.5t18 -37t11.5 -61z" />
    <glyph glyph-name="Odieresis" unicode="&#xd6;" horiz-adv-x="1081" 
d="M1012 1237q0 -65 -2 -193t-2 -192q0 -62 5 -188t5 -189q0 -17 0.5 -56t0.5 -58.5t-1 -55.5t-3.5 -57t-8 -52.5t-13 -51.5t-19 -45t-26.5 -42t-36 -33.5t-46 -27.5q-95 -43 -173.5 -62.5t-188.5 -19.5q-63 0 -112 9t-88 34t-67 52t-49.5 80.5t-35.5 101t-26.5 132.5
t-20 156t-17.5 189q-2 24 -16 102.5t-13 124.5q0 61 5.5 186t5.5 187q0 87 -7 213v33q0 61 0.5 92.5t3.5 88.5t10 88.5t20.5 79t33 74.5t49.5 59t69.5 49t93 28.5t118.5 11.5h8q29 0 90 5t90 5q69 0 122 -19t89.5 -53.5t62 -89.5t41 -118.5t24.5 -149t14 -174t10 -199.5
q1 -36 2 -55h-2zM717 799h2q-6 201 -33 772q-3 39 -6 64.5t-12 64t-21 61.5t-34.5 40.5t-51.5 17.5q-55 0 -91.5 -12.5t-54 -30.5t-26.5 -50t-9.5 -58.5t-1 -69.5t-3.5 -70q-8 -90 -8 -131v-83v-90t1 -83.5t3 -91t6 -82t10 -84.5v-13q0 -18 -7 -53t-7 -55q0 -30 -2 -89.5
t-2.5 -100.5t1.5 -95.5t11 -91.5t24 -71.5t42 -52t65 -17.5q114 0 163.5 56t49.5 175q0 62 -3.5 174.5t-4.5 149.5zM594 2331v65q0 43 162 43q27 0 42 -10t15 -41q-2 -10 -2 -29q0 -27 9 -83t9 -83q-1 -11 -6 -17.5t-15 -8.5t-16.5 -2.5t-20.5 0t-17 0.5q-13 1 -36.5 1.5
t-41.5 1.5t-36 4t-28 11.5t-10 22.5q-4 39 -8 125zM483 2312q-2 -15 -3 -33.5t-1.5 -27.5t-3 -21t-8.5 -17.5t-16.5 -11.5t-28.5 -8.5t-42.5 -4t-60.5 -1.5q-25 0 -39.5 8.5t-20.5 38t-6.5 50.5t-0.5 79v41q0 37 45 37q18 -1 50 -2q39 -1 54.5 -2t35.5 -6t25.5 -11t12.5 -22
t7.5 -34.5t0.5 -51.5z" />
    <glyph glyph-name="multiply" unicode="&#xd7;" horiz-adv-x="892" 
d="M758 1292q15 -15 42 -38.5t38.5 -37.5t11.5 -28q0 -20 -38.5 -51.5t-82.5 -61t-51 -43.5q-19 -19 -19 -33q0 -19 60.5 -70t60.5 -65q0 -34 -42.5 -83.5t-83.5 -82t-46 -32.5q-22 0 -84 53t-82 53q-26 0 -82 -59.5t-71 -59.5q-32 0 -119.5 87.5t-87.5 111.5q0 20 53 75
t53 72q0 18 -68.5 88t-68.5 91q0 8 11 26t29.5 42.5t34.5 44t36 43t24 28.5q15 18 31 18q22 0 63 -36t78.5 -72.5t49.5 -36.5q23 0 67 40.5t86 81t60 40.5q10 0 23 -6.5t28 -19t27.5 -24t31 -29t27.5 -26.5z" />
    <glyph glyph-name="Oslash" unicode="&#xd8;" horiz-adv-x="1075" 
d="M1010 1237h-2v-291q-4 -31 -4 -94q0 -62 5 -188t5 -189q0 -17 0.5 -56t0.5 -58.5t-1 -55.5t-3.5 -57t-8 -52.5t-13 -51.5t-19 -45t-26.5 -42t-36 -33.5t-46 -27.5l-65 -33q-86 -44 -291 -49q-4 -7 -12 -25.5t-11.5 -22t-16.5 -11.5t-33.5 -9.5t-55.5 -1.5q-28 0 -38.5 12
t-10.5 38l6 51l-21 6q-33 9 -60.5 28.5t-48 49.5t-36 59t-26 72.5t-17.5 74t-12.5 80t-7.5 73t-5 69.5l-16 211q-2 33 -15.5 108t-13.5 119q0 61 5.5 186t5.5 187q0 87 -7 213v33q0 61 0.5 92.5t3.5 88.5t10 88.5t20.5 79t33 74.5t49.5 59t69.5 49t93 28.5t118.5 11.5h8
q17 0 49 3t49 3l6 39q3 6 8 17t7 14.5t6 10t8 8.5t10.5 5t15.5 3.5t21 1.5t29 1q50 0 69 -9.5t23 -41.5l-2 -37q0 -5 -1 -15t-1 -15l22 -9q54 -19 94 -65.5t62 -101t35.5 -128.5t18 -129.5t5.5 -123.5q1 -51 11 -279zM375 393l20 152q11 80 22.5 237t12.5 174l68 594
q30 260 30 265l-88 -21q-25 -6 -44 -25.5t-19 -44.5v-41q0 -49 -7.5 -144t-7.5 -142v-81.5v-92.5t1 -81.5t3.5 -93t6.5 -79.5t10 -86v-13q0 -18 -7 -53t-7 -55q1 -36 1 -106.5t1 -106.5zM721 520l-8 279h2l-19 448q0 2 -1 5t-1 5l-14 -110q-7 -49 -28 -266.5t-46 -333.5
q-5 -37 -20.5 -125.5t-20.5 -136.5l-6 -37q95 20 128.5 69.5t33.5 157.5v45z" />
    <glyph glyph-name="Ugrave" unicode="&#xd9;" 
d="M70 997q0 31 -1 93t-1 92q0 218 12 436q0 23 -2 65t-2 62q0 53 6 106q0 23 -2 72t-2 72q0 25 13 33t46 8q17 0 49 -3t47 -3q6 0 84 10q22 0 35.5 -19.5t18.5 -51.5t6.5 -63t1.5 -65t2 -47q10 -65 13 -156t1 -168t0 -167q0 -29 -2 -87.5t-2 -85.5q0 -10 2 -31.5t2 -31.5
q0 -62 -7 -184.5t-7 -180.5q0 -30 -1 -81.5t-2 -85t1 -79.5t7 -76t16 -63t28 -52t44 -31.5t63 -12.5q44 0 75 14.5t50 39.5t29.5 68.5t14 92t3.5 119.5t-8.5 203.5t-8.5 189.5q0 8 1 24t1 23q0 38 -5 111.5t-5 110.5q0 22 3 68.5t3 70.5q0 16 -2 50t-2 50q0 28 4 86t4 86
q0 16 -2 47t-2 47q0 17 -2 66t-1.5 83t3.5 73t14.5 60t30.5 21q13 0 58.5 -6t68.5 -6h33q32 0 52 -15.5t27 -41t10 -57.5t1 -64.5t0 -62.5q2 -41 6.5 -143t7 -176t2.5 -142q0 -11 -1 -35t-1 -37q0 -21 2.5 -61.5t2.5 -59.5q0 -40 -3.5 -118t-3.5 -117q0 -28 2 -82t2 -80
q0 -32 -3.5 -109.5t-2.5 -117.5v-27q0 -270 -51 -365q-49 -73 -104.5 -117t-145.5 -70t-217 -26q-84 0 -143 15.5t-107 57.5t-77.5 107t-49 172t-27 244.5t-7.5 331.5q0 23 2 70t2 71v39zM453 2185q-6 -2 -17 -2q-51 0 -194 209q-10 15 -48.5 61.5t-63 82.5t-24.5 57
q0 44 273 63q11 0 25 -12.5t28 -34t29 -49t28.5 -58t26.5 -61t23.5 -57.5t18.5 -48.5t12 -33.5l5 -12q15 -40 15 -58q0 -47 -137 -47z" />
    <glyph glyph-name="Uacute" unicode="&#xda;" 
d="M70 997v-39q0 -24 -2 -71t-2 -70q0 -194 7.5 -331.5t27 -244.5t49 -172t77.5 -107t107 -57.5t143 -15.5q127 0 217 26t145.5 70t104.5 117q51 95 51 365v27q-1 40 2.5 117.5t3.5 109.5q0 26 -2 80t-2 82q0 39 3.5 117t3.5 118q0 19 -2.5 59.5t-2.5 61.5q0 13 1 37t1 35
q0 68 -2.5 142t-7 176t-6.5 143q-2 30 0 62.5t-1 64.5t-10 57.5t-27 41t-52 15.5h-33q-23 0 -68.5 6t-58.5 6q-19 0 -30.5 -21t-14.5 -60t-3.5 -73t1.5 -83t2 -66q0 -16 2 -47t2 -47q0 -28 -4 -86t-4 -86q0 -16 2 -50t2 -50q0 -24 -3 -70.5t-3 -68.5q0 -37 5 -110.5
t5 -111.5q0 -7 -1 -23t-1 -24q0 -57 8.5 -189.5t8.5 -203.5t-3.5 -119.5t-14 -92t-29.5 -68.5t-50 -39.5t-75 -14.5q-36 0 -63 12.5t-44 31.5t-28 52t-16 63t-7 76t-1 79.5t2 85t1 81.5q0 58 7 180.5t7 184.5q0 10 -2 31.5t-2 31.5q0 27 2 85.5t2 87.5q-2 90 0 167t-1 168
t-13 156q-2 13 -2 47t-1.5 65t-6.5 63t-18.5 51.5t-35.5 19.5q-77 -10 -84 -10q-15 0 -47 3t-49 3q-33 0 -46 -8t-13 -33q0 -23 2 -72t2 -72q-6 -53 -6 -106q0 -20 2 -62t2 -65q-12 -218 -12 -436q0 -30 1 -92t1 -93zM569 2202q-137 0 -137 47q0 20 14 57l7 20q7 19 19.5 52
t28.5 72t34.5 78t37 71.5t37 53t33.5 20.5q2 -1 9 -1q263 -18 263 -63q0 -21 -24 -57t-62.5 -83t-48.5 -61q-2 -3 -16.5 -23.5t-20.5 -29t-21.5 -29t-24.5 -31.5t-23.5 -28.5t-25.5 -27t-23 -20t-22 -15t-19 -4.5t-15 2z" />
    <glyph glyph-name="Ucircumflex" unicode="&#xdb;" 
d="M70 997v-39q0 -24 -2 -71t-2 -70q0 -194 7.5 -331.5t27 -244.5t49 -172t77.5 -107t107 -57.5t143 -15.5q127 0 217 26t145.5 70t104.5 117q51 95 51 365v27q-1 40 2.5 117.5t3.5 109.5q0 26 -2 80t-2 82q0 39 3.5 117t3.5 118q0 19 -2.5 59.5t-2.5 61.5q0 13 1 37t1 35
q0 68 -2.5 142t-7 176t-6.5 143q-2 30 0 62.5t-1 64.5t-10 57.5t-27 41t-52 15.5h-33q-23 0 -68.5 6t-58.5 6q-19 0 -30.5 -21t-14.5 -60t-3.5 -73t1.5 -83t2 -66q0 -16 2 -47t2 -47q0 -28 -4 -86t-4 -86q0 -16 2 -50t2 -50q0 -24 -3 -70.5t-3 -68.5q0 -37 5 -110.5
t5 -111.5q0 -7 -1 -23t-1 -24q0 -57 8.5 -189.5t8.5 -203.5t-3.5 -119.5t-14 -92t-29.5 -68.5t-50 -39.5t-75 -14.5q-36 0 -63 12.5t-44 31.5t-28 52t-16 63t-7 76t-1 79.5t2 85t1 81.5q0 58 7 180.5t7 184.5q0 10 -2 31.5t-2 31.5q0 27 2 85.5t2 87.5q-2 90 0 167t-1 168
t-13 156q-2 13 -2 47t-1.5 65t-6.5 63t-18.5 51.5t-35.5 19.5q-77 -10 -84 -10q-15 0 -47 3t-49 3q-33 0 -46 -8t-13 -33q0 -23 2 -72t2 -72q-6 -53 -6 -106q0 -20 2 -62t2 -65q-12 -218 -12 -436q0 -30 1 -92t1 -93zM711 2177h-37q-24 0 -52.5 22t-50.5 48.5t-45.5 48.5
t-38.5 22q-13 0 -36.5 -25.5t-46 -56.5t-52.5 -56.5t-55 -25.5q-6 0 -28 -0.5t-35 0t-34.5 1t-35 3.5t-27.5 7t-21 11t-7 17q0 34 36.5 99t79.5 116q10 12 68.5 103.5t112.5 153t92 61.5q25 0 64.5 -29t83.5 -77t77 -88t65 -83q3 -3 47.5 -52t72.5 -90t28 -69
q0 -11 -8.5 -20t-25 -15t-33 -10t-42 -7t-41.5 -5t-41.5 -3.5t-33.5 -2.5v2z" />
    <glyph glyph-name="Udieresis" unicode="&#xdc;" 
d="M70 997q0 31 -1 93t-1 92q0 218 12 436q0 23 -2 65t-2 62q0 53 6 106q0 23 -2 72t-2 72q0 25 13 33t46 8q17 0 49 -3t47 -3q6 0 84 10q22 0 35.5 -19.5t18.5 -51.5t6.5 -63t1.5 -65t2 -47q10 -65 13 -156t1 -168t0 -167q0 -29 -2 -87.5t-2 -85.5q0 -10 2 -31.5t2 -31.5
q0 -62 -7 -184.5t-7 -180.5q0 -30 -1 -81.5t-2 -85t1 -79.5t7 -76t16 -63t28 -52t44 -31.5t63 -12.5q44 0 75 14.5t50 39.5t29.5 68.5t14 92t3.5 119.5t-8.5 203.5t-8.5 189.5q0 8 1 24t1 23q0 38 -5 111.5t-5 110.5q0 22 3 68.5t3 70.5q0 16 -2 50t-2 50q0 28 4 86t4 86
q0 16 -2 47t-2 47q0 17 -2 66t-1.5 83t3.5 73t14.5 60t30.5 21q13 0 58.5 -6t68.5 -6h33q32 0 52 -15.5t27 -41t10 -57.5t1 -64.5t0 -62.5q2 -41 6.5 -143t7 -176t2.5 -142q0 -11 -1 -35t-1 -37q0 -21 2.5 -61.5t2.5 -59.5q0 -40 -3.5 -118t-3.5 -117q0 -28 2 -82t2 -80
q0 -32 -3.5 -109.5t-2.5 -117.5v-27q0 -270 -51 -365q-49 -73 -104.5 -117t-145.5 -70t-217 -26q-84 0 -143 15.5t-107 57.5t-77.5 107t-49 172t-27 244.5t-7.5 331.5q0 23 2 70t2 71v39zM588 2331v65q0 43 162 43q27 0 42 -10t15 -41q-2 -10 -2 -29q0 -27 9 -83t9 -83
q-1 -11 -6 -17.5t-15 -8.5t-16.5 -2.5t-20.5 0t-17 0.5q-13 1 -36.5 1.5t-41.5 1.5t-36 4t-28 11.5t-10 22.5q-4 39 -8 125zM477 2312q-2 -15 -3 -33.5t-1.5 -27.5t-3 -21t-8.5 -17.5t-16.5 -11.5t-28.5 -8.5t-42.5 -4t-60.5 -1.5q-25 0 -39.5 8.5t-20.5 38t-6.5 50.5
t-0.5 79v41q0 37 45 37q18 -1 50 -2q39 -1 54.5 -2t35.5 -6t25.5 -11t12.5 -22t7.5 -34.5t0.5 -51.5z" />
    <glyph glyph-name="Yacute" unicode="&#xdd;" horiz-adv-x="1083" 
d="M1038 1341q0 20 0.5 73t0.5 81t-2.5 71t-8.5 79q-3 18 -9 74.5t-12.5 109.5t-17 109t-27 90t-36.5 34q-14 0 -39.5 1t-47 2t-47 1t-45 -2.5t-36.5 -7t-26 -14t-9 -23.5q0 -78 14.5 -246t14.5 -251q-3 -27 -3 -56q0 -84 3.5 -253.5t3.5 -254.5t-33 -126t-121 -41
q-37 0 -69 5.5t-64 19.5t-51 42.5t-19 69.5q0 25 2 72.5t2 70.5q0 35 -4 109q0 94 9.5 284t9.5 297v41q0 119 8 178q0 28 -9.5 40t-37.5 12q-36 0 -108 -1t-109 -1q-28 0 -37.5 -16.5t-9.5 -53.5q0 -45 2 -135t2 -135q-2 -32 -10.5 -115.5t-8.5 -128.5q0 -5 1 -15.5t1 -15.5
q0 -25 -3 -81.5t-3 -84.5q0 -13 1 -36t1 -35q0 -26 -3 -81t-3 -81q0 -10 -0.5 -44t0 -51.5t1 -51.5t3 -54.5t6.5 -50.5t11 -50.5t16 -42.5t22 -37.5t29 -25.5q62 -40 116 -64t75.5 -27t38 -16t18.5 -31.5t2 -72.5v-131q-2 -93 16 -350q1 -12 5.5 -22t10.5 -16t17.5 -10.5
t19.5 -6.5t23.5 -3t23 -1h24.5h22q88 0 113.5 16t25.5 82q0 86 -9 267t-9 272q0 19 15 31.5t31 17.5t45.5 11t39.5 9q70 20 120 91t75 170t35.5 192t10.5 186v139zM563 2185q-137 0 -137 47q0 21 14 58l7 20q7 19 19.5 51.5t28.5 71.5t34.5 78.5t37 71.5t37 52.5t33.5 20.5
q-7 0 1 -1h7q264 -17 264 -62q0 -21 -24 -57t-62.5 -83t-48.5 -61q-3 -5 -16.5 -23.5t-20.5 -28.5t-21.5 -29.5t-24.5 -31.5t-24 -29t-25 -27t-23 -20.5t-22 -15t-19 -4.5t-15 2z" />
    <glyph glyph-name="Thorn" unicode="&#xde;" horiz-adv-x="1026" 
d="M1006 967q0 -23 1 -72t1 -74q0 -52 -7.5 -93t-25.5 -74.5t-41 -58t-62 -45t-78.5 -34.5t-101.5 -26.5t-121 -21t-145 -19.5q-39 -6 -58 -260q-10 -154 -3 -169q-6 -30 -19 -42.5t-41 -12.5q-12 0 -47.5 -1.5t-57 -1t-48 4t-39.5 15.5t-13 32q0 76 -13 232t-13 237
q0 25 2 79t2 81q0 19 -2 59t-2 60q0 16 2 50t2 50v31q0 31 2 95t2 95q0 10 -1 32t-1 32q0 38 4 113.5t4 113.5q-6 117 -6 469q0 17 2 46.5t2 43.5q0 20 -7 58.5t-7 56.5q0 21 7 36t24 24t30 14t39.5 7t38.5 2.5t39 0.5q23 0 34 -0.5t28 -4t25 -11t14.5 -21.5t6.5 -35
q0 -231 58 -231h63q15 0 43 1t43 1q110 0 218.5 -48t138.5 -126q34 -77 55 -167.5t27 -177.5t7 -149.5t-2 -127.5t-3 -68zM377 1034q-2 -12 -2 -67v-62t-0.5 -55.5t4 -46.5t13.5 -36.5t28 -23.5t47 -8q118 0 173.5 59.5t55.5 209.5q0 226 -16 316q-32 184 -153 219
q-31 9 -68 9q-42 0 -57 -9t-15 -38q0 -16 2 -46t2 -44q0 -39 -8 -120.5t-8 -125.5q0 -21 1 -65t1 -66z" />
    <glyph glyph-name="germandbls" unicode="&#xdf;" horiz-adv-x="1085" 
d="M1008 1516q0 -58 -1 -125t-4 -126t-24 -113.5t-61 -86.5q-25 -22 -25 -35q0 -8 17.5 -27.5t39 -41t41.5 -57.5t23 -73q2 -23 13.5 -106.5t10.5 -128.5q-5 -76 -4 -90v-60q0 -85 -10.5 -154t-39.5 -135t-75 -111t-121 -72t-174 -27h-17.5h-19t-17.5 0.5t-17.5 1.5
t-15.5 3.5t-15 5.5t-11.5 8t-9.5 11.5t-5.5 15t-2.5 19.5q0 56 2 93t9 76.5t20 62t36.5 37t57.5 14.5q50 0 83.5 19.5t50 56.5t22.5 75.5t6 90.5q0 195 -57.5 279.5t-214.5 84.5h-41q-41 6 -41 43q0 24 6 73.5t6 74.5q0 7 -1 22.5t-1 22.5q0 27 22 39.5t55 12.5t72.5 1t74 5
t59 26.5t28.5 62.5q2 22 3 46.5t1.5 55t1.5 46.5q-1 23 -2 69.5t-2 74t-5 69t-10.5 67t-20 55.5t-31.5 46.5t-45.5 28t-63.5 11.5q-37 0 -60.5 -2t-55.5 -9.5t-50 -26t-20 -48.5q-23 -235 -23 -301q0 -58 5.5 -175t5.5 -175q0 -22 -2.5 -68t-2.5 -69q0 -31 1 -94t1 -94
q0 -19 -1 -56t-1 -55q0 -96 10.5 -285t10.5 -278q0 -52 18.5 -166.5t18.5 -155.5q0 -46 -33.5 -58.5t-148.5 -12.5q-33 0 -56 8t-39.5 30.5t-25.5 51t-14.5 82t-7 110.5t-1.5 148q0 13 1 36.5t1 34.5q0 23 -2 70t-2 70q8 147 8 446q-3 73 -19 331t-16 396q0 49 0.5 82.5
t3 81t7 80.5t12.5 74.5t20 70.5t30 59.5t41 51t54 36.5t68 23q37 6 75 9.5t95 7t76 4.5q201 0 325.5 -132t130.5 -360q0 -110 7 -110z" />
    <glyph glyph-name="agrave" unicode="&#xe0;" horiz-adv-x="1040" 
d="M975 1163q0 -55 1 -160t1 -155q0 -389 -57 -803q-5 -27 -16.5 -38t-37.5 -11q-15 0 -44.5 -0.5t-42 -0.5t-33.5 2t-30 7.5t-19.5 14.5t-14.5 24.5t-4 36.5q0 16 2.5 56.5t1.5 62.5q-8 91 -8 202v99v63q0 29 3 89t3 91q0 41 -8.5 56.5t-34.5 15.5q-16 0 -44.5 0.5t-47 0.5
t-44.5 -0.5t-43.5 -2t-38 -4t-33.5 -7.5t-25 -11.5t-17.5 -16.5t-5.5 -22q14 -439 24 -549q2 -14 14.5 -47.5t12.5 -53.5q0 -57 -15.5 -75.5t-66.5 -18.5q-126 0 -161 6q-74 13 -74 58q0 46 -4.5 137.5t-4.5 136.5q0 26 5.5 80t5.5 80q0 28 -2 84t-2 84q2 78 4 236t4 237
q0 21 -1 63t-1 64q0 24 4 74t4 75q0 13 -2 37t-2 37v4q0 70 1 107.5t7.5 104.5t19 106t38 89t62 76.5t93 46t129.5 19.5q96 0 176 -16.5t149.5 -54t118 -95.5t76 -145.5t27.5 -198.5q0 -314 -2 -377zM692 1462q0 14 -0.5 45.5t-1 48.5t-2.5 46t-4.5 46t-8 41.5t-13 39
t-19.5 31t-26.5 25.5t-35 15t-44.5 6q-34 0 -61 -6.5t-47.5 -14.5t-36 -29.5t-25.5 -36.5t-17 -51.5t-10.5 -58.5t-5.5 -73t-2 -80v-94v-25q0 -11 2 -36.5t2 -40.5q0 -18 -3 -53.5t-3 -51.5q0 -23 11 -31t34 -8q25 0 77.5 3t79.5 3q17 0 48 -1t45 -1q24 0 38 13t18 37.5
t4.5 47.5t-1 55.5t-0.5 49.5q1 25 4 72t4 67zM428 2171q-6 -2 -16 -2q-52 0 -195 209q-10 15 -48.5 61t-62.5 82t-24 57q1 44 272 64q11 0 25 -12.5t28 -34t29 -49t29 -58t27 -61t23.5 -58t18.5 -49t12 -33.5l5 -12q14 -37 14 -57q0 -47 -137 -47z" />
    <glyph glyph-name="aacute" unicode="&#xe1;" horiz-adv-x="1040" 
d="M975 1163q2 63 2 377q0 111 -27.5 198.5t-76 145.5t-118 95.5t-149.5 54t-176 16.5q-73 0 -129.5 -19.5t-93 -46t-62 -76.5t-38 -89t-19 -106t-7.5 -104.5t-1 -107.5v-4q0 -13 2 -37t2 -37q0 -25 -4 -75t-4 -74q0 -22 1 -64t1 -63q-2 -79 -4 -237t-4 -236q0 -28 2 -84
t2 -84q0 -26 -5.5 -80t-5.5 -80q0 -45 4.5 -136.5t4.5 -137.5q0 -23 16.5 -37.5t54.5 -19.5t62 -6t75 -1h27q51 0 66.5 18.5t15.5 75.5q0 20 -12.5 53.5t-14.5 47.5q-10 110 -24 549q0 12 5.5 22t17.5 16.5t25 11.5t33.5 7.5t38 4t43.5 2t44.5 0.5t47 -0.5t44.5 -0.5
q26 0 34.5 -15.5t8.5 -56.5q0 -31 -3 -91t-3 -89v-63v-99q0 -111 8 -202q1 -22 -1.5 -62.5t-2.5 -56.5q0 -21 4 -36.5t14.5 -24.5t19.5 -14.5t30 -7.5t33.5 -2t42 0.5t44.5 0.5q26 0 37.5 11t16.5 38q57 414 57 803q0 50 -1 155t-1 160zM692 1462q-1 -20 -4 -67t-4 -72
q-1 -17 0.5 -49.5t1 -55.5t-4.5 -47.5t-18 -37.5t-38 -13q-14 0 -45 1t-48 1q-27 0 -79.5 -3t-77.5 -3q-23 0 -34 8t-11 31q0 16 3 51.5t3 53.5q0 15 -2 40.5t-2 36.5v25v94t2 80t5.5 73t10.5 58.5t17 51t25.5 37t36 29.5t47.5 14.5t61 6.5q24 0 44.5 -6t35 -15t26.5 -25.5
t19.5 -31t13 -39t8 -41.5t4.5 -46t2.5 -46t1 -48.5t0.5 -45.5zM502 2179q-137 0 -137 47q0 21 14 58l7 20q7 19 19.5 51.5t28 71.5t34 78.5t37 71.5t37 52.5t33.5 20.5q-7 0 1 -1h7q263 -17 265 -62q0 -21 -24 -57t-62.5 -83t-48.5 -61q-1 -2 -16.5 -23.5t-21 -29t-21.5 -29
t-25 -32t-23.5 -28.5t-25 -27.5t-23 -20t-22.5 -15t-19 -4.5q-8 0 -14 2z" />
    <glyph glyph-name="acircumflex" unicode="&#xe2;" horiz-adv-x="1040" 
d="M975 1163q2 63 2 377q0 111 -27.5 198.5t-76 145.5t-118 95.5t-149.5 54t-176 16.5q-73 0 -129.5 -19.5t-93 -46t-62 -76.5t-38 -89t-19 -106t-7.5 -104.5t-1 -107.5v-4q0 -13 2 -37t2 -37q0 -25 -4 -75t-4 -74q0 -22 1 -64t1 -63q-2 -79 -4 -237t-4 -236q0 -28 2 -84
t2 -84q0 -26 -5.5 -80t-5.5 -80q0 -45 4.5 -136.5t4.5 -137.5q0 -23 16.5 -37.5t54.5 -19.5t62 -6t75 -1h27q51 0 66.5 18.5t15.5 75.5q0 20 -12.5 53.5t-14.5 47.5q-10 110 -24 549q0 12 5.5 22t17.5 16.5t25 11.5t33.5 7.5t38 4t43.5 2t44.5 0.5t47 -0.5t44.5 -0.5
q26 0 34.5 -15.5t8.5 -56.5q0 -31 -3 -91t-3 -89v-63v-99q0 -111 8 -202q1 -22 -1.5 -62.5t-2.5 -56.5q0 -21 4 -36.5t14.5 -24.5t19.5 -14.5t30 -7.5t33.5 -2t42 0.5t44.5 0.5q26 0 37.5 11t16.5 38q57 414 57 803q0 50 -1 155t-1 160zM692 1462q-1 -20 -4 -67t-4 -72
q-1 -17 0.5 -49.5t1 -55.5t-4.5 -47.5t-18 -37.5t-38 -13q-14 0 -45 1t-48 1q-27 0 -79.5 -3t-77.5 -3q-23 0 -34 8t-11 31q0 16 3 51.5t3 53.5q0 15 -2 40.5t-2 36.5v25v94t2 80t5.5 73t10.5 58.5t17 51t25.5 37t36 29.5t47.5 14.5t61 6.5q24 0 44.5 -6t35 -15t26.5 -25.5
t19.5 -31t13 -39t8 -41.5t4.5 -46t2.5 -46t1 -48.5t0.5 -45.5zM680 2185h-37q-24 0 -52.5 22t-50 49t-45 49t-38.5 22q-13 0 -36.5 -25.5t-46.5 -56.5t-53 -56.5t-55 -25.5q-6 0 -28 -0.5t-35 0t-34.5 1t-35 3.5t-27.5 7t-21 11t-7 17q0 34 37 99t80 116q10 13 68.5 103.5
t112 152t91.5 61.5q25 0 65 -29t83.5 -76.5t77.5 -88t65 -82.5q2 -3 47 -52t72.5 -90t27.5 -69q0 -11 -8 -20t-25 -15t-33 -10.5t-42.5 -7.5t-41.5 -4.5t-41.5 -3.5t-33.5 -3v2z" />
    <glyph glyph-name="atilde" unicode="&#xe3;" horiz-adv-x="1040" 
d="M975 1163q0 -55 1 -160t1 -155q0 -389 -57 -803q-5 -27 -16.5 -38t-37.5 -11q-15 0 -44.5 -0.5t-42 -0.5t-33.5 2t-30 7.5t-19.5 14.5t-14.5 24.5t-4 36.5q0 16 2.5 56.5t1.5 62.5q-8 91 -8 202v99v63q0 29 3 89t3 91q0 41 -8.5 56.5t-34.5 15.5q-16 0 -44.5 0.5t-47 0.5
t-44.5 -0.5t-43.5 -2t-38 -4t-33.5 -7.5t-25 -11.5t-17.5 -16.5t-5.5 -22q14 -439 24 -549q2 -14 14.5 -47.5t12.5 -53.5q0 -57 -15.5 -75.5t-66.5 -18.5q-126 0 -161 6q-74 13 -74 58q0 46 -4.5 137.5t-4.5 136.5q0 26 5.5 80t5.5 80q0 28 -2 84t-2 84q2 78 4 236t4 237
q0 21 -1 63t-1 64q0 24 4 74t4 75q0 13 -2 37t-2 37v4q0 70 1 107.5t7.5 104.5t19 106t38 89t62 76.5t93 46t129.5 19.5q96 0 176 -16.5t149.5 -54t118 -95.5t76 -145.5t27.5 -198.5q0 -314 -2 -377zM692 1462q0 14 -0.5 45.5t-1 48.5t-2.5 46t-4.5 46t-8 41.5t-13 39
t-19.5 31t-26.5 25.5t-35 15t-44.5 6q-34 0 -61 -6.5t-47.5 -14.5t-36 -29.5t-25.5 -36.5t-17 -51.5t-10.5 -58.5t-5.5 -73t-2 -80v-94v-25q0 -11 2 -36.5t2 -40.5q0 -18 -3 -53.5t-3 -51.5q0 -23 11 -31t34 -8q25 0 77.5 3t79.5 3q17 0 48 -1t45 -1q24 0 38 13t18 37.5
t4.5 47.5t-1 55.5t-0.5 49.5q1 25 4 72t4 67zM930 2480q-38 -319 -312 -319q-40 0 -67.5 9.5t-48.5 35.5t-31.5 45.5t-30.5 65.5q-5 12 -8 18q-18 41 -39 41q-29 0 -41 -26.5t-12 -49.5q0 -10 2 -32t2 -30q-1 -12 -9 -21t-21.5 -14t-27.5 -8t-35 -4t-35 -1t-35 0.5t-29 0.5
q-31 0 -43.5 16t-12.5 48q3 52 12.5 100t31 97.5t53 86t82 59.5t114.5 23q75 0 113 -36t78 -136q8 -17 24 -28t35 -11q28 0 39 20.5t10.5 49t-1.5 57.5t10 49.5t38 20.5q17 -1 40 -1h36.5t31 -2t28 -6.5t22 -13t18 -22t12 -34t7.5 -48.5z" />
    <glyph glyph-name="adieresis" unicode="&#xe4;" horiz-adv-x="1040" 
d="M975 1163q0 -55 1 -160t1 -155q0 -389 -57 -803q-5 -27 -16.5 -38t-37.5 -11q-15 0 -44.5 -0.5t-42 -0.5t-33.5 2t-30 7.5t-19.5 14.5t-14.5 24.5t-4 36.5q0 16 2.5 56.5t1.5 62.5q-8 91 -8 202v99v63q0 29 3 89t3 91q0 41 -8.5 56.5t-34.5 15.5q-16 0 -44.5 0.5t-47 0.5
t-44.5 -0.5t-43.5 -2t-38 -4t-33.5 -7.5t-25 -11.5t-17.5 -16.5t-5.5 -22q14 -439 24 -549q2 -14 14.5 -47.5t12.5 -53.5q0 -57 -15.5 -75.5t-66.5 -18.5q-126 0 -161 6q-74 13 -74 58q0 46 -4.5 137.5t-4.5 136.5q0 26 5.5 80t5.5 80q0 28 -2 84t-2 84q2 78 4 236t4 237
q0 21 -1 63t-1 64q0 24 4 74t4 75q0 13 -2 37t-2 37v4q0 70 1 107.5t7.5 104.5t19 106t38 89t62 76.5t93 46t129.5 19.5q96 0 176 -16.5t149.5 -54t118 -95.5t76 -145.5t27.5 -198.5q0 -314 -2 -377zM692 1462q0 14 -0.5 45.5t-1 48.5t-2.5 46t-4.5 46t-8 41.5t-13 39
t-19.5 31t-26.5 25.5t-35 15t-44.5 6q-34 0 -61 -6.5t-47.5 -14.5t-36 -29.5t-25.5 -36.5t-17 -51.5t-10.5 -58.5t-5.5 -73t-2 -80v-94v-25q0 -11 2 -36.5t2 -40.5q0 -18 -3 -53.5t-3 -51.5q0 -23 11 -31t34 -8q25 0 77.5 3t79.5 3q17 0 48 -1t45 -1q24 0 38 13t18 37.5
t4.5 47.5t-1 55.5t-0.5 49.5q1 25 4 72t4 67zM543 2339v65q0 43 162 43q27 0 42 -10t15 -41q-2 -10 -2 -29q0 -27 9 -82t9 -83q-1 -11 -6 -17.5t-15.5 -9t-16.5 -3t-21 0t-17 0.5q-13 1 -36.5 1.5t-41 1.5t-35.5 4t-28 11.5t-10 22.5q-4 39 -8 125zM432 2320
q-2 -15 -3 -33.5t-1.5 -27.5t-3 -21t-8.5 -17.5t-16.5 -11.5t-28.5 -8.5t-42.5 -4t-60.5 -1.5q-25 0 -39.5 9t-20.5 38.5t-6.5 50.5t-0.5 79v41q0 36 45 36q18 -1 50 -2q39 -1 54.5 -2t35.5 -6t25.5 -11t12.5 -22t7.5 -34.5t0.5 -51.5z" />
    <glyph glyph-name="aring" unicode="&#xe5;" horiz-adv-x="1040" 
d="M977 1163h-2v-164q0 -26 1 -76.5t1 -74.5q0 -389 -57 -803q-5 -27 -16.5 -38t-37.5 -11q-15 0 -44.5 -0.5t-42 -0.5t-33.5 2t-30 7.5t-19.5 14.5t-14.5 24.5t-4 36.5q0 13 2.5 46.5t1.5 51.5v21q-8 91 -8 202v99v63q0 29 3 89t3 91q0 41 -8.5 56.5t-34.5 15.5
q-81 0 -213 -8l-57 -4q-26 -6 -29 -31l6 -192v-91l12 -213q0 -11 1 -23t2.5 -26.5t2.5 -23.5l11 -35q16 -27 16 -66q0 -57 -15.5 -75.5t-66.5 -18.5q-126 0 -161 6q-74 13 -74 58q0 46 -4.5 137.5t-4.5 136.5q0 26 5.5 80t5.5 80q0 28 -2 84t-2 84q2 78 4 236t4 237
q0 21 -1 63t-1 64q0 24 4 74t4 75q0 13 -2 37t-2 37v17q0 47 0.5 72t2 71.5t6.5 75t13 68.5t21 67t31 56.5t44 50.5t58 36l31 12l-6 9q-84 81 -84 188q0 80 46 149.5t138 108.5l55 16q24 7 43 7q75 0 148 -54.5t116 -130.5t43 -143q0 -43 -23.5 -95t-53.5 -79l18 -9
q37 -19 56 -29t50.5 -32t48 -42t38 -54t32 -73.5t18 -95.5t7.5 -124v-377zM684 1323l8 139q0 14 -0.5 45.5t-1 48.5t-2.5 46t-4.5 46t-8 41.5t-13 39t-19.5 31t-26.5 25.5t-35 15t-44.5 6q-66 0 -117.5 -27t-65.5 -79l-8 -29q-10 -38 -14 -112v-222q0 -11 2 -36.5t2 -40.5
q0 -18 -3 -53.5t-3 -51.5q0 -23 11 -31t34 -8q25 0 77.5 3t79.5 3q17 0 48 -1t45 -1q24 0 38 13t18 37.5t4.5 47.5t-1 55.5t-0.5 49.5zM469 2169q21 0 38 12t17 35q0 20 -29 40.5t-53 20.5q-15 0 -25.5 -13t-10.5 -32q0 -27 19 -43.5t44 -19.5z" />
    <glyph glyph-name="ae" unicode="&#xe6;" horiz-adv-x="1505" 
d="M1008 338q24 -4 32 -4q11 1 48.5 4.5t58.5 3.5q15 0 45 -1t45 -1q25 0 77 6t77 6q17 -2 27.5 -8t16 -11.5t8.5 -22.5t3 -26.5v-36.5v-20q0 -20 1 -49t1.5 -44t-1 -35.5t-6 -30.5t-14.5 -22t-26 -17.5t-39.5 -9t-56.5 -3.5q-8 0 -24.5 1t-23.5 1q-91 0 -264.5 -16
t-242.5 -16q-14 1 -24.5 5.5t-16.5 14.5t-9.5 18.5t-5 24.5t-1.5 26t0.5 30t0.5 28q0 49 -1 147.5t-1 147.5q0 46 1 139.5t1 139.5q0 57 -2 86v14q0 35 -55 35q-41 0 -123 -6.5t-123 -6.5q-26 0 -33.5 -13t-7.5 -48q0 -24 1 -73t1 -74q0 -33 -2 -97.5t-2 -95.5q0 -62 5 -179
t5 -175q0 -49 -50 -64.5t-189 -15.5q-41 0 -41 209v47q0 22 -2 68.5t-2 70.5q0 65 6 190.5t6 182.5q-18 270 -18 434q0 191 34 516q12 87 34.5 147.5t62.5 107.5t103 70t151 23q13 0 38 -2t39 -2h25q47 0 142.5 -8t142.5 -8q37 0 110 13t109 13h69.5t68.5 1.5t62 -2.5
t50.5 -12.5t34 -27.5t12.5 -49q18 -133 18 -182q0 -20 -12 -25.5t-37 -5.5q-48 0 -144 2t-145 2q-34 0 -41.5 -9t-7.5 -42q17 -146 17 -424q0 -14 -3.5 -44t-3.5 -44q0 -43 35 -43q20 0 61 4t60 4q225 0 236 -79q26 -187 26 -224q-3 -37 -41 -37q-33 0 -100 2.5t-100 2.5
q-14 0 -36.5 0.5t-35 1t-30.5 -0.5t-28.5 -4t-22 -9.5t-18 -16.5t-10.5 -25.5t-4 -36.5q0 -29 -2 -97.5t-2.5 -112.5t5 -100.5t18.5 -94.5zM678 1448h-2q4 184 4 274q-4 23 -45.5 34t-81.5 11q-98 0 -127 -10q-47 -17 -64 -87q-20 -80 -20 -375v-29v-23.5v-22.5t1 -19t3 -18
t6 -13.5t10.5 -13t15 -8t21 -6t27.5 -1.5q96 8 197 8q35 0 45 9.5t10 43.5v246z" />
    <glyph glyph-name="ccedilla" unicode="&#xe7;" horiz-adv-x="991" 
d="M328 1468h2v-114q10 -240 10 -289q0 -249 -16 -346l-9 -121q0 -20 -1.5 -67t-1 -73.5t3 -67.5t11.5 -65t23.5 -48.5t40 -36t60.5 -11.5q56 0 91 7t63.5 27t41 59t12.5 100q0 26 -5 76.5t-5 74.5q0 58 246 58q32 0 35 -39l4 -45v-33v-8q0 -169 -21 -252
q-52 -200 -262 -266q-18 -4 -26 -35l4 -31q3 -27 21.5 -36.5t50 -18t51.5 -29.5q75 -81 75 -200q0 -139 -79.5 -224.5t-243.5 -85.5l-119 6q-15 2 -24 13t-9 28q1 10 2.5 40t4 48.5t8 41.5t17 36t28.5 15q63 9 98 31t35 73q0 28 -36 39.5t-83 11.5h-35q-55 0 -55 193v30
q0 29 -25 46q-57 12 -100 51t-67 88t-38.5 113.5t-19 117.5t-4.5 111q0 11 1 32t1 33q0 6 -1 18.5t-1 18.5l-6 123q-1 27 -8 111t-7 129q0 62 11.5 201.5t11.5 185.5q0 7 -1 21.5t-1 21.5q2 57 2 176l6 80q1 14 1 38.5t1 37.5q0 10 -1 31.5t-1 31.5q0 58 11 114t36 114
t76 95.5t121 41.5l115 6q11 0 37 -3t38 -3h11q58 0 121 -16.5t120.5 -53.5t83.5 -86l45 -86q5 -9 8.5 -18.5t6 -17t5 -20.5t3.5 -18t3 -20.5t2 -18.5t1.5 -20.5t1.5 -18.5q1 -44 -2.5 -125.5t-3.5 -115.5v-45q-3 -25 -14.5 -36t-36.5 -11h-9q-27 6 -79 6h-66h-16
q-27 3 -36 16.5t-9 46.5q0 10 1 31t1 31q0 280 -166 280q-70 -5 -121 -44t-51 -99v-189z" />
    <glyph glyph-name="egrave" unicode="&#xe8;" horiz-adv-x="813" 
d="M358 1501q0 -46 -1 -138.5t-1 -139.5q0 -35 39 -35q59 0 246 14q24 0 39 -15.5t21 -46.5t7 -51.5t1 -55.5v-9q0 -83 -8 -102q-13 -30 -54 -31q-41 0 -122 -5t-122 -5q-19 0 -30.5 -12.5t-15 -37t-3.5 -45.5t2 -55t2 -49q6 -69 1 -161.5t5 -173.5t42 -81q47 0 140.5 20.5
t135.5 20.5q36 0 49.5 -11t13.5 -48q0 -33 9.5 -97.5t9.5 -97.5q0 -22 -18 -36.5t-51.5 -20t-58 -7t-61.5 -1.5q-9 0 -28.5 4t-28.5 4q-23 0 -66.5 -7t-64.5 -7q-13 0 -37 3t-37 3q-25 0 -75 -3t-74 -3q-31 0 -51.5 87t-27.5 224t-9 207.5t-2 130.5q0 27 -1 82t-1 82
q0 17 2 52t2 54q0 42 -5 134t-5 141q0 16 1 50t1 50q0 40 -1 119t-1 118q0 85 6 245t6 239q0 48 10 64q26 42 177 52q55 3 130 3q50 0 140.5 -14t119.5 -17q24 -3 39 -17.5t20 -42.5t6 -49t-1 -59t-2 -51q0 -62 -47 -62q-210 15 -260 15q-27 0 -39.5 -49.5t-11 -109.5
t1.5 -109.5t-3 -49.5zM332 2232q-6 -2 -17 -2q-51 0 -194 209q-10 14 -48.5 61t-62.5 83t-24 57q0 44 272 63q11 0 25 -12.5t28 -34t29 -49t29 -58t27 -61t23.5 -57.5t18.5 -48.5t12 -33.5l5 -12q14 -37 14 -58q0 -47 -137 -47z" />
    <glyph glyph-name="eacute" unicode="&#xe9;" horiz-adv-x="813" 
d="M358 1501q3 0 3 49.5t-1.5 109.5t11 109.5t39.5 49.5q50 0 260 -15q47 0 47 62q0 13 2 51t1 59t-6 49t-20 42.5t-39 17.5q-29 3 -119.5 17t-140.5 14q-67 0 -117.5 -3t-84.5 -7t-56.5 -13t-34 -16t-17 -21.5t-6.5 -23.5t-1 -28v-7q0 -79 -6 -239t-6 -245q0 -39 1 -118
t1 -119q0 -16 -1 -50t-1 -50q0 -49 5 -141t5 -134q0 -19 -2 -54t-2 -52q0 -27 1 -82t1 -82q0 -60 2 -130.5t9 -207.5t27.5 -224t51.5 -87q24 0 74 3t75 3q13 0 37 -3t37 -3q21 0 64.5 7t66.5 7q9 0 28.5 -4t28.5 -4q37 0 61.5 1.5t58 7t51.5 20t18 36.5q0 33 -9.5 97.5
t-9.5 97.5q0 37 -13.5 48t-49.5 11q-42 0 -135.5 -20.5t-140.5 -20.5q-32 0 -42 81t-5 173.5t-1 161.5q0 15 -2 49t-2 55t3.5 45.5t15 37t30.5 12.5q41 0 122 5t122 5q18 0 30 6t18.5 13.5t9.5 26t3.5 31.5t0.5 42v14v9q0 35 -1 55.5t-7 51.5t-21 46.5t-39 15.5
q-187 -14 -246 -14q-39 0 -39 35q0 47 1 139.5t1 138.5zM403 2232q-137 0 -137 47q0 18 15 58l7 19q7 20 19.5 52.5t28 71.5t34 78.5t37 71.5t37 52.5t33.5 20.5q-7 0 1 -1h7q265 -17 265 -62q0 -21 -24.5 -57t-63 -82.5t-48.5 -61.5q-3 -5 -16.5 -23.5t-20.5 -28.5
t-21.5 -29.5t-24.5 -31.5t-24 -29t-25 -27t-23 -20.5t-22 -15t-19 -4.5t-15 2z" />
    <glyph glyph-name="ecircumflex" unicode="&#xea;" horiz-adv-x="813" 
d="M358 1501q3 0 3 49.5t-1.5 109.5t11 109.5t39.5 49.5q50 0 260 -15q47 0 47 62q0 13 2 51t1 59t-6 49t-20 42.5t-39 17.5q-29 3 -119.5 17t-140.5 14q-67 0 -117.5 -3t-84.5 -7t-56.5 -13t-34 -16t-17 -21.5t-6.5 -23.5t-1 -28v-7q0 -79 -6 -239t-6 -245q0 -39 1 -118
t1 -119q0 -16 -1 -50t-1 -50q0 -49 5 -141t5 -134q0 -19 -2 -54t-2 -52q0 -27 1 -82t1 -82q0 -60 2 -130.5t9 -207.5t27.5 -224t51.5 -87q24 0 74 3t75 3q13 0 37 -3t37 -3q21 0 64.5 7t66.5 7q9 0 28.5 -4t28.5 -4q37 0 61.5 1.5t58 7t51.5 20t18 36.5q0 33 -9.5 97.5
t-9.5 97.5q0 37 -13.5 48t-49.5 11q-42 0 -135.5 -20.5t-140.5 -20.5q-32 0 -42 81t-5 173.5t-1 161.5q0 15 -2 49t-2 55t3.5 45.5t15 37t30.5 12.5q41 0 122 5t122 5q18 0 30 6t18.5 13.5t9.5 26t3.5 31.5t0.5 42v14v9q0 35 -1 55.5t-7 51.5t-21 46.5t-39 15.5
q-187 -14 -246 -14q-39 0 -39 35q0 47 1 139.5t1 138.5zM545 2255h-37q-30 0 -67 35.5t-69 70.5t-50 35q-13 0 -36.5 -25.5t-46.5 -56.5t-53 -56.5t-55 -25.5q-6 0 -28 -0.5t-35 0t-34.5 1t-35 3.5t-27.5 7t-21 11t-7 17q0 34 36.5 99t79.5 116q10 12 68.5 103.5t112.5 153
t92 61.5q33 0 93.5 -54t106.5 -108.5t91 -114.5q2 -3 47 -52t72.5 -90t27.5 -69q0 -11 -8.5 -20t-25 -15t-33 -10t-42 -7t-41.5 -5t-41.5 -3.5t-33.5 -2.5v2z" />
    <glyph glyph-name="edieresis" unicode="&#xeb;" horiz-adv-x="813" 
d="M358 1501q0 -46 -1 -138.5t-1 -139.5q0 -35 39 -35q59 0 246 14q24 0 39 -15.5t21 -46.5t7 -51.5t1 -55.5v-9q0 -83 -8 -102q-13 -30 -54 -31q-41 0 -122 -5t-122 -5q-19 0 -30.5 -12.5t-15 -37t-3.5 -45.5t2 -55t2 -49q6 -69 1 -161.5t5 -173.5t42 -81q47 0 140.5 20.5
t135.5 20.5q36 0 49.5 -11t13.5 -48q0 -33 9.5 -97.5t9.5 -97.5q0 -22 -18 -36.5t-51.5 -20t-58 -7t-61.5 -1.5q-9 0 -28.5 4t-28.5 4q-23 0 -66.5 -7t-64.5 -7q-13 0 -37 3t-37 3q-25 0 -75 -3t-74 -3q-31 0 -51.5 87t-27.5 224t-9 207.5t-2 130.5q0 27 -1 82t-1 82
q0 17 2 52t2 54q0 42 -5 134t-5 141q0 16 1 50t1 50q0 40 -1 119t-1 118q0 85 6 245t6 239q0 48 10 64q26 42 177 52q55 3 130 3q50 0 140.5 -14t119.5 -17q24 -3 39 -17.5t20 -42.5t6 -49t-1 -59t-2 -51q0 -62 -47 -62q-210 15 -260 15q-27 0 -39.5 -49.5t-11 -109.5
t1.5 -109.5t-3 -49.5zM444 2394v66q0 43 162 43q58 0 58 -52q-2 -10 -2 -28q0 -27 9 -83t9 -83q-1 -11 -6 -17.5t-15.5 -9t-16.5 -3t-21 0t-17 0.5q-13 1 -36.5 1.5t-41 1.5t-35.5 4t-28 11.5t-10 22.5q-6 59 -9 125zM334 2376q-2 -15 -3 -33.5t-1.5 -27.5t-3 -21
t-8.5 -17.5t-16.5 -11.5t-28.5 -8.5t-42.5 -4t-60.5 -1.5q-25 0 -39.5 9t-20.5 38.5t-7 51.5t-1 81v37q0 37 45 37q18 -1 51 -2t42.5 -1.5t30.5 -3t25.5 -5t15.5 -10t12 -15t5.5 -22t4.5 -30v-40.5z" />
    <glyph glyph-name="igrave" unicode="&#xec;" horiz-adv-x="434" 
d="M68 354q0 32 1 96t1 95q0 23 -2 71.5t-2 73.5q0 20 2 62.5t2 64.5q-2 20 -2 62q0 22 1 68.5t1 70.5v35q0 39 1 115t1 114q0 64 -1 194t-1 195q0 19 -1 56.5t-1 62.5t1 59t6 56t13 43.5t23 32t36 10.5q28 0 83.5 10t80.5 10q22 0 35.5 -18.5t18 -56t5.5 -67t-1 -79
t-2 -64.5q0 -32 -4.5 -94t-4.5 -94q2 -18 2 -53q0 -23 -2 -68t-2 -67v-37q0 -25 -1 -74t-1 -74q0 -87 2 -273t2 -282q0 -63 -5 -189t-5 -185q0 -42 12.5 -123t12.5 -119q0 -35 -51 -35q-5 0 -36.5 -0.5t-45.5 0t-43.5 1.5t-45 4.5t-35 8.5t-29 13.5t-11.5 19.5
q-1 12 -3 33.5t-3 32.5q0 47 1 141t1 141h-4zM168 2140q-6 -2 -16 -2q-52 0 -195 209q-10 14 -48.5 61t-62.5 83t-24 57q0 44 272 63q11 0 25 -12.5t28 -34t29 -49t29 -58t27 -61t23.5 -57.5t18.5 -48.5t12 -33.5l5 -12q14 -37 14 -58q0 -47 -137 -47z" />
    <glyph glyph-name="iacute" unicode="&#xed;" horiz-adv-x="434" 
d="M68 354h4q0 -47 -1 -141t-1 -141q1 -11 3 -32.5t3 -33.5q2 -11 11.5 -19.5t29 -13.5t35 -8.5t45 -4.5t43.5 -1.5t45.5 0t36.5 0.5q51 0 51 35q0 38 -12.5 119t-12.5 123q0 59 5 185t5 189q0 96 -2 282t-2 273q0 25 1 74t1 74v37q0 22 2 67t2 68q0 35 -2 53q0 32 4.5 94
t4.5 94q0 16 1 46t1.5 53t0 53t-4 51.5t-9.5 41t-17.5 30t-27.5 10.5q-25 0 -80.5 -10t-83.5 -10q-21 0 -36 -10.5t-23 -32t-13 -43.5t-6 -56t-1 -59t1 -62.5t1 -56.5q0 -65 1 -195t1 -194q0 -38 -1 -114t-1 -115v-35q0 -24 -1 -70.5t-1 -68.5q0 -42 2 -62q0 -22 -2 -64.5
t-2 -62.5q0 -25 2 -73.5t2 -71.5q0 -31 -1 -95t-1 -96zM262 2140q-137 0 -137 47q0 21 14 58l7 19q7 20 19.5 52.5t28.5 71.5t34.5 78.5t37 71.5t37 52.5t33.5 20.5q-7 0 1 -1h7q264 -17 264 -62q0 -21 -24 -57t-62.5 -83t-48.5 -61q-1 -2 -16.5 -23.5t-21 -29t-21.5 -29
t-25 -32t-23.5 -28.5t-25 -27.5t-23 -20t-22.5 -15t-19 -4.5q-8 0 -14 2z" />
    <glyph glyph-name="icircumflex" unicode="&#xee;" horiz-adv-x="434" 
d="M68 354h4q0 -47 -1 -141t-1 -141q1 -11 3 -32.5t3 -33.5q2 -11 11.5 -19.5t29 -13.5t35 -8.5t45 -4.5t43.5 -1.5t45.5 0t36.5 0.5q51 0 51 35q0 38 -12.5 119t-12.5 123q0 59 5 185t5 189q0 96 -2 282t-2 273q0 25 1 74t1 74v37q0 22 2 67t2 68q0 35 -2 53q0 32 4.5 94
t4.5 94q0 16 1 46t1.5 53t0 53t-4 51.5t-9.5 41t-17.5 30t-27.5 10.5q-25 0 -80.5 -10t-83.5 -10q-21 0 -36 -10.5t-23 -32t-13 -43.5t-6 -56t-1 -59t1 -62.5t1 -56.5q0 -65 1 -195t1 -194q0 -38 -1 -114t-1 -115v-35q0 -24 -1 -70.5t-1 -68.5q0 -42 2 -62q0 -22 -2 -64.5
t-2 -62.5q0 -25 2 -73.5t2 -71.5q0 -31 -1 -95t-1 -96zM416 2114h-37q-24 0 -52.5 22t-50 48.5t-45 48.5t-38.5 22q-13 0 -36.5 -25.5t-46.5 -56.5t-53 -56.5t-55 -25.5q-6 0 -28 -0.5t-35 0t-34.5 1t-35 3.5t-27.5 7t-21 11t-7 17q0 34 36.5 99t79.5 116q10 12 68.5 103
t112.5 152.5t92 61.5q25 0 65 -29t83.5 -76.5t77.5 -88t65 -82.5q2 -3 47 -52t72.5 -90t27.5 -69q0 -11 -8 -20t-25 -15t-33 -10.5t-42.5 -7.5t-41.5 -4.5t-41.5 -3.5t-33.5 -3v3z" />
    <glyph glyph-name="idieresis" unicode="&#xef;" horiz-adv-x="434" 
d="M68 354q0 32 1 96t1 95q0 23 -2 71.5t-2 73.5q0 20 2 62.5t2 64.5q-2 20 -2 62q0 22 1 68.5t1 70.5v35q0 39 1 115t1 114q0 64 -1 194t-1 195q0 19 -1 56.5t-1 62.5t1 59t6 56t13 43.5t23 32t36 10.5q28 0 83.5 10t80.5 10q22 0 35.5 -18.5t18 -56t5.5 -67t-1 -79
t-2 -64.5q0 -32 -4.5 -94t-4.5 -94q2 -18 2 -53q0 -23 -2 -68t-2 -67v-37q0 -25 -1 -74t-1 -74q0 -87 2 -273t2 -282q0 -63 -5 -189t-5 -185q0 -42 12.5 -123t12.5 -119q0 -35 -51 -35q-5 0 -36.5 -0.5t-45.5 0t-43.5 1.5t-45 4.5t-35 8.5t-29 13.5t-11.5 19.5
q-1 12 -3 33.5t-3 32.5q0 47 1 141t1 141h-4zM270 2308v66q0 43 162 43q57 0 57 -52q-2 -10 -2 -28q0 -27 9.5 -83t9.5 -83q-1 -11 -6 -17.5t-15.5 -9t-16.5 -3t-21 0t-17 0.5q-13 1 -36.5 1.5t-41 1.5t-35.5 4t-28 11.5t-10 22.5q-6 59 -9 125zM160 2290q-2 -15 -3 -33.5
t-1.5 -27.5t-3 -21t-8.5 -17.5t-16.5 -11.5t-28.5 -8.5t-42.5 -4t-60.5 -1.5q-25 0 -39.5 9t-20.5 38.5t-7 51.5t-1 81v37q0 37 45 37q18 -1 51 -2t42.5 -1.5t30.5 -3t25.5 -5t15.5 -10t12 -15t5.5 -22t4.5 -30v-40.5z" />
    <glyph glyph-name="eth" unicode="&#xf0;" horiz-adv-x="1075" 
d="M1016 1509h-4q-4 -65 -9.5 -194t-9.5 -193v-24q0 -14 1 -43t1 -45q0 -93 -10 -285.5t-10 -292.5q0 -5 1 -16.5t1 -16.5q0 -77 -16.5 -151t-51.5 -105l-16 -18q-37 -44 -87 -69.5t-88.5 -32.5t-110 -15t-111.5 -16q-20 -4 -62 -4q-14 0 -40 2t-40 2h-39q-33 0 -47.5 0.5
t-48 2t-51 6.5t-39.5 13t-33 22.5t-12 33.5q-17 237 -23 503v13q6 37 9 78.5t4 99.5t2 82q0 15 -2 24t-8 12.5t-9 4t-12 0.5q-3 0 -16.5 1t-30.5 1q-19 6 -24 26t-5 64l6 88q0 13 1 37t1 35v10q0 39 33 39h58l30 49q0 77 6.5 205t6.5 205q0 19 -1 58t-1 60v33v42t0.5 44
t1.5 48t2.5 45t4.5 42.5t7 33t9.5 25.5t12.5 11q161 47 381 47q75 0 141 -10.5t130 -38t109.5 -70t73.5 -111.5t28 -159q0 -13 1 -27t2.5 -31.5t2.5 -27.5v-152zM352 1350v-113q5 -19 11 -28.5t10 -11t12 -1.5q14 0 39 -4t37 -4q5 0 17 1t18 1q26 0 37.5 -11.5t11.5 -43.5
q0 -21 -2 -46t-6 -55t-5 -45q0 -9 1.5 -26.5t1.5 -26.5q0 -44 -33 -47l-129 -6q-17 -1 -26 -19.5t-9 -34.5v-167q0 -30 -1 -93t-1 -94v-20q0 -37 0.5 -53.5t5 -40.5t14 -34t27.5 -21.5t45.5 -15t67.5 -3.5q169 0 186 157l16 154q18 165 27.5 477t13.5 381q0 12 2 36t2 36v14
l-6 139q-3 79 -44.5 125.5t-129.5 46.5q-10 -1 -46.5 -1.5t-58.5 -2.5t-50 -7t-42 -18t-14 -32q-6 -63 -6 -186q0 -4 6 -256z" />
    <glyph glyph-name="ntilde" unicode="&#xf1;" horiz-adv-x="1144" 
d="M760 1061q8 18 8 53q-27 501 -27 887q6 33 50 33q17 0 45.5 0.5t46.5 0.5h43t41 -2t35.5 -5.5t31.5 -10t22.5 -15t15.5 -21.5t5 -29v-33q0 -19 1 -58t1 -59q0 -199 -16 -589t-16 -586q0 -17 1 -51t1 -52q0 -64 -5.5 -194t-5.5 -195q0 -14 3 -43.5t3 -46.5q-1 -12 -11 -20
t-28.5 -11t-31 -3.5t-33.5 -0.5q-13 0 -43.5 7.5t-46.5 7.5q-29 0 -117 -9q-12 0 -24.5 18.5t-24.5 52.5t-23.5 74t-23 90.5t-20.5 94.5t-18 94t-14.5 80.5t-10.5 63.5l-5 32q-26 130 -65 392q0 4 -2 8q-14 47 -44.5 217.5t-70.5 251.5q-12 -2 -12 -23q4 -141 4 -422
q0 -4 -1 -11t-1 -11q0 -8 1 -23.5t1 -23.5q-6 -119 -6 -359q0 -96 8 -278.5t8 -272.5q0 -28 -12 -47t-29 -28t-46 -13t-50 -3.5t-55.5 2t-49.5 1.5q-28 0 -44.5 18t-20.5 46.5t-5.5 63.5t0.5 70t-1 65q-6 66 -6 264q0 28 2 86t2 86q0 14 -1 39t-1 39q0 45 3 136.5t3 137.5
v285q0 47 1 142t1 146v56q0 23 3 70.5t3 72.5q0 29 -6 89.5t-6 90.5q2 19 17.5 31t44.5 16.5t48 5.5t53 1h9q19 0 54 -4.5t52 -4.5q16 0 45 3.5t43 3.5q28 0 65.5 -80.5t74 -207t65.5 -241t54 -223.5t26 -113q13 -58 35 -102zM997 2466q-38 -320 -311 -320q-40 0 -67.5 9.5
t-48.5 35.5t-31.5 45.5t-30.5 65.5q-5 12 -8 18q-18 41 -39 41q-29 0 -41 -26.5t-12 -48.5q0 -10 2 -32t2 -30q-1 -12 -9 -21t-22 -14t-28 -8t-35 -4t-35 -1t-35 0.5t-29 0.5q-31 0 -43 15.5t-12 48.5q3 52 12.5 100t31 97.5t53 86t82 59.5t114.5 23q75 0 112.5 -36
t77.5 -136q7 -17 24 -28t36 -11q28 0 39 20.5t10.5 49t-1.5 57.5t10 49.5t38 20.5q18 -1 51.5 -1t47 -1t35 -7.5t31 -19.5t18 -37t11.5 -61z" />
    <glyph glyph-name="ograve" unicode="&#xf2;" horiz-adv-x="1128" 
d="M1065 1042v-102q0 -20 0.5 -89t0 -101t-1.5 -99t-3.5 -105t-7 -95.5t-12.5 -94.5t-18 -78.5t-25 -70.5t-33 -49q-138 -150 -453 -150q-91 0 -162 22.5t-119 67t-81 101t-51 133.5t-25.5 156t-7.5 176q0 22 5 65t5 64q0 38 -5 120.5t-5 126.5q0 37 3 110.5t3 109.5
q0 26 -2 77t-2 76q0 235 9 326q30 289 184 376q38 22 85 33q83 19 215 19q65 0 117 -5.5t110 -23.5t99.5 -48.5t74.5 -84.5t46 -127q57 -410 57 -836zM375 561q0 -264 153 -264q58 0 99 12.5t66.5 37t40.5 60t21 81t7.5 101.5t0.5 121t1 138q0 4 -1 10.5t-1 9.5q8 207 8 623
q0 23 -3 68t-3 67q0 9 2 30.5t2 31.5q0 51 -6 90.5t-22.5 78t-51.5 59.5t-86 21q-52 0 -87.5 -13t-58 -44.5t-35 -71t-17.5 -104.5t-6 -132.5t0 -168.5q1 -92 1 -143q0 -26 6.5 -77t6.5 -77q0 -61 -17.5 -182t-17.5 -174q0 -17 2 -48.5t2 -46.5t-3 -47t-3 -47zM481 2279
q-6 -2 -16 -2q-52 0 -195 209q-10 14 -48.5 61t-62.5 83t-24 57q0 44 273 63q11 0 25 -12.5t28 -34t29 -49t28.5 -58t26.5 -61t23.5 -57.5t18.5 -48.5t13 -33.5l4 -12q14 -37 14 -57q0 -48 -137 -48z" />
    <glyph glyph-name="oacute" unicode="&#xf3;" horiz-adv-x="1128" 
d="M1065 1042q0 426 -57 836q-13 73 -46 127t-74.5 84.5t-99.5 48.5t-110 23.5t-117 5.5q-132 0 -215 -19q-58 -13 -103.5 -46t-74.5 -69.5t-49 -100t-30 -109t-15 -126.5t-5.5 -121.5t-0.5 -123.5v-13.5v-12v-13.5q0 -25 2 -76t2 -77q0 -36 -3 -109.5t-3 -110.5
q0 -44 5 -126.5t5 -120.5q0 -21 -5 -64t-5 -65q0 -97 7.5 -176t25.5 -156t51 -133.5t81 -101t119 -67t162 -22.5q315 0 453 150q18 20 33 49t25 70.5t18 78.5t12.5 94.5t7 95.5t3.5 105t1.5 99t0 101t-0.5 89v102zM375 561q0 15 3 47t3 47t-2 46.5t-2 48.5q0 53 17.5 174
t17.5 182q0 26 -6.5 77t-6.5 77q0 51 -1 143t0 167t6 134.5t17.5 103t35 72.5t58 43t87.5 14q51 0 86 -21t51.5 -59.5t22.5 -78t6 -90.5q0 -10 -2 -31.5t-2 -30.5q0 -22 3 -67t3 -68q0 -416 -8 -623q0 -3 1 -9.5t1 -10.5q-2 -73 -1 -138t-0.5 -121t-7.5 -101.5t-21 -81
t-40.5 -60t-66.5 -37t-99 -12.5q-153 0 -153 264zM584 2286q-138 0 -138 47q0 17 15 57l7 20q7 19 19.5 52t28 72t34 78t37 71.5t37 53t33.5 20.5q2 -1 9 -1q264 -18 264 -63q0 -21 -24 -57t-62.5 -83t-48.5 -61q-3 -4 -10 -14q-27 -38 -44.5 -61.5t-47 -59.5t-54 -54.5
t-41.5 -18.5q-8 0 -14 2z" />
    <glyph glyph-name="ocircumflex" unicode="&#xf4;" horiz-adv-x="1128" 
d="M1065 1042q0 426 -57 836q-13 73 -46 127t-74.5 84.5t-99.5 48.5t-110 23.5t-117 5.5q-132 0 -215 -19q-58 -13 -103.5 -46t-74.5 -69.5t-49 -100t-30 -109t-15 -126.5t-5.5 -121.5t-0.5 -123.5v-13.5v-12v-13.5q0 -25 2 -76t2 -77q0 -36 -3 -109.5t-3 -110.5
q0 -44 5 -126.5t5 -120.5q0 -21 -5 -64t-5 -65q0 -97 7.5 -176t25.5 -156t51 -133.5t81 -101t119 -67t162 -22.5q315 0 453 150q18 20 33 49t25 70.5t18 78.5t12.5 94.5t7 95.5t3.5 105t1.5 99t0 101t-0.5 89v102zM375 561q0 15 3 47t3 47t-2 46.5t-2 48.5q0 53 17.5 174
t17.5 182q0 26 -6.5 77t-6.5 77q0 51 -1 143t0 167t6 134.5t17.5 103t35 72.5t58 43t87.5 14q51 0 86 -21t51.5 -59.5t22.5 -78t6 -90.5q0 -10 -2 -31.5t-2 -30.5q0 -22 3 -67t3 -68q0 -416 -8 -623q0 -3 1 -9.5t1 -10.5q-2 -73 -1 -138t-0.5 -121t-7.5 -101.5t-21 -81
t-40.5 -60t-66.5 -37t-99 -12.5q-153 0 -153 264zM754 2331h-37q-24 0 -52.5 22t-50.5 48.5t-45.5 48.5t-38.5 22q-13 0 -36.5 -25.5t-46 -56.5t-52.5 -56.5t-55 -25.5q-6 0 -28 -0.5t-35 0t-34.5 1t-35 3.5t-27.5 7t-21 11t-7 17q0 34 36.5 99t79.5 116q10 12 68.5 103
t112.5 152.5t92 61.5q33 0 93.5 -54t106 -108t90.5 -114q3 -3 47.5 -52t72.5 -90t28 -69q0 -11 -8.5 -20t-25 -15t-33 -10t-42 -7t-41.5 -5t-41.5 -3.5t-33.5 -2.5v2z" />
    <glyph glyph-name="otilde" unicode="&#xf5;" horiz-adv-x="1128" 
d="M1065 1042v-102q0 -20 0.5 -89t0 -101t-1.5 -99t-3.5 -105t-7 -95.5t-12.5 -94.5t-18 -78.5t-25 -70.5t-33 -49q-138 -150 -453 -150q-91 0 -162 22.5t-119 67t-81 101t-51 133.5t-25.5 156t-7.5 176q0 22 5 65t5 64q0 38 -5 120.5t-5 126.5q0 37 3 110.5t3 109.5
q0 26 -2 77t-2 76q0 235 9 326q30 289 184 376q38 22 85 33q83 19 215 19q65 0 117 -5.5t110 -23.5t99.5 -48.5t74.5 -84.5t46 -127q57 -410 57 -836zM375 561q0 -264 153 -264q58 0 99 12.5t66.5 37t40.5 60t21 81t7.5 101.5t0.5 121t1 138q0 4 -1 10.5t-1 9.5q8 207 8 623
q0 23 -3 68t-3 67q0 9 2 30.5t2 31.5q0 51 -6 90.5t-22.5 78t-51.5 59.5t-86 21q-52 0 -87.5 -13t-58 -44.5t-35 -71t-17.5 -104.5t-6 -132.5t0 -168.5q1 -92 1 -143q0 -26 6.5 -77t6.5 -77q0 -61 -17.5 -182t-17.5 -174q0 -17 2 -48.5t2 -46.5t-3 -47t-3 -47zM1012 2636
q-38 -320 -312 -320q-40 0 -67.5 9.5t-48.5 35.5t-31.5 45.5t-30.5 65.5q-5 12 -8 18q-18 41 -39 41q-29 0 -41 -26.5t-12 -48.5q0 -10 2 -32t2 -30q-1 -12 -9 -21t-22 -14t-28 -8t-35 -4t-35 -1t-35 0.5t-29 0.5q-31 0 -43 15.5t-12 47.5q3 52 12.5 100t31 98t53 86.5
t82 59.5t114.5 23q75 0 113 -36t78 -136q8 -17 24 -28t35 -11q28 0 39 20.5t10.5 49t-1.5 57.5t10 49.5t38 20.5q17 -1 40 -1h36.5t31 -2t28 -6.5t22 -13t18 -22t12 -34t7.5 -48.5z" />
    <glyph glyph-name="odieresis" unicode="&#xf6;" horiz-adv-x="1128" 
d="M1065 1042v-102q0 -20 0.5 -89t0 -101t-1.5 -99t-3.5 -105t-7 -95.5t-12.5 -94.5t-18 -78.5t-25 -70.5t-33 -49q-138 -150 -453 -150q-91 0 -162 22.5t-119 67t-81 101t-51 133.5t-25.5 156t-7.5 176q0 22 5 65t5 64q0 38 -5 120.5t-5 126.5q0 37 3 110.5t3 109.5
q0 26 -2 77t-2 76q0 235 9 326q30 289 184 376q38 22 85 33q83 19 215 19q65 0 117 -5.5t110 -23.5t99.5 -48.5t74.5 -84.5t46 -127q57 -410 57 -836zM375 561q0 -264 153 -264q58 0 99 12.5t66.5 37t40.5 60t21 81t7.5 101.5t0.5 121t1 138q0 4 -1 10.5t-1 9.5q8 207 8 623
q0 23 -3 68t-3 67q0 9 2 30.5t2 31.5q0 51 -6 90.5t-22.5 78t-51.5 59.5t-86 21q-52 0 -87.5 -13t-58 -44.5t-35 -71t-17.5 -104.5t-6 -132.5t0 -168.5q1 -92 1 -143q0 -26 6.5 -77t6.5 -77q0 -61 -17.5 -182t-17.5 -174q0 -17 2 -48.5t2 -46.5t-3 -47t-3 -47zM625 2478v66
q0 43 161 43q58 0 58 -52q-2 -10 -2 -28q0 -27 9 -83t9 -83q-1 -11 -6 -17.5t-15.5 -9t-16.5 -3t-21 0t-17 0.5q-13 1 -36.5 1.5t-41 1.5t-35.5 4t-28 11.5t-10 22.5q-4 39 -8 125zM514 2460q-2 -15 -3 -33.5t-1.5 -27.5t-3 -21t-8.5 -17.5t-16.5 -11.5t-28.5 -8.5t-42.5 -4
t-60.5 -1.5q-25 0 -39.5 8.5t-20.5 38t-6.5 50.5t-0.5 79v41q0 37 45 37q18 -1 50 -2q39 -1 54.5 -2t35.5 -6t25.5 -11t12.5 -22t7.5 -34.5t0.5 -51.5z" />
    <glyph glyph-name="divide" unicode="&#xf7;" horiz-adv-x="815" 
d="M25 1012q0 18 -2.5 55t-2.5 55q1 10 8.5 17.5t23 12t30 7t38.5 3.5t37.5 1.5t38.5 0t31 -0.5q37 0 112 -2t112 -2q30 0 88 2t86 2h21.5h24.5t23.5 -0.5t24.5 -2.5t22 -4.5t20.5 -7.5t15.5 -12t11.5 -16.5t4.5 -21.5q0 -9 0.5 -33t0.5 -38t-1.5 -38t-4 -39t-8.5 -33.5
t-14 -29t-21 -18.5t-30 -9q-153 -10 -185 -10q-26 0 -77 5t-78 5h-80q-17 0 -45 -0.5t-43.5 -0.5t-39 0.5t-36 2.5t-30.5 5t-27.5 8t-21 13t-16.5 18.5t-9 24.5t-4 32q0 8 1 24.5t1 24.5zM522 1372q0 -30 -4 -46t-13 -29t-34 -18t-57 -7t-92 -2q-25 2 -35.5 15t-10.5 44
q0 12 -1 35.5t-1 38t1.5 35t5.5 32.5t11 24.5t20 18t30 5.5q41 0 64 -2t46.5 -10t35.5 -23.5t21 -42.5t13 -68zM428 547q-10 0 -30 -2t-27 -2q-15 0 -26 4.5t-18 17.5t-10.5 23.5t-5 35t-2 38.5t-0.5 47q0 15 6.5 26t17.5 17.5t25.5 10.5t30.5 5t33.5 2t33.5 0h17
q76 0 76 -164q0 -21 -8.5 -33.5t-27.5 -17.5t-36.5 -6.5t-48.5 -1.5z" />
    <glyph glyph-name="oslash" unicode="&#xf8;" horiz-adv-x="1120" 
d="M791 2083h-3v-8q56 -14 97.5 -46t67.5 -82t42.5 -102t25.5 -125t13 -129t8.5 -137.5t8.5 -128.5q0 -8 1 -23t1 -22l8 -176v-184v-41q0 -20 0.5 -89.5t0 -101t-1.5 -98.5t-3.5 -105t-7 -96t-12.5 -95t-18 -78.5t-25 -70.5t-33 -49q-137 -147 -420 -147l-13 -66
q-7 -35 -36 -47t-91 -12q-28 0 -38.5 11.5t-10.5 37.5l6 37q0 9 1 26t1 25q-57 15 -102 43t-75 67t-51 81t-33.5 95.5t-18.5 99.5t-10 104l-4 57q-5 78 -5 94q0 22 5.5 65t5.5 64q0 38 -5.5 121t-5.5 127q0 37 3.5 110t3.5 109q0 26 -2.5 77t-2.5 77q0 236 10 330
q32 290 189 375q37 20 80 30q91 18 195 18h57v4q3 7 8.5 19t7.5 15.5t7.5 11t10.5 8.5t15 4t23 3.5t32 0.5q50 0 69.5 -9.5t23.5 -41.5v-37zM377 594l-6 -94q0 -101 22 -166q0 -2 1 -4.5t1 -3.5q4 71 25.5 224t25.5 234q1 19 3.5 71t5.5 81l67 594q8 57 20 163t15 132l6 49
q-24 -3 -43 -7.5t-34 -13.5t-26.5 -16.5t-20 -23.5t-14.5 -25.5t-9.5 -32.5t-5.5 -36t-3 -43t-1 -46v-53q0 -63 -5.5 -189t-5.5 -190q0 -26 6.5 -77t6.5 -77q0 -61 -17.5 -182t-17.5 -174q0 -17 2 -48t2 -46zM684 281q25 13 41.5 37.5t24 50.5t10.5 63.5t2 64.5t-2.5 66.5
t-1.5 57.5q0 110 2 165q0 4 -1 11t-1 10q4 98 4 147l4 349v127q0 22 -3 66t-3 67l-17 -162l-38 -275q-9 -68 -19.5 -188.5t-23 -222t-31.5 -189.5q-5 -37 -20.5 -125.5t-20.5 -136.5l-4 -20q47 11 98 37zM764 1589v13l-2 -17q2 2 2 4z" />
    <glyph glyph-name="ugrave" unicode="&#xf9;" horiz-adv-x="1067" 
d="M377 1649q0 -108 -12.5 -307.5t-12.5 -290.5q0 -8 1 -25t1 -25q0 -19 -1 -55t-1 -55q0 -40 2 -121.5t2 -122.5q0 -40 -1 -85t-2.5 -100t-2.5 -85q0 -38 37.5 -72t85 -51.5t86.5 -17.5q38 0 66 12t45.5 36.5t28 50t15 64.5t6 67t1.5 71q0 25 -4 77t-4 78q0 18 2 55t2 56
q0 26 -1 78t-1 77q0 83 2 251.5t2 250.5q0 98 -10.5 292t-10.5 290q0 47 62 47q12 0 41.5 1t47 0.5t44 -2t43 -6.5t33.5 -13t26 -22.5t11 -33.5q0 -410 -31 -870q0 -35 2 -102.5t2 -102.5q0 -28 -1 -83t-1 -83q0 -18 1 -55t1 -55q0 -263 -16 -376q-37 -250 -181 -323
q-60 -30 -141 -33q-62 -4 -94 -4q-104 0 -190.5 31t-153 92t-103.5 161t-37 230q0 26 3.5 77t3.5 77q-2 23 -2 72q0 161 13 484t13 484q0 59 -4 174t-4 170q1 23 16.5 37t44.5 18t53.5 4.5t64 -1.5t54.5 -2q17 -2 29.5 -15t19 -35t10 -46t4 -55.5t0 -56t-1.5 -54t-1 -43.5
q0 -26 -4 -80h2zM483 2224q-6 -2 -16 -2q-52 0 -195 209q-10 14 -48.5 61t-62.5 83t-24 57q0 44 273 63q11 0 25 -12.5t28 -34t29 -49t28.5 -58t26.5 -61t23.5 -57.5t18.5 -48.5t13 -33.5l4 -12q15 -40 15 -58q0 -47 -138 -47z" />
    <glyph glyph-name="uacute" unicode="&#xfa;" horiz-adv-x="1067" 
d="M377 1649h-2q4 54 4 80q0 14 1 43.5t1.5 54t0 56t-4 55.5t-10 46t-19 35t-29.5 15q-15 0 -54.5 2t-64 1.5t-53.5 -4.5t-44.5 -18t-16.5 -37q0 -55 4 -170t4 -174q0 -161 -13 -484t-13 -484q0 -49 2 -72q0 -26 -3.5 -77t-3.5 -77q0 -130 37 -230t103.5 -161t153 -92
t190.5 -31q32 0 94 4q70 2 125 27.5t90 59t59.5 97t37 112.5t18.5 137.5t7 139t1 147.5v6.5v5.5q0 18 -1 55t-1 55q0 28 1 83t1 83q0 35 -2 102.5t-2 102.5q31 460 31 870q-2 19 -11 33.5t-26 22.5t-33.5 13t-43 6.5t-44 2t-47 -0.5t-41.5 -1q-62 0 -62 -47q0 -96 10.5 -290
t10.5 -292q0 -82 -2 -250.5t-2 -251.5q0 -25 1 -77t1 -78q0 -19 -2 -56t-2 -55q0 -26 4 -78t4 -77q0 -43 -1.5 -71t-6 -67t-15 -64.5t-28 -50t-45.5 -36.5t-66 -12q-39 0 -86.5 17.5t-85 51.5t-37.5 72q1 30 2.5 85t2.5 100t1 85q0 41 -2 122.5t-2 121.5q0 19 1 55t1 55
q0 8 -1 25t-1 25q0 91 12.5 290.5t12.5 307.5zM555 2202q-137 0 -137 47q0 20 14 57l7 20q7 19 19.5 52t28.5 72t34.5 78t37 71.5t37 53t33.5 20.5q2 -1 9 -1q263 -18 263 -63q0 -21 -24 -57t-62.5 -83t-48.5 -61q-3 -4 -10 -14q-27 -38 -44.5 -61.5t-47 -59.5t-54 -54.5
t-41.5 -18.5q-8 0 -14 2z" />
    <glyph glyph-name="ucircumflex" unicode="&#xfb;" horiz-adv-x="1067" 
d="M377 1649h-2q4 54 4 80q0 14 1 43.5t1.5 54t0 56t-4 55.5t-10 46t-19 35t-29.5 15q-15 0 -54.5 2t-64 1.5t-53.5 -4.5t-44.5 -18t-16.5 -37q0 -55 4 -170t4 -174q0 -161 -13 -484t-13 -484q0 -49 2 -72q0 -26 -3.5 -77t-3.5 -77q0 -130 37 -230t103.5 -161t153 -92
t190.5 -31q32 0 94 4q70 2 125 27.5t90 59t59.5 97t37 112.5t18.5 137.5t7 139t1 147.5v6.5v5.5q0 18 -1 55t-1 55q0 28 1 83t1 83q0 35 -2 102.5t-2 102.5q31 460 31 870q-2 19 -11 33.5t-26 22.5t-33.5 13t-43 6.5t-44 2t-47 -0.5t-41.5 -1q-62 0 -62 -47q0 -96 10.5 -290
t10.5 -292q0 -82 -2 -250.5t-2 -251.5q0 -25 1 -77t1 -78q0 -19 -2 -56t-2 -55q0 -26 4 -78t4 -77q0 -43 -1.5 -71t-6 -67t-15 -64.5t-28 -50t-45.5 -36.5t-66 -12q-39 0 -86.5 17.5t-85 51.5t-37.5 72q1 30 2.5 85t2.5 100t1 85q0 41 -2 122.5t-2 121.5q0 19 1 55t1 55
q0 8 -1 25t-1 25q0 91 12.5 290.5t12.5 307.5zM731 2230h-37q-24 0 -52.5 22t-50 49t-45 49t-38.5 22q-13 0 -36.5 -25.5t-46.5 -56.5t-53 -56.5t-55 -25.5q-6 0 -28 -0.5t-35 0t-34.5 1t-35 3.5t-27.5 7t-21 11t-7 17q0 34 37 99t80 116q10 13 68.5 103.5t112 152
t91.5 61.5q25 0 65 -29t83.5 -76.5t77.5 -88t65 -82.5q2 -3 47 -52t72.5 -90t27.5 -69q0 -11 -8 -20t-25 -15t-33 -10.5t-42.5 -7.5t-41.5 -4.5t-41.5 -3.5t-33.5 -3v2z" />
    <glyph glyph-name="udieresis" unicode="&#xfc;" horiz-adv-x="1067" 
d="M377 1649q0 -108 -12.5 -307.5t-12.5 -290.5q0 -8 1 -25t1 -25q0 -19 -1 -55t-1 -55q0 -40 2 -121.5t2 -122.5q0 -40 -1 -85t-2.5 -100t-2.5 -85q0 -38 37.5 -72t85 -51.5t86.5 -17.5q38 0 66 12t45.5 36.5t28 50t15 64.5t6 67t1.5 71q0 25 -4 77t-4 78q0 18 2 55t2 56
q0 26 -1 78t-1 77q0 83 2 251.5t2 250.5q0 98 -10.5 292t-10.5 290q0 47 62 47q12 0 41.5 1t47 0.5t44 -2t43 -6.5t33.5 -13t26 -22.5t11 -33.5q0 -410 -31 -870q0 -35 2 -102.5t2 -102.5q0 -28 -1 -83t-1 -83q0 -18 1 -55t1 -55q0 -263 -16 -376q-37 -250 -181 -323
q-60 -30 -141 -33q-62 -4 -94 -4q-104 0 -190.5 31t-153 92t-103.5 161t-37 230q0 26 3.5 77t3.5 77q-2 23 -2 72q0 161 13 484t13 484q0 59 -4 174t-4 170q1 23 16.5 37t44.5 18t53.5 4.5t64 -1.5t54.5 -2q17 -2 29.5 -15t19 -35t10 -46t4 -55.5t0 -56t-1.5 -54t-1 -43.5
q0 -26 -4 -80h2zM569 2386v65q0 43 162 43q27 0 42 -10t15 -41q-2 -10 -2 -28q0 -27 9.5 -83t9.5 -83q-1 -11 -6 -17.5t-15.5 -9t-16.5 -3t-21 0t-17 0.5q-13 1 -36.5 1.5t-41 1.5t-35.5 4t-28 11.5t-10 22.5q-6 60 -9 125zM459 2367q-2 -16 -3 -37.5t-2 -30.5t-5.5 -21.5
t-13.5 -17t-27.5 -9.5t-45 -6.5t-67.5 -1.5q-25 0 -39.5 9t-20.5 38.5t-7 51.5t-1 81v37q0 37 45 37q18 -1 48 -2q39 -1 55 -2t36.5 -6t26 -11.5t13 -22t8 -34.5t0.5 -52z" />
    <glyph glyph-name="yacute" unicode="&#xfd;" horiz-adv-x="1073" 
d="M1018 1671h2q-2 46 -3 164.5t-7 179.5q0 20 -9.5 34.5t-28 22.5t-38 13t-47.5 6.5t-48 1.5t-49 -1t-40 -1q-23 0 -36.5 -13.5t-13.5 -35.5q0 -119 16.5 -366t16.5 -394q-7 -60 -31.5 -92.5t-76.5 -32.5q-39 0 -71 3.5t-55.5 8.5t-41.5 15.5t-30 19t-20 25.5t-12.5 29
t-6.5 35t-2.5 38t-0.5 43q0 72 5 221.5t5 223.5v116v58q0 21 -1.5 35t-8.5 23.5t-11.5 14t-21.5 7t-26 2.5h-37h-19q-24 0 -70 8t-73 8q-18 0 -27.5 -11.5t-11 -25t-2.5 -36t-2 -31.5q-35 -219 -47 -467q-4 -237 18 -373q12 -74 40.5 -124t62.5 -71t72.5 -34.5t70 -17.5
t54 -16.5t26.5 -35.5q0 -135 13.5 -407t13.5 -406v-23q0 -31 11 -42t38 -11t79 6t78 6h29q20 0 34 13t22 39.5t12.5 54.5t5.5 69.5t0.5 73t-1.5 77t-1 69.5q0 15 -1 44t-1 44q0 35 2 104.5t2 104.5q0 9 -1 27.5t-1 27.5q0 10 -1.5 38t-1 43.5t4 35.5t14.5 31t29 14
q58 10 102 27.5t72.5 41.5t48.5 54.5t29.5 65.5t14.5 75t5 82.5v87.5v47q-2 51 -7 154.5t-7 154.5zM571 2241q-137 0 -137 47q0 17 15 57l7 19q7 20 19.5 53t28 72t34 78t37 71.5t37 53t33.5 20.5q2 -1 9 -1q264 -18 264 -63q0 -21 -24.5 -57t-63 -82.5t-48.5 -61.5
q-3 -5 -16.5 -23.5t-20.5 -28.5t-21.5 -29.5t-24.5 -31.5t-24 -29t-25 -27t-23 -20.5t-22 -15t-19 -4.5q-6 0 -15 3z" />
    <glyph glyph-name="thorn" unicode="&#xfe;" horiz-adv-x="1007" 
d="M352 174q0 -10 -1 -30.5t-1 -30.5q0 -13 1 -39t1 -37q-2 -25 -16 -36t-47 -11q-11 0 -39.5 -0.5t-43.5 -0.5t-40 1.5t-39.5 7t-29.5 13.5t-22 22t-7 33q0 51 2 153t2 152v137q0 84 8 258t8 256q-16 192 -16 512q0 16 -0.5 58.5t0 70.5t0.5 73.5t2 77.5t5 71t8 65.5
t12 50.5t17 35.5t23 11.5q18 2 58 2h11q30 0 45.5 -0.5t40.5 -4t38 -10.5t23 -21t10 -34q0 -3 -0.5 -54t0 -75t3.5 -62.5t10 -56.5t19 -18q41 0 128 17.5t128 17.5q50 0 86 -5.5t67.5 -23t52.5 -40t39 -66.5t29.5 -91t22 -125t17 -158t14.5 -200q4 -31 4 -92
q0 -80 -1.5 -124t-8 -101.5t-20.5 -88.5t-38 -68.5t-61.5 -59t-91 -41.5t-125.5 -35q-55 -12 -109 -12q-22 0 -67 5t-68 5q-11 0 -19 -7.5t-13 -22.5t-8 -29.5t-4 -35.5t-1.5 -32.5t0.5 -30.5v-18q0 -13 1 -38.5t1 -39.5zM713 940q-2 33 -4 84t-3 90t-4.5 87.5t-9 84.5
t-16.5 72.5t-26.5 59.5t-39.5 37.5t-55 14.5q-133 0 -156.5 -38t-21.5 -238q2 -250 -8 -449q0 -35 17.5 -42t84.5 -7q125 0 183.5 52.5t58.5 191.5z" />
    <glyph glyph-name="ydieresis" unicode="&#xff;" horiz-adv-x="1073" 
d="M1018 1671q2 -51 7 -154.5t7 -154.5q0 -167 -4 -206q-14 -144 -97 -209q-63 -48 -171 -66q-18 -3 -29 -14t-14.5 -31t-4 -35.5t1 -43.5t1.5 -38q0 -9 1 -27.5t1 -27.5q0 -35 -2 -104.5t-2 -104.5q0 -15 1 -44t1 -44q0 -24 1 -69.5t1.5 -77t-0.5 -73t-5.5 -69.5
t-12.5 -54.5t-22 -39.5t-34 -13h-29q-26 0 -78 -6t-79 -6t-38 11t-11 42v23q0 134 -13.5 406t-13.5 407q-4 23 -26.5 35.5t-54 16.5t-70 17.5t-72.5 34.5t-62.5 71t-40.5 124q-22 136 -18 373q12 248 47 467q1 9 2 31.5t2.5 36t11 25t27.5 11.5q27 0 73 -8t70 -8h19h37
t26 -2.5t21.5 -7t11.5 -14t8.5 -23.5t1.5 -35v-58v-116q0 -74 -5 -223.5t-5 -221.5q0 -28 0.5 -43t2.5 -38t6.5 -35t12.5 -29t20 -25.5t30 -19t41.5 -15.5t55.5 -8.5t71 -3.5q52 0 76.5 32.5t31.5 92.5q0 147 -16.5 394t-16.5 366q0 22 13.5 35.5t36.5 13.5q11 0 40 1t49 1
t48 -1.5t47.5 -6.5t38 -13t28 -22.5t9.5 -34.5q6 -61 7 -179.5t3 -164.5h-2zM612 2423v65q0 43 162 43q27 0 42 -10t15 -41q-2 -10 -2 -29q0 -27 9.5 -82t9.5 -83q-1 -11 -6 -17.5t-15.5 -9t-16.5 -3t-21 0t-17 0.5q-13 1 -36.5 1.5t-41 1.5t-35.5 4t-28 11.5t-10 22.5
q-6 60 -9 125zM502 2404q-2 -15 -3 -33.5t-1.5 -27.5t-3 -21t-8.5 -17.5t-16.5 -11.5t-28.5 -8.5t-42.5 -4t-60.5 -1.5q-25 0 -39.5 9t-20.5 39t-7 52t-1 81v12.5v11.5v13q0 36 45 36q18 -1 51 -2t42.5 -1.5t30.5 -3t25.5 -5t15.5 -10t12 -15t5.5 -22t4.5 -30v-40.5z" />
    <glyph glyph-name="dotlessi" unicode="&#x131;" horiz-adv-x="434" 
d="M68 354q0 32 1 96t1 95q0 23 -2 71.5t-2 73.5q0 20 2 62.5t2 64.5q-2 20 -2 62q0 22 1 68.5t1 70.5v35q0 39 1 115t1 114q0 64 -1 194t-1 195q0 19 -1 56.5t-1 62.5t1 59t6 56t13 43.5t23 32t36 10.5q28 0 83.5 10t80.5 10q22 0 35.5 -18.5t18 -56t5.5 -67t-1 -79
t-2 -64.5q0 -32 -4.5 -94t-4.5 -94q2 -18 2 -53q0 -23 -2 -68t-2 -67v-37q0 -25 -1 -74t-1 -74q0 -87 2 -273t2 -282q0 -63 -5 -189t-5 -185q0 -42 12.5 -123t12.5 -119q0 -35 -51 -35q-5 0 -36.5 -0.5t-45.5 0t-43.5 1.5t-45 4.5t-35 8.5t-29 13.5t-11.5 19.5
q-1 12 -3 33.5t-3 32.5q0 47 1 141t1 141h-4z" />
    <glyph glyph-name="Lslash" unicode="&#x141;" horiz-adv-x="778" 
d="M346 1815l6 -93q0 -20 -3 -61t-3 -62q0 -46 6 -139t6 -139v-20q0 -31 0.5 -46t4.5 -35t14.5 -25t28.5 1q28 9 80 24t59 17q14 1 24.5 2t18 -8t12.5 -17t7.5 -23.5t4 -28.5t1.5 -32t-0.5 -33.5t-0.5 -33v-31.5q0 -62 -215 -125q-41 -23 -41 -69q0 -100 15.5 -300
t15.5 -298q3 -27 39 -27q50 0 140.5 10.5t125.5 12.5q24 0 40.5 -32.5t23 -80t8.5 -75t2 -42.5q0 -24 -35.5 -40.5t-87.5 -23.5t-88.5 -9.5t-60.5 -2.5h-23q-345 -1 -354 52q-35 190 -35 370v43q0 10 -1 31t-1 31q0 16 2 49.5t2 50.5q0 19 -3 56t-3 55q0 22 2 68t2 69
q-10 16 -23 17.5t-22 -3.5q-52 -16 -87.5 -18.5t-54.5 35.5t-22 129q-1 63 11 79.5t71 30.5q16 4 31 6t32 3.5t27 2.5q23 2 23 50q0 29 1 90t1 90q0 18 -1 55.5t-1 57.5t1 56.5t1 55.5v154q0 136 -7 225q0 22 0.5 30.5t4 24.5t11.5 22.5t23.5 12.5t38.5 6h7h45t37 -1.5
t32.5 -4t25 -7.5t21 -12t15 -18t12 -25.5t6.5 -34t5 -43t1 -54.5q0 -2 -2 -2z" />
    <glyph glyph-name="lslash" unicode="&#x142;" horiz-adv-x="722" 
d="M-127 965q-1 63 11 79.5t71 30.5q19 6 63 10q35 4 41.5 12.5t6.5 41.5q0 69 11 204t11 203q0 20 1 81.5t1 97t-4.5 80.5t-13.5 71q-6 18 -6 39q0 98 57 98q17 0 59 2t72 2.5t63.5 -2.5t51.5 -13.5t18 -29.5q2 -46 9 -157.5t7 -169.5q0 -23 -1 -67t-1 -65q0 -19 1 -60
t1 -62q0 -77 -6 -154q-2 -24 6.5 -33t26.5 -2q31 14 115 35q14 1 24.5 2t18 -8t12.5 -17t7.5 -23.5t4 -28.5t1.5 -32t-0.5 -33.5t-0.5 -33v-31.5q0 -50 -196 -112q-24 -7 -32.5 -17.5t-6.5 -28.5q1 -15 3.5 -36t2.5 -29q0 -17 -4 -48t-4 -46q0 -62 3 -135.5t8 -164.5t7 -145
q0 -37 10 -49t39 -12q33 0 98.5 2t98.5 2q16 0 27.5 -8.5t18 -26.5t11 -35t5.5 -45.5t1.5 -45t0 -47.5t-0.5 -40q-5 -34 -14.5 -46.5t-36.5 -12.5q-17 0 -51 4t-51 4q-8 -2 -25 -2q-27 0 -77.5 7t-75.5 7q-10 0 -32 -1t-34 -1q-39 8 -96 7q-25 0 -35 1.5t-24.5 9t-19 28
t-12 53.5t-11.5 90t-9 133t-11 186q-4 80 -7 125q0 38 -6 119.5t-6 126.5q0 28 -37 16q-51 -16 -85 -17.5t-52 36t-21 127.5z" />
    <glyph glyph-name="OE" unicode="&#x152;" horiz-adv-x="1452" 
d="M1182 1784h-111q-22 0 -32 -12t-11.5 -28.5t-1.5 -57.5q0 -14 3 -43t3 -44q0 -39 -9 -119.5t-9 -119.5q0 -37 33 -37q21 0 65.5 4t67.5 4h24q30 0 44.5 -0.5t37 -3t33.5 -10t23 -20.5t17 -34.5t5 -50.5v-122q0 -18 -11 -31.5t-32.5 -22t-44.5 -14t-56.5 -8t-58 -4
t-59.5 -2.5t-51 -2q-31 -3 -39 -11v-49q-4 -33 -4 -96q0 -12 1.5 -49.5t0.5 -57.5l6 -120q3 -59 14 -168.5t12 -169.5q2 -14 12 -24t26 -15.5t33 -9t39 -4t37.5 -0.5t35 0.5t24.5 0.5q84 0 101 -5q40 -11 51 -64q6 -30 6 -82q0 -28 -1 -42t-4.5 -32.5t-12 -27t-23.5 -9.5
q-13 0 -34 3t-32 3q-27 0 -82.5 -7t-84.5 -7q-23 0 -33 2q-39 0 -116 -8t-116 -8q-45 0 -65 2l-23 4q-114 -41 -276 -41q-68 -3 -144 23l-43 14q-33 9 -60.5 28.5t-48 49.5t-36 59t-26 72.5t-17.5 74t-12.5 80t-7.5 73t-5 69.5l-16 211q-2 33 -15.5 108t-13.5 119
q0 61 5.5 186t5.5 187q0 87 -7 213v33q0 61 0.5 92.5t3.5 88.5t10 88.5t20.5 79t33 74.5t49.5 59t69.5 49t93 28.5t118.5 11.5h8q8 0 24.5 2t24.5 2l103 4q4 0 13.5 1t14.5 1q52 0 139 -31q1 -2 3 -2q109 23 178 23q25 0 76 -5t77 -5q20 0 62.5 1t64.5 1h37h17
q29 0 42.5 -15.5t14.5 -52.5l6 -160q0 -22 -6.5 -36.5t-15 -21.5t-24.5 -10t-27 -3t-32 1t-30 1q-3 0 -49 4zM725 520l-8 279h2l-19 448q-1 16 -1 47t-1 47l-12 230q-3 39 -6 64.5t-12 64t-21 61.5t-34.5 40.5t-51.5 17.5q-71 0 -124 -26.5t-56 -68.5v-41q0 -49 -7 -144
t-7 -142v-83v-90t1 -83.5t3 -91t6 -82t10 -84.5v-13q0 -18 -7 -53t-7 -55q0 -36 1 -106.5t1 -106.5l6 -170q5 -59 38.5 -97t92.5 -38q114 0 163.5 56t49.5 175v45z" />
    <glyph glyph-name="oe" unicode="&#x153;" horiz-adv-x="1521" 
d="M1083 1501h-6q0 -35 -1 -106t-1 -107v-65q0 -35 39 -35q59 0 246 14q16 0 28.5 -7t19.5 -22.5t11 -28.5t6 -37t2 -35.5v-35.5v-12q0 -83 -7 -102q-13 -30 -54 -31q-41 0 -122 -5t-122 -5q-23 0 -33.5 -6.5t-11.5 -24.5v-168q6 -69 0.5 -161.5t4.5 -173.5t42 -81q9 0 15 2
l170 27q10 1 29 4.5t34 5.5t29 2q36 0 49.5 -11t13.5 -48q0 -33 9.5 -97.5t9.5 -97.5q0 -29 -16 -40t-48 -11l-94 -12q-5 0 -15.5 -1t-15.5 -1q-9 0 -28.5 4t-28.5 4q-23 0 -66.5 -7t-64.5 -7q-12 0 -37 3t-37 3q-24 0 -74 -3t-75 -3q-28 0 -37 15.5t-17 65.5l-47 -18
q-58 -24 -119 -30.5t-151 -6.5q-116 0 -200 37t-133.5 107t-74 158t-30.5 202l-4 57q-4 62 -4 95q0 22 5 65t5 64q0 38 -5 120.5t-5 126.5q0 37 3 110.5t3 109.5q0 26 -2 77t-2 76q0 235 9 326q30 289 184 376q38 22 85 33q83 19 215 19q218 0 322 -72l41 6q95 15 190 15
q25 -1 115 -11l145 -20q24 -2 39 -16.5t20 -42.5t6 -49t-1 -59.5t-2 -51.5q0 -62 -47 -62q-210 15 -261 15q-18 0 -29 -11.5t-14.5 -36t-4 -43t1 -52t1.5 -44.5v-131zM381 655l-6 -94q0 -264 153 -264q58 0 99 12.5t66.5 37t40.5 60t21 81t7.5 101.5t0.5 121t1 138
q0 4 -1 10.5t-1 9.5q4 98 4 148l4 348v127q0 23 -3 68t-3 67q0 9 2 30.5t2 31.5q0 51 -6 90.5t-22.5 78t-51.5 59.5t-86 21q-52 0 -87.5 -13t-58 -44.5t-35 -71t-17.5 -104.5t-6 -132.5t0 -168.5q1 -92 1 -143q0 -26 6.5 -77t6.5 -77q0 -61 -17.5 -182t-17.5 -174
q-1 -17 2 -48.5t2 -46.5z" />
    <glyph glyph-name="Scaron" unicode="&#x160;" horiz-adv-x="1105" 
d="M735 473v92q0 105 -24 153t-93 48h-24q-33 0 -99 8t-100 8h-20q-42 0 -77.5 12t-61 31.5t-47.5 49.5t-36.5 59.5t-28 69t-21.5 70.5t-18 71q-5 20 -7 29q-25 74 -25 278q0 31 6.5 95.5t6.5 99.5v16q0 77 24 138t65 101t99.5 66.5t123.5 37.5t140 11h74h31q71 0 128.5 -11
t109.5 -39t87 -72t55.5 -113.5t20.5 -159.5v-12q0 -26 4 -82t4 -82q0 -39 -18 -55.5t-74 -16.5q-10 0 -30.5 1t-30.5 1q-17 0 -52 -2t-53 -2q-39 0 -39 39q0 22 8.5 68t8.5 67q0 85 -55.5 135t-157.5 50q-66 0 -107.5 -72.5t-50 -163.5t-14 -174.5t1.5 -104.5v-6
q0 -36 14 -62t33 -39.5t50 -21.5t54 -10.5t57 -4.5q13 -1 19 -1q19 0 49 5t33 5q75 0 131.5 -16t91 -40.5t59.5 -66t37.5 -79.5t24.5 -95q20 -102 20 -180q0 -14 -1 -44t-1 -44q0 -25 3.5 -74.5t3.5 -74.5q0 -79 -7.5 -139t-31.5 -122t-64.5 -105.5t-110 -78.5t-165.5 -53
q-20 -4 -31 -4q-73 0 -139 10.5t-132.5 38.5t-116 71.5t-83.5 113.5t-41 161q-12 126 -12 195q1 19 14.5 31.5t38.5 19t47 10t55 6t47 4.5q18 0 29.5 -2t23.5 -9t17.5 -22.5t5.5 -39.5q0 -10 -3 -31t-3 -31q0 -92 49.5 -158.5t126.5 -66.5q41 0 70 6.5t49 24.5t31.5 39
t17.5 59.5t8 77t2 100.5h-4zM780 2718v2q6 -1 33 -3t42 -3.5t41.5 -4.5t42.5 -7.5t33.5 -11t25.5 -16t8 -20.5q0 -28 -28 -69t-72.5 -88.5t-47.5 -51.5q-31 -42 -65 -82.5t-77.5 -88t-83.5 -76.5t-65 -29q-38 0 -91.5 61.5t-112 152t-68.5 103.5q-43 51 -80 116t-37 99
q0 10 7 17t21 11t27.5 7t35.5 3.5t35 1t35 0t28 -0.5q25 0 55 -26t52.5 -57t46 -57t36.5 -26q15 0 38.5 22.5t45 49.5t50 49.5t52.5 22.5h37z" />
    <glyph glyph-name="scaron" unicode="&#x161;" horiz-adv-x="1048" 
d="M694 625q0 8 0.5 39t0 43t-2.5 40t-7 41.5t-13.5 36t-22.5 35t-33 26.5t-46.5 22t-61.5 12q-246 34 -345.5 126.5t-99.5 292.5q0 10 2.5 32t2.5 32v29q1 32 2.5 90.5t2 98.5t5 97.5t12 98t22.5 87t35.5 78.5t53 59t73.5 40q234 76 379 76q61 0 116.5 -27.5t95.5 -73
t69.5 -102.5t44 -117t14.5 -115q0 -15 1.5 -59.5t0.5 -67.5q-4 -27 -6.5 -39.5t-10 -24.5t-20 -16t-34.5 -4q-26 0 -76.5 -13t-73.5 -13q-41 0 -41 61q0 4 1 13.5t1 13.5q0 63 -8.5 110.5t-29.5 89t-61 63.5t-99 22q-51 0 -88.5 -17t-60 -46t-36 -74.5t-18 -94t-4.5 -113.5
q0 -131 37 -198t141 -92q16 -1 47 -2q49 -2 73.5 -3.5t67 -8t64.5 -17t55.5 -31t51.5 -49.5t40 -72.5t33.5 -100t21 -133t11.5 -169.5q0 -489 -168 -561q-93 -41 -169.5 -57.5t-168.5 -16.5q-15 0 -43 4t-43 4h-8q-54 0 -99.5 24.5t-76.5 62t-55.5 88.5t-38.5 97.5t-24 96
t-13.5 76t-4.5 45.5q-1 9 -4.5 40t-3.5 48q0 26 34 43.5t85 24.5t84.5 9.5t58.5 2.5q20 -2 35 -23t23.5 -54.5t14 -65t10.5 -68.5t8 -51q8 -43 51.5 -76t105.5 -33q36 0 61.5 17.5t38 41t20 61.5t8.5 63t1 61v84h2zM743 2820v2q8 -1 33.5 -2.5t41.5 -3.5t42 -5t42.5 -7.5
t33 -10.5t25 -15.5t8.5 -20.5q0 -28 -28 -69t-72.5 -88.5t-47.5 -51.5q-45 -60 -91 -114.5t-106.5 -108.5t-93.5 -54q-38 0 -91.5 61.5t-112 152.5t-68.5 104q-43 51 -80 116t-37 99q0 10 7 17t21 11t27.5 7t35.5 3.5t35 1t35 0t28 -0.5q25 0 55 -26t52.5 -57t46 -57
t36.5 -26q15 0 38.5 22.5t45.5 49t50.5 49t52.5 22.5h36z" />
    <glyph glyph-name="Ydieresis" unicode="&#x178;" horiz-adv-x="1083" 
d="M1038 1341v-139q0 -93 -10.5 -186t-35.5 -192t-75 -170t-120 -91q-10 -3 -39.5 -9t-45.5 -11t-31 -17.5t-15 -31.5q0 -91 9 -272t9 -267q0 -66 -25.5 -82t-113.5 -16h-22h-24.5t-23 1t-23.5 3t-19.5 6.5t-17.5 10.5t-10.5 16t-5.5 22q-18 257 -16 350v131q0 54 -2 72.5
t-18.5 31.5t-38 16t-75.5 27t-116 64q-16 10 -29 25.5t-22 37.5t-16 42.5t-11 50.5t-6.5 50.5t-3 54.5t-1 51.5t0 51.5t0.5 44q0 26 3 81t3 81q0 12 -1 35t-1 36q0 28 3 84.5t3 81.5q0 5 -1 15.5t-1 15.5q0 45 8.5 128.5t10.5 115.5q0 45 -2 135t-2 135q0 37 9.5 53.5
t37.5 16.5q37 0 109 1t108 1q28 0 37.5 -12t9.5 -40q-8 -59 -8 -178v-41q0 -107 -9.5 -297t-9.5 -284q4 -74 4 -109q0 -23 -2 -70.5t-2 -72.5q0 -41 19 -69.5t51 -42.5t64 -19.5t69 -5.5q88 0 121 41t33 126t-3.5 254.5t-3.5 253.5q0 29 3 56q0 83 -14.5 251t-14.5 246
q0 14 9 23.5t26 14t36.5 7t45 2.5t47 -1t47 -2t39.5 -1q20 0 36.5 -34t27 -90t17 -109t12.5 -109.5t9 -74.5q6 -36 8.5 -79t2.5 -71t-0.5 -81t-0.5 -73zM598 2355v66q0 43 162 43q27 0 42 -10t15 -41q-2 -10 -2 -29q0 -28 9.5 -83t9.5 -83q-1 -11 -6 -17.5t-15.5 -9
t-16.5 -3t-21 0t-17 0.5q-13 1 -36.5 1.5t-41.5 1.5t-36 4t-28 11.5t-10 22.5q-4 39 -8 125zM487 2337q-2 -16 -3 -37.5t-1.5 -30.5t-5.5 -22t-14 -17.5t-27 -9.5t-44.5 -6.5t-67.5 -1.5q-25 0 -39.5 9t-20.5 38.5t-7 51.5t-1 81v37q0 37 45 37q18 -1 50 -2q39 -1 54.5 -2
t35.5 -6t25.5 -11t12.5 -22t7.5 -34.5t0.5 -51.5z" />
    <glyph glyph-name="Zcaron" unicode="&#x17d;" horiz-adv-x="940" 
d="M729 -49q-19 -1 -71.5 -5.5t-79.5 -4.5h-19q-20 -1 -69.5 -5t-73.5 -4h-97q-27 0 -79 -4t-78 -4q-58 0 -75 68t-17 227q0 31 13 70.5t42 105.5t35 80q298 740 383 1198q2 12 2 37q0 29 -49 29q-60 -2 -188.5 -19.5t-196.5 -17.5q-26 0 -35.5 14t-9.5 45q0 5 -0.5 38.5
t0 47.5t2 45t6 47.5t11.5 36.5t18.5 30.5t27.5 12.5q22 3 77.5 12t95 14t77.5 7q76 0 201 -10t159 -12q36 -5 58 -20t30.5 -41.5t11.5 -52.5t6.5 -66t10.5 -68q6 -21 6 -43q0 -95 -102 -336q-19 -45 -42 -127.5t-36 -118.5q-46 -124 -148 -434.5t-165 -468.5q-2 -4 -2 -12
q0 -23 28 -23q31 0 98 10.5t103 10.5q130 0 165 -5q117 -17 118 -92q0 -20 3.5 -68.5t2.5 -74.5q-1 -31 -24 -41t-77 -10q-9 0 -28.5 1t-28.5 1zM727 2773v2q7 -1 33 -2.5t42 -3.5t41.5 -5t42 -7.5t33 -10.5t25 -15.5t8.5 -20.5q0 -28 -28 -69t-72 -88.5t-47 -51.5
q-45 -60 -91 -114.5t-106.5 -108.5t-93.5 -54q-38 0 -91.5 61.5t-112 152.5t-68.5 104q-43 51 -80 116t-37 99q0 10 7 17t21 11t27.5 7t35 3.5t34.5 1t35 0t28 -0.5q25 0 55 -26t53 -57t46.5 -57t36.5 -26q15 0 38.5 22.5t45 49t50 49t52.5 22.5h37z" />
    </font>
</defs>
</svg>
